<svg xmlns="http://www.w3.org/2000/svg" xmlns:xlink="http://www.w3.org/1999/xlink" width="92.10977" height="86.24682" viewBox="0 0 92.10977 86.24682">
  <defs>
    <style>
      .cls-1 {
        isolation: isolate;
      }

      .cls-2 {
        fill: url(#radial-gradient);
      }

      .cls-3, .cls-4, .cls-5 {
        mix-blend-mode: overlay;
      }

      .cls-3 {
        fill: url(#radial-gradient-2);
      }

      .cls-4 {
        opacity: 0.4;
        fill: url(#radial-gradient-3);
      }

      .cls-5 {
        opacity: 0.2;
        fill: url(#Degradado_sin_nombre_34);
      }

      .cls-6 {
        fill: url(#radial-gradient-4);
      }

      .cls-7 {
        fill: url(#radial-gradient-5);
      }

      .cls-8 {
        fill: #9cf;
      }
    </style>
    <radialGradient id="radial-gradient" cx="57.66926" cy="13.77726" r="70.25717" gradientTransform="translate(115.33853 23.84138) rotate(180) scale(1 0.73049)" gradientUnits="userSpaceOnUse">
      <stop offset="0" stop-color="#fff"/>
      <stop offset="0.198" stop-color="#d5f3ff"/>
      <stop offset="1" stop-color="#85bcf1"/>
    </radialGradient>
    <radialGradient id="radial-gradient-2" cx="1255.09453" cy="-1578.66878" r="8.47627" gradientTransform="matrix(-0.8392, 1.1536, -1.6186, -1.3126, -1448.78813, -3502.16622)" gradientUnits="userSpaceOnUse">
      <stop offset="0" stop-color="#fff"/>
      <stop offset="0.10256" stop-color="#fff" stop-opacity="0.84849"/>
      <stop offset="0.29029" stop-color="#fff" stop-opacity="0.59415"/>
      <stop offset="0.4694" stop-color="#fff" stop-opacity="0.38204"/>
      <stop offset="0.63471" stop-color="#fff" stop-opacity="0.21674"/>
      <stop offset="0.78337" stop-color="#fff" stop-opacity="0.09804"/>
      <stop offset="0.91014" stop-color="#fff" stop-opacity="0.02577"/>
      <stop offset="1" stop-color="#fff" stop-opacity="0"/>
    </radialGradient>
    <radialGradient id="radial-gradient-3" cx="1254.84028" cy="-1594.32642" r="6.66155" xlink:href="#radial-gradient-2"/>
    <radialGradient id="Degradado_sin_nombre_34" data-name="Degradado sin nombre 34" cx="10.93454" cy="51.52679" r="4.87115" gradientTransform="matrix(0.90102, -0.43378, 1.26276, 2.62292, -63.98389, -78.88052)" xlink:href="#radial-gradient-2"/>
    <radialGradient id="radial-gradient-4" cx="98.94678" cy="89.74782" r="62.65461" gradientTransform="translate(-9.6828 50.36346) scale(0.27021 0.25393)" gradientUnits="userSpaceOnUse">
      <stop offset="0" stop-color="#28cbe9"/>
      <stop offset="1" stop-color="#0a4fbb"/>
    </radialGradient>
    <radialGradient id="radial-gradient-5" cx="182.99283" cy="89.92462" r="62.65461" xlink:href="#radial-gradient-4"/>
  </defs>
  <g class="cls-1">
    <g id="Слой_2" data-name="Слой 2">
      <g id="OBJECTS">
        <g>
          <path class="cls-2" d="M72.9951,25.1465a27.00444,27.00444,0,0,0-53.8809,0,20.124,20.124,0,0,0,1.0093,40.2226H71.9858a20.124,20.124,0,0,0,1.0093-40.2226Z"/>
          <path class="cls-3" d="M46.0566,27.6504c-7.5752-6.1465-10.5347-15.5039-6.6074-20.9023,3.9297-5.4024,13.2563-4.795,20.8354,1.3457,7.5733,6.1464,10.5293,15.5078,6.6035,20.9043C62.9575,34.4004,53.6308,33.793,46.0566,27.6504Z"/>
          <path class="cls-4" d="M73.1376,45.8164c-5.9531-4.832-8.2793-12.1855-5.1933-16.4297,3.0889-4.2441,10.4189-3.7656,16.375,1.0606,5.9521,4.8281,8.2744,12.1855,5.1904,16.4258C86.4194,51.1191,79.0893,50.6426,73.1376,45.8164Z"/>
          <path class="cls-5" d="M14.3876,46.4902c-4.393-6.8535-9.496-10.1523-11.4072-7.373-1.9043,2.7773.1099,10.5898,4.5,17.4453,4.396,6.8535,9.5015,10.1543,11.4072,7.3731C20.7934,61.1504,18.7807,53.3457,14.3876,46.4902Z"/>
        </g>
        <path class="cls-6" d="M19.615,80.34179l-1.81572-.98495.56179-.30451a.84762.84762,0,0,0,.34174-1.19625.96594.96594,0,0,0-1.273-.32086l-1.49433.80987-1.379-.74789a2.81456,2.81456,0,0,0,0-1.44618l1.379-.7484,1.49382.81038a.971.971,0,0,0,.46468.11805.9444.9444,0,0,0,.808-.43843A.84784.84784,0,0,0,18.361,74.6964l-.5623-.305,1.81623-.98495a.84791.84791,0,0,0,.3412-1.19622.96384.96384,0,0,0-1.27293-.32038l-1.816.98495.00078-.60952a.90531.90531,0,0,0-.932-.87587h0a.90506.90506,0,0,0-.932.87536l-.00054,1.62076-1.38033.74888a3.34,3.34,0,0,0-1.33124-.72458V72.41454l1.49406-.81089a.84669.84669,0,0,0,.34066-1.19573.96478.96478,0,0,0-1.27293-.32089l-.56179.305v-1.9699a.93371.93371,0,0,0-1.86377,0V70.392l-.5623-.305a.965.965,0,0,0-1.273.32089.84743.84743,0,0,0,.34093,1.19573l1.49433.81089v1.49527a3.33765,3.33765,0,0,0-1.3315.72509l-1.38034-.74939V72.26475a.93371.93371,0,0,0-1.86377,0v.61l-1.81545-.98495a.96408.96408,0,0,0-1.27295.32038.84724.84724,0,0,0,.34095,1.19622l1.81545.98495-.56257.30451A.84838.84838,0,0,0,4.017,75.89262a.9448.9448,0,0,0,.80825.43792A.97051.97051,0,0,0,5.29,76.213l1.49434-.81038,1.37979.7484a2.8071,2.8071,0,0,0,0,1.44618l-1.37979.74789-1.49356-.81038a.96455.96455,0,0,0-1.27292.32038.84675.84675,0,0,0,.34092,1.19625l.56233.305-1.816.98546A.847.847,0,0,0,2.76412,81.538a.94283.94283,0,0,0,.80773.438.97138.97138,0,0,0,.46522-.11754l1.81467-.985v.6095a.9338.9338,0,0,0,1.864,0l.00054-1.62076,1.38034-.74936a3.33865,3.33865,0,0,0,1.331.72506v1.4958l-1.49382.81038a.84683.84683,0,0,0-.34093,1.19623.9641.9641,0,0,0,1.273.32038l.5623-.305v1.97042a.93368.93368,0,0,0,1.86377,0V83.35618l.56152.305a.97122.97122,0,0,0,.46522.11755.94279.94279,0,0,0,.80746-.43793.8474.8474,0,0,0-.34014-1.19624l-1.49433-.81087V79.8379a3.32981,3.32981,0,0,0,1.33151-.72458l1.38033.7484V81.483a.93368.93368,0,0,0,1.86377,0v-.61l1.816.98546a.9708.9708,0,0,0,.46468.11754.94488.94488,0,0,0,.80825-.438A.8477.8477,0,0,0,19.615,80.34179Zm-8.25482-2.12663a1.34364,1.34364,0,1,1,1.42705-1.341A1.38736,1.38736,0,0,1,11.36014,78.21516Z"/>
        <path class="cls-7" d="M42.325,80.38669l-1.81572-.985.56179-.30451a.84762.84762,0,0,0,.34173-1.19624.96592.96592,0,0,0-1.273-.32087L38.64546,78.39l-1.379-.74789a2.8146,2.8146,0,0,0,0-1.44619l1.379-.7484,1.49383.81039a.971.971,0,0,0,.46467.118.9444.9444,0,0,0,.808-.43843.84785.84785,0,0,0-.34092-1.19623l-.56231-.305,1.81624-.985a.8479.8479,0,0,0,.34119-1.19622.96384.96384,0,0,0-1.27292-.32038l-1.816.985.00079-.60953a.90531.90531,0,0,0-.932-.87586h0a.905.905,0,0,0-.932.87536l-.00054,1.62076-1.38033.74888a3.34,3.34,0,0,0-1.33125-.72458V72.45944l1.49407-.81089a.84669.84669,0,0,0,.34065-1.19574.96477.96477,0,0,0-1.27292-.32089l-.5618.305V68.467a.9337.9337,0,0,0-1.86376,0v1.96991l-.56231-.305a.965.965,0,0,0-1.27295.32089.84743.84743,0,0,0,.34092,1.19574l1.49434.81089v1.49527a3.3376,3.3376,0,0,0-1.33151.72508l-1.38033-.74938V72.30965a.93371.93371,0,0,0-1.86377,0v.61l-1.81545-.985a.9641.9641,0,0,0-1.273.32038.84725.84725,0,0,0,.34095,1.19622l1.81546.985-.56258.30451a.84837.84837,0,0,0-.34092,1.19673.94481.94481,0,0,0,.80825.43792.97068.97068,0,0,0,.46468-.11754l1.49433-.81039,1.3798.7484a2.80685,2.80685,0,0,0,0,1.44619l-1.3798.74789-1.49355-.81038A.96455.96455,0,0,0,26.72779,77.9a.84674.84674,0,0,0,.34092,1.19624l.56234.305-1.816.98547a.847.847,0,0,0-.34095,1.19622.94286.94286,0,0,0,.80774.43794.97132.97132,0,0,0,.46522-.11754l1.81467-.98495v.6095a.9338.9338,0,0,0,1.864,0l.00054-1.62076,1.38033-.74937a3.33862,3.33862,0,0,0,1.331.72506V81.3786l-1.49383.81038a.84681.84681,0,0,0-.34092,1.19622.96409.96409,0,0,0,1.27295.32038l.56231-.305V85.371a.93367.93367,0,0,0,1.86376,0V83.40107l.56153.305a.97129.97129,0,0,0,.46521.11754.94279.94279,0,0,0,.80747-.43792.84741.84741,0,0,0-.34014-1.19625l-1.49434-.81086V79.88279a3.3299,3.3299,0,0,0,1.33152-.72457l1.38033.74839v1.62125a.93367.93367,0,0,0,1.86376,0v-.61l1.816.98546a.97065.97065,0,0,0,.46467.11754.94487.94487,0,0,0,.80825-.43794A.8477.8477,0,0,0,42.325,80.38669Zm-8.25482-2.12664a1.34364,1.34364,0,1,1,1.42705-1.341A1.38735,1.38735,0,0,1,34.07013,78.26005Z"/>
        <g id="Слой_2-2" data-name="Слой 2">
          <g id="Слой_1-2" data-name="Слой 1-2">
            <g>
              <path class="cls-8" d="M90.14233,78.074c-.0513.11-.10427.2161-.15892.32452-1.98071,3.85317-5.82055,4.73083-8.57526,1.95974-3.63293-3.65422-8.52784-3.65422-12.16136,0a4.78481,4.78481,0,0,1-6.80737.37048,4.84653,4.84653,0,0,1-.36656-.37048c-3.91344-3.93584-9.2455-3.60194-12.89185.80748a1.93292,1.93292,0,0,0-.1093,2.10717.87408.87408,0,0,0,1.50616.15213c2.89859-3.50443,7.13768-3.77124,10.24814-.64128a6.44784,6.44784,0,0,0,9.17334.4996,6.531,6.531,0,0,0,.49431-.4996,6.44948,6.44948,0,0,1,9.17587-.49646,6.53155,6.53155,0,0,1,.49121.49646c3.7127,3.73458,8.88751,2.55188,11.55689-2.64237.073-.14354.145-.28943.21358-.43766a1.8802,1.8802,0,0,0-.31172-2.06584C91.12544,77.187,90.46409,77.382,90.14233,78.074Z"/>
              <path class="cls-8" d="M90.14233,68.37989c-.0513.11-.10427.21766-.15892.32452-1.98071,3.85318-5.82055,4.73239-8.57525,1.96051-3.63294-3.655-8.52784-3.655-12.16136,0a4.786,4.786,0,0,1-6.80909.36875,4.84889,4.84889,0,0,1-.36484-.36875c-3.91345-3.93661-9.24551-3.60271-12.89186.80671a1.93313,1.93313,0,0,0-.1093,2.10718.87451.87451,0,0,0,1.50616.15368c2.89859-3.506,7.13768-3.77125,10.24814-.64206a6.449,6.449,0,0,0,9.175.49788,6.5354,6.5354,0,0,0,.4926-.49788,6.44833,6.44833,0,0,1,9.17412-.49824,6.532,6.532,0,0,1,.493.49824c3.71271,3.73541,8.88752,2.55188,11.5569-2.64236.073-.14433.145-.28866.21358-.43689a1.88227,1.88227,0,0,0-.31172-2.0674C91.12544,67.49286,90.46409,67.68787,90.14233,68.37989Z"/>
            </g>
          </g>
        </g>
      </g>
    </g>
  </g>
</svg>
