<svg xmlns="http://www.w3.org/2000/svg" xmlns:xlink="http://www.w3.org/1999/xlink" width="92.35016" height="95.06201" viewBox="0 0 92.35016 95.06201">
  <defs>
    <style>
      .cls-1 {
        fill: url(#Безымянный_градиент);
      }

      .cls-2 {
        fill: url(#Безымянный_градиент_5);
      }

      .cls-3 {
        fill: #9cf;
      }
    </style>
    <radialGradient id="Безымянный_градиент" data-name="Безымянный градиент" cx="-1767.33013" cy="1247.63281" r="70.26" gradientTransform="matrix(-1, 0, 0, 0.73, -1709.53985, -896.86292)" gradientUnits="userSpaceOnUse">
      <stop offset="0" stop-color="#fff"/>
      <stop offset="0.2" stop-color="#d5f3ff"/>
      <stop offset="1" stop-color="#85bcf1"/>
    </radialGradient>
    <radialGradient id="Безымянный_градиент_5" data-name="Безымянный градиент 5" cx="1518.59813" cy="-834.97138" r="62.65" gradientTransform="matrix(0.39, 0, 0, -0.37, -563.02837, -232.62475)" gradientUnits="userSpaceOnUse">
      <stop offset="0" stop-color="#28cbe9"/>
      <stop offset="1" stop-color="#0a4fbb"/>
    </radialGradient>
  </defs>
  <g id="Слой_2" data-name="Слой 2">
    <g id="Слой_1-2" data-name="Слой 1">
      <g>
        <path class="cls-1" d="M73.12028,25.27846a27,27,0,0,0-53.89,0,20.12,20.12,0,0,0,1,40.22h51.89a20.12,20.12,0,0,0,1-40.22Z"/>
        <path class="cls-2" d="M33.12028,86.58846l-2.64-1.46.82-.44a1.24,1.24,0,0,0,.53955-1.66856q-.01859-.03638-.03955-.07144a1.41,1.41,0,0,0-1.85-.47l-2.17,1.18-2-1.09a4,4,0,0,0,0-2.09l2-1.09,2.17,1.18a1.45005,1.45005,0,0,0,.67.17,1.36,1.36,0,0,0,1.17-.61,1.21,1.21,0,0,0-.49-1.73l-.82-.45,2.64-1.43a1.21007,1.21007,0,0,0,.49-1.73,1.39,1.39,0,0,0-1.84-.47l-2.65,1.43v-.88a1.31,1.31,0,0,0-1.34878-1.27l-.00122,0h0a1.32,1.32,0,0,0-1.35,1.27v2.35l-2,1.09a4.8599,4.8599,0,0,0-1.93-1.06v-2.12l2.16-1.17a1.24,1.24,0,0,0,.47-1.83,1.4,1.4,0,0,0-1.85-.46l-.81.44v-2.82a1.36,1.36,0,0,0-2.71,0v2.84l-.81-.44a1.4,1.4,0,0,0-1.82.44,1.24,1.24,0,0,0,.42226,1.702q.03327.02.06774.038l2.18,1.26v2.17a4.86014,4.86014,0,0,0-1.93,1.06l-2-1.09v-2.4a1.35,1.35,0,0,0-2.7,0v.88l-2.64-1.43a1.39,1.39,0,0,0-1.84.47,1.21,1.21,0,0,0,.49,1.73l2.63,1.43-.81.44a1.24,1.24,0,0,0-.53954,1.66855q.01858.03638.03954.07145a1.37,1.37,0,0,0,1.17.64,1.48993,1.48993,0,0,0,.68-.17l2.17-1.18,2,1.09a4,4,0,0,0,0,2.09l-2,1.09-2.17-1.18a1.41,1.41,0,0,0-1.85.47,1.22,1.22,0,0,0,.40441,1.67727q.04659.02848.09559.05273l.81.45-2.63,1.43a1.21,1.21,0,0,0-.49,1.73,1.35,1.35,0,0,0,1.17.64,1.44987,1.44987,0,0,0,.67-.17l2.6-1.43v.88a1.36,1.36,0,0,0,2.71,0v-2.35l2-1.09a4.86,4.86,0,0,0,1.93,1.06v2.17l-2.14,1.17a1.24,1.24,0,0,0-.53954,1.66855q.01859.03638.03954.07145a1.4,1.4,0,0,0,1.85.46l.81-.44v2.86a1.36,1.36,0,0,0,2.71,0v-2.86l.81.44a1.42,1.42,0,0,0,1.82-.46,1.24,1.24,0,0,0-.42856-1.70046q-.03505-.02094-.07144-.03954l-2.12-1.17v-2.17a4.8599,4.8599,0,0,0,1.93-1.06l2,1.09v2.35a1.35,1.35,0,1,0,2.7,0v-.88l2.64,1.43a1.44993,1.44993,0,0,0,.67.17,1.36,1.36,0,0,0,1.17-.64,1.21005,1.21005,0,0,0-.49-1.73Zm-12-3.09a1.95,1.95,0,1,1,2.07-1.94,2,2,0,0,1-2.05788,1.9404Z"/>
        <g>
          <path class="cls-3" d="M88.93635,83.68434c-.06344.13457-.12893.26437-.19651.397-2.44907,4.7138-7.1969,5.7875-10.603,2.39746-4.492-4.47042-10.54439-4.47042-15.03711,0a5.96036,5.96036,0,0,1-8.87029,0c-4.83885-4.815-11.43176-4.40647-15.94034.98781a2.3439,2.3439,0,0,0-.13514,2.57784,1.08617,1.08617,0,0,0,1.86232.18611c3.584-4.28718,8.82548-4.61358,12.67146-.78452a8.032,8.032,0,0,0,11.9537,0,8.03406,8.03406,0,0,1,11.953,0c4.59063,4.56873,10.9891,3.12186,14.2897-3.23256.09032-.17561.17927-.35408.26407-.53542a2.28134,2.28134,0,0,0-.38542-2.52726C90.15192,82.59918,89.33419,82.83778,88.93635,83.68434Z"/>
          <path class="cls-3" d="M88.93635,71.82494c-.06344.13457-.12893.26627-.19651.397-2.44907,4.71379-7.1969,5.7894-10.603,2.39841-4.492-4.47138-10.54439-4.47138-15.03711,0a5.9618,5.9618,0,0,1-8.87029,0c-4.83885-4.81591-11.43176-4.40743-15.94034.98685a2.34413,2.34413,0,0,0-.13514,2.57785,1.08671,1.08671,0,0,0,1.86232.188c3.584-4.28908,8.82548-4.61358,12.67146-.78547a8.03341,8.03341,0,0,0,11.9537,0,8.03261,8.03261,0,0,1,11.953,0c4.59063,4.56968,10.9891,3.12185,14.2897-3.23257.09032-.17656.17927-.35312.26407-.53446a2.28385,2.28385,0,0,0-.38542-2.52917C90.15192,70.73978,89.33419,70.97838,88.93635,71.82494Z"/>
        </g>
      </g>
    </g>
  </g>
</svg>
