<svg xmlns="http://www.w3.org/2000/svg" xmlns:xlink="http://www.w3.org/1999/xlink" width="92.1093" height="89.36416" viewBox="0 0 92.1093 89.36416">
  <defs>
    <style>
      .cls-1 {
        isolation: isolate;
      }

      .cls-2 {
        fill: url(#radial-gradient);
      }

      .cls-3 {
        fill: url(#radial-gradient-2);
      }

      .cls-4 {
        fill: url(#radial-gradient-3);
      }

      .cls-5, .cls-6, .cls-7 {
        mix-blend-mode: overlay;
      }

      .cls-5 {
        fill: url(#radial-gradient-4);
      }

      .cls-6 {
        opacity: 0.4;
        fill: url(#radial-gradient-5);
      }

      .cls-7 {
        opacity: 0.2;
        fill: url(#Degradado_sin_nombre_34);
      }

      .cls-8 {
        fill: url(#radial-gradient-6);
      }
    </style>
    <radialGradient id="radial-gradient" cx="-434.29817" cy="-37.79949" r="62.65461" gradientTransform="translate(193.27987 85.60816) scale(0.31223 0.27638)" gradientUnits="userSpaceOnUse">
      <stop offset="0" stop-color="#28cbe9"/>
      <stop offset="1" stop-color="#0a4fbb"/>
    </radialGradient>
    <radialGradient id="radial-gradient-2" cx="-350.59048" cy="-39.44994" r="62.65461" xlink:href="#radial-gradient"/>
    <radialGradient id="radial-gradient-3" cx="57.66926" cy="13.77686" r="70.25575" gradientTransform="translate(115.33853 23.84068) rotate(180) scale(1 0.73049)" gradientUnits="userSpaceOnUse">
      <stop offset="0" stop-color="#fff"/>
      <stop offset="0.198" stop-color="#d5f3ff"/>
      <stop offset="1" stop-color="#85bcf1"/>
    </radialGradient>
    <radialGradient id="radial-gradient-4" cx="1248.76325" cy="-1737.92486" r="8.47601" gradientTransform="matrix(-0.8392, 1.1536, -1.6186, -1.3126, -1711.87366, -3703.90339)" gradientUnits="userSpaceOnUse">
      <stop offset="0" stop-color="#fff"/>
      <stop offset="0.10256" stop-color="#fff" stop-opacity="0.84849"/>
      <stop offset="0.29029" stop-color="#fff" stop-opacity="0.59415"/>
      <stop offset="0.4694" stop-color="#fff" stop-opacity="0.38204"/>
      <stop offset="0.63471" stop-color="#fff" stop-opacity="0.21674"/>
      <stop offset="0.78337" stop-color="#fff" stop-opacity="0.09804"/>
      <stop offset="0.91014" stop-color="#fff" stop-opacity="0.02577"/>
      <stop offset="1" stop-color="#fff" stop-opacity="0"/>
    </radialGradient>
    <radialGradient id="radial-gradient-5" cx="1248.50849" cy="-1753.58305" r="6.66155" xlink:href="#radial-gradient-4"/>
    <radialGradient id="Degradado_sin_nombre_34" data-name="Degradado sin nombre 34" cx="10.93454" cy="51.52564" r="4.87093" gradientTransform="matrix(0.90102, -0.43378, 1.26276, 2.62292, -63.98244, -78.87866)" xlink:href="#radial-gradient-4"/>
    <radialGradient id="radial-gradient-6" cx="-525.44629" cy="-39.44899" r="62.65461" xlink:href="#radial-gradient"/>
  </defs>
  <g class="cls-1">
    <g id="Слой_2" data-name="Слой 2">
      <g id="BACKGROUND">
        <path class="cls-2" d="M60.63782,82.98581l-2.0981-1.07206.64916-.33143a.8962.8962,0,0,0,.39488-1.302,1.157,1.157,0,0,0-1.47093-.34924l-1.72674.88149-1.59347-.814a2.8921,2.8921,0,0,0,0-1.57408l1.59347-.81458,1.72615.88205a1.17723,1.17723,0,0,0,.53694.12849,1.10955,1.10955,0,0,0,.93364-.4772.89637.89637,0,0,0-.39394-1.302l-.64976-.332,2.0987-1.07205a.89646.89646,0,0,0,.39426-1.302,1.15444,1.15444,0,0,0-1.4709-.34871l-2.09842,1.07206.00091-.66343a1.0209,1.0209,0,0,0-1.077-.95332h0a1.02063,1.02063,0,0,0-1.07695.95277l-.00063,1.76409-1.595.8151a3.93594,3.93594,0,0,0-1.53828-.78865v-1.6275l1.72643-.8826a.89519.89519,0,0,0,.39363-1.30148,1.15556,1.15556,0,0,0-1.4709-.34926l-.64916.332V70.01209a1.08488,1.08488,0,0,0-2.15362,0V72.1562l-.64976-.332a1.15585,1.15585,0,0,0-1.47092.34926A.896.896,0,0,0,48.2955,73.475l1.72674.8826v1.6275a3.933,3.933,0,0,0-1.53859.7892l-1.595-.81565V74.19451a1.08489,1.08489,0,0,0-2.15363,0v.664l-2.09779-1.07206a1.15475,1.15475,0,0,0-1.47093.34871.89577.89577,0,0,0,.394,1.302l2.0978,1.07205-.65007.33144a.89693.89693,0,0,0-.39395,1.30256,1.11011,1.11011,0,0,0,.93395.47664,1.17683,1.17683,0,0,0,.537-.12793l1.72673-.88205,1.59439.81458a2.884,2.884,0,0,0,0,1.57408l-1.59439.814-1.72583-.882a1.1553,1.1553,0,0,0-1.47089.34871.89525.89525,0,0,0,.39394,1.302l.64979.332-2.09842,1.07261a.89557.89557,0,0,0-.394,1.302,1.10774,1.10774,0,0,0,.93336.47668,1.17769,1.17769,0,0,0,.53757-.12794l2.09689-1.07205v.66339a1.085,1.085,0,0,0,2.1539,0l.00063-1.76408,1.595-.81563a3.93432,3.93432,0,0,0,1.538.78918v1.62808l-1.72615.882a.89533.89533,0,0,0-.39394,1.302,1.15473,1.15473,0,0,0,1.47092.34871l.64976-.332v2.14466a1.08481,1.08481,0,0,0,2.15362,0V86.26676l.64885.332a1.17772,1.17772,0,0,0,.53757.12793,1.10767,1.10767,0,0,0,.933-.47664.89589.89589,0,0,0-.393-1.302l-1.72674-.88257V82.43736a3.92405,3.92405,0,0,0,1.53859-.78866l1.595.81458v1.76461a1.08481,1.08481,0,0,0,2.15362,0v-.66395l2.09842,1.07261a1.177,1.177,0,0,0,.53695.12794,1.11018,1.11018,0,0,0,.934-.47668A.89625.89625,0,0,0,60.63782,82.98581Zm-9.53863-2.31469a1.47051,1.47051,0,1,1,1.649-1.45963A1.56446,1.56446,0,0,1,51.09919,80.67112Z"/>
        <path class="cls-3" d="M86.77406,82.52966,84.676,81.4576l.64916-.33144a.8962.8962,0,0,0,.39488-1.302,1.157,1.157,0,0,0-1.47093-.34923l-1.72674.88149-1.59347-.814a2.89207,2.89207,0,0,0,0-1.57407l1.59347-.81458,1.72615.882a1.17723,1.17723,0,0,0,.53694.12849,1.10953,1.10953,0,0,0,.93364-.4772.89637.89637,0,0,0-.39394-1.302l-.64976-.332,2.0987-1.07206a.89645.89645,0,0,0,.39426-1.302,1.15444,1.15444,0,0,0-1.4709-.34871L83.599,74.40233l.00091-.66342a1.02089,1.02089,0,0,0-1.07695-.95332h0a1.02063,1.02063,0,0,0-1.07695.95277l-.00063,1.76408-1.595.81511a3.93609,3.93609,0,0,0-1.53828-.78866v-1.6275l1.72643-.88259a.8952.8952,0,0,0,.39363-1.30148,1.15556,1.15556,0,0,0-1.4709-.34926l-.64916.332V69.55593a1.08489,1.08489,0,0,0-2.15362,0v2.14412l-.64976-.332a1.15585,1.15585,0,0,0-1.47092.34926.896.896,0,0,0,.39394,1.30148l1.72674.88259v1.6275a3.93316,3.93316,0,0,0-1.53859.78921l-1.595-.81566V73.73836a1.08489,1.08489,0,0,0-2.15363,0v.664l-2.09779-1.07205a1.15475,1.15475,0,0,0-1.47093.34871.89576.89576,0,0,0,.394,1.302l2.0978,1.07206-.65007.33144a.89692.89692,0,0,0-.394,1.30255,1.11012,1.11012,0,0,0,.934.47665,1.17685,1.17685,0,0,0,.53695-.12794l1.72673-.882,1.59439.81458a2.88393,2.88393,0,0,0,0,1.57407l-1.59439.814-1.72583-.88205a1.15532,1.15532,0,0,0-1.47089.34871.89526.89526,0,0,0,.39394,1.302l.64979.332-2.09842,1.07261a.89557.89557,0,0,0-.394,1.302,1.10776,1.10776,0,0,0,.93336.47667,1.17781,1.17781,0,0,0,.53757-.12793l2.09689-1.07206v.6634a1.085,1.085,0,0,0,2.1539,0l.00063-1.76409,1.595-.81562a3.9343,3.9343,0,0,0,1.538.78917v1.62808l-1.72615.88205a.89533.89533,0,0,0-.39394,1.302,1.15474,1.15474,0,0,0,1.47092.34871l.64976-.332v2.14466a1.08481,1.08481,0,0,0,2.15362,0V85.8106l.64885.332a1.1776,1.1776,0,0,0,.53757.12794,1.10767,1.10767,0,0,0,.933-.47665.89589.89589,0,0,0-.393-1.302l-1.72674-.88257V81.9812a3.924,3.924,0,0,0,1.53859-.78865l1.595.81458v1.76461a1.08481,1.08481,0,0,0,2.15362,0v-.66395l2.09842,1.07261a1.17713,1.17713,0,0,0,.537.12793,1.11019,1.11019,0,0,0,.93395-.47667A.89625.89625,0,0,0,86.77406,82.52966ZM77.23543,80.215a1.47051,1.47051,0,1,1,1.649-1.45962A1.56446,1.56446,0,0,1,77.23543,80.215Z"/>
      </g>
      <g id="OBJECTS">
        <g>
          <path class="cls-4" d="M72.9951,25.1465a27.00444,27.00444,0,0,0-53.8809,0,20.123,20.123,0,0,0,1.0093,40.2207H71.9858a20.123,20.123,0,0,0,1.0093-40.2207Z"/>
          <path class="cls-5" d="M46.0566,27.6484c-7.5752-6.1465-10.5347-15.5019-6.6074-20.9023,3.9297-5.4004,13.2563-4.793,20.8354,1.3476,7.5733,6.1446,10.5293,15.5059,6.6035,20.9024C62.9575,34.3984,53.6308,33.791,46.0566,27.6484Z"/>
          <path class="cls-6" d="M73.1376,45.8144c-5.9531-4.8301-8.2793-12.1855-5.1933-16.4277,3.0889-4.2461,10.4189-3.7676,16.375,1.0586,5.9521,4.8301,8.2744,12.1875,5.1904,16.4277C86.4194,51.1191,79.0893,50.6425,73.1376,45.8144Z"/>
          <path class="cls-7" d="M14.3876,46.4883c-4.393-6.8536-9.496-10.1504-11.4072-7.3711-1.9043,2.7753.1099,10.5878,4.5,17.4433,4.396,6.8535,9.5015,10.1543,11.4072,7.3731C20.7934,61.1484,18.7807,53.3457,14.3876,46.4883Z"/>
        </g>
        <path class="cls-8" d="M32.17844,82.52992l-2.09811-1.07206.64917-.33143a.89621.89621,0,0,0,.39488-1.302,1.157,1.157,0,0,0-1.47093-.34924l-1.72674.88149-1.59347-.814a2.89207,2.89207,0,0,0,0-1.57407l1.59347-.81458,1.72615.882a1.17722,1.17722,0,0,0,.53694.12848,1.10953,1.10953,0,0,0,.93364-.4772.89637.89637,0,0,0-.39394-1.302l-.64976-.332,2.0987-1.072a.89646.89646,0,0,0,.39426-1.302,1.15444,1.15444,0,0,0-1.4709-.34871L29.00338,74.4026l.00091-.66343a1.0209,1.0209,0,0,0-1.07695-.95332h0a1.02063,1.02063,0,0,0-1.07695.95277l-.00063,1.76409-1.595.8151a3.93609,3.93609,0,0,0-1.53828-.78866V73.90166l1.72643-.8826a.8952.8952,0,0,0,.39363-1.30148,1.15556,1.15556,0,0,0-1.4709-.34926l-.64916.332V69.5562a1.08488,1.08488,0,0,0-2.15362,0v2.14411l-.64976-.332a1.15585,1.15585,0,0,0-1.47092.34926.896.896,0,0,0,.39394,1.30148l1.72674.8826v1.62749a3.93316,3.93316,0,0,0-1.53859.78921l-1.595-.81565V73.73862a1.08488,1.08488,0,0,0-2.15362,0v.664l-2.09779-1.07206a1.15475,1.15475,0,0,0-1.47093.34871.89577.89577,0,0,0,.394,1.302l2.0978,1.072-.65007.33144a.89692.89692,0,0,0-.39395,1.30255,1.11012,1.11012,0,0,0,.93395.47665,1.17683,1.17683,0,0,0,.53695-.12793l1.72673-.882,1.59439.81458a2.88393,2.88393,0,0,0,0,1.57407l-1.59439.814-1.72583-.882a1.1553,1.1553,0,0,0-1.47089.34871.89525.89525,0,0,0,.39394,1.302l.64979.332L13.1009,82.52992a.89557.89557,0,0,0-.394,1.302,1.10777,1.10777,0,0,0,.93336.47668,1.17785,1.17785,0,0,0,.53757-.12794l2.09689-1.07205V83.772a1.085,1.085,0,0,0,2.1539,0l.00062-1.76408,1.595-.81563a3.93432,3.93432,0,0,0,1.538.78918v1.62808l-1.72615.882a.89533.89533,0,0,0-.39394,1.302,1.15472,1.15472,0,0,0,1.47092.34871l.64976-.332V87.955a1.08481,1.08481,0,0,0,2.15362,0V85.81087l.64885.332a1.17772,1.17772,0,0,0,.53757.12793,1.10768,1.10768,0,0,0,.933-.47664.89591.89591,0,0,0-.393-1.302l-1.72674-.88256V81.98147a3.92418,3.92418,0,0,0,1.53859-.78866l1.595.81458V83.772a1.08481,1.08481,0,0,0,2.15362,0v-.66395l2.09842,1.07261a1.17708,1.17708,0,0,0,.537.12794,1.1102,1.1102,0,0,0,.93395-.47668A.89625.89625,0,0,0,32.17844,82.52992Zm-9.53863-2.31469a1.47051,1.47051,0,1,1,1.649-1.45963A1.56446,1.56446,0,0,1,22.63981,80.21523Z"/>
      </g>
    </g>
  </g>
</svg>
