<svg xmlns="http://www.w3.org/2000/svg" xmlns:xlink="http://www.w3.org/1999/xlink" width="92.1093" height="97.10123" viewBox="0 0 92.1093 97.10123">
  <defs>
    <style>
      .cls-1 {
        isolation: isolate;
      }

      .cls-2 {
        fill: url(#radial-gradient);
      }

      .cls-3, .cls-4, .cls-5 {
        mix-blend-mode: overlay;
      }

      .cls-3 {
        fill: url(#radial-gradient-2);
      }

      .cls-4 {
        opacity: 0.4;
        fill: url(#radial-gradient-3);
      }

      .cls-5 {
        opacity: 0.2;
        fill: url(#Degradado_sin_nombre_34);
      }

      .cls-6 {
        fill: #9cf;
      }
    </style>
    <radialGradient id="radial-gradient" cx="57.66926" cy="13.77726" r="70.25717" gradientTransform="translate(115.33853 23.84138) rotate(180) scale(1 0.73049)" gradientUnits="userSpaceOnUse">
      <stop offset="0" stop-color="#fff"/>
      <stop offset="0.198" stop-color="#d5f3ff"/>
      <stop offset="1" stop-color="#85bcf1"/>
    </radialGradient>
    <radialGradient id="radial-gradient-2" cx="1255.09453" cy="-1578.66878" r="8.47627" gradientTransform="matrix(-0.8392, 1.1536, -1.6186, -1.3126, -1448.78813, -3502.16622)" gradientUnits="userSpaceOnUse">
      <stop offset="0" stop-color="#fff"/>
      <stop offset="0.10256" stop-color="#fff" stop-opacity="0.84849"/>
      <stop offset="0.29029" stop-color="#fff" stop-opacity="0.59415"/>
      <stop offset="0.4694" stop-color="#fff" stop-opacity="0.38204"/>
      <stop offset="0.63471" stop-color="#fff" stop-opacity="0.21674"/>
      <stop offset="0.78337" stop-color="#fff" stop-opacity="0.09804"/>
      <stop offset="0.91014" stop-color="#fff" stop-opacity="0.02577"/>
      <stop offset="1" stop-color="#fff" stop-opacity="0"/>
    </radialGradient>
    <radialGradient id="radial-gradient-3" cx="1254.84028" cy="-1594.32642" r="6.66155" xlink:href="#radial-gradient-2"/>
    <radialGradient id="Degradado_sin_nombre_34" data-name="Degradado sin nombre 34" cx="10.93454" cy="51.52679" r="4.87115" gradientTransform="matrix(0.90102, -0.43378, 1.26276, 2.62292, -63.98389, -78.88052)" xlink:href="#radial-gradient-2"/>
  </defs>
  <g class="cls-1">
    <g id="Слой_2" data-name="Слой 2">
      <g id="OBJECTS">
        <g>
          <path class="cls-2" d="M72.9951,25.1465a27.00444,27.00444,0,0,0-53.8809,0,20.124,20.124,0,0,0,1.0093,40.2226H71.9858a20.124,20.124,0,0,0,1.0093-40.2226Z"/>
          <path class="cls-3" d="M46.0566,27.6504c-7.5752-6.1465-10.5347-15.5039-6.6074-20.9023,3.9297-5.4024,13.2563-4.795,20.8354,1.3457,7.5733,6.1464,10.5293,15.5078,6.6035,20.9043C62.9575,34.4004,53.6308,33.793,46.0566,27.6504Z"/>
          <path class="cls-4" d="M73.1376,45.8164c-5.9531-4.832-8.2793-12.1855-5.1933-16.4297,3.0889-4.2441,10.4189-3.7656,16.375,1.0606,5.9521,4.8281,8.2744,12.1855,5.1904,16.4258C86.4194,51.1191,79.0893,50.6426,73.1376,45.8164Z"/>
          <path class="cls-5" d="M14.3876,46.4902c-4.393-6.8535-9.496-10.1523-11.4072-7.373-1.9043,2.7773.1099,10.5898,4.5,17.4453,4.396,6.8535,9.5015,10.1543,11.4072,7.3731C20.7934,61.1504,18.7807,53.3457,14.3876,46.4902Z"/>
        </g>
        <g id="Слой_2-2" data-name="Слой 2">
          <g id="Слой_1-2" data-name="Слой 1-2">
            <g>
              <path class="cls-6" d="M80.0694,86.65991c-.08276.16671-.16822.32752-.25638.49183-3.19542,5.8397-9.39011,7.16985-13.83418,2.97011-5.8609-5.53819-13.7577-5.53819-19.61954,0a8.06944,8.06944,0,0,1-10.9821.56148,7.592,7.592,0,0,1-.59135-.56148c-6.31343-5.965-14.91547-5.459-20.798,1.22377a2.783,2.783,0,0,0-.17632,3.19355,1.44964,1.44964,0,0,0,1.88087.65709,1.40446,1.40446,0,0,0,.549-.42653c4.6762-5.31118,11.515-5.71554,16.533-.9719a10.87409,10.87409,0,0,0,14.79905.75718,10.23336,10.23336,0,0,0,.79744-.75718A10.87692,10.87692,0,0,1,63.174,93.04541a10.23369,10.23369,0,0,1,.79245.75242c5.98959,5.66,14.33794,3.86752,18.64436-4.00466.11784-.21756.2339-.43866.34455-.66331a2.71745,2.71745,0,0,0-.50287-3.1309A1.4939,1.4939,0,0,0,80.0694,86.65991Z"/>
              <path class="cls-6" d="M80.0694,71.96785c-.08276.16672-.16822.32989-.25638.49183C76.6176,78.2994,70.42291,79.6319,65.97885,75.431c-5.8609-5.53936-13.75769-5.53936-19.61953,0a8.0714,8.0714,0,0,1-10.98488.55886,7.59454,7.59454,0,0,1-.58858-.55886c-6.31344-5.96616-14.91548-5.46011-20.798,1.22261a2.78331,2.78331,0,0,0-.17632,3.19357,1.45033,1.45033,0,0,0,1.88161.658,1.4053,1.4053,0,0,0,.54822-.42508c4.6762-5.31353,11.515-5.71554,16.533-.97308a10.876,10.876,0,0,0,14.8018.75456,10.23058,10.23058,0,0,0,.79469-.75456,10.875,10.875,0,0,1,14.80032-.75511,10.23443,10.23443,0,0,1,.79527.75511c5.9896,5.66123,14.338,3.86752,18.64437-4.00465.11785-.21875.2339-.43748.34456-.66213a2.72042,2.72042,0,0,0-.50288-3.13327A1.49389,1.49389,0,0,0,80.0694,71.96785Z"/>
            </g>
          </g>
        </g>
      </g>
    </g>
  </g>
</svg>
