<svg xmlns="http://www.w3.org/2000/svg" xmlns:xlink="http://www.w3.org/1999/xlink" width="92.1093" height="90.4794" viewBox="0 0 92.1093 90.4794">
  <defs>
    <style>
      .cls-1 {
        isolation: isolate;
      }

      .cls-2 {
        fill: url(#radial-gradient);
      }

      .cls-3, .cls-4, .cls-5 {
        mix-blend-mode: overlay;
      }

      .cls-3 {
        fill: url(#radial-gradient-2);
      }

      .cls-4 {
        opacity: 0.4;
        fill: url(#radial-gradient-3);
      }

      .cls-5 {
        opacity: 0.2;
        fill: url(#Degradado_sin_nombre_34);
      }

      .cls-6 {
        fill: url(#radial-gradient-4);
      }

      .cls-7 {
        fill: #9cf;
      }
    </style>
    <radialGradient id="radial-gradient" cx="57.66926" cy="13.77726" r="70.25717" gradientTransform="translate(115.33853 23.84138) rotate(180) scale(1 0.73049)" gradientUnits="userSpaceOnUse">
      <stop offset="0" stop-color="#fff"/>
      <stop offset="0.198" stop-color="#d5f3ff"/>
      <stop offset="1" stop-color="#85bcf1"/>
    </radialGradient>
    <radialGradient id="radial-gradient-2" cx="1255.09453" cy="-1578.66878" r="8.47627" gradientTransform="matrix(-0.8392, 1.1536, -1.6186, -1.3126, -1448.78813, -3502.16622)" gradientUnits="userSpaceOnUse">
      <stop offset="0" stop-color="#fff"/>
      <stop offset="0.10256" stop-color="#fff" stop-opacity="0.84849"/>
      <stop offset="0.29029" stop-color="#fff" stop-opacity="0.59415"/>
      <stop offset="0.4694" stop-color="#fff" stop-opacity="0.38204"/>
      <stop offset="0.63471" stop-color="#fff" stop-opacity="0.21674"/>
      <stop offset="0.78337" stop-color="#fff" stop-opacity="0.09804"/>
      <stop offset="0.91014" stop-color="#fff" stop-opacity="0.02577"/>
      <stop offset="1" stop-color="#fff" stop-opacity="0"/>
    </radialGradient>
    <radialGradient id="radial-gradient-3" cx="1254.84028" cy="-1594.32642" r="6.66155" xlink:href="#radial-gradient-2"/>
    <radialGradient id="Degradado_sin_nombre_34" data-name="Degradado sin nombre 34" cx="10.93454" cy="51.52679" r="4.87115" gradientTransform="matrix(0.90102, -0.43378, 1.26276, 2.62292, -63.98389, -78.88052)" xlink:href="#radial-gradient-2"/>
    <radialGradient id="radial-gradient-4" cx="73.53195" cy="81.83488" r="62.65461" gradientTransform="translate(-1.5938 46.40529) scale(0.36611 0.33083)" gradientUnits="userSpaceOnUse">
      <stop offset="0" stop-color="#28cbe9"/>
      <stop offset="1" stop-color="#0a4fbb"/>
    </radialGradient>
  </defs>
  <g class="cls-1">
    <g id="Слой_2" data-name="Слой 2">
      <g id="OBJECTS">
        <g>
          <path class="cls-2" d="M72.9951,25.1465a27.00444,27.00444,0,0,0-53.8809,0,20.124,20.124,0,0,0,1.0093,40.2226H71.9858a20.124,20.124,0,0,0,1.0093-40.2226Z"/>
          <path class="cls-3" d="M46.0566,27.6504c-7.5752-6.1465-10.5347-15.5039-6.6074-20.9023,3.9297-5.4024,13.2563-4.795,20.8354,1.3457,7.5733,6.1464,10.5293,15.5078,6.6035,20.9043C62.9575,34.4004,53.6308,33.793,46.0566,27.6504Z"/>
          <path class="cls-4" d="M73.1376,45.8164c-5.9531-4.832-8.2793-12.1855-5.1933-16.4297,3.0889-4.2441,10.4189-3.7656,16.375,1.0606,5.9521,4.8281,8.2744,12.1855,5.1904,16.4258C86.4194,51.1191,79.0893,50.6426,73.1376,45.8164Z"/>
          <path class="cls-5" d="M14.3876,46.4902c-4.393-6.8535-9.496-10.1523-11.4072-7.373-1.9043,2.7773.1099,10.5898,4.5,17.4453,4.396,6.8535,9.5015,10.1543,11.4072,7.3731C20.7934,61.1504,18.7807,53.3457,14.3876,46.4902Z"/>
        </g>
        <path class="cls-6" d="M28.79784,82.84456l-2.46017-1.28325.76119-.39672a1.08324,1.08324,0,0,0,.463-1.55853,1.33965,1.33965,0,0,0-1.72476-.418L23.8124,80.24317,21.944,79.26879a3.53112,3.53112,0,0,0,0-1.88416l1.86845-.975,2.024,1.0558a1.35753,1.35753,0,0,0,.6296.1538,1.29309,1.29309,0,0,0,1.09475-.57121,1.08345,1.08345,0,0,0-.46192-1.55849L26.337,75.0921l2.46086-1.28324a1.08355,1.08355,0,0,0,.46229-1.55849,1.3367,1.3367,0,0,0-1.72472-.4174l-2.46054,1.28324.00107-.79412a1.20669,1.20669,0,0,0-1.2628-1.14111h0a1.20637,1.20637,0,0,0-1.2628,1.14045l-.00073,2.1116-1.87025.97567a4.58233,4.58233,0,0,0-1.80374-.944v-1.9481L20.9,71.46013a1.082,1.082,0,0,0,.46156-1.55786,1.338,1.338,0,0,0-1.72472-.41807l-.76119.39739V67.3151a1.26917,1.26917,0,0,0-2.52526,0v2.56649l-.76189-.39739a1.33834,1.33834,0,0,0-1.72476.41807,1.083,1.083,0,0,0,.46193,1.55786l2.02472,1.05646v1.9481a4.57887,4.57887,0,0,0-1.8041.94468L12.676,74.433v-2.1116a1.20637,1.20637,0,0,0-1.2628-1.14045,1.2056,1.2056,0,0,0-1.26247,1.14045v.79478L7.69093,71.833a1.33706,1.33706,0,0,0-1.72476.4174,1.08272,1.08272,0,0,0,.462,1.55849L8.88794,75.0921l-.76224.39673A1.08413,1.08413,0,0,0,7.66377,77.048a1.29373,1.29373,0,0,0,1.09512.57055,1.357,1.357,0,0,0,.6296-.15314l2.02472-1.0558,1.86952.975a3.52131,3.52131,0,0,0,0,1.88416l-1.86952.97438-2.02366-1.0558a1.33771,1.33771,0,0,0-1.72472.4174,1.08211,1.08211,0,0,0,.46192,1.55853l.76193.39735L6.42813,82.84456a1.08248,1.08248,0,0,0-.462,1.55849,1.291,1.291,0,0,0,1.09443.57057,1.35812,1.35812,0,0,0,.63033-.15314l2.45875-1.28324v.79408a1.20678,1.20678,0,0,0,1.26243,1.14112,1.20679,1.20679,0,0,0,1.26316-1.14112l.00074-2.1116,1.87025-.9763a4.5802,4.5802,0,0,0,1.8034.94464v1.9488l-2.024,1.0558a1.08221,1.08221,0,0,0-.46193,1.55849,1.33705,1.33705,0,0,0,1.72476.41741l.76189-.39739v2.56714a1.2691,1.2691,0,0,0,2.52526,0V86.77183l.76082.39739a1.358,1.358,0,0,0,.63034.15314,1.29092,1.29092,0,0,0,1.09406-.57055A1.0829,1.0829,0,0,0,20.9,85.19329l-2.02471-1.05643v-1.9488a4.56833,4.56833,0,0,0,1.8041-.944l1.87025.975v2.11222a1.2691,1.2691,0,0,0,2.52526,0v-.79474l2.46054,1.2839a1.35729,1.35729,0,0,0,.62961.15314,1.29382,1.29382,0,0,0,1.09511-.57057A1.0833,1.0833,0,0,0,28.79784,82.84456ZM17.61316,80.07389a1.75616,1.75616,0,1,1,1.93355-1.74716A1.8492,1.8492,0,0,1,17.61316,80.07389Z"/>
        <g id="Слой_2-2" data-name="Слой 2">
          <g id="Слой_1-2" data-name="Слой 1-2">
            <g>
              <path class="cls-7" d="M85.86911,81.26353c-.06231.12224-.12664.24014-.193.36062-2.40565,4.28183-7.06928,5.25714-10.415,2.17777a10.477,10.477,0,0,0-14.77043,0,6.1935,6.1935,0,0,1-8.26781.41169,5.65533,5.65533,0,0,1-.44519-.41169c-4.753-4.37371-11.229-4.00267-15.65763.8973a1.99763,1.99763,0,0,0-.13275,2.3416,1.10482,1.10482,0,0,0,1.416.4818,1.054,1.054,0,0,0,.41328-.31274c3.52044-3.89431,8.669-4.1908,12.44674-.71263a8.34612,8.34612,0,0,0,11.14136.55519,7.622,7.622,0,0,0,.60036-.55519,8.34832,8.34832,0,0,1,11.14444-.5517,7.62385,7.62385,0,0,1,.59658.5517c4.50922,4.15006,10.79422,2.83578,14.03628-2.93633.08872-.15952.17609-.32163.25939-.48636a1.9539,1.9539,0,0,0-.37858-2.29566A1.13759,1.13759,0,0,0,85.86911,81.26353Z"/>
              <path class="cls-7" d="M85.86911,70.4909c-.06231.12224-.12664.24188-.193.36062-2.40565,4.28185-7.06928,5.25887-10.415,2.17862a10.47543,10.47543,0,0,0-14.77043,0,6.195,6.195,0,0,1-8.26989.40977,5.658,5.658,0,0,1-.44311-.40977c-4.753-4.37456-11.229-4.00351-15.65764.89645a1.99783,1.99783,0,0,0-.13275,2.34161,1.10534,1.10534,0,0,0,1.41656.48246,1.05472,1.05472,0,0,0,.41273-.31168c3.52044-3.896,8.669-4.1908,12.44674-.71349a8.34762,8.34762,0,0,0,11.14344.55326,7.62428,7.62428,0,0,0,.59828-.55326,8.34677,8.34677,0,0,1,11.14231-.55367,7.62059,7.62059,0,0,1,.59871.55367c4.50923,4.151,10.79423,2.83577,14.03629-2.93633.08872-.16039.17609-.32077.2594-.48549a1.956,1.956,0,0,0-.37859-2.2974A1.13759,1.13759,0,0,0,85.86911,70.4909Z"/>
            </g>
          </g>
        </g>
      </g>
    </g>
  </g>
</svg>
