<svg xmlns="http://www.w3.org/2000/svg" xmlns:xlink="http://www.w3.org/1999/xlink" width="92.1094" height="88.43691" viewBox="0 0 92.1094 88.43691">
  <defs>
    <style>
      .cls-1 {
        isolation: isolate;
      }

      .cls-2 {
        fill: url(#radial-gradient);
      }

      .cls-11, .cls-3, .cls-4, .cls-5, .cls-7, .cls-9 {
        mix-blend-mode: overlay;
      }

      .cls-3 {
        fill: url(#radial-gradient-2);
      }

      .cls-4 {
        opacity: 0.4;
        fill: url(#radial-gradient-3);
      }

      .cls-5 {
        opacity: 0.2;
        fill: url(#Degradado_sin_nombre_34);
      }

      .cls-6 {
        fill: url(#radial-gradient-4);
      }

      .cls-7 {
        fill: url(#radial-gradient-5);
      }

      .cls-8 {
        fill: url(#radial-gradient-6);
      }

      .cls-9 {
        fill: url(#radial-gradient-7);
      }

      .cls-10 {
        fill: url(#radial-gradient-8);
      }

      .cls-11 {
        fill: url(#radial-gradient-9);
      }

      .cls-12 {
        fill: url(#radial-gradient-10);
      }
    </style>
    <radialGradient id="radial-gradient" cx="57.66932" cy="13.77686" r="70.25578" gradientTransform="translate(115.33865 23.84068) rotate(180) scale(1 0.73049)" gradientUnits="userSpaceOnUse">
      <stop offset="0" stop-color="#fff"/>
      <stop offset="0.198" stop-color="#d5f3ff"/>
      <stop offset="1" stop-color="#85bcf1"/>
    </radialGradient>
    <radialGradient id="radial-gradient-2" cx="1441.46506" cy="-1686.00188" r="8.47603" gradientTransform="matrix(-0.8392, 1.1536, -1.6186, -1.3126, -1466.11591, -3858.04984)" gradientUnits="userSpaceOnUse">
      <stop offset="0" stop-color="#fff"/>
      <stop offset="0.10256" stop-color="#fff" stop-opacity="0.84849"/>
      <stop offset="0.29029" stop-color="#fff" stop-opacity="0.59415"/>
      <stop offset="0.4694" stop-color="#fff" stop-opacity="0.38204"/>
      <stop offset="0.63471" stop-color="#fff" stop-opacity="0.21674"/>
      <stop offset="0.78337" stop-color="#fff" stop-opacity="0.09804"/>
      <stop offset="0.91014" stop-color="#fff" stop-opacity="0.02577"/>
      <stop offset="1" stop-color="#fff" stop-opacity="0"/>
    </radialGradient>
    <radialGradient id="radial-gradient-3" cx="1441.21019" cy="-1701.66005" r="6.66148" xlink:href="#radial-gradient-2"/>
    <radialGradient id="Degradado_sin_nombre_34" data-name="Degradado sin nombre 34" cx="10.93447" cy="51.52564" r="4.87095" gradientTransform="matrix(0.90102, -0.43378, 1.26276, 2.62292, -63.98245, -78.87869)" xlink:href="#radial-gradient-2"/>
    <radialGradient id="radial-gradient-4" cx="-254.48621" cy="145.62172" r="9.89087" gradientTransform="translate(307.03367 82.12599) rotate(30.00073)" gradientUnits="userSpaceOnUse">
      <stop offset="0" stop-color="#d0f2ff"/>
      <stop offset="0.198" stop-color="#d5f3ff"/>
      <stop offset="1" stop-color="#85bcf1"/>
    </radialGradient>
    <radialGradient id="radial-gradient-5" cx="1646.76327" cy="-1602.31997" r="1.54924" gradientTransform="matrix(-1.3036, 0.5794, -0.7454, -1.946, 966.71138, -3991.90264)" xlink:href="#radial-gradient-2"/>
    <radialGradient id="radial-gradient-6" cx="-239.59659" cy="137.02515" r="9.89087" xlink:href="#radial-gradient-4"/>
    <radialGradient id="radial-gradient-7" cx="1635.49319" cy="-1605.67547" r="1.54921" gradientTransform="matrix(-1.3036, 0.5794, -0.7454, -1.946, 966.71138, -3991.90264)" xlink:href="#radial-gradient-2"/>
    <radialGradient id="radial-gradient-8" cx="-224.70673" cy="128.42808" r="9.89132" xlink:href="#radial-gradient-4"/>
    <radialGradient id="radial-gradient-9" cx="1624.22314" cy="-1609.03105" r="1.54925" gradientTransform="matrix(-1.3036, 0.5794, -0.7454, -1.946, 966.71138, -3991.90264)" xlink:href="#radial-gradient-2"/>
    <radialGradient id="radial-gradient-10" cx="-660.06861" cy="-41.15445" r="62.65461" gradientTransform="translate(285.18084 85.60816) scale(0.31223 0.27638)" gradientUnits="userSpaceOnUse">
      <stop offset="0" stop-color="#28cbe9"/>
      <stop offset="1" stop-color="#0a4fbb"/>
    </radialGradient>
  </defs>
  <g class="cls-1">
    <g id="Слой_2" data-name="Слой 2">
      <g id="OBJECTS">
        <g>
          <path class="cls-2" d="M72.9951,25.1465a27.00444,27.00444,0,0,0-53.8809,0A20.123,20.123,0,0,0,20.123,65.3672H71.9858a20.123,20.123,0,0,0,1.0093-40.2207Z"/>
          <path class="cls-3" d="M46.0561,27.6484C38.4809,21.5019,35.522,12.1465,39.4492,6.7461c3.9297-5.4004,13.2563-4.793,20.835,1.3476,7.5737,6.1446,10.5293,15.5059,6.604,20.9024C62.9575,34.3984,53.6308,33.791,46.0561,27.6484Z"/>
          <path class="cls-4" d="M73.1377,45.8144c-5.9536-4.8301-8.2793-12.1855-5.1934-16.4277,3.0889-4.2461,10.4185-3.7676,16.3745,1.0586,5.9527,4.8301,8.2749,12.1875,5.1909,16.4277C86.4189,51.1191,79.0893,50.6425,73.1377,45.8144Z"/>
          <path class="cls-5" d="M14.3877,46.4883C9.9946,39.6347,4.8916,36.3379,2.9804,39.1172c-1.9047,2.7753.1099,10.5878,4.5,17.4433,4.3956,6.8535,9.5015,10.1543,11.4073,7.3731C20.7934,61.1484,18.7807,53.3457,14.3877,46.4883Z"/>
        </g>
        <g>
          <path class="cls-6" d="M19.34082,81.92761a4.11114,4.11114,0,0,1-7.1206-4.1113c1.1352-1.9668,8.1567-5.9062,8.1567-5.9062S20.476,79.96081,19.34082,81.92761Z"/>
          <path class="cls-7" d="M12.34032,81.24411c-.6372-1.6641-.251-3.4161.8652-3.9122,1.1153-.4961,2.5366.4512,3.1743,2.1172.6382,1.666.25,3.418-.8647,3.9121C14.39892,83.85731,12.97752,82.91011,12.34032,81.24411Z"/>
        </g>
        <g>
          <path class="cls-8" d="M36.53362,81.92761a4.11114,4.11114,0,0,1-7.1206-4.1113c1.1353-1.9668,8.1563-5.9062,8.1563-5.9062S37.66892,79.96081,36.53362,81.92761Z"/>
          <path class="cls-9" d="M29.53322,81.24411c-.6373-1.6641-.251-3.4161.8652-3.9122,1.1152-.4961,2.5361.4512,3.1743,2.1172.6377,1.666.2495,3.418-.8652,3.9121C31.59172,83.85731,30.17042,82.91011,29.53322,81.24411Z"/>
        </g>
        <g>
          <path class="cls-10" d="M53.727,81.92761a4.11135,4.11135,0,0,1-7.1211-4.1113c1.1353-1.9668,8.1567-5.9062,8.1567-5.9062S54.86232,79.96081,53.727,81.92761Z"/>
          <path class="cls-11" d="M46.726,81.24411c-.6367-1.6641-.2505-3.4161.8653-3.9122,1.1152-.4961,2.5366.4512,3.1743,2.1172.6382,1.666.25,3.418-.8648,3.9121C48.78462,83.85731,47.36372,82.91011,46.726,81.24411Z"/>
        </g>
        <path class="cls-12" d="M82.046,82.05856l-2.09811-1.07205.64917-.33144a.8962.8962,0,0,0,.39488-1.302A1.157,1.157,0,0,0,79.521,79.0038l-1.72674.88149-1.59347-.814a2.8921,2.8921,0,0,0,0-1.57408l1.59347-.81457,1.72615.882a1.17723,1.17723,0,0,0,.53694.12849,1.10955,1.10955,0,0,0,.93364-.4772.89637.89637,0,0,0-.39394-1.302l-.64976-.332L82.046,74.5099a.89645.89645,0,0,0,.39426-1.302,1.15443,1.15443,0,0,0-1.4709-.34871l-2.09842,1.07205.00091-.66343a1.0209,1.0209,0,0,0-1.07695-.95332h0a1.02063,1.02063,0,0,0-1.077.95277l-.00063,1.76409-1.595.8151A3.93607,3.93607,0,0,0,73.584,75.0578V73.4303l1.72643-.8826a.8952.8952,0,0,0,.39363-1.30148,1.15556,1.15556,0,0,0-1.4709-.34926l-.64916.332V69.08484a1.08488,1.08488,0,0,0-2.15362,0V71.229l-.64976-.332a1.15585,1.15585,0,0,0-1.47092.34926.896.896,0,0,0,.39394,1.30148l1.72674.8826v1.6275a3.93314,3.93314,0,0,0-1.53859.7892l-1.595-.81565V73.26726a1.08488,1.08488,0,0,0-2.15362,0v.664l-2.09779-1.07205a1.15474,1.15474,0,0,0-1.47093.34871.89576.89576,0,0,0,.394,1.302L65.06623,75.582l-.65006.33144a.89693.89693,0,0,0-.39395,1.30256,1.11011,1.11011,0,0,0,.93395.47664,1.17683,1.17683,0,0,0,.537-.12793l1.72673-.882,1.59439.81457a2.884,2.884,0,0,0,0,1.57408l-1.59439.814-1.72583-.882a1.1553,1.1553,0,0,0-1.47089.34871.89525.89525,0,0,0,.39394,1.302l.64979.332-2.09842,1.07261a.89557.89557,0,0,0-.394,1.302,1.10776,1.10776,0,0,0,.93336.47667,1.17772,1.17772,0,0,0,.53757-.12794l2.09689-1.07205v.6634a1.085,1.085,0,0,0,2.1539,0l.00062-1.76409,1.595-.81563a3.93432,3.93432,0,0,0,1.538.78918v1.62808l-1.72615.882a.89534.89534,0,0,0-.39394,1.302,1.15473,1.15473,0,0,0,1.47092.34871l.64976-.332v2.14466a1.08481,1.08481,0,0,0,2.15362,0V85.33951l.64885.332a1.17773,1.17773,0,0,0,.53757.12794,1.10769,1.10769,0,0,0,.933-.47665.8959.8959,0,0,0-.393-1.302l-1.72674-.88257V81.51011a3.92416,3.92416,0,0,0,1.53859-.78865l1.595.81457v1.76462a1.08481,1.08481,0,0,0,2.15362,0V82.6367l2.09842,1.0726a1.177,1.177,0,0,0,.537.12794,1.11021,1.11021,0,0,0,.93395-.47667A.89626.89626,0,0,0,82.046,82.05856Zm-9.53863-2.31469a1.47051,1.47051,0,1,1,1.649-1.45963A1.56446,1.56446,0,0,1,72.50735,79.74387Z"/>
      </g>
    </g>
  </g>
</svg>
