<svg xmlns="http://www.w3.org/2000/svg" xmlns:xlink="http://www.w3.org/1999/xlink" width="92.1094" height="90.31112" viewBox="0 0 92.1094 90.31112">
  <defs>
    <style>
      .cls-1 {
        isolation: isolate;
      }

      .cls-2 {
        fill: url(#radial-gradient);
      }

      .cls-3, .cls-4, .cls-5 {
        mix-blend-mode: overlay;
      }

      .cls-3 {
        fill: url(#radial-gradient-2);
      }

      .cls-4 {
        opacity: 0.4;
        fill: url(#radial-gradient-3);
      }

      .cls-5 {
        opacity: 0.2;
        fill: url(#Degradado_sin_nombre_34);
      }

      .cls-6 {
        fill: url(#radial-gradient-4);
      }

      .cls-7 {
        fill: url(#radial-gradient-5);
      }
    </style>
    <radialGradient id="radial-gradient" cx="57.66932" cy="13.77686" r="70.25578" gradientTransform="translate(115.33865 23.84068) rotate(180) scale(1 0.73049)" gradientUnits="userSpaceOnUse">
      <stop offset="0" stop-color="#fff"/>
      <stop offset="0.198" stop-color="#d5f3ff"/>
      <stop offset="1" stop-color="#85bcf1"/>
    </radialGradient>
    <radialGradient id="radial-gradient-2" cx="1441.46506" cy="-1686.00188" r="8.47603" gradientTransform="matrix(-0.8392, 1.1536, -1.6186, -1.3126, -1466.11591, -3858.04984)" gradientUnits="userSpaceOnUse">
      <stop offset="0" stop-color="#fff"/>
      <stop offset="0.10256" stop-color="#fff" stop-opacity="0.84849"/>
      <stop offset="0.29029" stop-color="#fff" stop-opacity="0.59415"/>
      <stop offset="0.4694" stop-color="#fff" stop-opacity="0.38204"/>
      <stop offset="0.63471" stop-color="#fff" stop-opacity="0.21674"/>
      <stop offset="0.78337" stop-color="#fff" stop-opacity="0.09804"/>
      <stop offset="0.91014" stop-color="#fff" stop-opacity="0.02577"/>
      <stop offset="1" stop-color="#fff" stop-opacity="0"/>
    </radialGradient>
    <radialGradient id="radial-gradient-3" cx="1441.21019" cy="-1701.66005" r="6.66148" xlink:href="#radial-gradient-2"/>
    <radialGradient id="Degradado_sin_nombre_34" data-name="Degradado sin nombre 34" cx="10.93447" cy="51.52564" r="4.87095" gradientTransform="matrix(0.90102, -0.43378, 1.26276, 2.62292, -63.98245, -78.87869)" xlink:href="#radial-gradient-2"/>
    <radialGradient id="radial-gradient-4" cx="1093.69593" cy="-26.11681" r="62.65461" gradientTransform="translate(-313.61188 82.73507) scale(0.3236 0.29977)" gradientUnits="userSpaceOnUse">
      <stop offset="0" stop-color="#28cbe9"/>
      <stop offset="1" stop-color="#0a4fbb"/>
    </radialGradient>
    <radialGradient id="radial-gradient-5" cx="1171.32552" cy="-26.11681" r="62.65461" xlink:href="#radial-gradient-4"/>
  </defs>
  <g class="cls-1">
    <g id="Слой_2" data-name="Слой 2">
      <g id="OBJECTS">
        <g>
          <path class="cls-2" d="M72.9951,25.1465a27.00444,27.00444,0,0,0-53.8809,0A20.123,20.123,0,0,0,20.123,65.3672H71.9858a20.123,20.123,0,0,0,1.0093-40.2207Z"/>
          <path class="cls-3" d="M46.0561,27.6484C38.4809,21.5019,35.522,12.1465,39.4492,6.7461c3.9297-5.4004,13.2563-4.793,20.835,1.3476,7.5737,6.1446,10.5293,15.5059,6.604,20.9024C62.9575,34.3984,53.6308,33.791,46.0561,27.6484Z"/>
          <path class="cls-4" d="M73.1377,45.8144c-5.9536-4.8301-8.2793-12.1855-5.1934-16.4277,3.0889-4.2461,10.4185-3.7676,16.3745,1.0586,5.9527,4.8301,8.2749,12.1875,5.1909,16.4277C86.4189,51.1191,79.0893,50.6425,73.1377,45.8144Z"/>
          <path class="cls-5" d="M14.3877,46.4883C9.9946,39.6347,4.8916,36.3379,2.9804,39.1172c-1.9047,2.7753.1099,10.5878,4.5,17.4433,4.3956,6.8535,9.5015,10.1543,11.4073,7.3731C20.7934,61.1484,18.7807,53.3457,14.3877,46.4883Z"/>
        </g>
        <path class="cls-6" d="M43.38032,83.39293,41.2058,82.23014l.6728-.35948a.99351.99351,0,0,0,.40926-1.41223,1.1666,1.1666,0,0,0-1.5245-.3788l-1.78962.9561-1.65152-.88292a3.27728,3.27728,0,0,0,0-1.7073l1.65152-.88352,1.789.9567a1.17617,1.17617,0,0,0,.5565.13936,1.13517,1.13517,0,0,0,.96764-.51759.99374.99374,0,0,0-.40829-1.4122l-.67342-.36008,2.17514-1.16279a.99382.99382,0,0,0,.40861-1.4122,1.16406,1.16406,0,0,0-1.52446-.37823l-2.17485,1.16279.00094-.71957a1.07753,1.07753,0,0,0-1.11618-1.034h0a1.07723,1.07723,0,0,0-1.11617,1.03341L37.85756,75.771l-1.6531.88409a4.01751,4.01751,0,0,0-1.5943-.8554V74.03442l1.7893-.9573a.99241.99241,0,0,0,.408-1.41163,1.16518,1.16518,0,0,0-1.52446-.37882l-.67281.36008V69.32118a1.11933,1.11933,0,0,0-2.23206,0v2.32557l-.67342-.36008a1.16548,1.16548,0,0,0-1.5245.37882.99327.99327,0,0,0,.40829,1.41163l1.78963.9573v1.76524a4.01462,4.01462,0,0,0-1.59462.856l-1.6531-.88469V73.85758a1.11933,1.11933,0,0,0-2.23206,0v.72017L24.72412,73.415a1.16436,1.16436,0,0,0-1.5245.37823.99306.99306,0,0,0,.40832,1.4122l2.17421,1.16279-.67375.35948a.99437.99437,0,0,0-.40829,1.4128,1.1357,1.1357,0,0,0,.968.517,1.17563,1.17563,0,0,0,.5565-.13876l1.78963-.9567,1.65245.88352a3.26835,3.26835,0,0,0,0,1.7073l-1.65245.88292-1.78869-.9567a1.16493,1.16493,0,0,0-1.52447.37823.99248.99248,0,0,0,.4083,1.41223l.67345.36006-2.17485,1.16338a.99283.99283,0,0,0-.40832,1.4122,1.13331,1.13331,0,0,0,.96735.517,1.17666,1.17666,0,0,0,.55715-.13876l2.17326-1.16279v.71954a1.11944,1.11944,0,0,0,2.23235,0l.00065-1.91339,1.6531-.88466a4.01576,4.01576,0,0,0,1.594.856v1.76588l-1.789.95669a.99257.99257,0,0,0-.40829,1.4122,1.16435,1.16435,0,0,0,1.5245.37822l.67342-.36008v2.32617a1.11929,1.11929,0,0,0,2.23206,0V86.95157l.67248.36008a1.17658,1.17658,0,0,0,.55715.13877,1.13325,1.13325,0,0,0,.967-.517.99325.99325,0,0,0-.40736-1.41223l-1.78962-.95726V82.79806a4.00516,4.00516,0,0,0,1.59462-.8554l1.6531.88352v1.914a1.11928,1.11928,0,0,0,2.23206,0V84.02l2.17485,1.16339a1.17587,1.17587,0,0,0,.5565.13876,1.13576,1.13576,0,0,0,.968-.517A.99359.99359,0,0,0,43.38032,83.39293Zm-9.886-2.51059a1.58781,1.58781,0,1,1,1.709-1.58316A1.65128,1.65128,0,0,1,33.49428,80.88234Z"/>
        <path class="cls-7" d="M68.50158,83.39293l-2.17453-1.16279.67281-.35948a.99351.99351,0,0,0,.40926-1.41223,1.1666,1.1666,0,0,0-1.5245-.3788l-1.78963.9561-1.65151-.88292a3.27728,3.27728,0,0,0,0-1.7073L64.095,77.562l1.789.9567a1.17617,1.17617,0,0,0,.5565.13936,1.13517,1.13517,0,0,0,.96764-.51759.99374.99374,0,0,0-.40829-1.4122l-.67342-.36008,2.17514-1.16279a.99383.99383,0,0,0,.40861-1.4122,1.16406,1.16406,0,0,0-1.52446-.37823l-2.17485,1.16279.00094-.71957a1.07753,1.07753,0,0,0-1.11618-1.034h0a1.07723,1.07723,0,0,0-1.11617,1.03341L62.97882,75.771l-1.6531.88409a4.01751,4.01751,0,0,0-1.5943-.8554V74.03442l1.7893-.9573a.99241.99241,0,0,0,.408-1.41163,1.16519,1.16519,0,0,0-1.52447-.37882l-.6728.36008V69.32118a1.11933,1.11933,0,0,0-2.23206,0v2.32557l-.67342-.36008a1.16548,1.16548,0,0,0-1.5245.37882.99327.99327,0,0,0,.40829,1.41163l1.78963.9573v1.76524a4.01462,4.01462,0,0,0-1.59462.856l-1.6531-.88469V73.85758a1.11933,1.11933,0,0,0-2.23206,0v.72017L49.84538,73.415a1.16436,1.16436,0,0,0-1.5245.37823.99306.99306,0,0,0,.40832,1.4122l2.1742,1.16279-.67374.35948a.99437.99437,0,0,0-.40829,1.4128,1.13569,1.13569,0,0,0,.968.517,1.17563,1.17563,0,0,0,.5565-.13876l1.78963-.9567,1.65245.88352a3.26835,3.26835,0,0,0,0,1.7073l-1.65245.88292-1.78869-.9567a1.16493,1.16493,0,0,0-1.52447.37823.99248.99248,0,0,0,.4083,1.41223l.67345.36006L48.7292,83.39293a.99283.99283,0,0,0-.40832,1.4122,1.13331,1.13331,0,0,0,.96735.517,1.17666,1.17666,0,0,0,.55715-.13876l2.17326-1.16279v.71954a1.11944,1.11944,0,0,0,2.23235,0l.00065-1.91339,1.6531-.88466a4.01579,4.01579,0,0,0,1.594.856v1.76588l-1.789.95669a.99257.99257,0,0,0-.40829,1.4122,1.16435,1.16435,0,0,0,1.5245.37822l.67342-.36008v2.32617a1.11929,1.11929,0,0,0,2.23206,0V86.95157l.67248.36008a1.17658,1.17658,0,0,0,.55715.13877,1.13325,1.13325,0,0,0,.967-.517.99325.99325,0,0,0-.40736-1.41223l-1.78962-.95726V82.79806a4.00516,4.00516,0,0,0,1.59462-.8554l1.6531.88352v1.914a1.11928,1.11928,0,0,0,2.23206,0V84.02l2.17485,1.16339a1.17587,1.17587,0,0,0,.5565.13876,1.13576,1.13576,0,0,0,.968-.517A.9936.9936,0,0,0,68.50158,83.39293Zm-9.886-2.51059a1.58781,1.58781,0,1,1,1.709-1.58316A1.65128,1.65128,0,0,1,58.61554,80.88234Z"/>
      </g>
    </g>
  </g>
</svg>
