<svg xmlns="http://www.w3.org/2000/svg" xmlns:xlink="http://www.w3.org/1999/xlink" width="92.1094" height="86.15366" viewBox="0 0 92.1094 86.15366">
  <defs>
    <style>
      .cls-1 {
        isolation: isolate;
      }

      .cls-2 {
        fill: url(#radial-gradient);
      }

      .cls-11, .cls-13, .cls-3, .cls-4, .cls-5, .cls-7, .cls-9 {
        mix-blend-mode: overlay;
      }

      .cls-3 {
        fill: url(#radial-gradient-2);
      }

      .cls-4 {
        opacity: 0.4;
        fill: url(#radial-gradient-3);
      }

      .cls-5 {
        opacity: 0.2;
        fill: url(#Degradado_sin_nombre_34);
      }

      .cls-6 {
        fill: url(#radial-gradient-4);
      }

      .cls-7 {
        fill: url(#radial-gradient-5);
      }

      .cls-8 {
        fill: url(#radial-gradient-6);
      }

      .cls-9 {
        fill: url(#radial-gradient-7);
      }

      .cls-10 {
        fill: url(#radial-gradient-8);
      }

      .cls-11 {
        fill: url(#radial-gradient-9);
      }

      .cls-12 {
        fill: url(#radial-gradient-10);
      }

      .cls-13 {
        fill: url(#radial-gradient-11);
      }

      .cls-14 {
        fill: url(#radial-gradient-12);
      }
    </style>
    <radialGradient id="radial-gradient" cx="57.66932" cy="13.77686" r="70.25578" gradientTransform="translate(115.33865 23.84068) rotate(180) scale(1 0.73049)" gradientUnits="userSpaceOnUse">
      <stop offset="0" stop-color="#fff"/>
      <stop offset="0.198" stop-color="#d5f3ff"/>
      <stop offset="1" stop-color="#85bcf1"/>
    </radialGradient>
    <radialGradient id="radial-gradient-2" cx="1433.97282" cy="-1629.57748" r="8.47603" gradientTransform="matrix(-0.8392, 1.1536, -1.6186, -1.3126, -1381.07486, -3775.34412)" gradientUnits="userSpaceOnUse">
      <stop offset="0" stop-color="#fff"/>
      <stop offset="0.10256" stop-color="#fff" stop-opacity="0.84849"/>
      <stop offset="0.29029" stop-color="#fff" stop-opacity="0.59415"/>
      <stop offset="0.4694" stop-color="#fff" stop-opacity="0.38204"/>
      <stop offset="0.63471" stop-color="#fff" stop-opacity="0.21674"/>
      <stop offset="0.78337" stop-color="#fff" stop-opacity="0.09804"/>
      <stop offset="0.91014" stop-color="#fff" stop-opacity="0.02577"/>
      <stop offset="1" stop-color="#fff" stop-opacity="0"/>
    </radialGradient>
    <radialGradient id="radial-gradient-3" cx="1433.71794" cy="-1645.23565" r="6.66148" xlink:href="#radial-gradient-2"/>
    <radialGradient id="Degradado_sin_nombre_34" data-name="Degradado sin nombre 34" cx="10.93447" cy="51.52564" r="4.87095" gradientTransform="matrix(0.90102, -0.43378, 1.26276, 2.62292, -63.98245, -78.87869)" xlink:href="#radial-gradient-2"/>
    <radialGradient id="radial-gradient-4" cx="-260.82854" cy="147.93815" r="9.89087" gradientTransform="translate(328.84916 82.47394) rotate(30.00073)" gradientUnits="userSpaceOnUse">
      <stop offset="0" stop-color="#d0f2ff"/>
      <stop offset="0.198" stop-color="#d5f3ff"/>
      <stop offset="1" stop-color="#85bcf1"/>
    </radialGradient>
    <radialGradient id="radial-gradient-5" cx="1643.33846" cy="-1544.0854" r="1.54923" gradientTransform="matrix(-1.3036, 0.5794, -0.7454, -1.946, 1020.81979, -3877.41131)" xlink:href="#radial-gradient-2"/>
    <radialGradient id="radial-gradient-6" cx="-245.93911" cy="139.34132" r="9.89131" xlink:href="#radial-gradient-4"/>
    <radialGradient id="radial-gradient-7" cx="1632.06874" cy="-1547.4409" r="1.54924" gradientTransform="matrix(-1.3036, 0.5794, -0.7454, -1.946, 1020.81979, -3877.41131)" xlink:href="#radial-gradient-2"/>
    <radialGradient id="radial-gradient-8" cx="-231.04921" cy="130.74454" r="9.89087" xlink:href="#radial-gradient-4"/>
    <radialGradient id="radial-gradient-9" cx="1620.79833" cy="-1550.79654" r="1.54924" gradientTransform="matrix(-1.3036, 0.5794, -0.7454, -1.946, 1020.81979, -3877.41131)" xlink:href="#radial-gradient-2"/>
    <radialGradient id="radial-gradient-10" cx="-216.15936" cy="122.14762" r="9.89087" xlink:href="#radial-gradient-4"/>
    <radialGradient id="radial-gradient-11" cx="1609.52834" cy="-1554.15205" r="1.54931" gradientTransform="matrix(-1.3036, 0.5794, -0.7454, -1.946, 1020.81979, -3877.41131)" xlink:href="#radial-gradient-2"/>
    <radialGradient id="radial-gradient-12" cx="-161.14853" cy="293.24865" r="62.65461" gradientTransform="translate(61.71099 -1.35902) scale(0.27021 0.25393)" gradientUnits="userSpaceOnUse">
      <stop offset="0" stop-color="#28cbe9"/>
      <stop offset="1" stop-color="#0a4fbb"/>
    </radialGradient>
  </defs>
  <g class="cls-1">
    <g id="Слой_2" data-name="Слой 2">
      <g id="OBJECTS">
        <g>
          <path class="cls-2" d="M72.9951,25.1465a27.00444,27.00444,0,0,0-53.8809,0A20.123,20.123,0,0,0,20.123,65.3672H71.9858a20.123,20.123,0,0,0,1.0093-40.2207Z"/>
          <path class="cls-3" d="M46.0561,27.6484C38.4809,21.5019,35.522,12.1465,39.4492,6.7461c3.9297-5.4004,13.2563-4.793,20.835,1.3476,7.5737,6.1446,10.5293,15.5059,6.604,20.9024C62.9575,34.3984,53.6308,33.791,46.0561,27.6484Z"/>
          <path class="cls-4" d="M73.1377,45.8144c-5.9536-4.8301-8.2793-12.1855-5.1934-16.4277,3.0889-4.2461,10.4185-3.7676,16.3745,1.0586,5.9527,4.8301,8.2749,12.1875,5.1909,16.4277C86.4189,51.1191,79.0893,50.6425,73.1377,45.8144Z"/>
          <path class="cls-5" d="M14.3877,46.4883C9.9946,39.6347,4.8916,36.3379,2.9804,39.1172c-1.9047,2.7753.1099,10.5878,4.5,17.4433,4.3956,6.8535,9.5015,10.1543,11.4073,7.3731C20.7934,61.1484,18.7807,53.3457,14.3877,46.4883Z"/>
        </g>
        <g>
          <g>
            <path class="cls-6" d="M34.50575,81.11025a4.11114,4.11114,0,0,1-7.1206-4.1113c1.1352-1.9668,8.1562-5.9062,8.1562-5.9062S35.64105,79.14345,34.50575,81.11025Z"/>
            <path class="cls-7" d="M27.50525,80.42675c-.6372-1.6641-.251-3.4161.8652-3.9122,1.1153-.4961,2.5362.4512,3.1744,2.1172.6377,1.666.2495,3.418-.8653,3.9121C29.56385,83.04,28.14245,82.09275,27.50525,80.42675Z"/>
          </g>
          <g>
            <path class="cls-8" d="M51.69865,81.11025a4.11135,4.11135,0,0,1-7.1211-4.1113c1.1352-1.9668,8.1567-5.9062,8.1567-5.9062S52.83385,79.14345,51.69865,81.11025Z"/>
            <path class="cls-9" d="M44.69765,80.42675c-.6367-1.6641-.2505-3.4161.8652-3.9122,1.1153-.4961,2.5366.4512,3.1743,2.1172.6382,1.666.25,3.418-.8647,3.9121C46.75625,83.04,45.33535,82.09275,44.69765,80.42675Z"/>
          </g>
          <g>
            <path class="cls-10" d="M68.89145,81.11025a4.11114,4.11114,0,0,1-7.1206-4.1113c1.1353-1.9668,8.1563-5.9062,8.1563-5.9062S70.02675,79.14345,68.89145,81.11025Z"/>
            <path class="cls-11" d="M61.89105,80.42675c-.6373-1.6641-.251-3.4161.8652-3.9122,1.1152-.4961,2.5366.4512,3.1743,2.1172s.25,3.418-.8647,3.9121C63.94955,83.04,62.52825,82.09275,61.89105,80.42675Z"/>
          </g>
        </g>
        <g>
          <path class="cls-12" d="M86.08452,81.11025a4.11114,4.11114,0,0,1-7.1206-4.1113c1.1353-1.9668,8.1563-5.9062,8.1563-5.9062S87.21982,79.14345,86.08452,81.11025Z"/>
          <path class="cls-13" d="M79.08352,80.42675c-.6367-1.6641-.2505-3.4161.8658-3.9122,1.1152-.4961,2.5361.4512,3.1743,2.1172.6377,1.666.2495,3.418-.8653,3.9121C81.14212,83.04,79.72122,82.09275,79.08352,80.42675Z"/>
        </g>
        <path class="cls-14" d="M20.7287,80.29353l-1.81572-.985.56179-.30451a.84762.84762,0,0,0,.34173-1.19624.96592.96592,0,0,0-1.273-.32087l-1.49434.80988-1.379-.74789a2.8146,2.8146,0,0,0,0-1.44619l1.379-.7484,1.49383.81038a.97094.97094,0,0,0,.46467.118.94439.94439,0,0,0,.808-.43842.84784.84784,0,0,0-.34092-1.19623l-.5623-.305,1.81623-.985a.84789.84789,0,0,0,.34119-1.19622.96384.96384,0,0,0-1.27292-.32038l-1.816.985.00079-.60953a.90532.90532,0,0,0-.932-.87587h0a.90506.90506,0,0,0-.932.87536l-.00054,1.62077-1.38033.74887a3.34016,3.34016,0,0,0-1.33124-.72457V72.36628l1.49406-.81089a.84669.84669,0,0,0,.34065-1.19574.96476.96476,0,0,0-1.27292-.32089l-.56179.305V68.37387a.93371.93371,0,0,0-1.86377,0v1.96991l-.5623-.305a.965.965,0,0,0-1.273.32089.84744.84744,0,0,0,.34092,1.19574l1.49434.81089v1.49527a3.33767,3.33767,0,0,0-1.33151.72508L8.83,73.83725V72.21648a.93371.93371,0,0,0-1.86377,0v.61l-1.81545-.985a.96409.96409,0,0,0-1.27295.32038.84723.84723,0,0,0,.341,1.19622l1.81545.985-.56257.30451a.84837.84837,0,0,0-.34093,1.19673.94483.94483,0,0,0,.80825.43792.97058.97058,0,0,0,.46468-.11755L7.898,75.35435l1.3798.7484a2.80685,2.80685,0,0,0,0,1.44619l-1.3798.74789-1.49355-.81038a.96455.96455,0,0,0-1.27293.32037.84675.84675,0,0,0,.34093,1.19625l.56233.305-1.816.98547a.847.847,0,0,0-.341,1.19622.94283.94283,0,0,0,.80773.43794.97127.97127,0,0,0,.46522-.11754l1.81467-.98495v.6095a.9338.9338,0,0,0,1.864,0L8.83,79.81393l1.38033-.74936a3.33869,3.33869,0,0,0,1.331.72506v1.49581l-1.49383.81038A.84682.84682,0,0,0,9.70661,83.292a.9641.9641,0,0,0,1.273.32038l.5623-.305v1.97042a.93368.93368,0,0,0,1.86377,0V83.30791l.56152.305a.9713.9713,0,0,0,.46522.11754.94278.94278,0,0,0,.80746-.43792.84741.84741,0,0,0-.34014-1.19625l-1.49433-.81086V79.78963a3.32993,3.32993,0,0,0,1.33151-.72457l1.38033.74839V81.4347a.93367.93367,0,0,0,1.86376,0v-.61l1.816.98546a.97065.97065,0,0,0,.46468.11754.94486.94486,0,0,0,.80824-.43794A.84769.84769,0,0,0,20.7287,80.29353Zm-8.25482-2.12664a1.34364,1.34364,0,1,1,1.42705-1.341A1.38735,1.38735,0,0,1,12.47388,78.16689Z"/>
      </g>
    </g>
  </g>
</svg>
