<svg xmlns="http://www.w3.org/2000/svg" xmlns:xlink="http://www.w3.org/1999/xlink" width="92.1094" height="79.78983" viewBox="0 0 92.1094 79.78983">
  <defs>
    <style>
      .cls-1 {
        isolation: isolate;
      }

      .cls-2 {
        fill: url(#radial-gradient);
      }

      .cls-11, .cls-13, .cls-3, .cls-4, .cls-5, .cls-7, .cls-9 {
        mix-blend-mode: overlay;
      }

      .cls-3 {
        fill: url(#radial-gradient-2);
      }

      .cls-4 {
        opacity: 0.4;
        fill: url(#radial-gradient-3);
      }

      .cls-5 {
        opacity: 0.2;
        fill: url(#Degradado_sin_nombre_34);
      }

      .cls-6 {
        fill: url(#radial-gradient-4);
      }

      .cls-7 {
        fill: url(#radial-gradient-5);
      }

      .cls-8 {
        fill: url(#radial-gradient-6);
      }

      .cls-9 {
        fill: url(#radial-gradient-7);
      }

      .cls-10 {
        fill: url(#radial-gradient-8);
      }

      .cls-11 {
        fill: url(#radial-gradient-9);
      }

      .cls-12 {
        fill: url(#radial-gradient-10);
      }

      .cls-13 {
        fill: url(#radial-gradient-11);
      }
    </style>
    <radialGradient id="radial-gradient" cx="57.66932" cy="13.77686" r="70.25578" gradientTransform="translate(115.33865 23.84068) rotate(180) scale(1 0.73049)" gradientUnits="userSpaceOnUse">
      <stop offset="0" stop-color="#fff"/>
      <stop offset="0.198" stop-color="#d5f3ff"/>
      <stop offset="1" stop-color="#85bcf1"/>
    </radialGradient>
    <radialGradient id="radial-gradient-2" cx="1441.46506" cy="-1686.00188" r="8.47603" gradientTransform="matrix(-0.8392, 1.1536, -1.6186, -1.3126, -1466.11591, -3858.04984)" gradientUnits="userSpaceOnUse">
      <stop offset="0" stop-color="#fff"/>
      <stop offset="0.10256" stop-color="#fff" stop-opacity="0.84849"/>
      <stop offset="0.29029" stop-color="#fff" stop-opacity="0.59415"/>
      <stop offset="0.4694" stop-color="#fff" stop-opacity="0.38204"/>
      <stop offset="0.63471" stop-color="#fff" stop-opacity="0.21674"/>
      <stop offset="0.78337" stop-color="#fff" stop-opacity="0.09804"/>
      <stop offset="0.91014" stop-color="#fff" stop-opacity="0.02577"/>
      <stop offset="1" stop-color="#fff" stop-opacity="0"/>
    </radialGradient>
    <radialGradient id="radial-gradient-3" cx="1441.21019" cy="-1701.66005" r="6.66148" xlink:href="#radial-gradient-2"/>
    <radialGradient id="Degradado_sin_nombre_34" data-name="Degradado sin nombre 34" cx="10.93447" cy="51.52564" r="4.87095" gradientTransform="matrix(0.90102, -0.43378, 1.26276, 2.62292, -63.98245, -78.87869)" xlink:href="#radial-gradient-2"/>
    <radialGradient id="radial-gradient-4" cx="-252.9095" cy="139.86943" r="9.89087" gradientTransform="translate(307.03367 82.12599) rotate(30.00073)" gradientUnits="userSpaceOnUse">
      <stop offset="0" stop-color="#d0f2ff"/>
      <stop offset="0.198" stop-color="#d5f3ff"/>
      <stop offset="1" stop-color="#85bcf1"/>
    </radialGradient>
    <radialGradient id="radial-gradient-5" cx="1642.92989" cy="-1601.30642" r="1.54923" gradientTransform="matrix(-1.3036, 0.5794, -0.7454, -1.946, 966.71138, -3991.90264)" xlink:href="#radial-gradient-2"/>
    <radialGradient id="radial-gradient-6" cx="-238.02007" cy="131.2726" r="9.89131" xlink:href="#radial-gradient-4"/>
    <radialGradient id="radial-gradient-7" cx="1631.66017" cy="-1604.66192" r="1.54924" gradientTransform="matrix(-1.3036, 0.5794, -0.7454, -1.946, 966.71138, -3991.90264)" xlink:href="#radial-gradient-2"/>
    <radialGradient id="radial-gradient-8" cx="-223.13018" cy="122.67582" r="9.89087" xlink:href="#radial-gradient-4"/>
    <radialGradient id="radial-gradient-9" cx="1620.38976" cy="-1608.01756" r="1.54924" gradientTransform="matrix(-1.3036, 0.5794, -0.7454, -1.946, 966.71138, -3991.90264)" xlink:href="#radial-gradient-2"/>
    <radialGradient id="radial-gradient-10" cx="-208.24047" cy="114.07899" r="9.89087" xlink:href="#radial-gradient-4"/>
    <radialGradient id="radial-gradient-11" cx="1609.11988" cy="-1611.37304" r="1.54931" gradientTransform="matrix(-1.3036, 0.5794, -0.7454, -1.946, 966.71138, -3991.90264)" xlink:href="#radial-gradient-2"/>
  </defs>
  <g class="cls-1">
    <g id="Слой_2" data-name="Слой 2">
      <g id="OBJECTS">
        <g>
          <g>
            <path class="cls-2" d="M72.9951,25.1465a27.00444,27.00444,0,0,0-53.8809,0A20.123,20.123,0,0,0,20.123,65.3672H71.9858a20.123,20.123,0,0,0,1.0093-40.2207Z"/>
            <path class="cls-3" d="M46.0561,27.6484C38.4809,21.5019,35.522,12.1465,39.4492,6.7461c3.9297-5.4004,13.2563-4.793,20.835,1.3476,7.5737,6.1446,10.5293,15.5059,6.604,20.9024C62.9575,34.3984,53.6308,33.791,46.0561,27.6484Z"/>
            <path class="cls-4" d="M73.1377,45.8144c-5.9536-4.8301-8.2793-12.1855-5.1934-16.4277,3.0889-4.2461,10.4185-3.7676,16.3745,1.0586,5.9527,4.8301,8.2749,12.1875,5.1909,16.4277C86.4189,51.1191,79.0893,50.6425,73.1377,45.8144Z"/>
            <path class="cls-5" d="M14.3877,46.4883C9.9946,39.6347,4.8916,36.3379,2.9804,39.1172c-1.9047,2.7753.1099,10.5878,4.5,17.4433,4.3956,6.8535,9.5015,10.1543,11.4073,7.3731C20.7934,61.1484,18.7807,53.3457,14.3877,46.4883Z"/>
          </g>
          <g>
            <g>
              <path class="cls-6" d="M23.5825,77.7343a4.11114,4.11114,0,0,1-7.1206-4.1113c1.1352-1.9668,8.1562-5.9062,8.1562-5.9062S24.7178,75.7675,23.5825,77.7343Z"/>
              <path class="cls-7" d="M16.582,77.0508c-.6372-1.6641-.251-3.4161.8652-3.9122,1.1153-.4961,2.5362.4512,3.1744,2.1172.6377,1.666.2495,3.418-.8653,3.9121C18.6406,79.664,17.2192,78.7168,16.582,77.0508Z"/>
            </g>
            <g>
              <path class="cls-8" d="M40.7754,77.7343a4.11135,4.11135,0,0,1-7.1211-4.1113c1.1352-1.9668,8.1567-5.9062,8.1567-5.9062S41.9106,75.7675,40.7754,77.7343Z"/>
              <path class="cls-9" d="M33.7744,77.0508c-.6367-1.6641-.2505-3.4161.8652-3.9122,1.1153-.4961,2.5366.4512,3.1743,2.1172.6382,1.666.25,3.418-.8647,3.9121C35.833,79.664,34.4121,78.7168,33.7744,77.0508Z"/>
            </g>
            <g>
              <path class="cls-10" d="M57.9682,77.7343a4.11114,4.11114,0,0,1-7.1206-4.1113c1.1353-1.9668,8.1563-5.9062,8.1563-5.9062S59.1035,75.7675,57.9682,77.7343Z"/>
              <path class="cls-11" d="M50.9678,77.0508c-.6373-1.6641-.251-3.4161.8652-3.9122,1.1152-.4961,2.5366.4512,3.1743,2.1172s.25,3.418-.8647,3.9121C53.0263,79.664,51.605,78.7168,50.9678,77.0508Z"/>
            </g>
            <g>
              <path class="cls-12" d="M75.1611,77.7343a4.11114,4.11114,0,0,1-7.1206-4.1113c1.1353-1.9668,8.1563-5.9062,8.1563-5.9062S76.2964,75.7675,75.1611,77.7343Z"/>
              <path class="cls-13" d="M68.1601,77.0508c-.6367-1.6641-.2505-3.4161.8658-3.9122,1.1152-.4961,2.5361.4512,3.1743,2.1172.6377,1.666.2495,3.418-.8653,3.9121C70.2187,79.664,68.7978,78.7168,68.1601,77.0508Z"/>
            </g>
          </g>
        </g>
      </g>
    </g>
  </g>
</svg>
