<svg xmlns="http://www.w3.org/2000/svg" xmlns:xlink="http://www.w3.org/1999/xlink" width="92.1093" height="94.8583" viewBox="0 0 92.1093 94.8583">
  <defs>
    <style>
      .cls-1 {
        isolation: isolate;
      }

      .cls-2 {
        fill: url(#linear-gradient);
      }

      .cls-3 {
        fill: url(#radial-gradient);
      }

      .cls-4, .cls-5, .cls-6 {
        mix-blend-mode: overlay;
      }

      .cls-4 {
        opacity: 0.6;
        fill: url(#radial-gradient-2);
      }

      .cls-5 {
        opacity: 0.4;
        fill: url(#radial-gradient-3);
      }

      .cls-6 {
        opacity: 0.2;
        fill: url(#Degradado_sin_nombre_34);
      }

      .cls-7 {
        fill: url(#radial-gradient-4);
      }
    </style>
    <linearGradient id="linear-gradient" x1="48.18542" y1="94.09192" x2="59.7097" y2="57.80278" gradientUnits="userSpaceOnUse">
      <stop offset="0.15591" stop-color="#ffe036"/>
      <stop offset="1" stop-color="#fa761c"/>
    </linearGradient>
    <radialGradient id="radial-gradient" cx="57.66926" cy="13.77686" r="70.25575" gradientTransform="translate(115.33853 23.84068) rotate(180) scale(1 0.73049)" gradientUnits="userSpaceOnUse">
      <stop offset="0" stop-color="#b6ccd2"/>
      <stop offset="0.198" stop-color="#97b6be"/>
      <stop offset="1" stop-color="#5d87b4"/>
    </radialGradient>
    <radialGradient id="radial-gradient-2" cx="1389.87038" cy="-1576.15352" r="8.47612" gradientTransform="matrix(-0.8392, 1.1536, -1.6186, -1.3126, -1329.72259, -3654.34348)" gradientUnits="userSpaceOnUse">
      <stop offset="0" stop-color="#fff"/>
      <stop offset="0.10256" stop-color="#fff" stop-opacity="0.84849"/>
      <stop offset="0.29029" stop-color="#fff" stop-opacity="0.59415"/>
      <stop offset="0.4694" stop-color="#fff" stop-opacity="0.38204"/>
      <stop offset="0.63471" stop-color="#fff" stop-opacity="0.21674"/>
      <stop offset="0.78337" stop-color="#fff" stop-opacity="0.09804"/>
      <stop offset="0.91014" stop-color="#fff" stop-opacity="0.02577"/>
      <stop offset="1" stop-color="#fff" stop-opacity="0"/>
    </radialGradient>
    <radialGradient id="radial-gradient-3" cx="1390.45205" cy="-1591.07713" r="6.66144" xlink:href="#radial-gradient-2"/>
    <radialGradient id="Degradado_sin_nombre_34" data-name="Degradado sin nombre 34" cx="10.93465" cy="51.52566" r="4.87096" gradientTransform="matrix(0.90102, -0.43378, 1.26276, 2.62292, -63.98245, -78.87863)" xlink:href="#radial-gradient-2"/>
    <radialGradient id="radial-gradient-4" cx="991.49574" cy="-352.37766" r="62.65461" gradientTransform="translate(-268.41302 170.99672) scale(0.30772 0.2794)" gradientUnits="userSpaceOnUse">
      <stop offset="0" stop-color="#28cbe9"/>
      <stop offset="1" stop-color="#0a4fbb"/>
    </radialGradient>
  </defs>
  <g class="cls-1">
    <g id="Слой_2" data-name="Слой 2">
      <g id="OBJECTS">
        <path class="cls-2" d="M61.47774,71.68163h-4.3613l7.18941-13.9747a8.36127,8.36127,0,0,0,.71289-2,8.02855,8.02855,0,1,0-15.7051-3.3437L44.507,74.93943l-.1485.6933a5.00721,5.00721,0,0,0-.0996.9883,4.86957,4.86957,0,0,0,4.8672,4.8691h5.3203l-2.8711,11.9747a1.13143,1.13143,0,0,0,2.0157.9277l11.4336-15.7559a4.38309,4.38309,0,0,0-3.5469-6.955Z"/>
        <g>
          <path class="cls-3" d="M72.9961,25.1465a27.00551,27.00551,0,0,0-53.8829,0A20.123,20.123,0,0,0,20.123,65.3672H71.9863a20.123,20.123,0,0,0,1.0098-40.2207Z"/>
          <path class="cls-4" d="M47.9472,27.6484c-7.5761-6.1465-10.5351-15.5019-6.6074-20.9023,3.9297-5.4004,13.2559-4.793,20.8359,1.3476,7.5723,6.1446,10.5274,15.5078,6.6036,20.9024C64.84761,34.4004,55.5215,33.7929,47.9472,27.6484Z"/>
          <path class="cls-5" d="M73.1367,45.8144c-5.95309-4.8301-8.2774-12.1836-5.1914-16.4277,3.0879-4.2442,10.4179-3.7676,16.373,1.0586,5.9532,4.8301,8.2754,12.1875,5.1914,16.4277C86.4199,51.1191,79.0898,50.6425,73.1367,45.8144Z"/>
          <path class="cls-6" d="M14.38861,46.4902C9.9941,39.6347,4.8925,36.3379,2.9804,39.1172c-1.9043,2.7753.1094,10.5878,4.5,17.4433,4.3965,6.8535,9.502,10.1543,11.40821,7.3731C20.7929,61.1504,18.7812,53.3457,14.38861,46.4902Z"/>
        </g>
        <path class="cls-7" d="M39.60225,80.45383l-2.06776-1.08375.63977-.335a.91694.91694,0,0,0,.38917-1.31623,1.12269,1.12269,0,0,0-1.44965-.353l-1.70175.89111L33.8416,77.434a2.99584,2.99584,0,0,0,0-1.59124l1.57043-.82347,1.70117.89167a1.13656,1.13656,0,0,0,.52918.12989,1.08535,1.08535,0,0,0,.92013-.48241.91714.91714,0,0,0-.38825-1.3162l-.64035-.33562,2.06834-1.08374a.91723.91723,0,0,0,.38855-1.31621,1.12023,1.12023,0,0,0-1.44962-.35252l-2.06806,1.08375.00089-.67066a1.01616,1.01616,0,0,0-1.06137-.96372h0a1.0159,1.0159,0,0,0-1.06137.96316L34.35066,73.35l-1.57193.824a3.84522,3.84522,0,0,0-1.516-.79726V71.73145l1.70145-.89223a.91592.91592,0,0,0,.38794-1.31567,1.12131,1.12131,0,0,0-1.44961-.35308l-.63978.33562v-2.1675a1.06622,1.06622,0,0,0-2.12246,0v2.1675l-.64036-.33562a1.1216,1.1216,0,0,0-1.44964.35308.9167.9167,0,0,0,.38824,1.31567l1.70176.89223V73.3767a3.84236,3.84236,0,0,0-1.51633.79782L26.052,73.35V71.56663a1.06623,1.06623,0,0,0-2.12247,0v.67122L21.86207,71.1541a1.12053,1.12053,0,0,0-1.44965.35252.91652.91652,0,0,0,.38828,1.31621l2.06745,1.08374-.64067.33506a.91771.91771,0,0,0-.38824,1.31676,1.08586,1.08586,0,0,0,.92043.48185,1.13608,1.13608,0,0,0,.52918-.12933l1.70176-.89167,1.57132.82347a2.98754,2.98754,0,0,0,0,1.59124l-1.57132.82291-1.70087-.89167a1.12106,1.12106,0,0,0-1.44961.35252.916.916,0,0,0,.38824,1.31623l.64039.33558L20.8007,80.45383A.91631.91631,0,0,0,20.41242,81.77a1.0836,1.0836,0,0,0,.91986.48187,1.13707,1.13707,0,0,0,.52979-.12933l2.06655-1.08375v.67064a1.06632,1.06632,0,0,0,2.12274,0l.00062-1.78333,1.57193-.82453a3.84355,3.84355,0,0,0,1.51574.79779v1.64584l-1.70117.89166a.91608.91608,0,0,0-.38824,1.31621,1.1205,1.1205,0,0,0,1.44964.35251l.64036-.33561v2.16806a1.06617,1.06617,0,0,0,2.12246,0v-2.1675l.63947.33561a1.13687,1.13687,0,0,0,.52979.12934,1.08356,1.08356,0,0,0,.91955-.48185.91668.91668,0,0,0-.38736-1.31624l-1.70175-.89219V79.8994a3.83341,3.83341,0,0,0,1.51633-.79726l1.57193.82347v1.78386a1.06616,1.06616,0,0,0,2.12246,0v-.6712l2.06806,1.08431a1.13639,1.13639,0,0,0,.52918.12933A1.086,1.086,0,0,0,39.9908,81.77.917.917,0,0,0,39.60225,80.45383Zm-9.40064-2.33994a1.48244,1.48244,0,1,1,1.62514-1.47555A1.55723,1.55723,0,0,1,30.20161,78.11389Z"/>
      </g>
    </g>
  </g>
</svg>
