<svg xmlns="http://www.w3.org/2000/svg" xmlns:xlink="http://www.w3.org/1999/xlink" width="92.1093" height="94.8583" viewBox="0 0 92.1093 94.8583">
  <defs>
    <style>
      .cls-1 {
        isolation: isolate;
      }

      .cls-2 {
        fill: url(#linear-gradient);
      }

      .cls-3 {
        fill: url(#radial-gradient);
      }

      .cls-4, .cls-5, .cls-6 {
        mix-blend-mode: overlay;
      }

      .cls-4 {
        opacity: 0.6;
        fill: url(#radial-gradient-2);
      }

      .cls-5 {
        opacity: 0.4;
        fill: url(#radial-gradient-3);
      }

      .cls-6 {
        opacity: 0.2;
        fill: url(#Degradado_sin_nombre_34);
      }
    </style>
    <linearGradient id="linear-gradient" x1="41.16985" y1="94.09192" x2="52.69413" y2="57.80278" gradientUnits="userSpaceOnUse">
      <stop offset="0.15591" stop-color="#ffe036"/>
      <stop offset="1" stop-color="#fa761c"/>
    </linearGradient>
    <radialGradient id="radial-gradient" cx="57.66926" cy="13.77686" r="70.25575" gradientTransform="translate(115.33853 23.84068) rotate(180) scale(1 0.73049)" gradientUnits="userSpaceOnUse">
      <stop offset="0" stop-color="#b6ccd2"/>
      <stop offset="0.198" stop-color="#97b6be"/>
      <stop offset="1" stop-color="#5d87b4"/>
    </radialGradient>
    <radialGradient id="radial-gradient-2" cx="1389.87038" cy="-1576.15352" r="8.47612" gradientTransform="matrix(-0.8392, 1.1536, -1.6186, -1.3126, -1329.72259, -3654.34348)" gradientUnits="userSpaceOnUse">
      <stop offset="0" stop-color="#fff"/>
      <stop offset="0.10256" stop-color="#fff" stop-opacity="0.84849"/>
      <stop offset="0.29029" stop-color="#fff" stop-opacity="0.59415"/>
      <stop offset="0.4694" stop-color="#fff" stop-opacity="0.38204"/>
      <stop offset="0.63471" stop-color="#fff" stop-opacity="0.21674"/>
      <stop offset="0.78337" stop-color="#fff" stop-opacity="0.09804"/>
      <stop offset="0.91014" stop-color="#fff" stop-opacity="0.02577"/>
      <stop offset="1" stop-color="#fff" stop-opacity="0"/>
    </radialGradient>
    <radialGradient id="radial-gradient-3" cx="1390.45205" cy="-1591.07713" r="6.66144" xlink:href="#radial-gradient-2"/>
    <radialGradient id="Degradado_sin_nombre_34" data-name="Degradado sin nombre 34" cx="10.93465" cy="51.52566" r="4.87096" gradientTransform="matrix(0.90102, -0.43378, 1.26276, 2.62292, -63.98245, -78.87863)" xlink:href="#radial-gradient-2"/>
  </defs>
  <g class="cls-1">
    <g id="Слой_2" data-name="Слой 2">
      <g id="OBJECTS">
        <path class="cls-2" d="M54.46217,71.68163h-4.3613l7.18941-13.9747a8.36127,8.36127,0,0,0,.71289-2,8.02855,8.02855,0,1,0-15.7051-3.3437l-4.8066,22.5762-.1485.6933a5.00721,5.00721,0,0,0-.0996.9883,4.86957,4.86957,0,0,0,4.8672,4.8691h5.3203l-2.8711,11.9747a1.13143,1.13143,0,0,0,2.0157.9277l11.4336-15.7559a4.38309,4.38309,0,0,0-3.5469-6.955Z"/>
        <g>
          <path class="cls-3" d="M72.9961,25.1465a27.00551,27.00551,0,0,0-53.8829,0A20.123,20.123,0,0,0,20.123,65.3672H71.9863a20.123,20.123,0,0,0,1.0098-40.2207Z"/>
          <path class="cls-4" d="M47.9472,27.6484c-7.5761-6.1465-10.5351-15.5019-6.6074-20.9023,3.9297-5.4004,13.2559-4.793,20.8359,1.3476,7.5723,6.1446,10.5274,15.5078,6.6036,20.9024C64.84761,34.4004,55.5215,33.7929,47.9472,27.6484Z"/>
          <path class="cls-5" d="M73.1367,45.8144c-5.95309-4.8301-8.2774-12.1836-5.1914-16.4277,3.0879-4.2442,10.4179-3.7676,16.373,1.0586,5.9532,4.8301,8.2754,12.1875,5.1914,16.4277C86.4199,51.1191,79.0898,50.6425,73.1367,45.8144Z"/>
          <path class="cls-6" d="M14.38861,46.4902C9.9941,39.6347,4.8925,36.3379,2.9804,39.1172c-1.9043,2.7753.1094,10.5878,4.5,17.4433,4.3965,6.8535,9.502,10.1543,11.40821,7.3731C20.7929,61.1504,18.7812,53.3457,14.38861,46.4902Z"/>
        </g>
      </g>
    </g>
  </g>
</svg>
