<svg xmlns="http://www.w3.org/2000/svg" xmlns:xlink="http://www.w3.org/1999/xlink" width="92.1094" height="81.71132" viewBox="0 0 92.1094 81.71132">
  <defs>
    <style>
      .cls-1 {
        isolation: isolate;
      }

      .cls-2 {
        fill: url(#radial-gradient);
      }

      .cls-3, .cls-4, .cls-5, .cls-7, .cls-9 {
        mix-blend-mode: overlay;
      }

      .cls-3 {
        fill: url(#radial-gradient-2);
      }

      .cls-4 {
        opacity: 0.4;
        fill: url(#radial-gradient-3);
      }

      .cls-5 {
        opacity: 0.2;
        fill: url(#Degradado_sin_nombre_34);
      }

      .cls-6 {
        fill: url(#radial-gradient-4);
      }

      .cls-7 {
        fill: url(#radial-gradient-5);
      }

      .cls-8 {
        fill: url(#radial-gradient-6);
      }

      .cls-9 {
        fill: url(#radial-gradient-7);
      }
    </style>
    <radialGradient id="radial-gradient" cx="57.66932" cy="13.77686" r="70.25578" gradientTransform="translate(115.33865 23.84068) rotate(180) scale(1 0.73049)" gradientUnits="userSpaceOnUse">
      <stop offset="0" stop-color="#fff"/>
      <stop offset="0.198" stop-color="#d5f3ff"/>
      <stop offset="1" stop-color="#85bcf1"/>
    </radialGradient>
    <radialGradient id="radial-gradient-2" cx="1433.97282" cy="-1629.57748" r="8.47603" gradientTransform="matrix(-0.8392, 1.1536, -1.6186, -1.3126, -1381.07486, -3775.34412)" gradientUnits="userSpaceOnUse">
      <stop offset="0" stop-color="#fff"/>
      <stop offset="0.10256" stop-color="#fff" stop-opacity="0.84849"/>
      <stop offset="0.29029" stop-color="#fff" stop-opacity="0.59415"/>
      <stop offset="0.4694" stop-color="#fff" stop-opacity="0.38204"/>
      <stop offset="0.63471" stop-color="#fff" stop-opacity="0.21674"/>
      <stop offset="0.78337" stop-color="#fff" stop-opacity="0.09804"/>
      <stop offset="0.91014" stop-color="#fff" stop-opacity="0.02577"/>
      <stop offset="1" stop-color="#fff" stop-opacity="0"/>
    </radialGradient>
    <radialGradient id="radial-gradient-3" cx="1433.71794" cy="-1645.23565" r="6.66148" xlink:href="#radial-gradient-2"/>
    <radialGradient id="Degradado_sin_nombre_34" data-name="Degradado sin nombre 34" cx="10.93447" cy="51.52564" r="4.87095" gradientTransform="matrix(0.90102, -0.43378, 1.26276, 2.62292, -63.98245, -78.87869)" xlink:href="#radial-gradient-2"/>
    <radialGradient id="radial-gradient-4" cx="-257.10651" cy="143.16453" r="9.89131" gradientTransform="translate(328.84916 82.47394) rotate(30.00073)" gradientUnits="userSpaceOnUse">
      <stop offset="0" stop-color="#d0f2ff"/>
      <stop offset="0.198" stop-color="#d5f3ff"/>
      <stop offset="1" stop-color="#85bcf1"/>
    </radialGradient>
    <radialGradient id="radial-gradient-5" cx="1639.09054" cy="-1544.1823" r="1.54924" gradientTransform="matrix(-1.3036, 0.5794, -0.7454, -1.946, 1020.81979, -3877.41131)" xlink:href="#radial-gradient-2"/>
    <radialGradient id="radial-gradient-6" cx="-242.36608" cy="135.59901" r="9.89087" xlink:href="#radial-gradient-4"/>
    <radialGradient id="radial-gradient-7" cx="1628.44845" cy="-1547.77139" r="1.54924" gradientTransform="matrix(-1.3036, 0.5794, -0.7454, -1.946, 1020.81979, -3877.41131)" xlink:href="#radial-gradient-2"/>
  </defs>
  <g class="cls-1">
    <g id="Слой_2" data-name="Слой 2">
      <g id="OBJECTS">
        <g>
          <path class="cls-2" d="M72.9951,25.1465a27.00444,27.00444,0,0,0-53.8809,0A20.123,20.123,0,0,0,20.123,65.3672H71.9858a20.123,20.123,0,0,0,1.0093-40.2207Z"/>
          <path class="cls-3" d="M46.0561,27.6484C38.4809,21.5019,35.522,12.1465,39.4492,6.7461c3.9297-5.4004,13.2563-4.793,20.835,1.3476,7.5737,6.1446,10.5293,15.5059,6.604,20.9024C62.9575,34.3984,53.6308,33.791,46.0561,27.6484Z"/>
          <path class="cls-4" d="M73.1377,45.8144c-5.9536-4.8301-8.2793-12.1855-5.1934-16.4277,3.0889-4.2461,10.4185-3.7676,16.3745,1.0586,5.9527,4.8301,8.2749,12.1875,5.1909,16.4277C86.4189,51.1191,79.0893,50.6425,73.1377,45.8144Z"/>
          <path class="cls-5" d="M14.3877,46.4883C9.9946,39.6347,4.8916,36.3379,2.9804,39.1172c-1.9047,2.7753.1099,10.5878,4.5,17.4433,4.3956,6.8535,9.5015,10.1543,11.4073,7.3731C20.7934,61.1484,18.7807,53.3457,14.3877,46.4883Z"/>
        </g>
        <g>
          <path class="cls-6" d="M40.11607,78.83745a4.11135,4.11135,0,0,1-7.1211-4.1113c1.1352-1.9668,8.1567-5.9062,8.1567-5.9062S41.25127,76.87065,40.11607,78.83745Z"/>
          <path class="cls-7" d="M33.11507,78.154c-.6367-1.6641-.2505-3.4161.8652-3.9122,1.1153-.4961,2.5366.4512,3.1743,2.1172.6382,1.666.25,3.418-.8647,3.9121C35.17367,80.76715,33.75277,79.82,33.11507,78.154Z"/>
        </g>
        <g>
          <path class="cls-8" d="M56.6638,79.65579a4.11114,4.11114,0,0,1-7.1206-4.1113c1.1353-1.9668,8.1563-5.9062,8.1563-5.9062S57.7991,77.689,56.6638,79.65579Z"/>
          <path class="cls-9" d="M49.66341,78.97229c-.63731-1.6641-.251-3.4161.86519-3.9122,1.1152-.4961,2.5366.4512,3.1743,2.1172s.25,3.418-.8647,3.9121C51.7219,81.58549,50.3006,80.63829,49.66341,78.97229Z"/>
        </g>
      </g>
    </g>
  </g>
</svg>
