<svg xmlns="http://www.w3.org/2000/svg" xmlns:xlink="http://www.w3.org/1999/xlink" width="103.82809" height="94.23532" viewBox="0 0 103.82809 94.23532">
  <defs>
    <style>
      .cls-1 {
        isolation: isolate;
      }

      .cls-2 {
        fill: url(#linear-gradient);
      }

      .cls-3 {
        fill: url(#radial-gradient);
      }

      .cls-10, .cls-4, .cls-5, .cls-8, .cls-9 {
        mix-blend-mode: overlay;
      }

      .cls-4 {
        fill: url(#radial-gradient-2);
      }

      .cls-5, .cls-9 {
        opacity: 0.4;
      }

      .cls-5 {
        fill: url(#Degradado_sin_nombre_34);
      }

      .cls-6 {
        fill: url(#radial-gradient-3);
      }

      .cls-7 {
        fill: url(#radial-gradient-4);
      }

      .cls-8 {
        fill: url(#radial-gradient-5);
      }

      .cls-9 {
        fill: url(#radial-gradient-6);
      }

      .cls-10 {
        opacity: 0.2;
        fill: url(#Degradado_sin_nombre_34-2);
      }

      .cls-11 {
        fill: url(#radial-gradient-7);
      }

      .cls-12 {
        fill: url(#radial-gradient-8);
      }
    </style>
    <linearGradient id="linear-gradient" x1="101.26597" y1="-0.8618" x2="50.21601" y2="56.18497" gradientUnits="userSpaceOnUse">
      <stop offset="0" stop-color="#ffba24"/>
      <stop offset="1" stop-color="#f50"/>
    </linearGradient>
    <radialGradient id="radial-gradient" cx="-410.11351" cy="15.24365" r="40.8406" gradientTransform="matrix(-1, 0, 0, 1, -330.4111, 0)" gradientUnits="userSpaceOnUse">
      <stop offset="0" stop-color="#fff4c3"/>
      <stop offset="0.15591" stop-color="#ffe036"/>
      <stop offset="1" stop-color="#fa761c"/>
    </radialGradient>
    <radialGradient id="radial-gradient-2" cx="802.32491" cy="-1717.36205" r="6.1306" gradientTransform="matrix(-0.8392, 1.1536, -1.6186, -1.3126, -2023.20656, -3160.32496)" gradientUnits="userSpaceOnUse">
      <stop offset="0" stop-color="#fff"/>
      <stop offset="0.10256" stop-color="#fff" stop-opacity="0.84849"/>
      <stop offset="0.29029" stop-color="#fff" stop-opacity="0.59415"/>
      <stop offset="0.4694" stop-color="#fff" stop-opacity="0.38204"/>
      <stop offset="0.63471" stop-color="#fff" stop-opacity="0.21674"/>
      <stop offset="0.78337" stop-color="#fff" stop-opacity="0.09804"/>
      <stop offset="0.91014" stop-color="#fff" stop-opacity="0.02577"/>
      <stop offset="1" stop-color="#fff" stop-opacity="0"/>
    </radialGradient>
    <radialGradient id="Degradado_sin_nombre_34" data-name="Degradado sin nombre 34" cx="-3178.69775" cy="3441.20352" r="5.91566" gradientTransform="matrix(-1.1717, -1.1007, 0.222, -0.7283, -4425.72776, -952.56373)" xlink:href="#radial-gradient-2"/>
    <radialGradient id="radial-gradient-3" cx="57.67051" cy="26.07216" r="70.25763" gradientTransform="translate(115.34102 45.11755) rotate(180) scale(1 0.73049)" gradientUnits="userSpaceOnUse">
      <stop offset="0" stop-color="#fff"/>
      <stop offset="0.198" stop-color="#d5f3ff"/>
      <stop offset="1" stop-color="#85bcf1"/>
    </radialGradient>
    <radialGradient id="radial-gradient-4" cx="67.62599" cy="31.96381" r="59.72677" gradientUnits="userSpaceOnUse">
      <stop offset="0" stop-color="#ffe036"/>
      <stop offset="0.08137" stop-color="#fecb31" stop-opacity="0.80638"/>
      <stop offset="0.18181" stop-color="#fdb52b" stop-opacity="0.59509"/>
      <stop offset="0.28342" stop-color="#fca227" stop-opacity="0.41285"/>
      <stop offset="0.38407" stop-color="#fb9223" stop-opacity="0.26402"/>
      <stop offset="0.48359" stop-color="#fb8620" stop-opacity="0.14846"/>
      <stop offset="0.58162" stop-color="#fa7d1e" stop-opacity="0.06603"/>
      <stop offset="0.67748" stop-color="#fa781c" stop-opacity="0.01661"/>
      <stop offset="0.76882" stop-color="#fa761c" stop-opacity="0"/>
    </radialGradient>
    <radialGradient id="radial-gradient-5" cx="821.44874" cy="-1708.72187" r="8.47626" xlink:href="#radial-gradient-2"/>
    <radialGradient id="radial-gradient-6" cx="821.19435" cy="-1724.3796" r="6.66144" xlink:href="#radial-gradient-2"/>
    <radialGradient id="Degradado_sin_nombre_34-2" data-name="Degradado sin nombre 34" cx="10.93584" cy="63.82169" r="4.87114" gradientTransform="matrix(0.90102, -0.43378, 1.26276, 2.62292, -79.50932, -98.83356)" xlink:href="#radial-gradient-2"/>
    <radialGradient id="radial-gradient-7" cx="2696.06151" cy="-401.91867" r="62.65461" gradientTransform="translate(-496.32265 161.7873) scale(0.2062 0.19271)" gradientUnits="userSpaceOnUse">
      <stop offset="0" stop-color="#28cbe9"/>
      <stop offset="1" stop-color="#0a4fbb"/>
    </radialGradient>
    <radialGradient id="radial-gradient-8" cx="2606.68372" cy="-405.57497" r="62.65461" xlink:href="#radial-gradient-7"/>
  </defs>
  <g class="cls-1">
    <g id="Слой_2" data-name="Слой 2">
      <g id="OBJECTS">
        <g>
          <g>
            <polygon class="cls-2" points="97.51 46.834 91.146 47.254 89.947 53.518 83.824 51.732 80.557 57.209 75.413 53.439 70.469 57.467 66.925 52.166 60.902 54.258 59.385 48.064 53.009 47.971 53.701 41.631 47.742 39.363 50.561 33.645 45.737 29.475 50.343 25.063 47.235 19.496 53.071 16.926 52.056 10.631 58.417 10.213 59.617 3.949 65.74 5.732 69.008 0.258 74.151 4.025 79.096 0 82.641 5.301 88.663 3.207 90.18 9.402 96.556 9.494 95.862 15.834 101.823 18.101 99.004 23.82 103.828 27.992 99.223 32.402 102.331 37.971 96.493 40.539 97.51 46.834"/>
            <circle class="cls-3" cx="74.78219" cy="28.7324" r="21.5137"/>
            <g>
              <path class="cls-4" d="M78.06049,26.5195c-5.47949-4.4453-7.6191-11.2129-4.7793-15.1191,2.84281-3.9063,9.587-3.4668,15.0694.9746,5.4785,4.4453,7.6152,11.2148,4.7763,15.1191C90.28419,31.4004,83.53809,30.9629,78.06049,26.5195Z"/>
              <path class="cls-5" d="M55.76759,33.4883c.7265-2.3789,4.414-1.3946,8.2441,2.2031,3.8281,3.5957,6.3428,8.4355,5.6201,10.8203-.7236,2.377-4.415,1.3926-8.2451-2.2031C57.56049,40.7109,55.04389,35.8652,55.76759,33.4883Z"/>
            </g>
          </g>
          <g>
            <path class="cls-6" d="M72.99709,37.4414a27.00546,27.00546,0,0,0-53.8828,0A20.124,20.124,0,0,0,20.124,77.664H71.98729a20.124,20.124,0,0,0,1.0098-40.2226Z"/>
            <path class="cls-7" d="M72.99709,37.4414a27.00546,27.00546,0,0,0-53.8828,0A20.124,20.124,0,0,0,20.124,77.664H71.98729a20.124,20.124,0,0,0,1.0098-40.2226Z"/>
            <path class="cls-8" d="M46.05759,39.9453c-7.5752-6.1465-10.5351-15.5039-6.6074-20.9023,3.9297-5.4024,13.25681-4.795,20.8349,1.3457,7.5743,6.1464,10.5284,15.5078,6.6045,20.9043C62.958,46.6953,53.63179,46.0879,46.05759,39.9453Z"/>
            <path class="cls-9" d="M73.13869,58.1113c-5.9532-4.832-8.2784-12.1855-5.1924-16.4297,3.0879-4.2441,10.418-3.7656,16.374,1.0606,5.9522,4.8281,8.2744,12.1855,5.1904,16.4258C86.41989,63.414,79.09079,62.9375,73.13869,58.1113Z"/>
            <path class="cls-10" d="M14.38869,58.7851c-4.3936-6.8535-9.4961-10.1523-11.4073-7.373-1.9033,2.7773.1094,10.5898,4.5,17.4453,4.3955,6.8535,9.502,10.1543,11.4082,7.3731C20.79389,73.4453,18.78219,65.6406,14.38869,58.7851Z"/>
          </g>
        </g>
        <path class="cls-11" d="M61.57028,89.78785l-1.38563-.74752.42872-.23111a.64151.64151,0,0,0,.26079-.90787.73951.73951,0,0,0-.97143-.24352l-1.14037.61465L57.71,87.70487a2.12482,2.12482,0,0,0,0-1.09756l1.05236-.568,1.14.615a.7442.7442,0,0,0,.35461.08959.72169.72169,0,0,0,.61659-.33274.64167.64167,0,0,0-.26017-.90786l-.42911-.23148,1.386-.74752a.64172.64172,0,0,0,.26037-.90786.73789.73789,0,0,0-.9714-.24315l-1.38584.74752.0006-.46259a.68922.68922,0,0,0-.71124-.66473h0a.689.689,0,0,0-.71123.66434l-.00042,1.23006-1.05337.56835a2.55324,2.55324,0,0,0-1.0159-.54991V83.77156l1.14016-.61542a.64081.64081,0,0,0,.26-.90749.73861.73861,0,0,0-.9714-.24353l-.42872.23149v-1.495a.71279.71279,0,0,0-1.42229,0v1.495l-.42911-.23149a.73881.73881,0,0,0-.97143.24353.64136.64136,0,0,0,.26017.90749l1.14037.61542v1.13481a2.5514,2.5514,0,0,0-1.01611.5503l-1.05338-.56874V83.65787a.71279.71279,0,0,0-1.42229,0v.463l-1.38542-.74752a.73808.73808,0,0,0-.97142.24315.64123.64123,0,0,0,.26018.90786l1.38543.74752-.42932.2311a.64207.64207,0,0,0-.26017.90824.722.722,0,0,0,.6168.33236.74389.74389,0,0,0,.35461-.08921l1.14037-.615,1.053.568a2.11886,2.11886,0,0,0,0,1.09756l-1.053.56761-1.13977-.615a.73845.73845,0,0,0-.97141.24314.64085.64085,0,0,0,.26017.90788l.42913.23147-1.38584.74791a.64107.64107,0,0,0-.26018.90785.7205.7205,0,0,0,.6164.33238.7445.7445,0,0,0,.355-.08921l1.38483-.74752v.46257a.71286.71286,0,0,0,1.42247,0l.00041-1.23005,1.05338-.56872a2.55206,2.55206,0,0,0,1.01572.55027v1.13522l-1.14.615a.64091.64091,0,0,0-.26017.90786.7381.7381,0,0,0,.97143.24315l.42911-.23149v1.49542a.71277.71277,0,0,0,1.42229,0v-1.495l.42851.23148a.74447.74447,0,0,0,.355.08921.72046.72046,0,0,0,.6162-.33235A.64136.64136,0,0,0,57.122,91.156l-1.14037-.6154V89.40542a2.54525,2.54525,0,0,0,1.01611-.54991l1.05337.568v1.23042a.71277.71277,0,0,0,1.42229,0v-.463l1.38584.74791a.744.744,0,0,0,.35461.08921.722.722,0,0,0,.61679-.33238A.64156.64156,0,0,0,61.57028,89.78785Zm-6.29948-1.614a1.0201,1.0201,0,1,1,1.089-1.01776A1.05619,1.05619,0,0,1,55.2708,88.17386Z"/>
        <path class="cls-12" d="M43.14024,89.08322l-1.38563-.74752.42872-.2311a.64151.64151,0,0,0,.26078-.90788.73949.73949,0,0,0-.97142-.24351l-1.14037.61464L39.28,87.00025a2.12482,2.12482,0,0,0,0-1.09756l1.05236-.568,1.14.615a.74417.74417,0,0,0,.35461.08959.7217.7217,0,0,0,.61659-.33274.64168.64168,0,0,0-.26017-.90786l-.42911-.23148,1.386-.74752a.64173.64173,0,0,0,.26037-.90786.7379.7379,0,0,0-.9714-.24315l-1.38584.74752.0006-.46259a.68922.68922,0,0,0-.71124-.66473h0a.689.689,0,0,0-.71124.66434l-.00041,1.23006-1.05337.56835a2.55331,2.55331,0,0,0-1.0159-.54991V83.06694l1.14016-.61542a.64081.64081,0,0,0,.26-.90749.73861.73861,0,0,0-.97141-.24353l-.42871.23149V80.037a.7128.7128,0,0,0-1.4223,0v1.495l-.42911-.23149a.73879.73879,0,0,0-.97142.24353.64136.64136,0,0,0,.26017.90749l1.14036.61542v1.13481a2.5514,2.5514,0,0,0-1.01611.5503L34.06,84.18331V82.95325a.71279.71279,0,0,0-1.42229,0v.463l-1.38542-.74752a.7381.7381,0,0,0-.97143.24315.64123.64123,0,0,0,.26019.90786l1.38543.74752-.42932.2311a.64207.64207,0,0,0-.26017.90824.722.722,0,0,0,.6168.33236.74389.74389,0,0,0,.35461-.08921l1.14036-.615,1.053.568a2.11914,2.11914,0,0,0,0,1.09756l-1.053.5676-1.13977-.615a.73843.73843,0,0,0-.9714.24314.64085.64085,0,0,0,.26016.90788l.42914.23147-1.38584.7479a.64108.64108,0,0,0-.26019.90786.72053.72053,0,0,0,.61641.33238.74453.74453,0,0,0,.355-.08921l1.38482-.74752v.46257a.71287.71287,0,0,0,1.42248,0L34.06,88.71924l1.05337-.56871a2.55206,2.55206,0,0,0,1.01572.55027V89.836l-1.14.615a.6409.6409,0,0,0-.26017.90786.73809.73809,0,0,0,.97142.24315l.42911-.23149V92.866a.71277.71277,0,0,0,1.4223,0v-1.495l.42851.23149a.74444.74444,0,0,0,.355.08921.72047.72047,0,0,0,.6162-.33235.64136.64136,0,0,0-.25957-.90788L37.5516,89.836V88.7008a2.54537,2.54537,0,0,0,1.01611-.54991l1.05337.568V89.9493a.71277.71277,0,0,0,1.42229,0v-.463l1.38584.74791a.744.744,0,0,0,.3546.08921.72205.72205,0,0,0,.6168-.33238A.64158.64158,0,0,0,43.14024,89.08322Zm-6.29948-1.614a1.0201,1.0201,0,1,1,1.089-1.01776A1.05619,1.05619,0,0,1,36.84076,87.46924Z"/>
      </g>
    </g>
  </g>
</svg>
