<svg xmlns="http://www.w3.org/2000/svg" xmlns:xlink="http://www.w3.org/1999/xlink" width="106.8291" height="95.44563" viewBox="0 0 106.8291 95.44563">
  <defs>
    <style>
      .cls-1 {
        isolation: isolate;
      }

      .cls-2 {
        fill: url(#linear-gradient);
      }

      .cls-3 {
        fill: url(#radial-gradient);
      }

      .cls-10, .cls-12, .cls-14, .cls-4, .cls-5, .cls-8, .cls-9 {
        mix-blend-mode: overlay;
      }

      .cls-4 {
        fill: url(#radial-gradient-2);
      }

      .cls-5, .cls-9 {
        opacity: 0.4;
      }

      .cls-5 {
        fill: url(#Degradado_sin_nombre_34);
      }

      .cls-6 {
        fill: url(#radial-gradient-3);
      }

      .cls-7 {
        fill: url(#radial-gradient-4);
      }

      .cls-8 {
        fill: url(#radial-gradient-5);
      }

      .cls-9 {
        fill: url(#radial-gradient-6);
      }

      .cls-10 {
        opacity: 0.2;
        fill: url(#Degradado_sin_nombre_34-2);
      }

      .cls-11 {
        fill: url(#radial-gradient-7);
      }

      .cls-12 {
        fill: url(#radial-gradient-8);
      }

      .cls-13 {
        fill: url(#radial-gradient-9);
      }

      .cls-14 {
        fill: url(#radial-gradient-10);
      }

      .cls-15 {
        fill: url(#radial-gradient-11);
      }
    </style>
    <linearGradient id="linear-gradient" x1="103.96848" y1="-0.9621" x2="46.96986" y2="62.7321" gradientUnits="userSpaceOnUse">
      <stop offset="0" stop-color="#ffba24"/>
      <stop offset="1" stop-color="#f50"/>
    </linearGradient>
    <radialGradient id="radial-gradient" cx="379.71157" cy="17.02053" r="45.59939" gradientTransform="matrix(-1, 0, 0, 1, 459.6045, 0)" gradientUnits="userSpaceOnUse">
      <stop offset="0" stop-color="#fff4c3"/>
      <stop offset="0.15591" stop-color="#ffe036"/>
      <stop offset="1" stop-color="#fa761c"/>
    </radialGradient>
    <radialGradient id="radial-gradient-2" cx="1490.28254" cy="-1840.77669" r="6.84464" gradientTransform="matrix(-0.8392, 1.1536, -1.6186, -1.3126, -1645.03288, -4113.68025)" gradientUnits="userSpaceOnUse">
      <stop offset="0" stop-color="#fff"/>
      <stop offset="0.10256" stop-color="#fff" stop-opacity="0.84849"/>
      <stop offset="0.29029" stop-color="#fff" stop-opacity="0.59415"/>
      <stop offset="0.4694" stop-color="#fff" stop-opacity="0.38204"/>
      <stop offset="0.63471" stop-color="#fff" stop-opacity="0.21674"/>
      <stop offset="0.78337" stop-color="#fff" stop-opacity="0.09804"/>
      <stop offset="0.91014" stop-color="#fff" stop-opacity="0.02577"/>
      <stop offset="1" stop-color="#fff" stop-opacity="0"/>
    </radialGradient>
    <radialGradient id="Degradado_sin_nombre_34" data-name="Degradado sin nombre 34" cx="-2564.88829" cy="2593.43912" r="6.60483" gradientTransform="matrix(-1.1717, -1.1007, 0.222, -0.7283, -3520.11466, -889.71088)" xlink:href="#radial-gradient-2"/>
    <radialGradient id="radial-gradient-3" cx="57.66932" cy="27.98618" r="70.25726" gradientTransform="translate(115.33865 48.42975) rotate(180) scale(1 0.73049)" gradientUnits="userSpaceOnUse">
      <stop offset="0" stop-color="#fff"/>
      <stop offset="0.198" stop-color="#d5f3ff"/>
      <stop offset="1" stop-color="#85bcf1"/>
    </radialGradient>
    <radialGradient id="radial-gradient-4" cx="66.71585" cy="31.98043" r="61.70336" gradientUnits="userSpaceOnUse">
      <stop offset="0" stop-color="#ffe036"/>
      <stop offset="0.08137" stop-color="#fecb31" stop-opacity="0.80638"/>
      <stop offset="0.18181" stop-color="#fdb52b" stop-opacity="0.59509"/>
      <stop offset="0.28342" stop-color="#fca227" stop-opacity="0.41285"/>
      <stop offset="0.38407" stop-color="#fb9223" stop-opacity="0.26402"/>
      <stop offset="0.48359" stop-color="#fb8620" stop-opacity="0.14846"/>
      <stop offset="0.58162" stop-color="#fa7d1e" stop-opacity="0.06603"/>
      <stop offset="0.67748" stop-color="#fa781c" stop-opacity="0.01661"/>
      <stop offset="0.76882" stop-color="#fa761c" stop-opacity="0"/>
    </radialGradient>
    <radialGradient id="radial-gradient-5" cx="1509.47926" cy="-1831.80347" r="8.47643" xlink:href="#radial-gradient-2"/>
    <radialGradient id="radial-gradient-6" cx="1509.22386" cy="-1847.46139" r="6.66148" xlink:href="#radial-gradient-2"/>
    <radialGradient id="Degradado_sin_nombre_34-2" data-name="Degradado sin nombre 34" cx="10.93447" cy="65.73516" r="4.87103" gradientTransform="matrix(0.90102, -0.43378, 1.26276, 2.62292, -81.92572, -101.93956)" xlink:href="#radial-gradient-2"/>
    <radialGradient id="radial-gradient-7" cx="-156.63279" cy="118.83612" r="9.89087" gradientTransform="translate(251.76462 67.31388) rotate(30.00073)" gradientUnits="userSpaceOnUse">
      <stop offset="0" stop-color="#d0f2ff"/>
      <stop offset="0.198" stop-color="#d5f3ff"/>
      <stop offset="1" stop-color="#85bcf1"/>
    </radialGradient>
    <radialGradient id="radial-gradient-8" cx="1649.16157" cy="-1774.55783" r="1.54944" gradientTransform="matrix(-1.3036, 0.5794, -0.7454, -1.946, 884.31628, -4317.54788)" xlink:href="#radial-gradient-2"/>
    <radialGradient id="radial-gradient-9" cx="-169.87285" cy="125.6111" r="9.89131" xlink:href="#radial-gradient-7"/>
    <radialGradient id="radial-gradient-10" cx="1658.70927" cy="-1771.32834" r="1.54945" gradientTransform="matrix(-1.3036, 0.5794, -0.7454, -1.946, 884.31628, -4317.54788)" xlink:href="#radial-gradient-2"/>
    <radialGradient id="radial-gradient-11" cx="1039.54388" cy="505.84585" r="62.65461" gradientTransform="translate(-182.76697 -11.94156) scale(0.2062 0.19271)" gradientUnits="userSpaceOnUse">
      <stop offset="0" stop-color="#28cbe9"/>
      <stop offset="1" stop-color="#0a4fbb"/>
    </radialGradient>
  </defs>
  <g class="cls-1">
    <g id="Слой_2" data-name="Слой 2">
      <g id="OBJECTS">
        <g>
          <polygon class="cls-2" points="99.774 52.293 92.669 52.76 91.331 59.752 84.495 57.762 80.846 63.875 75.102 59.666 69.583 64.162 65.626 58.244 58.901 60.58 57.207 53.666 50.088 53.56 50.862 46.482 44.207 43.951 47.356 37.564 41.969 32.908 47.111 27.984 43.642 21.767 50.158 18.898 49.023 11.869 56.128 11.404 57.467 4.41 64.303 6.4 67.952 0.287 73.695 4.496 79.216 0 83.172 5.918 89.897 3.582 91.591 10.496 98.71 10.601 97.936 17.68 104.59 20.211 101.443 26.598 106.829 31.254 101.688 36.178 105.157 42.395 98.64 45.264 99.774 52.293"/>
          <path class="cls-3" d="M50.3789,32.08a24.0205,24.0205,0,1,0,24.02-24.0195A24.02,24.02,0,0,0,50.3789,32.08Z"/>
          <g>
            <path class="cls-4" d="M78.0591,29.6093c-6.1172-4.9629-8.5069-12.5195-5.3355-16.8789,3.1734-4.3613,10.7051-3.8711,16.8252,1.0879,6.1162,4.9629,8.502,12.5215,5.333,16.8789C91.707,35.0625,84.1753,34.5703,78.0591,29.6093Z"/>
            <path class="cls-5" d="M53.1684,37.3906c.812-2.6563,4.9302-1.5567,9.2056,2.459,4.2744,4.0156,7.0811,9.4218,6.2744,12.08-.8086,2.6563-4.9287,1.5567-9.2051-2.4589C55.1699,45.455,52.3613,40.0429,53.1684,37.3906Z"/>
          </g>
        </g>
        <g>
          <path class="cls-6" d="M72.9951,39.3554a27.00444,27.00444,0,0,0-53.8809,0A20.124,20.124,0,0,0,20.123,79.5781H71.9858a20.124,20.124,0,0,0,1.0093-40.2227Z"/>
          <path class="cls-7" d="M72.9951,39.3554a27.00444,27.00444,0,0,0-53.8809,0A20.124,20.124,0,0,0,20.123,79.5781H71.9858a20.124,20.124,0,0,0,1.0093-40.2227Z"/>
          <path class="cls-8" d="M46.0561,41.8593C38.4809,35.7128,35.522,26.3554,39.4492,20.955c3.9297-5.4004,13.2563-4.7929,20.835,1.3477,7.5737,6.1445,10.5293,15.5059,6.604,20.9043C62.9575,48.6093,53.6308,48.0019,46.0561,41.8593Z"/>
          <path class="cls-9" d="M73.1377,60.0234c-5.9536-4.8301-8.2793-12.1836-5.1934-16.4277,3.0889-4.2442,10.4185-3.7657,16.3745,1.0586,5.9527,4.83,8.2749,12.1875,5.1909,16.4277C86.4189,65.3281,79.0893,64.8515,73.1377,60.0234Z"/>
          <path class="cls-10" d="M14.3877,60.6992C9.9946,53.8457,4.8916,50.5468,2.9804,53.3261c-1.9047,2.7754.1099,10.5879,4.5,17.4434,4.3956,6.8535,9.5015,10.1543,11.4073,7.375C20.7934,75.3574,18.7807,67.5546,14.3877,60.6992Z"/>
        </g>
        <g>
          <path class="cls-11" d="M62.2057,92.84578a4.11114,4.11114,0,0,1-7.1206-4.1113c1.1352-1.9668,8.1562-5.9063,8.1562-5.9063S63.341,90.879,62.2057,92.84578Z"/>
          <path class="cls-12" d="M55.2052,92.16418c-.6372-1.666-.251-3.416.8652-3.9141,1.1153-.4961,2.5362.4531,3.1744,2.1192.6377,1.664.2495,3.4179-.8653,3.9121C57.2638,94.77748,55.8424,93.82818,55.2052,92.16418Z"/>
        </g>
        <g>
          <path class="cls-13" d="M47.35255,92.093a4.11135,4.11135,0,0,1-7.1211-4.1113c1.1352-1.9668,8.1567-5.9063,8.1567-5.9063S48.48775,90.12622,47.35255,92.093Z"/>
          <path class="cls-14" d="M40.35155,91.41142c-.6367-1.666-.2505-3.416.8652-3.9141,1.1153-.4961,2.5366.4531,3.1743,2.1192.6382,1.664.25,3.4179-.8647,3.9121C42.41015,94.02472,40.98925,93.07542,40.35155,91.41142Z"/>
        </g>
        <path class="cls-15" d="M33.54569,90.99815l-1.38563-.74752.42872-.2311a.64151.64151,0,0,0,.26078-.90788.73949.73949,0,0,0-.97142-.24351l-1.14037.61464-1.05236-.5676a2.12486,2.12486,0,0,0,0-1.09757l1.05236-.568,1.14.615a.74428.74428,0,0,0,.3546.08959.72168.72168,0,0,0,.61659-.33274.64168.64168,0,0,0-.26016-.90786l-.42911-.23149,1.386-.74752a.64172.64172,0,0,0,.26037-.90785.73791.73791,0,0,0-.97141-.24315l-1.38583.74752.0006-.46259a.68921.68921,0,0,0-.71124-.66473h0a.689.689,0,0,0-.71124.66434l-.00041,1.23006-1.05337.56835a2.553,2.553,0,0,0-1.01591-.54991V84.98186l1.14017-.61541a.64082.64082,0,0,0,.26-.90749.73863.73863,0,0,0-.97141-.24354l-.42872.23149v-1.495a.71279.71279,0,0,0-1.42229,0v1.495l-.42911-.23149a.7388.7388,0,0,0-.97142.24354.64136.64136,0,0,0,.26016.90749l1.14037.61541v1.13482a2.55115,2.55115,0,0,0-1.01611.5503l-1.05337-.56874V84.86818a.71279.71279,0,0,0-1.42229,0v.463l-1.38542-.74752a.7381.7381,0,0,0-.97143.24315.64122.64122,0,0,0,.26019.90785l1.38542.74752-.42931.23111a.64206.64206,0,0,0-.26017.90824.722.722,0,0,0,.61679.33235.744.744,0,0,0,.35461-.0892l1.14037-.615,1.053.568a2.11918,2.11918,0,0,0,0,1.09757l-1.053.5676-1.13977-.615a.73844.73844,0,0,0-.9714.24315.64084.64084,0,0,0,.26016.90788l.42914.23147-1.38584.7479a.64108.64108,0,0,0-.26019.90786.72052.72052,0,0,0,.61641.33237.74463.74463,0,0,0,.355-.0892l1.38482-.74752v.46257a.71287.71287,0,0,0,1.42248,0l.00041-1.23006,1.05337-.56872a2.55208,2.55208,0,0,0,1.01572.55028V91.751l-1.14.615a.64091.64091,0,0,0-.26016.90786.73808.73808,0,0,0,.97142.24314l.42911-.23148v1.49542a.71277.71277,0,0,0,1.42229,0v-1.495l.42852.23149a.74441.74441,0,0,0,.355.08921.72048.72048,0,0,0,.6162-.33236.64135.64135,0,0,0-.25957-.90787l-1.14037-.6154V90.61573a2.54537,2.54537,0,0,0,1.01611-.54991l1.05337.568v1.23042a.71277.71277,0,0,0,1.42229,0v-.463l1.38583.74791a.74417.74417,0,0,0,.35461.0892.72208.72208,0,0,0,.6168-.33237A.64157.64157,0,0,0,33.54569,90.99815Zm-6.29949-1.614a1.02011,1.02011,0,1,1,1.089-1.01776A1.05619,1.05619,0,0,1,27.2462,89.38417Z"/>
      </g>
    </g>
  </g>
</svg>
