<svg xmlns="http://www.w3.org/2000/svg" xmlns:xlink="http://www.w3.org/1999/xlink" width="121.3554" height="111.83299" viewBox="0 0 121.3554 111.83299">
  <defs>
    <style>
      .cls-1 {
        isolation: isolate;
      }

      .cls-2 {
        fill: url(#radial-gradient);
      }

      .cls-3 {
        fill: url(#radial-gradient-2);
      }

      .cls-4 {
        fill: url(#linear-gradient);
      }

      .cls-5 {
        fill: url(#radial-gradient-3);
      }

      .cls-10, .cls-11, .cls-13, .cls-14, .cls-15, .cls-17, .cls-18, .cls-19, .cls-6, .cls-7, .cls-9 {
        mix-blend-mode: overlay;
      }

      .cls-6 {
        fill: url(#radial-gradient-4);
      }

      .cls-10, .cls-14, .cls-18, .cls-7 {
        opacity: 0.4;
      }

      .cls-7 {
        fill: url(#Degradado_sin_nombre_34);
      }

      .cls-8 {
        fill: url(#radial-gradient-5);
      }

      .cls-9 {
        fill: url(#radial-gradient-6);
      }

      .cls-10 {
        fill: url(#radial-gradient-7);
      }

      .cls-11, .cls-15, .cls-19 {
        opacity: 0.2;
      }

      .cls-11 {
        fill: url(#Degradado_sin_nombre_34-2);
      }

      .cls-12 {
        fill: url(#radial-gradient-8);
      }

      .cls-13 {
        fill: url(#radial-gradient-9);
      }

      .cls-14 {
        fill: url(#radial-gradient-10);
      }

      .cls-15 {
        fill: url(#Degradado_sin_nombre_34-3);
      }

      .cls-16 {
        fill: url(#radial-gradient-11);
      }

      .cls-17 {
        fill: url(#radial-gradient-12);
      }

      .cls-18 {
        fill: url(#radial-gradient-13);
      }

      .cls-19 {
        fill: url(#Degradado_sin_nombre_34-4);
      }

      .cls-20 {
        fill: url(#radial-gradient-14);
      }
    </style>
    <radialGradient id="radial-gradient" cx="-139.37877" cy="-21.5793" r="62.65461" gradientTransform="translate(111.4362 103.59403) scale(0.31223 0.27638)" gradientUnits="userSpaceOnUse">
      <stop offset="0" stop-color="#28cbe9"/>
      <stop offset="1" stop-color="#0a4fbb"/>
    </radialGradient>
    <radialGradient id="radial-gradient-2" cx="-55.67107" cy="-23.22975" r="62.65461" xlink:href="#radial-gradient"/>
    <linearGradient id="linear-gradient" x1="97.30524" y1="-1.13501" x2="30.04705" y2="74.02395" gradientUnits="userSpaceOnUse">
      <stop offset="0" stop-color="#ffba24"/>
      <stop offset="1" stop-color="#f50"/>
    </linearGradient>
    <radialGradient id="radial-gradient-3" cx="-114.53352" cy="20.08437" r="53.80679" gradientTransform="matrix(-1, 0, 0, 1, -45.63768, 0)" gradientUnits="userSpaceOnUse">
      <stop offset="0" stop-color="#fff4c3"/>
      <stop offset="0.15591" stop-color="#ffe036"/>
      <stop offset="1" stop-color="#fa761c"/>
    </radialGradient>
    <radialGradient id="radial-gradient-4" cx="1058.83133" cy="-1762.37885" r="8.07694" gradientTransform="matrix(-0.8392, 1.1536, -1.6186, -1.3126, -1890.50559, -3509.14543)" gradientUnits="userSpaceOnUse">
      <stop offset="0" stop-color="#fff"/>
      <stop offset="0.10256" stop-color="#fff" stop-opacity="0.84849"/>
      <stop offset="0.29029" stop-color="#fff" stop-opacity="0.59415"/>
      <stop offset="0.4694" stop-color="#fff" stop-opacity="0.38204"/>
      <stop offset="0.63471" stop-color="#fff" stop-opacity="0.21674"/>
      <stop offset="0.78337" stop-color="#fff" stop-opacity="0.09804"/>
      <stop offset="0.91014" stop-color="#fff" stop-opacity="0.02577"/>
      <stop offset="1" stop-color="#fff" stop-opacity="0"/>
    </radialGradient>
    <radialGradient id="Degradado_sin_nombre_34" data-name="Degradado sin nombre 34" cx="-2949.79747" cy="3103.62979" r="7.79374" gradientTransform="matrix(-1.1717, -1.1007, 0.222, -0.7283, -4098.78925, -933.77024)" xlink:href="#radial-gradient-4"/>
    <radialGradient id="radial-gradient-5" cx="36.71371" cy="30.69073" r="44.72725" gradientTransform="translate(73.42741 53.10994) rotate(180) scale(1 0.73049)" gradientUnits="userSpaceOnUse">
      <stop offset="0" stop-color="#fff"/>
      <stop offset="0.198" stop-color="#b4ecff"/>
      <stop offset="1" stop-color="#69acf1"/>
    </radialGradient>
    <radialGradient id="radial-gradient-6" cx="1080.55147" cy="-1749.13755" r="5.39616" xlink:href="#radial-gradient-4"/>
    <radialGradient id="radial-gradient-7" cx="1080.38991" cy="-1759.10588" r="4.24106" xlink:href="#radial-gradient-4"/>
    <radialGradient id="Degradado_sin_nombre_34-2" data-name="Degradado sin nombre 34" cx="6.96129" cy="54.72259" r="3.10111" gradientTransform="matrix(0.90102, -0.43378, 1.26276, 2.62292, -68.41271, -85.79056)" xlink:href="#radial-gradient-4"/>
    <radialGradient id="radial-gradient-8" cx="99.43019" cy="30.69073" r="44.72713" gradientTransform="translate(198.86038 53.10994) rotate(180) scale(1 0.73049)" xlink:href="#radial-gradient-5"/>
    <radialGradient id="radial-gradient-9" cx="1052.82205" cy="-1773.50801" r="5.39606" xlink:href="#radial-gradient-4"/>
    <radialGradient id="radial-gradient-10" cx="1052.66038" cy="-1783.47643" r="4.24105" xlink:href="#radial-gradient-4"/>
    <radialGradient id="Degradado_sin_nombre_34-3" data-name="Degradado sin nombre 34" cx="69.67783" cy="54.72259" r="3.10111" gradientTransform="matrix(0.90102, -0.43378, 1.26276, 2.62292, -62.2049, -58.58527)" xlink:href="#radial-gradient-4"/>
    <radialGradient id="radial-gradient-11" cx="69.6079" cy="48.44823" r="54.0182" gradientTransform="translate(139.21581 83.83909) rotate(180) scale(1 0.73049)" gradientUnits="userSpaceOnUse">
      <stop offset="0" stop-color="#fff"/>
      <stop offset="0.198" stop-color="#d5f3ff"/>
      <stop offset="1" stop-color="#85bcf1"/>
    </radialGradient>
    <radialGradient id="radial-gradient-12" cx="1076.24838" cy="-1766.86122" r="6.51702" xlink:href="#radial-gradient-4"/>
    <radialGradient id="radial-gradient-13" cx="1076.05185" cy="-1778.90059" r="5.12165" xlink:href="#radial-gradient-4"/>
    <radialGradient id="Degradado_sin_nombre_34-4" data-name="Degradado sin nombre 34" cx="33.67525" cy="77.47298" r="3.74527" gradientTransform="matrix(0.90102, -0.43378, 1.26276, 2.62292, -94.4969, -111.12454)" xlink:href="#radial-gradient-4"/>
    <radialGradient id="radial-gradient-14" cx="-230.52688" cy="-23.2288" r="62.65461" xlink:href="#radial-gradient"/>
  </defs>
  <g class="cls-1">
    <g id="Слой_2" data-name="Слой 2">
      <g id="BACKGROUND">
        <path class="cls-2" d="M70.87749,105.45464l-2.0981-1.07206.64916-.33144a.8962.8962,0,0,0,.39488-1.302,1.157,1.157,0,0,0-1.47093-.34923l-1.72674.88149-1.59347-.814a2.89207,2.89207,0,0,0,0-1.57407l1.59347-.81458,1.72615.882a1.17723,1.17723,0,0,0,.53694.12849,1.10953,1.10953,0,0,0,.93364-.4772.89637.89637,0,0,0-.39394-1.302l-.64976-.332,2.0987-1.07206a.89645.89645,0,0,0,.39426-1.302,1.15444,1.15444,0,0,0-1.4709-.34871l-2.09842,1.072.00091-.66342a1.02089,1.02089,0,0,0-1.07695-.95332h0a1.02063,1.02063,0,0,0-1.07695.95277l-.00063,1.76408-1.595.81511a3.93609,3.93609,0,0,0-1.53828-.78866v-1.6275l1.72643-.88259a.8952.8952,0,0,0,.39363-1.30148,1.15556,1.15556,0,0,0-1.4709-.34926l-.64916.332V92.48091a1.08489,1.08489,0,0,0-2.15362,0V94.625l-.64976-.332a1.15585,1.15585,0,0,0-1.47092.34926.896.896,0,0,0,.39394,1.30148l1.72674.88259v1.6275a3.93316,3.93316,0,0,0-1.53859.78921l-1.595-.81566V96.66334a1.08489,1.08489,0,0,0-2.15363,0v.664l-2.09779-1.072A1.15475,1.15475,0,0,0,51.406,96.604a.89576.89576,0,0,0,.394,1.302l2.0978,1.07206-.65007.33144a.89692.89692,0,0,0-.394,1.30255,1.11012,1.11012,0,0,0,.934.47665,1.17685,1.17685,0,0,0,.53695-.12794l1.72673-.882,1.59439.81458a2.88393,2.88393,0,0,0,0,1.57407l-1.59439.814-1.72583-.882a1.15532,1.15532,0,0,0-1.47089.34871.89526.89526,0,0,0,.39394,1.302l.64979.332L51.8,105.45464a.89557.89557,0,0,0-.394,1.302,1.10776,1.10776,0,0,0,.93336.47667,1.17781,1.17781,0,0,0,.53757-.12793l2.09689-1.07206v.6634a1.085,1.085,0,0,0,2.1539,0l.00063-1.76409,1.595-.81562a3.9343,3.9343,0,0,0,1.538.78917v1.62808l-1.72615.882a.89533.89533,0,0,0-.39394,1.302,1.15474,1.15474,0,0,0,1.47092.34871l.64976-.332v2.14466a1.08481,1.08481,0,0,0,2.15362,0v-2.14411l.64885.332a1.1776,1.1776,0,0,0,.53757.12794,1.10765,1.10765,0,0,0,.933-.47665.89589.89589,0,0,0-.393-1.302l-1.72674-.88257v-1.62808a3.924,3.924,0,0,0,1.53859-.78865l1.595.81458v1.76461a1.08481,1.08481,0,0,0,2.15362,0v-.66395l2.09842,1.07261a1.17713,1.17713,0,0,0,.537.12793,1.11017,1.11017,0,0,0,.93395-.47667A.89625.89625,0,0,0,70.87749,105.45464Zm-9.53863-2.3147a1.47051,1.47051,0,1,1,1.649-1.45962A1.56446,1.56446,0,0,1,61.33886,103.13994Z"/>
        <path class="cls-3" d="M97.01373,104.99848l-2.0981-1.07205.64916-.33144a.8962.8962,0,0,0,.39488-1.302,1.157,1.157,0,0,0-1.47093-.34924l-1.72674.88149-1.59347-.814a2.8921,2.8921,0,0,0,0-1.57408l1.59347-.81457,1.72615.882a1.17723,1.17723,0,0,0,.53694.12849,1.10955,1.10955,0,0,0,.93364-.4772.89637.89637,0,0,0-.39394-1.302l-.64976-.332,2.0987-1.07206a.89645.89645,0,0,0,.39426-1.302,1.15443,1.15443,0,0,0-1.4709-.34871l-2.09842,1.07205.00091-.66342a1.0209,1.0209,0,0,0-1.07695-.95333h0a1.02063,1.02063,0,0,0-1.07695.95277l-.00063,1.76409-1.595.8151a3.93607,3.93607,0,0,0-1.53828-.78865v-1.6275l1.72643-.8826a.89518.89518,0,0,0,.39363-1.30147,1.15557,1.15557,0,0,0-1.4709-.34927l-.64916.332V92.02476a1.08488,1.08488,0,0,0-2.15362,0v2.14411l-.64976-.332a1.15585,1.15585,0,0,0-1.47092.34927.89594.89594,0,0,0,.39394,1.30147l1.72674.8826v1.6275a3.933,3.933,0,0,0-1.53859.78921l-1.595-.81566V96.20718a1.08489,1.08489,0,0,0-2.15363,0v.664l-2.09779-1.07205a1.15474,1.15474,0,0,0-1.47093.34871.89576.89576,0,0,0,.394,1.302l2.0978,1.07206-.65007.33143a.89693.89693,0,0,0-.394,1.30256,1.11012,1.11012,0,0,0,.93395.47665,1.17685,1.17685,0,0,0,.537-.12794l1.72673-.882,1.59439.81457a2.884,2.884,0,0,0,0,1.57408l-1.59439.814-1.72583-.882a1.1553,1.1553,0,0,0-1.47089.34871.89525.89525,0,0,0,.39394,1.302l.64979.332-2.09842,1.07261a.89558.89558,0,0,0-.394,1.302,1.10776,1.10776,0,0,0,.93336.47667,1.17769,1.17769,0,0,0,.53757-.12794L81.11,105.57717v.6634a1.085,1.085,0,0,0,2.1539,0l.00063-1.76409,1.595-.81563a3.93418,3.93418,0,0,0,1.538.78918v1.62808l-1.72615.882a.89534.89534,0,0,0-.39394,1.302,1.15474,1.15474,0,0,0,1.47092.34871l.64976-.332v2.14466a1.08481,1.08481,0,0,0,2.15362,0v-2.14411l.64885.332a1.17773,1.17773,0,0,0,.53757.12794,1.10769,1.10769,0,0,0,.933-.47665.89589.89589,0,0,0-.393-1.302l-1.72674-.88257V104.45a3.92416,3.92416,0,0,0,1.53859-.78865l1.595.81458v1.76461a1.08481,1.08481,0,0,0,2.15362,0v-.66395l2.09842,1.0726a1.177,1.177,0,0,0,.537.12794,1.11019,1.11019,0,0,0,.93395-.47667A.89626.89626,0,0,0,97.01373,104.99848Zm-9.53863-2.31469a1.47051,1.47051,0,1,1,1.649-1.45962A1.56446,1.56446,0,0,1,87.4751,102.68379Z"/>
      </g>
      <g id="OBJECTS">
        <g>
          <polygon class="cls-4" points="92.356 61.705 83.972 62.256 82.392 70.508 74.327 68.158 70.02 75.371 63.243 70.404 56.73 75.711 52.061 68.727 44.125 71.484 42.127 63.324 33.726 63.201 34.639 54.85 26.787 51.861 30.502 44.324 24.146 38.83 30.214 33.02 26.119 25.684 33.808 22.299 32.471 14.006 40.853 13.455 42.433 5.203 50.5 7.553 54.806 0.338 61.582 5.305 68.097 0 72.765 6.982 80.701 4.225 82.7 12.387 91.1 12.51 90.187 20.859 98.039 23.848 94.325 31.385 100.681 36.879 94.614 42.69 98.708 50.025 91.018 53.41 92.356 61.705"/>
          <path class="cls-5" d="M34.0692,37.8535A28.34425,28.34425,0,1,0,62.413,9.5117,28.34516,28.34516,0,0,0,34.0692,37.8535Z"/>
          <g>
            <path class="cls-6" d="M66.7323,34.9395c-7.2187-5.8594-10.0386-14.7735-6.2959-19.92,3.7442-5.1464,12.6314-4.5664,19.8535,1.2852,7.2168,5.8555,10.0327,14.7754,6.2925,19.918C82.8363,41.3711,73.9491,40.791,66.7323,34.9395Z"/>
            <path class="cls-7" d="M37.3612,44.1192c.958-3.1348,5.8174-1.836,10.8618,2.9023,5.0445,4.7383,8.356,11.1172,7.4043,14.2559-.9541,3.1328-5.8154,1.8359-10.8618-2.9024C39.723,53.6348,36.4086,47.25,37.3612,44.1192Z"/>
          </g>
        </g>
        <g>
          <g>
            <g>
              <path class="cls-8" d="M46.4702,37.92965a17.1913,17.1913,0,0,0-34.3013,0,12.8108,12.8108,0,0,0,.6421,25.6055H45.8281a12.8108,12.8108,0,0,0,.6421-25.6055Z"/>
              <path class="cls-9" d="M29.3213,39.52145c-4.8228-3.9121-6.7071-9.8692-4.2071-13.3067,2.50251-3.4375,8.43951-3.0507,13.2642.8575,4.82231,3.9121,6.7036,9.873,4.2051,13.3086C40.081,43.82025,34.1426,43.43355,29.3213,39.52145Z"/>
              <path class="cls-10" d="M46.5615,51.08785c-3.79-3.0762-5.271-7.7578-3.3066-10.459,1.9663-2.7031,6.6333-2.3984,10.42481.6738,3.79,3.0743,5.26849,7.7578,3.30459,10.459C55.0171,54.46475,50.3506,54.16015,46.5615,51.08785Z"/>
              <path class="cls-11" d="M9.1596,51.51555c-2.7968-4.3613-6.04589-6.4629-7.2622-4.6933-1.2124,1.7675.07031,6.7422,2.8648,11.1054,2.7988,4.3633,6.0488,6.4649,7.2622,4.6953C13.2378,60.84955,11.9565,55.88085,9.1596,51.51555Z"/>
            </g>
            <g>
              <path class="cls-12" d="M109.1865,37.92965a17.191,17.191,0,0,0-34.30079,0,12.8108,12.8108,0,0,0,.64159,25.6055h33.0176a12.8108,12.8108,0,0,0,.6416-25.6055Z"/>
              <path class="cls-13" d="M92.0381,39.52145c-4.8233-3.9121-6.7071-9.8692-4.2071-13.3067,2.502-3.4375,8.4395-3.0507,13.26371.8575,4.82229,3.9121,6.70409,9.873,4.20509,13.3086C102.7978,43.82025,96.8593,43.43355,92.0381,39.52145Z"/>
              <path class="cls-14" d="M109.2783,51.08785c-3.79-3.0762-5.2715-7.7578-3.30659-10.459,1.96579-2.7031,6.63279-2.3984,10.42479.6738,3.79,3.0743,5.2685,7.7578,3.3046,10.459C117.7334,54.46475,113.0674,54.16015,109.2783,51.08785Z"/>
              <path class="cls-15" d="M71.876,51.51555c-2.7969-4.3613-6.0459-6.4629-7.2618-4.6933-1.2129,1.7675.0703,6.7422,2.8643,11.1054,2.7988,4.3633,6.0488,6.4649,7.2627,4.6953C75.9541,60.84955,74.6728,55.88085,71.876,51.51555Z"/>
            </g>
          </g>
          <g>
            <path class="cls-16" d="M81.3926,57.19135a20.763,20.763,0,0,0-41.4278,0,15.4716,15.4716,0,0,0,.7754,30.9238h39.876a15.47165,15.47165,0,0,0,.7764-30.9238Z"/>
            <path class="cls-17" d="M60.67971,59.11515C54.855,54.38865,52.5801,47.19335,55.5996,43.043c3.0229-4.1524,10.1933-3.6856,16.0195,1.0371,5.8242,4.7246,8.0957,11.9219,5.0781,16.0703C73.6748,64.30465,66.5039,63.83785,60.67971,59.11515Z"/>
            <path class="cls-18" d="M81.5029,73.082c-4.5791-3.7148-6.36719-9.3691-3.99319-12.6308,2.37409-3.2637,8.00979-2.8965,12.58989.8144,4.57711,3.7129,6.3613,9.3692,3.9912,12.6289C91.7138,77.16015,86.0781,76.793,81.5029,73.082Z"/>
            <path class="cls-19" d="M36.3301,73.59955c-3.3775-5.2676-7.3013-7.8047-8.7706-5.668-1.4643,2.1348.0845,8.1407,3.4595,13.4122,3.3804,5.2695,7.3062,7.8085,8.771,5.6699C41.2558,84.87105,39.708,78.873,36.3301,73.59955Z"/>
          </g>
        </g>
        <path class="cls-20" d="M42.41811,104.99874,40.32,103.92669l.64916-.33144a.8962.8962,0,0,0,.39488-1.302,1.157,1.157,0,0,0-1.47093-.34923l-1.72674.88149-1.59347-.814a2.89207,2.89207,0,0,0,0-1.57407l1.59347-.81458,1.72615.882a1.17723,1.17723,0,0,0,.53694.12849,1.10953,1.10953,0,0,0,.93364-.4772.89636.89636,0,0,0-.39394-1.302l-.64976-.332,2.0987-1.07206a.89645.89645,0,0,0,.39426-1.302,1.15444,1.15444,0,0,0-1.4709-.34871L39.243,96.87142,39.244,96.208a1.02089,1.02089,0,0,0-1.077-.95332h0a1.02063,1.02063,0,0,0-1.07695.95277l-.00063,1.76408-1.595.8151a3.93607,3.93607,0,0,0-1.53828-.78865v-1.6275l1.72643-.88259a.8952.8952,0,0,0,.39363-1.30148,1.15558,1.15558,0,0,0-1.4709-.34927l-.64916.332V92.025a1.08488,1.08488,0,0,0-2.15362,0v2.14411l-.64976-.332a1.15587,1.15587,0,0,0-1.47092.34927.896.896,0,0,0,.39394,1.30148l1.72674.88259V97.998a3.933,3.933,0,0,0-1.53859.78921l-1.595-.81566V96.20745a1.08488,1.08488,0,0,0-2.15362,0v.664l-2.09779-1.07205a1.15475,1.15475,0,0,0-1.47093.34871.89576.89576,0,0,0,.394,1.302l2.0978,1.07206-.65007.33143a.89693.89693,0,0,0-.394,1.30256,1.11012,1.11012,0,0,0,.93395.47665,1.17685,1.17685,0,0,0,.537-.12794l1.72673-.882,1.59439.81458a2.88393,2.88393,0,0,0,0,1.57407l-1.59439.814-1.72583-.882a1.15532,1.15532,0,0,0-1.47089.34871.89526.89526,0,0,0,.39394,1.302l.64979.332-2.09842,1.0726a.89558.89558,0,0,0-.394,1.302,1.10776,1.10776,0,0,0,.93336.47667,1.17784,1.17784,0,0,0,.53757-.12793l2.09689-1.07206v.6634a1.085,1.085,0,0,0,2.1539,0l.00062-1.76409,1.595-.81563a3.93418,3.93418,0,0,0,1.538.78918v1.62808l-1.72615.882a.89533.89533,0,0,0-.39394,1.302,1.15474,1.15474,0,0,0,1.47092.34871l.64976-.332v2.14466a1.08481,1.08481,0,0,0,2.15362,0v-2.14411l.64885.332a1.1776,1.1776,0,0,0,.53757.12794,1.10767,1.10767,0,0,0,.933-.47665.8959.8959,0,0,0-.393-1.302l-1.72674-.88257v-1.62808a3.924,3.924,0,0,0,1.53859-.78865l1.595.81458v1.76461a1.08481,1.08481,0,0,0,2.15362,0v-.66395l2.09842,1.07261a1.17707,1.17707,0,0,0,.53695.12793,1.11019,1.11019,0,0,0,.934-.47667A.89626.89626,0,0,0,42.41811,104.99874Zm-9.53863-2.31469a1.47051,1.47051,0,1,1,1.649-1.45962A1.56446,1.56446,0,0,1,32.87948,102.68405Z"/>
      </g>
    </g>
  </g>
</svg>
