<svg xmlns="http://www.w3.org/2000/svg" xmlns:xlink="http://www.w3.org/1999/xlink" width="119.45434" height="99.59095" viewBox="0 0 119.45434 99.59095">
  <defs>
    <style>
      .cls-1 {
        isolation: isolate;
      }

      .cls-2 {
        fill: url(#radial-gradient);
      }

      .cls-3 {
        fill: url(#radial-gradient-2);
      }

      .cls-4 {
        fill: url(#linear-gradient);
      }

      .cls-5 {
        fill: url(#radial-gradient-3);
      }

      .cls-10, .cls-11, .cls-12, .cls-15, .cls-16, .cls-17, .cls-6, .cls-7 {
        mix-blend-mode: overlay;
      }

      .cls-6 {
        fill: url(#radial-gradient-4);
      }

      .cls-11, .cls-16, .cls-7 {
        opacity: 0.4;
      }

      .cls-7 {
        fill: url(#Degradado_sin_nombre_34);
      }

      .cls-8 {
        fill: url(#radial-gradient-5);
      }

      .cls-9 {
        fill: url(#radial-gradient-6);
      }

      .cls-10 {
        fill: url(#radial-gradient-7);
      }

      .cls-11 {
        fill: url(#radial-gradient-8);
      }

      .cls-12, .cls-17 {
        opacity: 0.2;
      }

      .cls-12 {
        fill: url(#Degradado_sin_nombre_34-2);
      }

      .cls-13 {
        fill: url(#radial-gradient-9);
      }

      .cls-14 {
        fill: url(#radial-gradient-10);
      }

      .cls-15 {
        fill: url(#radial-gradient-11);
      }

      .cls-16 {
        fill: url(#radial-gradient-12);
      }

      .cls-17 {
        fill: url(#Degradado_sin_nombre_34-3);
      }

      .cls-18 {
        fill: url(#radial-gradient-13);
      }
    </style>
    <radialGradient id="radial-gradient" cx="364.39238" cy="-269.71142" r="62.65461" gradientTransform="translate(-68.65933 159.93104) scale(0.31223 0.27638)" gradientUnits="userSpaceOnUse">
      <stop offset="0" stop-color="#28cbe9"/>
      <stop offset="1" stop-color="#0a4fbb"/>
    </radialGradient>
    <radialGradient id="radial-gradient-2" cx="448.10008" cy="-271.36187" r="62.65461" xlink:href="#radial-gradient"/>
    <linearGradient id="linear-gradient" x1="102.7602" y1="-1.13553" x2="35.50171" y2="74.02376" gradientUnits="userSpaceOnUse">
      <stop offset="0" stop-color="#ffba24"/>
      <stop offset="1" stop-color="#f50"/>
    </linearGradient>
    <radialGradient id="radial-gradient-3" cx="-643.69892" cy="20.08437" r="53.8071" gradientTransform="matrix(-1, 0, 0, 1, -569.34799, 0)" gradientUnits="userSpaceOnUse">
      <stop offset="0" stop-color="#fff4c3"/>
      <stop offset="0.15591" stop-color="#ffe036"/>
      <stop offset="1" stop-color="#fa761c"/>
    </radialGradient>
    <radialGradient id="radial-gradient-4" cx="636.34071" cy="-1766.3881" r="8.07689" gradientTransform="matrix(-0.8392, 1.1536, -1.6186, -1.3126, -2246.09421, -3027.0229)" gradientUnits="userSpaceOnUse">
      <stop offset="0" stop-color="#fff"/>
      <stop offset="0.10256" stop-color="#fff" stop-opacity="0.84849"/>
      <stop offset="0.29029" stop-color="#fff" stop-opacity="0.59415"/>
      <stop offset="0.4694" stop-color="#fff" stop-opacity="0.38204"/>
      <stop offset="0.63471" stop-color="#fff" stop-opacity="0.21674"/>
      <stop offset="0.78337" stop-color="#fff" stop-opacity="0.09804"/>
      <stop offset="0.91014" stop-color="#fff" stop-opacity="0.02577"/>
      <stop offset="1" stop-color="#fff" stop-opacity="0"/>
    </radialGradient>
    <radialGradient id="Degradado_sin_nombre_34" data-name="Degradado sin nombre 34" cx="-3373.26089" cy="3532.62686" r="7.79372" gradientTransform="matrix(-1.1717, -1.1007, 0.222, -0.7283, -4684.7438, -1087.43819)" xlink:href="#radial-gradient-4"/>
    <radialGradient id="radial-gradient-5" cx="43.08698" cy="48.50994" r="37.04227" gradientTransform="translate(86.17396 83.94586) rotate(180) scale(1 0.73049)" gradientUnits="userSpaceOnUse">
      <stop offset="0" stop-color="#fff"/>
      <stop offset="0.198" stop-color="#d5f3ff"/>
      <stop offset="1" stop-color="#85bcf1"/>
    </radialGradient>
    <radialGradient id="radial-gradient-6" cx="51.49053" cy="53.34373" r="42.11249" gradientUnits="userSpaceOnUse">
      <stop offset="0" stop-color="#ffe036"/>
      <stop offset="0.08137" stop-color="#fecb31" stop-opacity="0.80638"/>
      <stop offset="0.18181" stop-color="#fdb52b" stop-opacity="0.59509"/>
      <stop offset="0.28342" stop-color="#fca227" stop-opacity="0.41285"/>
      <stop offset="0.38407" stop-color="#fb9223" stop-opacity="0.26402"/>
      <stop offset="0.48359" stop-color="#fb8620" stop-opacity="0.14846"/>
      <stop offset="0.58162" stop-color="#fa7d1e" stop-opacity="0.06603"/>
      <stop offset="0.67748" stop-color="#fa781c" stop-opacity="0.01661"/>
      <stop offset="0.76882" stop-color="#fa761c" stop-opacity="0"/>
    </radialGradient>
    <radialGradient id="radial-gradient-7" cx="666.90902" cy="-1758.60533" r="4.46899" xlink:href="#radial-gradient-4"/>
    <radialGradient id="radial-gradient-8" cx="666.77472" cy="-1766.86068" r="3.51225" xlink:href="#radial-gradient-4"/>
    <radialGradient id="Degradado_sin_nombre_34-2" data-name="Degradado sin nombre 34" cx="18.44666" cy="68.41254" r="2.56831" gradientTransform="matrix(0.90102, -0.43378, 1.26276, 2.62292, -84.56305, -103.02607)" xlink:href="#radial-gradient-4"/>
    <radialGradient id="radial-gradient-9" cx="105.39499" cy="19.99736" r="28.68092" gradientTransform="translate(210.78998 34.6052) rotate(180) scale(1 0.73049)" xlink:href="#radial-gradient-5"/>
    <radialGradient id="radial-gradient-10" cx="86.65752" cy="29.84573" r="38.32706" xlink:href="#radial-gradient-6"/>
    <radialGradient id="radial-gradient-11" cx="623.31147" cy="-1774.82775" r="3.46053" xlink:href="#radial-gradient-4"/>
    <radialGradient id="radial-gradient-12" cx="623.20798" cy="-1781.21947" r="2.71951" xlink:href="#radial-gradient-4"/>
    <radialGradient id="Degradado_sin_nombre_34-3" data-name="Degradado sin nombre 34" cx="86.31724" cy="35.40708" r="1.98843" gradientTransform="matrix(0.90102, -0.43378, 1.26276, 2.62292, -36.16696, -20.01993)" xlink:href="#radial-gradient-4"/>
    <radialGradient id="radial-gradient-13" cx="273.24427" cy="-271.36092" r="62.65461" xlink:href="#radial-gradient"/>
  </defs>
  <g class="cls-1">
    <g id="Слой_2" data-name="Слой 2">
      <g id="BACKGROUND">
        <path class="cls-2" d="M48.07555,93.21259l-2.0981-1.07205.64916-.33144a.8962.8962,0,0,0,.39488-1.302,1.157,1.157,0,0,0-1.47093-.34923l-1.72674.88149-1.59347-.814a2.89207,2.89207,0,0,0,0-1.57407l1.59347-.81458,1.72615.882a1.17723,1.17723,0,0,0,.53694.12849,1.10953,1.10953,0,0,0,.93364-.4772.89636.89636,0,0,0-.39394-1.302l-.64976-.332,2.0987-1.07206a.89645.89645,0,0,0,.39426-1.302,1.15444,1.15444,0,0,0-1.4709-.34871l-2.09842,1.072.00091-.66342a1.02089,1.02089,0,0,0-1.077-.95332h0a1.02063,1.02063,0,0,0-1.07695.95277l-.00063,1.76408-1.595.81511a3.936,3.936,0,0,0-1.53828-.78866v-1.6275L41.34,83.70174a.8952.8952,0,0,0,.39363-1.30148,1.15556,1.15556,0,0,0-1.4709-.34926l-.64916.332V80.23887a1.08489,1.08489,0,0,0-2.15362,0V82.383l-.64976-.332a1.15585,1.15585,0,0,0-1.47092.34926.896.896,0,0,0,.39394,1.30148l1.72674.88259v1.6275a3.933,3.933,0,0,0-1.53859.78921l-1.595-.81566V84.4213a1.08489,1.08489,0,0,0-2.15363,0v.664l-2.09779-1.072a1.15475,1.15475,0,0,0-1.47093.34871.89576.89576,0,0,0,.394,1.302l2.0978,1.07206-.65007.33143a.89693.89693,0,0,0-.394,1.30256,1.11013,1.11013,0,0,0,.93395.47665,1.17685,1.17685,0,0,0,.537-.12794l1.72673-.882,1.59439.81458a2.88393,2.88393,0,0,0,0,1.57407l-1.59439.814-1.72583-.88205a1.15532,1.15532,0,0,0-1.47089.34871.89526.89526,0,0,0,.39394,1.302l.64979.332L28.998,93.21259a.89558.89558,0,0,0-.394,1.302,1.10776,1.10776,0,0,0,.93336.47667,1.17781,1.17781,0,0,0,.53757-.12793l2.09689-1.07206v.6634a1.085,1.085,0,0,0,2.1539,0l.00063-1.76409,1.595-.81562a3.9343,3.9343,0,0,0,1.538.78917v1.62808l-1.72615.88205a.89533.89533,0,0,0-.39394,1.302,1.15474,1.15474,0,0,0,1.47092.34871l.64976-.332v2.14466a1.08481,1.08481,0,0,0,2.15362,0V96.49354l.64885.332a1.1776,1.1776,0,0,0,.53757.12794,1.10768,1.10768,0,0,0,.93305-.47665.8959.8959,0,0,0-.393-1.302l-1.72674-.88257V92.66414a3.924,3.924,0,0,0,1.53859-.78865l1.595.81458v1.76461a1.08481,1.08481,0,0,0,2.15362,0v-.66395l2.09842,1.07261a1.17713,1.17713,0,0,0,.53695.12793,1.11017,1.11017,0,0,0,.934-.47667A.89626.89626,0,0,0,48.07555,93.21259ZM38.53693,90.8979a1.47051,1.47051,0,1,1,1.649-1.45962A1.56446,1.56446,0,0,1,38.53693,90.8979Z"/>
        <path class="cls-3" d="M74.21179,92.75644l-2.0981-1.07205.64916-.33144a.8962.8962,0,0,0,.39488-1.302,1.157,1.157,0,0,0-1.47093-.34924l-1.72674.88149-1.59347-.814a2.8921,2.8921,0,0,0,0-1.57408l1.59347-.81457,1.72615.882a1.17723,1.17723,0,0,0,.53694.12849,1.10955,1.10955,0,0,0,.93364-.4772.89637.89637,0,0,0-.39394-1.302l-.64976-.332,2.0987-1.07205a.89645.89645,0,0,0,.39426-1.302,1.15443,1.15443,0,0,0-1.4709-.34871l-2.09842,1.07205.00091-.66342a1.0209,1.0209,0,0,0-1.07695-.95333h0a1.02063,1.02063,0,0,0-1.07695.95277l-.00063,1.76409-1.595.8151a3.93607,3.93607,0,0,0-1.53828-.78865v-1.6275l1.72643-.8826a.89519.89519,0,0,0,.39363-1.30148,1.15558,1.15558,0,0,0-1.4709-.34926l-.64916.332V79.78272a1.08488,1.08488,0,0,0-2.15362,0v2.14411l-.64976-.332a1.15586,1.15586,0,0,0-1.47092.34926.896.896,0,0,0,.39394,1.30148l1.72674.8826v1.6275a3.93314,3.93314,0,0,0-1.53859.7892l-1.595-.81565V83.96514a1.08489,1.08489,0,0,0-2.15363,0v.664L56.2112,83.55707a1.15474,1.15474,0,0,0-1.47093.34871.89576.89576,0,0,0,.394,1.302l2.0978,1.07205-.65007.33144a.89693.89693,0,0,0-.394,1.30256,1.11012,1.11012,0,0,0,.934.47665,1.17685,1.17685,0,0,0,.53695-.12794l1.72673-.882,1.59439.81457a2.884,2.884,0,0,0,0,1.57408l-1.59439.814-1.72583-.882a1.1553,1.1553,0,0,0-1.47089.34871.89525.89525,0,0,0,.39394,1.302l.64979.332-2.09842,1.07261a.89558.89558,0,0,0-.394,1.302,1.10776,1.10776,0,0,0,.93336.47667,1.17769,1.17769,0,0,0,.53757-.12794l2.09689-1.072v.6634a1.085,1.085,0,0,0,2.1539,0l.00063-1.76409,1.595-.81563a3.93432,3.93432,0,0,0,1.538.78918v1.62808l-1.72615.882a.89534.89534,0,0,0-.39394,1.302,1.15474,1.15474,0,0,0,1.47092.34871l.64976-.332V98.1815a1.08481,1.08481,0,0,0,2.15362,0V96.03739l.64885.332a1.17773,1.17773,0,0,0,.53757.12794,1.10768,1.10768,0,0,0,.933-.47665.89589.89589,0,0,0-.393-1.302l-1.72674-.88257V92.208a3.92416,3.92416,0,0,0,1.53859-.78865l1.595.81458v1.76461a1.08481,1.08481,0,0,0,2.15362,0v-.66395l2.09842,1.0726a1.177,1.177,0,0,0,.537.12794,1.11017,1.11017,0,0,0,.93395-.47667A.89626.89626,0,0,0,74.21179,92.75644Zm-9.53863-2.31469a1.47051,1.47051,0,1,1,1.649-1.45963A1.56446,1.56446,0,0,1,64.67316,90.44175Z"/>
      </g>
      <g id="OBJECTS">
        <g>
          <polygon class="cls-4" points="97.811 61.705 89.427 62.256 87.847 70.508 79.782 68.158 75.475 75.371 68.699 70.404 62.185 75.711 57.516 68.727 49.58 71.484 47.582 63.324 39.181 63.201 40.095 54.85 32.242 51.861 35.957 44.324 29.602 38.83 35.668 33.02 31.575 25.684 39.263 22.299 37.925 14.006 46.308 13.455 47.889 5.203 55.954 7.553 60.26 0.338 67.037 5.305 73.551 0 78.22 6.982 86.156 4.225 88.156 12.387 96.556 12.51 95.642 20.859 103.494 23.848 99.78 31.385 106.136 36.879 100.069 42.69 104.162 50.025 96.473 53.41 97.811 61.705"/>
          <path class="cls-5" d="M39.52374,37.8535A28.3447,28.3447,0,1,0,67.86744,9.5117,28.3454,28.3454,0,0,0,39.52374,37.8535Z"/>
          <g>
            <path class="cls-6" d="M72.18774,34.9395c-7.2197-5.8594-10.039-14.7735-6.2968-19.92,3.7451-5.1464,12.6318-4.5664,19.8535,1.2852,7.2178,5.8555,10.0332,14.7754,6.293,19.918C88.29134,41.3711,79.40456,40.791,72.18774,34.9395Z"/>
            <path class="cls-7" d="M42.81574,44.1192c.958-3.1348,5.8174-1.836,10.8623,2.9023,5.0439,4.7383,8.3554,11.1172,7.4043,14.2559-.9541,3.1328-5.8155,1.8359-10.8614-2.9024C45.178,53.6348,41.86356,47.25,42.81574,44.1192Z"/>
          </g>
        </g>
        <g>
          <path class="cls-8" d="M51.16724,54.5039a14.23835,14.23835,0,0,0-28.4091,0,10.6102,10.6102,0,0,0,.5332,21.207H50.635a10.61017,10.61017,0,0,0,.5322-21.207Z"/>
          <path class="cls-9" d="M51.16724,54.5039a14.23835,14.23835,0,0,0-28.4091,0,10.6102,10.6102,0,0,0,.5332,21.207H50.635a10.61017,10.61017,0,0,0,.5322-21.207Z"/>
          <path class="cls-10" d="M36.96414,55.8242c-3.9941-3.2402-5.5547-8.1738-3.4834-11.0215,2.0713-2.8476,6.9893-2.5253,10.9844.711,3.9941,3.2402,5.5517,8.1758,3.48242,11.0215C45.87524,59.3828,40.95734,59.0625,36.96414,55.8242Z"/>
          <path class="cls-11" d="M51.24244,65.4024c-3.1386-2.5469-4.3642-6.4239-2.7383-8.6622,1.628-2.2382,5.4932-1.9863,8.6338.5586,3.1377,2.5469,4.3623,6.4258,2.7364,8.6602C58.24444,68.1973,54.38114,67.9473,51.24244,65.4024Z"/>
          <path class="cls-12" d="M20.26684,65.7578c-2.3164-3.6133-5.0068-5.3535-6.0146-3.8886-1.0029,1.4648.0586,5.5839,2.373,9.1972,2.3174,3.6133,5.0098,5.3555,6.0147,3.8887C23.64484,73.4863,22.58334,69.3711,20.26684,65.7578Z"/>
        </g>
        <g>
          <path class="cls-13" d="M111.65164,24.6387a11.02417,11.02417,0,0,0-21.99608,0,8.21513,8.21513,0,0,0,.41208,16.4199h21.17192a8.21513,8.21513,0,0,0,.41208-16.4199Z"/>
          <path class="cls-14" d="M111.65164,24.6387a11.02417,11.02417,0,0,0-21.99608,0,8.21513,8.21513,0,0,0,.41208,16.4199h21.17192a8.21513,8.21513,0,0,0,.41208-16.4199Z"/>
          <path class="cls-15" d="M100.65456,25.6602c-3.09272-2.5098-4.30072-6.3282-2.69722-8.5332,1.6035-2.2051,5.4121-1.9571,8.5058.5488,3.0909,2.5098,4.2969,6.332,2.6963,8.5351C107.554,28.416,103.74634,28.168,100.65456,25.6602Z"/>
          <path class="cls-16" d="M111.70924,33.0762c-2.42968-1.9727-3.3789-4.9746-2.1191-6.707,1.2607-1.7325,4.2529-1.5372,6.6836.4316,2.4297,1.9726,3.3779,4.9766,2.1191,6.707C117.13114,35.2402,114.13994,35.0449,111.70924,33.0762Z"/>
          <path class="cls-17" d="M87.72684,33.3496c-1.793-2.7969-3.8769-4.1426-4.6572-3.0078-.7764,1.1328.04592,4.3223,1.83692,7.1211,1.79488,2.7969,3.87888,4.1445,4.65718,3.0098C90.342,39.3359,89.51984,36.1484,87.72684,33.3496Z"/>
        </g>
        <path class="cls-18" d="M19.61617,92.7567l-2.0981-1.072.64916-.33144a.8962.8962,0,0,0,.39488-1.302,1.157,1.157,0,0,0-1.47093-.34923l-1.72674.88149-1.59347-.814a2.89207,2.89207,0,0,0,0-1.57407l1.59347-.81458,1.72615.882a1.17723,1.17723,0,0,0,.53694.12849,1.10953,1.10953,0,0,0,.93364-.4772.89636.89636,0,0,0-.39394-1.302l-.64976-.332,2.0987-1.07206a.89645.89645,0,0,0,.39426-1.302,1.15444,1.15444,0,0,0-1.4709-.34871l-2.09842,1.07205L16.442,83.966a1.02089,1.02089,0,0,0-1.07695-.95332h0a1.02063,1.02063,0,0,0-1.07695.95276l-.00063,1.76409-1.595.8151a3.93607,3.93607,0,0,0-1.53828-.78865v-1.6275l1.72643-.88259a.8952.8952,0,0,0,.39363-1.30148,1.15558,1.15558,0,0,0-1.4709-.34927l-.64916.332V79.783a1.02038,1.02038,0,0,0-1.07667-.95277,1.02026,1.02026,0,0,0-1.07695.95277v2.14411l-.64976-.332a1.15587,1.15587,0,0,0-1.47092.34927.896.896,0,0,0,.39394,1.30148l1.72674.88259v1.6275a3.933,3.933,0,0,0-1.53859.78921l-1.595-.81566V83.9654A1.02063,1.02063,0,0,0,4.79,83.01264a1.02,1.02,0,0,0-1.07667.95276v.664L1.61558,83.55733A1.15475,1.15475,0,0,0,.14465,83.906a.89576.89576,0,0,0,.394,1.302l2.0978,1.07206-.65007.33143a.89693.89693,0,0,0-.39395,1.30256,1.11012,1.11012,0,0,0,.93395.47665,1.17685,1.17685,0,0,0,.537-.12794l1.72673-.882,1.59439.81458a2.88393,2.88393,0,0,0,0,1.57407l-1.59439.814-1.72583-.882a1.15532,1.15532,0,0,0-1.47089.34871.89525.89525,0,0,0,.39394,1.302l.64979.332L.53863,92.7567a.89558.89558,0,0,0-.394,1.302,1.10776,1.10776,0,0,0,.93336.47667,1.17784,1.17784,0,0,0,.53757-.12793l2.09689-1.07206v.6634a1.021,1.021,0,0,0,1.07664.95332,1.021,1.021,0,0,0,1.07726-.95332L5.867,92.2347l1.595-.81563A3.93418,3.93418,0,0,0,9,92.20825v1.62808l-1.72615.882a.89533.89533,0,0,0-.39394,1.302,1.15474,1.15474,0,0,0,1.47092.34871l.64976-.332v2.14466a1.021,1.021,0,0,0,1.077.9533,1.02078,1.02078,0,0,0,1.07667-.9533V96.03765l.64885.332a1.1776,1.1776,0,0,0,.53757.12794,1.10767,1.10767,0,0,0,.933-.47665.8959.8959,0,0,0-.393-1.302l-1.72674-.88257V92.20825a3.92416,3.92416,0,0,0,1.53859-.78865l1.595.81458v1.76461a1.08481,1.08481,0,0,0,2.15362,0v-.66395l2.09842,1.07261a1.17713,1.17713,0,0,0,.537.12793,1.11019,1.11019,0,0,0,.93395-.47667A.89626.89626,0,0,0,19.61617,92.7567ZM10.07754,90.442a1.47047,1.47047,0,1,1,0-2.91927,1.47051,1.47051,0,1,1,0,2.91927Z"/>
      </g>
    </g>
  </g>
</svg>
