<svg xmlns="http://www.w3.org/2000/svg" xmlns:xlink="http://www.w3.org/1999/xlink" viewBox="0 0 103.83 110.04"><defs><style>.cls-1{isolation:isolate;}.cls-2{fill:url(#radial-gradient);}.cls-3{fill:url(#linear-gradient);}.cls-4{fill:url(#radial-gradient-2);}.cls-10,.cls-11,.cls-5,.cls-6,.cls-9{mix-blend-mode:overlay;}.cls-5{fill:url(#radial-gradient-3);}.cls-10,.cls-6{opacity:0.4;}.cls-6{fill:url(#Degradado_sin_nombre_34);}.cls-7{fill:url(#radial-gradient-4);}.cls-8{fill:url(#radial-gradient-5);}.cls-9{fill:url(#radial-gradient-6);}.cls-10{fill:url(#radial-gradient-7);}.cls-11{opacity:0.2;fill:url(#Degradado_sin_nombre_34-2);}</style><radialGradient id="radial-gradient" cx="117.63" cy="39.62" r="62.65" gradientTransform="translate(3.02 75.31) scale(0.45 0.38)" gradientUnits="userSpaceOnUse"><stop offset="0" stop-color="#28cbe9"/><stop offset="1" stop-color="#0a4fbb"/></radialGradient><linearGradient id="linear-gradient" x1="101.27" y1="-0.86" x2="50.22" y2="56.18" gradientUnits="userSpaceOnUse"><stop offset="0" stop-color="#ffba24"/><stop offset="1" stop-color="#f50"/></linearGradient><radialGradient id="radial-gradient-2" cx="-461.3" cy="15.24" r="40.84" gradientTransform="matrix(-1, 0, 0, 1, -381.6, 0)" gradientUnits="userSpaceOnUse"><stop offset="0" stop-color="#fff4c3"/><stop offset="0.16" stop-color="#ffe036"/><stop offset="1" stop-color="#fa761c"/></radialGradient><radialGradient id="radial-gradient-3" cx="759.04" cy="-1712.31" r="6.13" gradientTransform="matrix(-0.84, 1.15, -1.62, -1.31, -2051.36, -3103.76)" gradientUnits="userSpaceOnUse"><stop offset="0" stop-color="#fff"/><stop offset="0.1" stop-color="#fff" stop-opacity="0.85"/><stop offset="0.29" stop-color="#fff" stop-opacity="0.59"/><stop offset="0.47" stop-color="#fff" stop-opacity="0.38"/><stop offset="0.63" stop-color="#fff" stop-opacity="0.22"/><stop offset="0.78" stop-color="#fff" stop-opacity="0.1"/><stop offset="0.91" stop-color="#fff" stop-opacity="0.03"/><stop offset="1" stop-color="#fff" stop-opacity="0"/></radialGradient><radialGradient id="Degradado_sin_nombre_34" cx="-3218.91" cy="3491.04" r="5.92" gradientTransform="matrix(-1.17, -1.1, 0.22, -0.73, -4483.91, -960.53)" xlink:href="#radial-gradient-3"/><radialGradient id="radial-gradient-4" cx="57.67" cy="26.07" r="70.26" gradientTransform="translate(115.34 45.12) rotate(180) scale(1 0.73)" gradientUnits="userSpaceOnUse"><stop offset="0" stop-color="#fff"/><stop offset="0.2" stop-color="#d5f3ff"/><stop offset="1" stop-color="#85bcf1"/></radialGradient><radialGradient id="radial-gradient-5" cx="67.63" cy="31.96" r="59.73" gradientUnits="userSpaceOnUse"><stop offset="0" stop-color="#ffe036"/><stop offset="0.08" stop-color="#fecb31" stop-opacity="0.81"/><stop offset="0.18" stop-color="#fdb52b" stop-opacity="0.6"/><stop offset="0.28" stop-color="#fca227" stop-opacity="0.41"/><stop offset="0.38" stop-color="#fb9223" stop-opacity="0.26"/><stop offset="0.48" stop-color="#fb8620" stop-opacity="0.15"/><stop offset="0.58" stop-color="#fa7d1e" stop-opacity="0.07"/><stop offset="0.68" stop-color="#fa781c" stop-opacity="0.02"/><stop offset="0.77" stop-color="#fa761c" stop-opacity="0"/></radialGradient><radialGradient id="radial-gradient-6" cx="778.16" cy="-1703.67" r="8.48" xlink:href="#radial-gradient-3"/><radialGradient id="radial-gradient-7" cx="777.91" cy="-1719.33" r="6.66" xlink:href="#radial-gradient-3"/><radialGradient id="Degradado_sin_nombre_34-2" cx="10.94" cy="63.82" r="4.87" gradientTransform="matrix(0.9, -0.43, 1.26, 2.62, -79.51, -98.83)" xlink:href="#radial-gradient-3"/></defs><g class="cls-1"><g id="Слой_2" data-name="Слой 2"><g id="OBJECTS"><path class="cls-2" d="M60.39,101.23l-3-1.48.94-.45a1.22,1.22,0,0,0,.57-1.8A1.71,1.71,0,0,0,56.74,97l-2.49,1.21-2.31-1.12a3.76,3.76,0,0,0,0-2.17l2.31-1.13L56.74,95a1.78,1.78,0,0,0,.78.18,1.64,1.64,0,0,0,1.35-.66,1.22,1.22,0,0,0-.57-1.8l-.94-.46,3-1.48A1.21,1.21,0,0,0,61,89a1.72,1.72,0,0,0-2.12-.48L55.8,90V89.1a1.45,1.45,0,0,0-1.55-1.32h0a1.46,1.46,0,0,0-1.56,1.32v2.43l-2.31,1.13a5.7,5.7,0,0,0-2.22-1.09V89.32l2.5-1.22a1.21,1.21,0,0,0,.57-1.79,1.73,1.73,0,0,0-2.13-.49l-.94.46v-3a1.58,1.58,0,0,0-3.11,0v3l-.94-.46a1.73,1.73,0,0,0-2.13.49,1.21,1.21,0,0,0,.57,1.79l2.5,1.22v2.25a5.81,5.81,0,0,0-2.23,1.09l-2.3-1.13V89.1a1.58,1.58,0,0,0-3.11,0V90l-3-1.48a1.72,1.72,0,0,0-2.12.48,1.21,1.21,0,0,0,.57,1.8l3,1.48-.94.46a1.22,1.22,0,0,0-.57,1.8,1.64,1.64,0,0,0,1.35.66,1.81,1.81,0,0,0,.78-.18L39,93.81l2.31,1.13a3.76,3.76,0,0,0,0,2.17L39,98.23,36.47,97a1.71,1.71,0,0,0-2.13.48,1.22,1.22,0,0,0,.57,1.8l.94.45-3,1.48a1.21,1.21,0,0,0-.57,1.8,1.61,1.61,0,0,0,1.35.66,1.74,1.74,0,0,0,.77-.18l3-1.48V103a1.58,1.58,0,0,0,3.12,0v-2.44l2.3-1.12a5.81,5.81,0,0,0,2.23,1.09v2.25l-2.5,1.21a1.22,1.22,0,0,0-.57,1.8,1.71,1.71,0,0,0,2.13.48l.94-.46v3a1.58,1.58,0,0,0,3.11,0v-3l.94.45a1.75,1.75,0,0,0,.78.18,1.62,1.62,0,0,0,1.34-.66,1.21,1.21,0,0,0-.56-1.8l-2.5-1.21v-2.25a5.77,5.77,0,0,0,2.22-1.09l2.31,1.12V103a1.58,1.58,0,0,0,3.11,0V102l3,1.48a1.74,1.74,0,0,0,.77.18A1.64,1.64,0,0,0,61,103,1.21,1.21,0,0,0,60.39,101.23ZM46.6,98A2,2,0,1,1,49,96,2.23,2.23,0,0,1,46.6,98Z"/><polygon class="cls-3" points="97.51 46.83 91.15 47.25 89.95 53.52 83.82 51.73 80.56 57.21 75.41 53.44 70.47 57.47 66.92 52.17 60.9 54.26 59.38 48.06 53.01 47.97 53.7 41.63 47.74 39.36 50.56 33.65 45.74 29.48 50.34 25.06 47.23 19.5 53.07 16.93 52.06 10.63 58.42 10.21 59.62 3.95 65.74 5.73 69.01 0.26 74.15 4.03 79.1 0 82.64 5.3 88.66 3.21 90.18 9.4 96.56 9.49 95.86 15.83 101.82 18.1 99 23.82 103.83 27.99 99.22 32.4 102.33 37.97 96.49 40.54 97.51 46.83"/><circle class="cls-4" cx="74.78" cy="28.73" r="21.51"/><path class="cls-5" d="M78.06,26.52c-5.48-4.45-7.62-11.21-4.78-15.12s9.59-3.47,15.07,1S96,23.59,93.13,27.49,83.54,31,78.06,26.52Z"/><path class="cls-6" d="M55.77,33.49c.72-2.38,4.41-1.4,8.24,2.2s6.34,8.44,5.62,10.82-4.41,1.39-8.24-2.2S55,35.87,55.77,33.49Z"/><path class="cls-7" d="M73,37.44a27,27,0,0,0-53.89,0,20.12,20.12,0,0,0,1,40.22H72a20.12,20.12,0,0,0,1-40.22Z"/><path class="cls-8" d="M73,37.44a27,27,0,0,0-53.89,0,20.12,20.12,0,0,0,1,40.22H72a20.12,20.12,0,0,0,1-40.22Z"/><path class="cls-9" d="M46.06,40C38.48,33.8,35.52,24.44,39.45,19s13.26-4.79,20.84,1.35,10.52,15.51,6.6,20.9S53.63,46.09,46.06,40Z"/><path class="cls-10" d="M73.14,58.11c-6-4.83-8.28-12.18-5.19-16.43s10.41-3.76,16.37,1.06,8.27,12.19,5.19,16.43S79.09,62.94,73.14,58.11Z"/><path class="cls-11" d="M14.39,58.79C10,51.93,4.89,48.63,3,51.41S3.09,62,7.48,68.86,17,79,18.89,76.23,18.78,65.64,14.39,58.79Z"/></g></g></g></svg>