<svg xmlns="http://www.w3.org/2000/svg" xmlns:xlink="http://www.w3.org/1999/xlink" width="107.2527" height="111.67048" viewBox="0 0 107.2527 111.67048">
  <defs>
    <style>
      .cls-1 {
        isolation: isolate;
      }

      .cls-2 {
        fill: url(#linear-gradient);
      }

      .cls-3 {
        fill: url(#radial-gradient);
      }

      .cls-10, .cls-4, .cls-5, .cls-8, .cls-9 {
        mix-blend-mode: overlay;
      }

      .cls-4 {
        fill: url(#radial-gradient-2);
      }

      .cls-5, .cls-9 {
        opacity: 0.4;
      }

      .cls-5 {
        fill: url(#Degradado_sin_nombre_34);
      }

      .cls-6 {
        fill: url(#linear-gradient-2);
      }

      .cls-7 {
        fill: url(#radial-gradient-3);
      }

      .cls-8 {
        opacity: 0.6;
        fill: url(#radial-gradient-4);
      }

      .cls-9 {
        fill: url(#radial-gradient-5);
      }

      .cls-10 {
        opacity: 0.2;
        fill: url(#Degradado_sin_nombre_34-2);
      }
    </style>
    <linearGradient id="linear-gradient" x1="103.87735" y1="-1.13501" x2="36.61915" y2="74.02395" gradientUnits="userSpaceOnUse">
      <stop offset="0" stop-color="#ffba24"/>
      <stop offset="1" stop-color="#f50"/>
    </linearGradient>
    <radialGradient id="radial-gradient" cx="379.46511" cy="20.08437" r="53.80679" gradientTransform="matrix(-1, 0, 0, 1, 454.93305, 0)" gradientUnits="userSpaceOnUse">
      <stop offset="0" stop-color="#fff4c3"/>
      <stop offset="0.15591" stop-color="#ffe036"/>
      <stop offset="1" stop-color="#fa761c"/>
    </radialGradient>
    <radialGradient id="radial-gradient-2" cx="1373.86705" cy="-1566.50272" r="8.07694" gradientTransform="matrix(-0.8392, 1.1536, -1.6186, -1.3126, -1302.5104, -3615.46364)" gradientUnits="userSpaceOnUse">
      <stop offset="0" stop-color="#fff"/>
      <stop offset="0.10256" stop-color="#fff" stop-opacity="0.84849"/>
      <stop offset="0.29029" stop-color="#fff" stop-opacity="0.59415"/>
      <stop offset="0.4694" stop-color="#fff" stop-opacity="0.38204"/>
      <stop offset="0.63471" stop-color="#fff" stop-opacity="0.21674"/>
      <stop offset="0.78337" stop-color="#fff" stop-opacity="0.09804"/>
      <stop offset="0.91014" stop-color="#fff" stop-opacity="0.02577"/>
      <stop offset="1" stop-color="#fff" stop-opacity="0"/>
    </radialGradient>
    <radialGradient id="Degradado_sin_nombre_34" data-name="Degradado sin nombre 34" cx="-2521.86223" cy="3022.32254" r="7.79374" gradientTransform="matrix(-1.1717, -1.1007, 0.222, -0.7283, -3572.75522, -521.95799)" xlink:href="#radial-gradient-2"/>
    <linearGradient id="linear-gradient-2" x1="41.16985" y1="110.9041" x2="52.69413" y2="74.61496" gradientUnits="userSpaceOnUse">
      <stop offset="0.15591" stop-color="#ffe036"/>
      <stop offset="1" stop-color="#fa761c"/>
    </linearGradient>
    <radialGradient id="radial-gradient-3" cx="57.66926" cy="30.58903" r="70.25575" gradientTransform="translate(115.33853 52.93396) rotate(180) scale(1 0.73049)" gradientUnits="userSpaceOnUse">
      <stop offset="0" stop-color="#b6ccd2"/>
      <stop offset="0.198" stop-color="#97b6be"/>
      <stop offset="1" stop-color="#5d87b4"/>
    </radialGradient>
    <radialGradient id="radial-gradient-4" cx="1389.87038" cy="-1559.34134" r="8.47612" xlink:href="#radial-gradient-2"/>
    <radialGradient id="radial-gradient-5" cx="1390.45205" cy="-1574.26496" r="6.66144" xlink:href="#radial-gradient-2"/>
    <radialGradient id="Degradado_sin_nombre_34-2" data-name="Degradado sin nombre 34" cx="10.93465" cy="68.33783" r="4.87096" gradientTransform="matrix(0.90102, -0.43378, 1.26276, 2.62292, -85.21227, -106.16341)" xlink:href="#radial-gradient-2"/>
  </defs>
  <g class="cls-1">
    <g id="Слой_2" data-name="Слой 2">
      <g id="OBJECTS">
        <g>
          <polygon class="cls-2" points="98.928 61.705 90.544 62.256 88.965 70.508 80.899 68.158 76.592 75.371 69.816 70.404 63.302 75.711 58.634 68.727 50.698 71.484 48.699 63.324 40.298 63.201 41.212 54.85 33.359 51.861 37.074 44.324 30.719 38.83 36.786 33.02 32.692 25.684 40.381 22.299 39.043 14.006 47.426 13.455 49.006 5.203 57.072 7.553 61.378 0.338 68.154 5.305 74.669 0 79.337 6.982 87.273 4.225 89.272 12.387 97.673 12.51 96.759 20.859 104.611 23.848 100.897 31.385 107.253 36.879 101.186 42.69 105.28 50.025 97.59 53.41 98.928 61.705"/>
          <path class="cls-3" d="M40.6413,37.8535A28.34425,28.34425,0,1,0,68.9851,9.5117,28.34516,28.34516,0,0,0,40.6413,37.8535Z"/>
          <g>
            <path class="cls-4" d="M73.3044,34.9395c-7.2187-5.8594-10.0386-14.7735-6.2959-19.92,3.7442-5.1464,12.6314-4.5664,19.8535,1.2852,7.2168,5.8555,10.0327,14.7754,6.2925,19.918C89.4084,41.3711,80.5212,40.791,73.3044,34.9395Z"/>
            <path class="cls-5" d="M43.9333,44.1192c.958-3.1348,5.8174-1.836,10.8618,2.9023,5.0445,4.7383,8.356,11.1172,7.4043,14.2559-.9541,3.1328-5.8154,1.8359-10.8618-2.9024C46.2951,53.6348,42.9807,47.25,43.9333,44.1192Z"/>
          </g>
        </g>
        <path class="cls-6" d="M54.46217,88.49381h-4.3613l7.18941-13.9747a8.36127,8.36127,0,0,0,.71289-2,8.02855,8.02855,0,1,0-15.7051-3.3437l-4.8066,22.5762-.1485.6933a5.00721,5.00721,0,0,0-.0996.9883,4.86957,4.86957,0,0,0,4.8672,4.8691h5.3203l-2.8711,11.9747a1.13143,1.13143,0,0,0,2.0157.9277l11.4336-15.7559a4.38309,4.38309,0,0,0-3.5469-6.955Z"/>
        <g>
          <path class="cls-7" d="M72.9961,41.95868a27.00551,27.00551,0,0,0-53.8829,0,20.123,20.123,0,0,0,1.0098,40.2207H71.9863a20.123,20.123,0,0,0,1.0098-40.2207Z"/>
          <path class="cls-8" d="M47.9472,44.46058c-7.5761-6.1465-10.5351-15.5019-6.6074-20.9023,3.9297-5.4004,13.2559-4.793,20.8359,1.3476,7.5723,6.1446,10.5274,15.5078,6.6036,20.9024C64.84761,51.21258,55.5215,50.60508,47.9472,44.46058Z"/>
          <path class="cls-9" d="M73.1367,62.62658c-5.95309-4.8301-8.2774-12.1836-5.1914-16.4277,3.0879-4.2442,10.4179-3.7676,16.373,1.0586,5.9532,4.8301,8.2754,12.1875,5.1914,16.4277C86.4199,67.93128,79.0898,67.45468,73.1367,62.62658Z"/>
          <path class="cls-10" d="M14.38861,63.30238c-4.39451-6.8555-9.49611-10.1523-11.40821-7.373-1.9043,2.7753.1094,10.5878,4.5,17.4433,4.3965,6.8535,9.502,10.1543,11.40821,7.3731C20.7929,77.96258,18.7812,70.15788,14.38861,63.30238Z"/>
        </g>
      </g>
    </g>
  </g>
</svg>
