<svg xmlns="http://www.w3.org/2000/svg" xmlns:xlink="http://www.w3.org/1999/xlink" width="92.1094" height="83.5074" viewBox="0 0 92.1094 83.5074">
  <defs>
    <style>
      .cls-1 {
        isolation: isolate;
      }

      .cls-2 {
        fill: url(#radial-gradient);
      }

      .cls-11, .cls-3, .cls-4, .cls-5, .cls-7, .cls-9 {
        mix-blend-mode: overlay;
      }

      .cls-3 {
        fill: url(#radial-gradient-2);
      }

      .cls-4 {
        opacity: 0.4;
        fill: url(#radial-gradient-3);
      }

      .cls-5 {
        opacity: 0.2;
        fill: url(#Degradado_sin_nombre_34);
      }

      .cls-6 {
        fill: url(#radial-gradient-4);
      }

      .cls-7 {
        fill: url(#radial-gradient-5);
      }

      .cls-8 {
        fill: url(#radial-gradient-6);
      }

      .cls-9 {
        fill: url(#radial-gradient-7);
      }

      .cls-10 {
        fill: url(#radial-gradient-8);
      }

      .cls-11 {
        fill: url(#radial-gradient-9);
      }

      .cls-12 {
        fill: url(#radial-gradient-10);
      }
    </style>
    <radialGradient id="radial-gradient" cx="57.66932" cy="13.77686" r="70.25578" gradientTransform="translate(115.33865 23.84068) rotate(180) scale(1 0.73049)" gradientUnits="userSpaceOnUse">
      <stop offset="0" stop-color="#fff"/>
      <stop offset="0.198" stop-color="#d5f3ff"/>
      <stop offset="1" stop-color="#85bcf1"/>
    </radialGradient>
    <radialGradient id="radial-gradient-2" cx="1441.46506" cy="-1686.00188" r="8.47603" gradientTransform="matrix(-0.8392, 1.1536, -1.6186, -1.3126, -1466.11591, -3858.04984)" gradientUnits="userSpaceOnUse">
      <stop offset="0" stop-color="#fff"/>
      <stop offset="0.10256" stop-color="#fff" stop-opacity="0.84849"/>
      <stop offset="0.29029" stop-color="#fff" stop-opacity="0.59415"/>
      <stop offset="0.4694" stop-color="#fff" stop-opacity="0.38204"/>
      <stop offset="0.63471" stop-color="#fff" stop-opacity="0.21674"/>
      <stop offset="0.78337" stop-color="#fff" stop-opacity="0.09804"/>
      <stop offset="0.91014" stop-color="#fff" stop-opacity="0.02577"/>
      <stop offset="1" stop-color="#fff" stop-opacity="0"/>
    </radialGradient>
    <radialGradient id="radial-gradient-3" cx="1441.21019" cy="-1701.66005" r="6.66148" xlink:href="#radial-gradient-2"/>
    <radialGradient id="Degradado_sin_nombre_34" data-name="Degradado sin nombre 34" cx="10.93447" cy="51.52564" r="4.87095" gradientTransform="matrix(0.90102, -0.43378, 1.26276, 2.62292, -63.98245, -78.87869)" xlink:href="#radial-gradient-2"/>
    <radialGradient id="radial-gradient-4" cx="-236.45791" cy="133.97823" r="9.89131" gradientTransform="translate(307.03367 82.12599) rotate(30.00073)" gradientUnits="userSpaceOnUse">
      <stop offset="0" stop-color="#d0f2ff"/>
      <stop offset="0.198" stop-color="#d5f3ff"/>
      <stop offset="1" stop-color="#85bcf1"/>
    </radialGradient>
    <radialGradient id="radial-gradient-5" cx="1632.44513" cy="-1606.03425" r="1.54945" gradientTransform="matrix(-1.3036, 0.5794, -0.7454, -1.946, 966.71138, -3991.90264)" xlink:href="#radial-gradient-2"/>
    <radialGradient id="radial-gradient-6" cx="-221.56801" cy="125.38144" r="9.89087" xlink:href="#radial-gradient-4"/>
    <radialGradient id="radial-gradient-7" cx="1621.17472" cy="-1609.38989" r="1.54945" gradientTransform="matrix(-1.3036, 0.5794, -0.7454, -1.946, 966.71138, -3991.90264)" xlink:href="#radial-gradient-2"/>
    <radialGradient id="radial-gradient-8" cx="-206.67831" cy="116.78461" r="9.89087" xlink:href="#radial-gradient-4"/>
    <radialGradient id="radial-gradient-9" cx="1609.90484" cy="-1612.74537" r="1.54952" gradientTransform="matrix(-1.3036, 0.5794, -0.7454, -1.946, 966.71138, -3991.90264)" xlink:href="#radial-gradient-2"/>
    <radialGradient id="radial-gradient-10" cx="-1523.5447" cy="-179.98062" r="62.65461" gradientTransform="translate(363.60772 109.32909) scale(0.22191 0.2008)" gradientUnits="userSpaceOnUse">
      <stop offset="0" stop-color="#28cbe9"/>
      <stop offset="1" stop-color="#0a4fbb"/>
    </radialGradient>
  </defs>
  <g class="cls-1">
    <g id="Слой_2" data-name="Слой 2">
      <g id="OBJECTS">
        <g>
          <path class="cls-2" d="M72.9951,25.1465a27.00444,27.00444,0,0,0-53.8809,0A20.123,20.123,0,0,0,20.123,65.3672H71.9858a20.123,20.123,0,0,0,1.0093-40.2207Z"/>
          <path class="cls-3" d="M46.0561,27.6484C38.4809,21.5019,35.522,12.1465,39.4492,6.7461c3.9297-5.4004,13.2563-4.793,20.835,1.3476,7.5737,6.1446,10.5293,15.5059,6.604,20.9024C62.9575,34.3984,53.6308,33.791,46.0561,27.6484Z"/>
          <path class="cls-4" d="M73.1377,45.8144c-5.9536-4.8301-8.2793-12.1855-5.1934-16.4277,3.0889-4.2461,10.4185-3.7676,16.3745,1.0586,5.9527,4.8301,8.2749,12.1875,5.1909,16.4277C86.4189,51.1191,79.0893,50.6425,73.1377,45.8144Z"/>
          <path class="cls-5" d="M14.3877,46.4883C9.9946,39.6347,4.8916,36.3379,2.9804,39.1172c-1.9047,2.7753.1099,10.5878,4.5,17.4433,4.3956,6.8535,9.5015,10.1543,11.4073,7.3731C20.7934,61.1484,18.7807,53.3457,14.3877,46.4883Z"/>
        </g>
        <g>
          <path class="cls-6" d="M40.77538,80.85853a4.11135,4.11135,0,0,1-7.1211-4.1113c1.1352-1.9668,8.1567-5.9063,8.1567-5.9063S41.91058,78.89173,40.77538,80.85853Z"/>
          <path class="cls-7" d="M33.77438,80.17693c-.6367-1.666-.2505-3.416.8652-3.9141,1.1153-.4961,2.5366.4531,3.1743,2.1192.6382,1.664.25,3.4179-.8647,3.9121C35.833,82.79023,34.41208,81.84093,33.77438,80.17693Z"/>
        </g>
        <g>
          <path class="cls-8" d="M57.96818,80.85853a4.11114,4.11114,0,0,1-7.1206-4.1113c1.1353-1.9668,8.1563-5.9063,8.1563-5.9063S59.10348,78.89173,57.96818,80.85853Z"/>
          <path class="cls-9" d="M50.96778,80.17693c-.6373-1.666-.251-3.416.8652-3.9141,1.1152-.4961,2.5366.4531,3.1743,2.1192.6377,1.664.25,3.4179-.8647,3.9121C53.02628,82.79023,51.605,81.84093,50.96778,80.17693Z"/>
        </g>
        <g>
          <path class="cls-10" d="M75.16108,80.85853a4.11114,4.11114,0,0,1-7.1206-4.1113c1.1353-1.9668,8.1563-5.9063,8.1563-5.9063S76.29638,78.89173,75.16108,80.85853Z"/>
          <path class="cls-11" d="M68.16008,80.17693c-.6367-1.666-.2505-3.416.8658-3.9141,1.1152-.4961,2.5361.4531,3.1743,2.1192.6377,1.664.2495,3.4179-.8653,3.9121C70.21868,82.79023,68.79778,81.84093,68.16008,80.17693Z"/>
        </g>
        <path class="cls-12" d="M27.61868,78.87322l-1.49118-.7789.46138-.24081a.65794.65794,0,0,0,.28065-.946.8113.8113,0,0,0-1.04542-.25374l-1.22724.64045-1.13253-.59143a2.14615,2.14615,0,0,0,0-1.14364l1.13253-.59183,1.22682.64084a.82178.82178,0,0,0,.38162.09336.78349.78349,0,0,0,.66356-.34671.65808.65808,0,0,0-.28-.946l-.4618-.24121,1.4916-.7789a.65812.65812,0,0,0,.28021-.946.80952.80952,0,0,0-1.0454-.25335l-1.4914.7789.00064-.482a.73182.73182,0,0,0-.76542-.69264h0a.73163.73163,0,0,0-.76542.69224l-.00044,1.28169-1.13361.59221a2.77616,2.77616,0,0,0-1.0933-.573V72.60436l1.227-.64125a.65721.65721,0,0,0,.27976-.94559.81031.81031,0,0,0-1.0454-.25375l-.46138.2412v-1.5578a.76918.76918,0,0,0-1.53064,0V71.005l-.4618-.2412a.81051.81051,0,0,0-1.04542.25375.65777.65777,0,0,0,.28.94559l1.22724.64125v1.18246a2.774,2.774,0,0,0-1.09351.5734l-1.13362-.59262V72.48591a.76917.76917,0,0,0-1.53063,0v.48241l-1.491-.7789a.80974.80974,0,0,0-1.04543.25335.65763.65763,0,0,0,.28.946l1.491.7789-.462.24081a.65849.65849,0,0,0-.28.94637.78386.78386,0,0,0,.66378.34631.8215.8215,0,0,0,.38163-.093l1.22723-.64084,1.13318.59183a2.14,2.14,0,0,0,0,1.14364l-1.13318.59143-1.22659-.64085a.81014.81014,0,0,0-1.04541.25336.65726.65726,0,0,0,.28.946l.46182.24118-1.4914.77931a.65748.65748,0,0,0-.28.946.78219.78219,0,0,0,.66336.34632.82231.82231,0,0,0,.38207-.093l1.49031-.7789v.482a.76924.76924,0,0,0,1.53084,0l.00044-1.28169,1.13362-.5926a2.775,2.775,0,0,0,1.09309.57338v1.18288l-1.22682.64085a.65731.65731,0,0,0-.28.946.80973.80973,0,0,0,1.04542.25335l.4618-.24121v1.55821a.76914.76914,0,0,0,1.53064,0V81.257l.46116.2412a.82206.82206,0,0,0,.38206.093.78215.78215,0,0,0,.66314-.3463.65774.65774,0,0,0-.27934-.946l-1.22724-.64123V78.47474a2.76763,2.76763,0,0,0,1.09352-.573l1.13361.59183v1.28208a.76913.76913,0,0,0,1.53064,0v-.48239l1.4914.7793a.82176.82176,0,0,0,.38162.093.78391.78391,0,0,0,.66378-.34632A.658.658,0,0,0,27.61868,78.87322Zm-6.77936-1.68174a1.0658,1.0658,0,1,1,1.172-1.06049A1.12148,1.12148,0,0,1,20.83932,77.19148Z"/>
      </g>
    </g>
  </g>
</svg>
