<svg xmlns="http://www.w3.org/2000/svg" xmlns:xlink="http://www.w3.org/1999/xlink" width="94.20233" height="89.31896" viewBox="0 0 94.20233 89.31896">
  <defs>
    <style>
      .cls-1 {
        isolation: isolate;
      }

      .cls-2 {
        fill: url(#radial-gradient);
      }

      .cls-3 {
        fill: url(#radial-gradient-2);
      }

      .cls-10, .cls-4, .cls-5, .cls-6, .cls-8 {
        mix-blend-mode: overlay;
      }

      .cls-4 {
        fill: url(#radial-gradient-3);
      }

      .cls-5 {
        opacity: 0.4;
        fill: url(#radial-gradient-4);
      }

      .cls-6 {
        opacity: 0.2;
        fill: url(#Degradado_sin_nombre_34);
      }

      .cls-7 {
        fill: url(#radial-gradient-5);
      }

      .cls-8 {
        fill: url(#radial-gradient-6);
      }

      .cls-9 {
        fill: url(#radial-gradient-7);
      }

      .cls-10 {
        fill: url(#radial-gradient-8);
      }

      .cls-11 {
        fill: url(#radial-gradient-9);
      }
    </style>
    <radialGradient id="radial-gradient" cx="-744.87889" cy="-38.85909" r="62.65461" gradientTransform="translate(286.62029 85.60816) scale(0.31223 0.27638)" gradientUnits="userSpaceOnUse">
      <stop offset="0" stop-color="#28cbe9"/>
      <stop offset="1" stop-color="#0a4fbb"/>
    </radialGradient>
    <radialGradient id="radial-gradient-2" cx="59.76225" cy="13.77686" r="70.25578" gradientTransform="translate(119.52451 23.84068) rotate(180) scale(1 0.73049)" gradientUnits="userSpaceOnUse">
      <stop offset="0" stop-color="#fff"/>
      <stop offset="0.198" stop-color="#d5f3ff"/>
      <stop offset="1" stop-color="#85bcf1"/>
    </radialGradient>
    <radialGradient id="radial-gradient-3" cx="1443.55799" cy="-1686.00188" r="8.47603" gradientTransform="matrix(-0.8392, 1.1536, -1.6186, -1.3126, -1462.26659, -3860.46424)" gradientUnits="userSpaceOnUse">
      <stop offset="0" stop-color="#fff"/>
      <stop offset="0.10256" stop-color="#fff" stop-opacity="0.84849"/>
      <stop offset="0.29029" stop-color="#fff" stop-opacity="0.59415"/>
      <stop offset="0.4694" stop-color="#fff" stop-opacity="0.38204"/>
      <stop offset="0.63471" stop-color="#fff" stop-opacity="0.21674"/>
      <stop offset="0.78337" stop-color="#fff" stop-opacity="0.09804"/>
      <stop offset="0.91014" stop-color="#fff" stop-opacity="0.02577"/>
      <stop offset="1" stop-color="#fff" stop-opacity="0"/>
    </radialGradient>
    <radialGradient id="radial-gradient-4" cx="1443.30312" cy="-1701.66005" r="6.66148" xlink:href="#radial-gradient-3"/>
    <radialGradient id="Degradado_sin_nombre_34" data-name="Degradado sin nombre 34" cx="13.0274" cy="51.52564" r="4.87095" gradientTransform="matrix(0.90102, -0.43378, 1.26276, 2.62292, -63.77528, -77.97081)" xlink:href="#radial-gradient-3"/>
    <radialGradient id="radial-gradient-5" cx="-264.37056" cy="152.40042" r="9.89087" gradientTransform="translate(307.31412 81.07952) rotate(30.00073)" gradientUnits="userSpaceOnUse">
      <stop offset="0" stop-color="#d0f2ff"/>
      <stop offset="0.198" stop-color="#d5f3ff"/>
      <stop offset="1" stop-color="#85bcf1"/>
    </radialGradient>
    <radialGradient id="radial-gradient-6" cx="1657.84738" cy="-1599.58216" r="1.54924" gradientTransform="matrix(-1.3036, 0.5794, -0.7454, -1.946, 971.53265, -3993.11528)" xlink:href="#radial-gradient-3"/>
    <radialGradient id="radial-gradient-7" cx="-248.20464" cy="143.06695" r="9.89087" xlink:href="#radial-gradient-5"/>
    <radialGradient id="radial-gradient-8" cx="1645.61127" cy="-1603.22528" r="1.54921" gradientTransform="matrix(-1.3036, 0.5794, -0.7454, -1.946, 971.53265, -3993.11528)" xlink:href="#radial-gradient-3"/>
    <radialGradient id="radial-gradient-9" cx="-652.44727" cy="-37.96305" r="62.65461" xlink:href="#radial-gradient"/>
  </defs>
  <g class="cls-1">
    <g id="Слой_2" data-name="Слой 2">
      <g id="BACKGROUND">
        <path class="cls-2" d="M57.00493,82.693,54.90682,81.6209l.64916-.33144a.8962.8962,0,0,0,.39488-1.302,1.157,1.157,0,0,0-1.47092-.34923l-1.72674.88149-1.59348-.814a2.89181,2.89181,0,0,0,0-1.57407L52.7532,77.317l1.72615.882a1.1772,1.1772,0,0,0,.53694.12849,1.10954,1.10954,0,0,0,.93364-.4772.89637.89637,0,0,0-.394-1.302l-.64975-.332,2.0987-1.07206a.89645.89645,0,0,0,.39425-1.302,1.15443,1.15443,0,0,0-1.47089-.34871l-2.09842,1.07205.0009-.66342a1.02088,1.02088,0,0,0-1.077-.95332h0a1.02063,1.02063,0,0,0-1.07695.95277l-.00062,1.76408-1.595.81511a3.936,3.936,0,0,0-1.53827-.78866v-1.6275l1.72642-.88259a.8952.8952,0,0,0,.39363-1.30148,1.15555,1.15555,0,0,0-1.47089-.34926l-.64916.332V69.71923a1.08489,1.08489,0,0,0-2.15363,0v2.14411l-.64975-.332a1.15586,1.15586,0,0,0-1.47093.34926.896.896,0,0,0,.394,1.30148l1.72673.88259v1.6275a3.93318,3.93318,0,0,0-1.53858.78921l-1.595-.81566V73.90166a1.08488,1.08488,0,0,0-2.15362,0v.664l-2.0978-1.07205a1.15474,1.15474,0,0,0-1.47092.34871.89576.89576,0,0,0,.394,1.302l2.0978,1.07206-.65007.33144a.89692.89692,0,0,0-.39394,1.30255,1.11012,1.11012,0,0,0,.934.47665,1.17677,1.17677,0,0,0,.53694-.12794l1.72674-.882,1.59438.81458a2.88393,2.88393,0,0,0,0,1.57407l-1.59438.814-1.72583-.882a1.15533,1.15533,0,0,0-1.4709.34871.89527.89527,0,0,0,.39395,1.302l.64979.332L37.92738,82.693a.89556.89556,0,0,0-.394,1.302,1.10775,1.10775,0,0,0,.93335.47667,1.17781,1.17781,0,0,0,.53757-.12793l2.09689-1.07206v.6634a1.085,1.085,0,0,0,2.15391,0l.00062-1.76409,1.595-.81562a3.93433,3.93433,0,0,0,1.538.78917v1.62808l-1.72614.882a.89534.89534,0,0,0-.394,1.302,1.15475,1.15475,0,0,0,1.47093.34871l.64975-.332V88.118a1.08482,1.08482,0,0,0,2.15363,0V85.9739l.64885.332a1.1776,1.1776,0,0,0,.53757.12794,1.10767,1.10767,0,0,0,.933-.47665.8959.8959,0,0,0-.393-1.302l-1.72674-.88257V82.1445a3.9239,3.9239,0,0,0,1.53859-.78865l1.595.81458V83.935a1.08481,1.08481,0,0,0,2.15362,0v-.66395l2.09842,1.07261a1.17705,1.17705,0,0,0,.53694.12793,1.11017,1.11017,0,0,0,.934-.47667A.89625.89625,0,0,0,57.00493,82.693Zm-9.53863-2.3147a1.47051,1.47051,0,1,1,1.649-1.45962A1.56445,1.56445,0,0,1,47.4663,80.37826Z"/>
      </g>
      <g id="OBJECTS">
        <g>
          <path class="cls-3" d="M75.088,25.1465a27.00444,27.00444,0,0,0-53.8809,0,20.123,20.123,0,0,0,1.0088,40.2207h51.8628A20.123,20.123,0,0,0,75.088,25.1465Z"/>
          <path class="cls-4" d="M48.149,27.6484c-7.5752-6.1465-10.5341-15.5019-6.6069-20.9023,3.9297-5.4004,13.2563-4.793,20.835,1.3476,7.5737,6.1446,10.5293,15.5059,6.604,20.9024C65.05043,34.3984,55.72373,33.791,48.149,27.6484Z"/>
          <path class="cls-5" d="M75.23063,45.8144c-5.9536-4.8301-8.2793-12.1855-5.1934-16.4277,3.0889-4.2461,10.4185-3.7676,16.3745,1.0586,5.9527,4.8301,8.2749,12.1875,5.1909,16.4277C88.51183,51.1191,81.18223,50.6425,75.23063,45.8144Z"/>
          <path class="cls-6" d="M16.48063,46.4883c-4.3931-6.8536-9.4961-10.1504-11.4073-7.3711-1.9047,2.7753.1099,10.5878,4.5,17.4433,4.3956,6.8535,9.5015,10.1543,11.4073,7.3731C22.88633,61.1484,20.87363,53.3457,16.48063,46.4883Z"/>
        </g>
        <g>
          <path class="cls-7" d="M7.67208,81.80933A4.11114,4.11114,0,0,1,.55148,77.698c1.1352-1.9668,8.1567-5.9062,8.1567-5.9062S8.80729,79.84253,7.67208,81.80933Z"/>
          <path class="cls-8" d="M.67158,81.12583c-.6372-1.6641-.251-3.4161.8652-3.9122,1.1153-.4961,2.5366.4512,3.1743,2.1172.63821,1.666.25,3.418-.8647,3.9121C2.73018,83.739,1.30878,82.79183.67158,81.12583Z"/>
        </g>
        <g>
          <path class="cls-9" d="M26.33859,81.80933A4.11113,4.11113,0,0,1,19.218,77.698c1.13529-1.9668,8.15629-5.9062,8.15629-5.9062S27.47389,79.84253,26.33859,81.80933Z"/>
          <path class="cls-10" d="M19.33819,81.12583c-.6373-1.6641-.251-3.4161.8652-3.9122,1.1152-.4961,2.5361.4512,3.1743,2.1172.6377,1.666.2495,3.418-.8652,3.9121C21.39669,83.739,19.97539,82.79183,19.33819,81.12583Z"/>
        </g>
        <path class="cls-11" d="M85.86506,82.9406,83.767,81.86855l.64917-.33144a.8962.8962,0,0,0,.39488-1.302,1.157,1.157,0,0,0-1.47093-.34923l-1.72674.88149-1.59347-.814a2.89207,2.89207,0,0,0,0-1.57407l1.59347-.81458,1.72615.882a1.17723,1.17723,0,0,0,.53694.12849,1.10953,1.10953,0,0,0,.93364-.4772.89636.89636,0,0,0-.39394-1.302l-.64976-.332,2.0987-1.07206a.89645.89645,0,0,0,.39426-1.302,1.15444,1.15444,0,0,0-1.4709-.34871L82.69,74.81328l.00091-.66342a1.02089,1.02089,0,0,0-1.07695-.95332h0a1.02063,1.02063,0,0,0-1.077.95276l-.00063,1.76409-1.595.8151a3.93607,3.93607,0,0,0-1.53828-.78865v-1.6275l1.72642-.88259a.8952.8952,0,0,0,.39364-1.30148,1.15558,1.15558,0,0,0-1.4709-.34927l-.64916.332V69.96688a1.08488,1.08488,0,0,0-2.15362,0V72.111l-.64976-.332a1.15587,1.15587,0,0,0-1.47092.34927.896.896,0,0,0,.39394,1.30148l1.72674.88259v1.6275a3.933,3.933,0,0,0-1.53859.78921l-1.595-.81566V74.1493a1.08489,1.08489,0,0,0-2.15362,0v.664l-2.09779-1.07205a1.15475,1.15475,0,0,0-1.47093.34871.89576.89576,0,0,0,.394,1.302L68.88531,76.464l-.65006.33143A.89693.89693,0,0,0,67.8413,78.098a1.11012,1.11012,0,0,0,.93395.47665,1.17677,1.17677,0,0,0,.53694-.12794l1.72674-.882,1.59438.81458a2.88418,2.88418,0,0,0,0,1.57407l-1.59438.814-1.72583-.88205a1.15533,1.15533,0,0,0-1.4709.34871.89526.89526,0,0,0,.39395,1.302l.64979.332-2.09842,1.0726a.89558.89558,0,0,0-.394,1.302,1.10776,1.10776,0,0,0,.93336.47667,1.17787,1.17787,0,0,0,.53757-.12793l2.09689-1.07206v.6634a1.085,1.085,0,0,0,2.1539,0l.00062-1.76409,1.595-.81563a3.93421,3.93421,0,0,0,1.538.78918v1.62808l-1.72614.88205a.89533.89533,0,0,0-.39394,1.302,1.15473,1.15473,0,0,0,1.47092.34871l.64976-.332v2.14466a1.08481,1.08481,0,0,0,2.15362,0V86.22155l.64885.332a1.1776,1.1776,0,0,0,.53757.12794,1.10767,1.10767,0,0,0,.933-.47665.8959.8959,0,0,0-.393-1.302l-1.72673-.88257V82.39215a3.92416,3.92416,0,0,0,1.53859-.78865l1.595.81458v1.76461a1.08481,1.08481,0,0,0,2.15362,0v-.66395l2.09842,1.07261a1.17707,1.17707,0,0,0,.537.12793,1.11019,1.11019,0,0,0,.93395-.47667A.89626.89626,0,0,0,85.86506,82.9406Zm-9.53863-2.31469a1.47051,1.47051,0,1,1,1.649-1.45962A1.56446,1.56446,0,0,1,76.32643,80.62591Z"/>
      </g>
    </g>
  </g>
</svg>
