<svg xmlns="http://www.w3.org/2000/svg" xmlns:xlink="http://www.w3.org/1999/xlink" width="92.1093" height="88.32713" viewBox="0 0 92.1093 88.32713">
  <defs>
    <style>
      .cls-1 {
        isolation: isolate;
      }

      .cls-2 {
        fill: url(#radial-gradient);
      }

      .cls-3 {
        fill: url(#radial-gradient-2);
      }

      .cls-4 {
        fill: url(#radial-gradient-3);
      }

      .cls-5, .cls-6, .cls-7 {
        mix-blend-mode: overlay;
      }

      .cls-5 {
        fill: url(#radial-gradient-4);
      }

      .cls-6 {
        opacity: 0.4;
        fill: url(#radial-gradient-5);
      }

      .cls-7 {
        opacity: 0.2;
        fill: url(#Degradado_sin_nombre_34);
      }

      .cls-8 {
        fill: url(#radial-gradient-6);
      }
    </style>
    <radialGradient id="radial-gradient" cx="-457.99805" cy="-41.55168" r="62.65461" gradientTransform="translate(193.27987 85.60816) scale(0.31223 0.27638)" gradientUnits="userSpaceOnUse">
      <stop offset="0" stop-color="#28cbe9"/>
      <stop offset="1" stop-color="#0a4fbb"/>
    </radialGradient>
    <radialGradient id="radial-gradient-2" cx="-374.29036" cy="-43.20213" r="62.65461" xlink:href="#radial-gradient"/>
    <radialGradient id="radial-gradient-3" cx="57.66926" cy="13.77686" r="70.25575" gradientTransform="translate(115.33853 23.84068) rotate(180) scale(1 0.73049)" gradientUnits="userSpaceOnUse">
      <stop offset="0" stop-color="#fff"/>
      <stop offset="0.198" stop-color="#d5f3ff"/>
      <stop offset="1" stop-color="#85bcf1"/>
    </radialGradient>
    <radialGradient id="radial-gradient-4" cx="1248.76325" cy="-1737.92486" r="8.47601" gradientTransform="matrix(-0.8392, 1.1536, -1.6186, -1.3126, -1711.87366, -3703.90339)" gradientUnits="userSpaceOnUse">
      <stop offset="0" stop-color="#fff"/>
      <stop offset="0.10256" stop-color="#fff" stop-opacity="0.84849"/>
      <stop offset="0.29029" stop-color="#fff" stop-opacity="0.59415"/>
      <stop offset="0.4694" stop-color="#fff" stop-opacity="0.38204"/>
      <stop offset="0.63471" stop-color="#fff" stop-opacity="0.21674"/>
      <stop offset="0.78337" stop-color="#fff" stop-opacity="0.09804"/>
      <stop offset="0.91014" stop-color="#fff" stop-opacity="0.02577"/>
      <stop offset="1" stop-color="#fff" stop-opacity="0"/>
    </radialGradient>
    <radialGradient id="radial-gradient-5" cx="1248.50849" cy="-1753.58305" r="6.66155" xlink:href="#radial-gradient-4"/>
    <radialGradient id="Degradado_sin_nombre_34" data-name="Degradado sin nombre 34" cx="10.93454" cy="51.52564" r="4.87093" gradientTransform="matrix(0.90102, -0.43378, 1.26276, 2.62292, -63.98244, -78.87866)" xlink:href="#radial-gradient-4"/>
    <radialGradient id="radial-gradient-6" cx="-549.14617" cy="-43.20118" r="62.65461" xlink:href="#radial-gradient"/>
  </defs>
  <g class="cls-1">
    <g id="Слой_2" data-name="Слой 2">
      <g id="BACKGROUND">
        <path class="cls-2" d="M53.238,81.94877l-2.09811-1.072.64916-.33144a.8962.8962,0,0,0,.39488-1.302A1.157,1.157,0,0,0,50.713,78.894l-1.72674.88149-1.59348-.814a2.89181,2.89181,0,0,0,0-1.57407l1.59348-.81458,1.72615.882a1.17717,1.17717,0,0,0,.53694.12849,1.10955,1.10955,0,0,0,.93363-.4772.89636.89636,0,0,0-.39394-1.302l-.64975-.332,2.0987-1.07206a.89645.89645,0,0,0,.39425-1.302,1.15443,1.15443,0,0,0-1.47089-.34871L50.0629,73.82145l.0009-.66342a1.0209,1.0209,0,0,0-1.077-.95333h0a1.02064,1.02064,0,0,0-1.07695.95277l-.00062,1.76409-1.595.8151A3.93607,3.93607,0,0,0,44.776,74.948v-1.6275l1.72643-.88259a.8952.8952,0,0,0,.39363-1.30148,1.15556,1.15556,0,0,0-1.47089-.34927l-.64917.332V68.97505a1.08488,1.08488,0,0,0-2.15362,0v2.14411l-.64975-.332a1.15586,1.15586,0,0,0-1.47093.34927.896.896,0,0,0,.39394,1.30148l1.72674.88259V74.948a3.933,3.933,0,0,0-1.53858.78921l-1.595-.81566V73.15747a1.08488,1.08488,0,0,0-2.15362,0v.664l-2.0978-1.07205a1.15473,1.15473,0,0,0-1.47092.34871.89576.89576,0,0,0,.394,1.302l2.0978,1.07206-.65007.33143a.89694.89694,0,0,0-.39395,1.30256,1.11013,1.11013,0,0,0,.93395.47665,1.17679,1.17679,0,0,0,.537-.12794l1.72674-.882,1.59438.81458a2.88393,2.88393,0,0,0,0,1.57407l-1.59438.814-1.72584-.882a1.15531,1.15531,0,0,0-1.47089.34871.89527.89527,0,0,0,.39394,1.302l.64979.332-2.09842,1.0726a.89557.89557,0,0,0-.394,1.302,1.10775,1.10775,0,0,0,.93335.47667,1.17769,1.17769,0,0,0,.53757-.12794l2.09689-1.072v.6634a1.085,1.085,0,0,0,2.1539,0l.00063-1.76409,1.595-.81563a3.93414,3.93414,0,0,0,1.538.78918V83.0284l-1.72615.882a.89535.89535,0,0,0-.39394,1.302,1.15475,1.15475,0,0,0,1.47093.34871l.64975-.332v2.14466a1.08481,1.08481,0,0,0,2.15362,0V85.22972l.64885.332a1.17766,1.17766,0,0,0,.53757.12794,1.10767,1.10767,0,0,0,.93305-.47665.8959.8959,0,0,0-.393-1.302l-1.72674-.88257V81.40032a3.9241,3.9241,0,0,0,1.53859-.78865l1.595.81458v1.76461a1.08481,1.08481,0,0,0,2.15362,0v-.66395l2.09842,1.0726a1.17694,1.17694,0,0,0,.53694.12794,1.11017,1.11017,0,0,0,.934-.47667A.89626.89626,0,0,0,53.238,81.94877Zm-9.53863-2.31469a1.47051,1.47051,0,1,1,1.649-1.45962A1.56445,1.56445,0,0,1,43.69933,79.63408Z"/>
        <path class="cls-3" d="M79.3742,81.49262l-2.09811-1.07206.64916-.33143a.8962.8962,0,0,0,.39488-1.302,1.157,1.157,0,0,0-1.47093-.34924l-1.72673.88149-1.59348-.814a2.89185,2.89185,0,0,0,0-1.57408l1.59348-.81458,1.72615.88205a1.17717,1.17717,0,0,0,.53694.12849,1.10955,1.10955,0,0,0,.93363-.4772.89637.89637,0,0,0-.39394-1.302l-.64975-.332,2.0987-1.072a.89646.89646,0,0,0,.39425-1.302,1.15443,1.15443,0,0,0-1.47089-.34871L76.19914,73.3653l.0009-.66343a1.0209,1.0209,0,0,0-1.07695-.95332h0a1.02064,1.02064,0,0,0-1.077.95277l-.00062,1.76409-1.595.8151a3.93594,3.93594,0,0,0-1.53828-.78865v-1.6275l1.72643-.8826a.89519.89519,0,0,0,.39363-1.30148A1.15555,1.15555,0,0,0,71.5614,70.331l-.64917.332V68.5189a1.08488,1.08488,0,0,0-2.15362,0V70.663l-.64975-.332a1.15586,1.15586,0,0,0-1.47093.34926.896.896,0,0,0,.39394,1.30148l1.72674.8826v1.6275a3.933,3.933,0,0,0-1.53858.7892l-1.595-.81565V72.70132a1.08488,1.08488,0,0,0-2.15362,0v.664l-2.0978-1.07206a1.15473,1.15473,0,0,0-1.47092.34871.89577.89577,0,0,0,.394,1.302l2.0978,1.072-.65007.33144A.89693.89693,0,0,0,61.35043,76.65a1.11012,1.11012,0,0,0,.93395.47664,1.17677,1.17677,0,0,0,.537-.12793l1.72674-.88205,1.59438.81458a2.884,2.884,0,0,0,0,1.57408l-1.59438.814-1.72584-.882a1.15531,1.15531,0,0,0-1.47089.34871.89526.89526,0,0,0,.39394,1.302l.64979.332-2.09842,1.07261a.89556.89556,0,0,0-.394,1.302,1.10774,1.10774,0,0,0,.93335.47668,1.17769,1.17769,0,0,0,.53757-.12794l2.09689-1.07205v.66339a1.085,1.085,0,0,0,2.1539,0l.00063-1.76408L67.22,80.155a3.93427,3.93427,0,0,0,1.538.78918v1.62808l-1.72615.882a.89534.89534,0,0,0-.39394,1.302,1.15474,1.15474,0,0,0,1.47093.34871l.64975-.332v2.14466a1.08481,1.08481,0,0,0,2.15362,0V84.77357l.64885.332a1.17778,1.17778,0,0,0,.53757.12793,1.10769,1.10769,0,0,0,.933-.47664.8959.8959,0,0,0-.393-1.302l-1.72674-.88257V80.94417a3.924,3.924,0,0,0,1.53859-.78866l1.595.81458V82.7347a1.08481,1.08481,0,0,0,2.15362,0v-.66395l2.09842,1.07261a1.17694,1.17694,0,0,0,.53694.12794,1.11018,1.11018,0,0,0,.93395-.47668A.89625.89625,0,0,0,79.3742,81.49262Zm-9.53863-2.31469a1.47051,1.47051,0,1,1,1.649-1.45963A1.56447,1.56447,0,0,1,69.83557,79.17793Z"/>
      </g>
      <g id="OBJECTS">
        <g>
          <path class="cls-4" d="M72.9951,25.1465a27.00444,27.00444,0,0,0-53.8809,0,20.123,20.123,0,0,0,1.0093,40.2207H71.9858a20.123,20.123,0,0,0,1.0093-40.2207Z"/>
          <path class="cls-5" d="M46.0566,27.6484c-7.5752-6.1465-10.5347-15.5019-6.6074-20.9023,3.9297-5.4004,13.2563-4.793,20.8354,1.3476,7.5733,6.1446,10.5293,15.5059,6.6035,20.9024C62.9575,34.3984,53.6308,33.791,46.0566,27.6484Z"/>
          <path class="cls-6" d="M73.1376,45.8144c-5.9531-4.8301-8.2793-12.1855-5.1933-16.4277,3.0889-4.2461,10.4189-3.7676,16.375,1.0586,5.9521,4.8301,8.2744,12.1875,5.1904,16.4277C86.4194,51.1191,79.0893,50.6425,73.1376,45.8144Z"/>
          <path class="cls-7" d="M14.3876,46.4883c-4.393-6.8536-9.496-10.1504-11.4072-7.3711-1.9043,2.7753.1099,10.5878,4.5,17.4433,4.396,6.8535,9.5015,10.1543,11.4072,7.3731C20.7934,61.1484,18.7807,53.3457,14.3876,46.4883Z"/>
        </g>
        <path class="cls-8" d="M24.77857,81.49288l-2.0981-1.07205.64916-.33144a.8962.8962,0,0,0,.39488-1.302,1.157,1.157,0,0,0-1.47093-.34924l-1.72673.88149-1.59348-.814a2.89185,2.89185,0,0,0,0-1.57408l1.59348-.81457,1.72615.882a1.17717,1.17717,0,0,0,.53694.12849,1.10955,1.10955,0,0,0,.93363-.4772.89637.89637,0,0,0-.39394-1.302l-.64976-.332,2.0987-1.07206a.89644.89644,0,0,0,.39426-1.302,1.15442,1.15442,0,0,0-1.47089-.34871l-2.09842,1.07205.0009-.66342a1.0209,1.0209,0,0,0-1.07695-.95333h0a1.02064,1.02064,0,0,0-1.07695.95277l-.00063,1.76409-1.595.8151a3.93607,3.93607,0,0,0-1.53828-.78865v-1.6275L18.043,71.982a.89518.89518,0,0,0,.39363-1.30147,1.15556,1.15556,0,0,0-1.47089-.34927l-.64917.332V68.51916a1.08488,1.08488,0,0,0-2.15362,0v2.14411l-.64975-.332a1.15586,1.15586,0,0,0-1.47093.34927.89594.89594,0,0,0,.39394,1.30147l1.72674.8826v1.6275a3.93309,3.93309,0,0,0-1.53859.78921l-1.595-.81566V72.70158a1.02064,1.02064,0,0,0-1.07695-.95277,1.02,1.02,0,0,0-1.07667.95277v.664L6.778,72.29351a1.15472,1.15472,0,0,0-1.47092.34871.89576.89576,0,0,0,.394,1.302l2.0978,1.07206-.65007.33143a.89693.89693,0,0,0-.394,1.30256,1.11013,1.11013,0,0,0,.934.47665,1.17682,1.17682,0,0,0,.53695-.12794l1.72674-.882,1.59438.81457a2.884,2.884,0,0,0,0,1.57408l-1.59438.814-1.72584-.882a1.15531,1.15531,0,0,0-1.47089.34871.89526.89526,0,0,0,.39394,1.302l.64979.332L5.701,81.49288a.89557.89557,0,0,0-.394,1.302,1.10775,1.10775,0,0,0,.93335.47667,1.17769,1.17769,0,0,0,.53757-.12794l2.09689-1.07205v.6634a1.021,1.021,0,0,0,1.07664.95332,1.021,1.021,0,0,0,1.07726-.95332l.00063-1.76409,1.595-.81563a3.93425,3.93425,0,0,0,1.538.78918v1.62808l-1.72615.882a.89535.89535,0,0,0-.39394,1.302,1.15475,1.15475,0,0,0,1.47093.34871l.64975-.332v2.14466a1.08481,1.08481,0,0,0,2.15362,0V84.77383l.64885.332a1.17779,1.17779,0,0,0,.53757.12794,1.10771,1.10771,0,0,0,.93305-.47665.8959.8959,0,0,0-.393-1.302l-1.72674-.88257V80.94443a3.9241,3.9241,0,0,0,1.53859-.78865l1.595.81458V82.735a1.08481,1.08481,0,0,0,2.15363,0V82.071l2.09842,1.0726a1.17694,1.17694,0,0,0,.53694.12794,1.11017,1.11017,0,0,0,.93395-.47667A.89625.89625,0,0,0,24.77857,81.49288ZM15.24,79.17819a1.47048,1.47048,0,1,1,0-2.91928,1.47051,1.47051,0,1,1,0,2.91928Z"/>
      </g>
    </g>
  </g>
</svg>
