<svg xmlns="http://www.w3.org/2000/svg" xmlns:xlink="http://www.w3.org/1999/xlink" width="76.5342" height="75.7109" viewBox="0 0 76.5342 75.7109">
  <defs>
    <style>
      .cls-1 {
        isolation: isolate;
      }

      .cls-2 {
        fill: url(#linear-gradient);
      }

      .cls-3 {
        fill: url(#radial-gradient);
      }

      .cls-4, .cls-5 {
        mix-blend-mode: overlay;
      }

      .cls-4 {
        fill: url(#radial-gradient-2);
      }

      .cls-5 {
        opacity: 0.4;
        fill: url(#Degradado_sin_nombre_34);
      }
    </style>
    <linearGradient id="linear-gradient" x1="73.15884" y1="-1.13501" x2="5.90065" y2="74.02395" gradientUnits="userSpaceOnUse">
      <stop offset="0" stop-color="#ffba24"/>
      <stop offset="1" stop-color="#f50"/>
    </linearGradient>
    <radialGradient id="radial-gradient" cx="399.27987" cy="20.08437" r="53.80679" gradientTransform="matrix(-1, 0, 0, 1, 444.0293, 0)" gradientUnits="userSpaceOnUse">
      <stop offset="0" stop-color="#fff4c3"/>
      <stop offset="0.15591" stop-color="#ffe036"/>
      <stop offset="1" stop-color="#fa761c"/>
    </radialGradient>
    <radialGradient id="radial-gradient-2" cx="1380.144" cy="-1557.99609" r="8.07694" gradientTransform="matrix(-0.8392, 1.1536, -1.6186, -1.3126, -1314.19245, -3611.53892)" gradientUnits="userSpaceOnUse">
      <stop offset="0" stop-color="#fff"/>
      <stop offset="0.10256" stop-color="#fff" stop-opacity="0.84849"/>
      <stop offset="0.29029" stop-color="#fff" stop-opacity="0.59415"/>
      <stop offset="0.4694" stop-color="#fff" stop-opacity="0.38204"/>
      <stop offset="0.63471" stop-color="#fff" stop-opacity="0.21674"/>
      <stop offset="0.78337" stop-color="#fff" stop-opacity="0.09804"/>
      <stop offset="0.91014" stop-color="#fff" stop-opacity="0.02577"/>
      <stop offset="1" stop-color="#fff" stop-opacity="0"/>
    </radialGradient>
    <radialGradient id="Degradado_sin_nombre_34" data-name="Degradado sin nombre 34" cx="-2510.7571" cy="2994.87311" r="7.79374" gradientTransform="matrix(-1.1717, -1.1007, 0.222, -0.7283, -3584.36807, -529.726)" xlink:href="#radial-gradient-2"/>
  </defs>
  <g class="cls-1">
    <g id="Слой_2" data-name="Слой 2">
      <g id="OBJECTS">
        <g>
          <polygon class="cls-2" points="68.21 61.705 59.826 62.256 58.246 70.508 50.18 68.158 45.874 75.371 39.097 70.404 32.584 75.711 27.915 68.727 19.979 71.484 17.981 63.324 9.58 63.201 10.493 54.85 2.641 51.861 6.356 44.324 0 38.83 6.067 33.02 1.973 25.684 9.662 22.299 8.324 14.006 16.707 13.455 18.287 5.203 26.354 7.553 30.659 0.338 37.436 5.305 43.95 0 48.619 6.982 56.555 4.225 58.554 12.387 66.954 12.51 66.04 20.859 73.893 23.848 70.178 31.385 76.534 36.879 70.467 42.69 74.561 50.025 66.872 53.41 68.21 61.705"/>
          <path class="cls-3" d="M9.9228,37.8535A28.34425,28.34425,0,1,0,38.2666,9.5117,28.34516,28.34516,0,0,0,9.9228,37.8535Z"/>
          <g>
            <path class="cls-4" d="M42.5859,34.9395c-7.2187-5.8594-10.0386-14.7735-6.2959-19.92,3.7442-5.1464,12.6314-4.5664,19.8535,1.2852,7.2168,5.8555,10.0327,14.7754,6.2925,19.918C58.6899,41.3711,49.8027,40.791,42.5859,34.9395Z"/>
            <path class="cls-5" d="M13.2148,44.1192c.958-3.1348,5.8174-1.836,10.8618,2.9023,5.0445,4.7383,8.356,11.1172,7.4043,14.2559-.9541,3.1328-5.8154,1.8359-10.8618-2.9024C15.5766,53.6348,12.2622,47.25,13.2148,44.1192Z"/>
          </g>
        </g>
      </g>
    </g>
  </g>
</svg>
