<svg xmlns="http://www.w3.org/2000/svg" xmlns:xlink="http://www.w3.org/1999/xlink" width="114.44735" height="111.83022" viewBox="0 0 114.44735 111.83022">
  <defs>
    <style>
      .cls-1 {
        isolation: isolate;
      }

      .cls-2 {
        fill: url(#linear-gradient);
      }

      .cls-3 {
        fill: url(#radial-gradient);
      }

      .cls-10, .cls-11, .cls-4, .cls-5, .cls-9 {
        mix-blend-mode: overlay;
      }

      .cls-4 {
        fill: url(#radial-gradient-2);
      }

      .cls-10, .cls-5 {
        opacity: 0.4;
      }

      .cls-5 {
        fill: url(#Degradado_sin_nombre_34);
      }

      .cls-6 {
        fill: url(#linear-gradient-2);
      }

      .cls-7 {
        fill: url(#linear-gradient-3);
      }

      .cls-8 {
        fill: url(#radial-gradient-3);
      }

      .cls-9 {
        opacity: 0.6;
        fill: url(#radial-gradient-4);
      }

      .cls-10 {
        fill: url(#radial-gradient-5);
      }

      .cls-11 {
        opacity: 0.2;
        fill: url(#Degradado_sin_nombre_34-2);
      }
    </style>
    <linearGradient id="linear-gradient" x1="111.072" y1="-1.13501" x2="43.81381" y2="74.02395" gradientUnits="userSpaceOnUse">
      <stop offset="0" stop-color="#ffba24"/>
      <stop offset="1" stop-color="#f50"/>
    </linearGradient>
    <radialGradient id="radial-gradient" cx="-424.79247" cy="20.08437" r="53.80679" gradientTransform="matrix(-1, 0, 0, 1, -342.12988, 0)" gradientUnits="userSpaceOnUse">
      <stop offset="0" stop-color="#fff4c3"/>
      <stop offset="0.15591" stop-color="#ffe036"/>
      <stop offset="1" stop-color="#fa761c"/>
    </radialGradient>
    <radialGradient id="radial-gradient-2" cx="842.63471" cy="-1833.99549" r="8.07694" gradientTransform="matrix(-0.8392, 1.1536, -1.6186, -1.3126, -2174.08973, -3353.74503)" gradientUnits="userSpaceOnUse">
      <stop offset="0" stop-color="#fff"/>
      <stop offset="0.10256" stop-color="#fff" stop-opacity="0.84849"/>
      <stop offset="0.29029" stop-color="#fff" stop-opacity="0.59415"/>
      <stop offset="0.4694" stop-color="#fff" stop-opacity="0.38204"/>
      <stop offset="0.63471" stop-color="#fff" stop-opacity="0.21674"/>
      <stop offset="0.78337" stop-color="#fff" stop-opacity="0.09804"/>
      <stop offset="0.91014" stop-color="#fff" stop-opacity="0.02577"/>
      <stop offset="1" stop-color="#fff" stop-opacity="0"/>
    </radialGradient>
    <radialGradient id="Degradado_sin_nombre_34" data-name="Degradado sin nombre 34" cx="-3206.90079" cy="3252.12416" r="7.79374" gradientTransform="matrix(-1.1717, -1.1007, 0.222, -0.7283, -4419.2362, -1108.61541)" xlink:href="#radial-gradient-2"/>
    <linearGradient id="linear-gradient-2" x1="27.06118" y1="111.06384" x2="38.58546" y2="74.7747" gradientUnits="userSpaceOnUse">
      <stop offset="0.15591" stop-color="#ffe036"/>
      <stop offset="1" stop-color="#fa761c"/>
    </linearGradient>
    <linearGradient id="linear-gradient-3" x1="51.68083" y1="111.06395" x2="63.20522" y2="74.77448" xlink:href="#linear-gradient-2"/>
    <radialGradient id="radial-gradient-3" cx="57.66926" cy="31.87961" r="70.25575" gradientTransform="translate(115.33853 55.16728) rotate(180) scale(1 0.73049)" gradientUnits="userSpaceOnUse">
      <stop offset="0" stop-color="#b6ccd2"/>
      <stop offset="0.198" stop-color="#97b6be"/>
      <stop offset="1" stop-color="#5d87b4"/>
    </radialGradient>
    <radialGradient id="radial-gradient-4" cx="862.52271" cy="-1824.40323" r="8.47612" xlink:href="#radial-gradient-2"/>
    <radialGradient id="radial-gradient-5" cx="863.10439" cy="-1839.32684" r="6.66144" xlink:href="#radial-gradient-2"/>
    <radialGradient id="Degradado_sin_nombre_34-2" data-name="Degradado sin nombre 34" cx="10.93465" cy="69.62841" r="4.87096" gradientTransform="matrix(0.90102, -0.43378, 1.26276, 2.62292, -86.84196, -108.2579)" xlink:href="#radial-gradient-2"/>
  </defs>
  <g class="cls-1">
    <g id="Слой_2" data-name="Слой 2">
      <g id="OBJECTS">
        <g>
          <polygon class="cls-2" points="106.123 61.705 97.739 62.256 96.159 70.508 88.093 68.158 83.787 75.371 77.01 70.404 70.497 75.711 65.828 68.727 57.892 71.484 55.894 63.324 47.493 63.201 48.406 54.85 40.554 51.861 44.269 44.324 37.913 38.83 43.981 33.02 39.886 25.684 47.575 22.299 46.237 14.006 54.62 13.455 56.2 5.203 64.267 7.553 68.572 0.338 75.349 5.305 81.863 0 86.532 6.982 94.468 4.225 96.467 12.387 104.867 12.51 103.954 20.859 111.806 23.848 108.091 31.385 114.447 36.879 108.38 42.69 112.475 50.025 104.785 53.41 106.123 61.705"/>
          <path class="cls-3" d="M47.83595,37.8535A28.34425,28.34425,0,1,0,76.17975,9.5117,28.34516,28.34516,0,0,0,47.83595,37.8535Z"/>
          <g>
            <path class="cls-4" d="M80.49905,34.9395c-7.2187-5.8594-10.0386-14.7735-6.2959-19.92,3.7442-5.1464,12.6314-4.5664,19.8535,1.2852,7.2168,5.8555,10.0327,14.7754,6.2925,19.918C96.60305,41.3711,87.71585,40.791,80.49905,34.9395Z"/>
            <path class="cls-5" d="M51.128,44.1192c.958-3.1348,5.8174-1.836,10.8618,2.9023,5.0445,4.7383,8.356,11.1172,7.4043,14.2559-.9541,3.1328-5.8154,1.8359-10.8618-2.9024C53.48975,53.6348,50.17535,47.25,51.128,44.1192Z"/>
          </g>
          <path class="cls-6" d="M40.3535,88.65355H35.9922l7.18941-13.9747a8.36127,8.36127,0,0,0,.71289-2,8.02855,8.02855,0,1,0-15.7051-3.3437l-4.8066,22.5762-.1485.6933a5.00721,5.00721,0,0,0-.0996.9883,4.86957,4.86957,0,0,0,4.8672,4.8691h5.3203l-2.8711,11.9747a1.13143,1.13143,0,0,0,2.0157.9277l11.4336-15.7559a4.38309,4.38309,0,0,0-3.5469-6.955Z"/>
          <path class="cls-7" d="M64.97261,88.65355H60.6113l7.1894-13.9747a8.36131,8.36131,0,0,0,.71291-2,8.0285,8.0285,0,1,0-15.705-3.3437L48.0039,91.91135l-.1504.6933a4.8768,4.8768,0,0,0,4.7695,5.8574h5.3203l-2.8711,11.9747a1.13017,1.13017,0,0,0,2.0137.9277l11.4336-15.7559a4.381,4.381,0,0,0-3.54689-6.955Z"/>
          <g>
            <path class="cls-8" d="M72.9961,43.24925a27.00551,27.00551,0,0,0-53.8829,0A20.123,20.123,0,0,0,20.123,83.47H71.9863a20.123,20.123,0,0,0,1.0098-40.2207Z"/>
            <path class="cls-9" d="M47.9472,45.75115c-7.5761-6.1465-10.5351-15.5019-6.6074-20.9023,3.9297-5.4004,13.2559-4.793,20.8359,1.3476,7.5723,6.1446,10.5274,15.5078,6.6036,20.9024C64.84761,52.50315,55.5215,51.89565,47.9472,45.75115Z"/>
            <path class="cls-10" d="M73.1367,63.91715c-5.95309-4.8301-8.2774-12.1836-5.1914-16.4277,3.0879-4.2442,10.4179-3.7676,16.373,1.0586,5.9532,4.8301,8.2754,12.1875,5.1914,16.4277C86.4199,69.22185,79.0898,68.74525,73.1367,63.91715Z"/>
            <path class="cls-11" d="M14.38861,64.593C9.9941,57.73745,4.8925,54.44065,2.9804,57.22c-1.9043,2.7753.1094,10.5878,4.5,17.4433,4.3965,6.8535,9.502,10.1543,11.40821,7.3731C20.7929,79.25315,18.7812,71.44845,14.38861,64.593Z"/>
          </g>
        </g>
      </g>
    </g>
  </g>
</svg>
