<svg xmlns="http://www.w3.org/2000/svg" xmlns:xlink="http://www.w3.org/1999/xlink" width="100.60965" height="93.6862" viewBox="0 0 100.60965 93.6862">
  <defs>
    <style>
      .cls-1 {
        isolation: isolate;
      }

      .cls-2 {
        fill: url(#linear-gradient);
      }

      .cls-3 {
        fill: url(#radial-gradient);
      }

      .cls-11, .cls-13, .cls-15, .cls-17, .cls-4, .cls-5, .cls-7, .cls-8, .cls-9 {
        mix-blend-mode: overlay;
      }

      .cls-4 {
        fill: url(#radial-gradient-2);
      }

      .cls-5, .cls-8 {
        opacity: 0.4;
      }

      .cls-5 {
        fill: url(#Degradado_sin_nombre_34);
      }

      .cls-6 {
        fill: url(#radial-gradient-3);
      }

      .cls-7 {
        opacity: 0.6;
        fill: url(#radial-gradient-4);
      }

      .cls-8 {
        fill: url(#radial-gradient-5);
      }

      .cls-9 {
        opacity: 0.2;
        fill: url(#Degradado_sin_nombre_34-2);
      }

      .cls-10 {
        fill: url(#radial-gradient-6);
      }

      .cls-11 {
        fill: url(#radial-gradient-7);
      }

      .cls-12 {
        fill: url(#radial-gradient-8);
      }

      .cls-13 {
        fill: url(#radial-gradient-9);
      }

      .cls-14 {
        fill: url(#radial-gradient-10);
      }

      .cls-15 {
        fill: url(#radial-gradient-11);
      }

      .cls-16 {
        fill: url(#radial-gradient-12);
      }

      .cls-17 {
        fill: url(#radial-gradient-13);
      }
    </style>
    <linearGradient id="linear-gradient" x1="98.04754" y1="-0.8618" x2="46.99757" y2="56.18497" gradientUnits="userSpaceOnUse">
      <stop offset="0" stop-color="#ffba24"/>
      <stop offset="1" stop-color="#f50"/>
    </linearGradient>
    <radialGradient id="radial-gradient" cx="-413.33195" cy="15.24365" r="40.8406" gradientTransform="matrix(-1, 0, 0, 1, -336.84798, 0)" gradientUnits="userSpaceOnUse">
      <stop offset="0" stop-color="#fff4c3"/>
      <stop offset="0.15591" stop-color="#ffe036"/>
      <stop offset="1" stop-color="#fa761c"/>
    </radialGradient>
    <radialGradient id="radial-gradient-2" cx="799.10647" cy="-1717.36205" r="6.1306" gradientTransform="matrix(-0.8392, 1.1536, -1.6186, -1.3126, -2029.12591, -3156.61217)" gradientUnits="userSpaceOnUse">
      <stop offset="0" stop-color="#fff"/>
      <stop offset="0.10256" stop-color="#fff" stop-opacity="0.84849"/>
      <stop offset="0.29029" stop-color="#fff" stop-opacity="0.59415"/>
      <stop offset="0.4694" stop-color="#fff" stop-opacity="0.38204"/>
      <stop offset="0.63471" stop-color="#fff" stop-opacity="0.21674"/>
      <stop offset="0.78337" stop-color="#fff" stop-opacity="0.09804"/>
      <stop offset="0.91014" stop-color="#fff" stop-opacity="0.02577"/>
      <stop offset="1" stop-color="#fff" stop-opacity="0"/>
    </radialGradient>
    <radialGradient id="Degradado_sin_nombre_34" data-name="Degradado sin nombre 34" cx="-3181.91619" cy="3441.20352" r="5.91566" gradientTransform="matrix(-1.1717, -1.1007, 0.222, -0.7283, -4432.71725, -956.10627)" xlink:href="#radial-gradient-2"/>
    <radialGradient id="radial-gradient-3" cx="57.66958" cy="23.50951" r="70.25587" gradientTransform="translate(115.33915 40.68292) rotate(180) scale(1 0.73049)" gradientUnits="userSpaceOnUse">
      <stop offset="0" stop-color="#b6ccd2"/>
      <stop offset="0.198" stop-color="#97b6be"/>
      <stop offset="1" stop-color="#5d87b4"/>
    </radialGradient>
    <radialGradient id="radial-gradient-4" cx="814.57481" cy="-1709.98212" r="8.47638" xlink:href="#radial-gradient-2"/>
    <radialGradient id="radial-gradient-5" cx="815.15554" cy="-1724.90538" r="6.66147" xlink:href="#radial-gradient-2"/>
    <radialGradient id="Degradado_sin_nombre_34-2" data-name="Degradado sin nombre 34" cx="10.93493" cy="61.25848" r="4.87092" gradientTransform="matrix(0.90102, -0.43378, 1.26276, 2.62292, -76.27268, -94.67408)" xlink:href="#radial-gradient-2"/>
    <radialGradient id="radial-gradient-6" cx="-354.70436" cy="-31.4289" r="9.89087" gradientTransform="translate(306.0029 295.26396) rotate(30.00073)" gradientUnits="userSpaceOnUse">
      <stop offset="0" stop-color="#d0f2ff"/>
      <stop offset="0.198" stop-color="#d5f3ff"/>
      <stop offset="1" stop-color="#85bcf1"/>
    </radialGradient>
    <radialGradient id="radial-gradient-7" cx="963.19079" cy="-1533.81801" r="1.54924" gradientTransform="matrix(-1.3036, 0.5794, -0.7454, -1.946, 127.37329, -3452.83287)" xlink:href="#radial-gradient-2"/>
    <radialGradient id="radial-gradient-8" cx="-339.81474" cy="-40.02548" r="9.89087" xlink:href="#radial-gradient-6"/>
    <radialGradient id="radial-gradient-9" cx="951.92071" cy="-1537.1735" r="1.54921" gradientTransform="matrix(-1.3036, 0.5794, -0.7454, -1.946, 127.37329, -3452.83287)" xlink:href="#radial-gradient-2"/>
    <radialGradient id="radial-gradient-10" cx="-324.92488" cy="-48.62255" r="9.89132" xlink:href="#radial-gradient-6"/>
    <radialGradient id="radial-gradient-11" cx="940.65066" cy="-1540.52909" r="1.54925" gradientTransform="matrix(-1.3036, 0.5794, -0.7454, -1.946, 127.37329, -3452.83287)" xlink:href="#radial-gradient-2"/>
    <radialGradient id="radial-gradient-12" cx="-310.03533" cy="-57.21916" r="9.89089" xlink:href="#radial-gradient-6"/>
    <radialGradient id="radial-gradient-13" cx="929.38062" cy="-1543.88457" r="1.54921" gradientTransform="matrix(-1.3036, 0.5794, -0.7454, -1.946, 127.37329, -3452.83287)" xlink:href="#radial-gradient-2"/>
  </defs>
  <g class="cls-1">
    <g id="Слой_2" data-name="Слой 2">
      <g id="OBJECTS">
        <g>
          <polygon class="cls-2" points="94.291 46.834 87.928 47.254 86.729 53.518 80.606 51.732 77.338 57.209 72.195 53.439 67.25 57.467 63.706 52.166 57.684 54.258 56.166 48.064 49.79 47.971 50.483 41.631 44.524 39.363 47.343 33.645 42.519 29.475 47.124 25.063 44.017 19.496 49.853 16.926 48.837 10.631 55.199 10.213 56.399 3.949 62.522 5.732 65.789 0.258 70.933 4.025 75.877 0 79.422 5.301 85.445 3.207 86.961 9.402 93.337 9.494 92.644 15.834 98.605 18.101 95.785 23.82 100.61 27.992 96.004 32.402 99.113 37.971 93.275 40.539 94.291 46.834"/>
          <circle class="cls-3" cx="71.56375" cy="28.7324" r="21.5137"/>
          <g>
            <path class="cls-4" d="M74.84205,26.5195c-5.47949-4.4453-7.6191-11.2129-4.7793-15.1191,2.84281-3.9063,9.587-3.4668,15.0694.9746,5.4785,4.4453,7.6152,11.2148,4.7763,15.1191C87.06575,31.4004,80.31965,30.9629,74.84205,26.5195Z"/>
            <path class="cls-5" d="M52.54915,33.4883c.7265-2.3789,4.414-1.3946,8.2441,2.2031,3.8281,3.5957,6.3428,8.4355,5.6201,10.8203-.7236,2.377-4.415,1.3926-8.2451-2.2031C54.34205,40.7109,51.82545,35.8652,52.54915,33.4883Z"/>
          </g>
        </g>
        <g>
          <path class="cls-6" d="M72.9956,34.87915a27.005,27.005,0,0,0-53.8819,0,20.123,20.123,0,0,0,1.00981,40.2207H71.9858a20.123,20.123,0,0,0,1.0098-40.2207Z"/>
          <path class="cls-7" d="M47.9468,37.38305c-7.5752-6.1484-10.5342-15.5039-6.6065-20.9043,3.9287-5.4004,13.2559-4.793,20.835,1.3477,7.57321,6.1445,10.5283,15.5078,6.6045,20.9023C64.8481,44.13305,55.5219,43.52565,47.9468,37.38305Z"/>
          <path class="cls-8" d="M73.1372,55.54715c-5.9531-4.8301-8.2783-12.1836-5.1924-16.4278,3.0879-4.2441,10.418-3.7675,16.374,1.0586,5.9522,4.8301,8.2744,12.1875,5.1905,16.4278C86.4194,60.85185,79.0903,60.37525,73.1372,55.54715Z"/>
          <path class="cls-9" d="M14.3882,56.22285c-4.3941-6.8535-9.4961-10.1523-11.4078-7.373-1.9038,2.7754.1104,10.5879,4.5,17.4453,4.3955,6.8516,9.5015,10.1524,11.4082,7.3711C20.7934,70.88305,18.7812,63.07835,14.3882,56.22285Z"/>
        </g>
        <g>
          <g>
            <path class="cls-10" d="M20.04645,91.63068a4.11114,4.11114,0,0,1-7.1206-4.1113c1.1352-1.9668,8.1567-5.9062,8.1567-5.9062S21.18165,89.66388,20.04645,91.63068Z"/>
            <path class="cls-11" d="M13.046,90.94718c-.6372-1.6641-.251-3.4161.8652-3.9122,1.1153-.4961,2.5366.4512,3.1743,2.1172.6382,1.666.25,3.418-.8647,3.9121C15.10455,93.56038,13.68315,92.61318,13.046,90.94718Z"/>
          </g>
          <g>
            <path class="cls-12" d="M37.23925,91.63068a4.11114,4.11114,0,0,1-7.1206-4.1113c1.1353-1.9668,8.1563-5.9062,8.1563-5.9062S38.37455,89.66388,37.23925,91.63068Z"/>
            <path class="cls-13" d="M30.23885,90.94718c-.6373-1.6641-.251-3.4161.8652-3.9122,1.1152-.4961,2.5361.4512,3.1743,2.1172.6377,1.666.2495,3.418-.8652,3.9121C32.29735,93.56038,30.87605,92.61318,30.23885,90.94718Z"/>
          </g>
          <g>
            <path class="cls-14" d="M54.43265,91.63068a4.11136,4.11136,0,0,1-7.12111-4.1113c1.1353-1.9668,8.1567-5.9062,8.1567-5.9062S55.56794,89.66388,54.43265,91.63068Z"/>
            <path class="cls-15" d="M47.43165,90.94718c-.63671-1.6641-.25051-3.4161.86529-3.9122,1.1152-.4961,2.5366.4512,3.1743,2.1172.6382,1.666.25,3.418-.8648,3.9121C49.49024,93.56038,48.06934,92.61318,47.43165,90.94718Z"/>
          </g>
          <g>
            <path class="cls-16" d="M71.625,91.63068a4.11114,4.11114,0,0,1-7.1206-4.1113c1.13521-1.9668,8.1567-5.9062,8.1567-5.9062S72.76024,89.66388,71.625,91.63068Z"/>
            <path class="cls-17" d="M64.62454,90.94718c-.6372-1.6641-.251-3.4161.8652-3.9122,1.1153-.4961,2.5367.4512,3.1743,2.1172.6377,1.666.25,3.418-.8652,3.9121C66.68314,93.56038,65.26174,92.61318,64.62454,90.94718Z"/>
          </g>
        </g>
      </g>
    </g>
  </g>
</svg>
