<svg width="82" height="80" xmlns="http://www.w3.org/2000/svg">

            <g>
              <title>background</title>
              <rect fill="none" id="canvas_background" height="82" width="84" y="-1" x="-1"></rect>
            </g>
            <g>
              <title>Layer 1</title>
              <g fill='white' stroke="null" id="svg_1">
                <path stroke="null" id="svg_2" d="m14.624648,41.013999l-3.730357,3.770136c-0.44804,0.452045 -0.44804,1.186909 0,1.638954c0.22402,0.226409 0.517617,0.339227 0.811213,0.339227s0.587193,-0.112818 0.811213,-0.339227l3.730357,-3.770136c0.44804,-0.452045 0.44804,-1.186909 0,-1.638954c-0.448805,-0.452818 -1.174386,-0.452818 -1.622426,0z"></path>
                <path stroke="null" id="svg_3" d="m11.969283,30.486363c0,-0.640591 -0.513029,-1.159091 -1.146861,-1.159091l-5.275561,0c-0.633832,0 -1.146861,0.5185 -1.146861,1.159091s0.513029,1.159091 1.146861,1.159091l5.275561,0c0.633832,0 1.146861,-0.519273 1.146861,-1.159091z"></path>
                <path stroke="null" id="svg_4" d="m14.624648,20.032136c0.22402,0.226409 0.517617,0.339227 0.811213,0.339227s0.587193,-0.112818 0.811213,-0.339227c0.44804,-0.452045 0.44804,-1.186909 0,-1.638954l-3.730357,-3.770136c-0.44804,-0.452818 -1.173621,-0.452818 -1.621661,0c-0.44804,0.452045 -0.44804,1.186909 0,1.638954l3.729592,3.770136z"></path>
                <path stroke="null" id="svg_5" d="m26.649103,15.65c0.633832,0 1.146861,-0.5185 1.146861,-1.159091l0,-5.331818c0,-0.640591 -0.513029,-1.159091 -1.146861,-1.159091s-1.146861,0.5185 -1.146861,1.159091l0,5.331818c0,0.639818 0.513029,1.159091 1.146861,1.159091z"></path>
                <path stroke="null" id="svg_6" d="m37.817235,20.371363c0.293596,0 0.587193,-0.112818 0.811213,-0.339227l3.730357,-3.770136c0.44804,-0.452045 0.44804,-1.186136 0,-1.638954s-1.173621,-0.452818 -1.621661,0l-3.730357,3.770136c-0.44804,0.452045 -0.44804,1.186136 0,1.638954c0.22402,0.226409 0.517617,0.339227 0.810448,0.339227z"></path>
                <path stroke="null" id="svg_7" d="m57.996637,30.640908c-1.213379,0 -2.434404,0.164591 -3.64243,0.491455c-1.120101,-5.664863 -6.025608,-9.918727 -11.725507,-9.918727c-2.427522,0 -4.748769,0.727909 -6.725193,2.077864c-2.156863,-2.913954 -5.541632,-4.628636 -9.254404,-4.628636c-6.450711,0 -11.697982,5.304 -11.697982,11.822727c0,4.417682 2.337303,8.341591 6.061543,10.388545c-1.540617,2.156682 -2.391587,4.696636 -2.391587,7.230409c0,6.562 5.268679,12.039091 11.774439,12.209091l28.136323,0c0.0367,0 0.073399,-0.001545 0.109334,-0.005409c7.957686,-0.770409 13.958827,-7.179409 13.958827,-14.908227c0,-8.138363 -6.55087,-14.75909 -14.603363,-14.75909zm-40.751794,-0.154545c0,-5.240636 4.218919,-9.504545 9.40426,-9.504545c3.016244,0 5.749596,1.413318 7.471417,3.794091c-0.007646,0.007727 -0.016821,0.014682 -0.025231,0.023182c-2.287605,2.312 -3.547623,5.375091 -3.547623,8.624409c0,0.785091 0.093278,1.602636 0.282892,2.472727c-0.01835,0 -0.035935,0 -0.05352,0c-3.07741,0 -5.915509,1.128955 -8.172531,3.202954c-3.276964,-1.558591 -5.359664,-4.866636 -5.359664,-8.612818zm41.230417,27.50909l-28.050691,0c-5.243448,-0.137545 -9.509771,-4.574545 -9.509771,-9.890909c0,-2.216954 0.806626,-4.457091 2.2532,-6.284591c1.941253,-2.325909 4.644022,-3.606318 7.609805,-3.606318c0.419751,0 0.853265,0 1.328065,0.119773c0.40446,0.099682 0.83415,-0.027045 1.119336,-0.337682c0.284422,-0.310636 0.379229,-0.752636 0.246193,-1.153682c-0.417457,-1.265727 -0.629244,-2.416318 -0.629244,-3.419318c0,-2.591727 1.048231,-5.137863 2.875563,-6.985454c1.880852,-1.900909 4.27091,-2.905454 6.910984,-2.905454c4.984258,0 9.217704,4.046773 9.637455,9.213227c0.029818,0.360864 0.22402,0.687727 0.526027,0.882455c0.302771,0.1955 0.678177,0.235682 1.013061,0.1105c1.387702,-0.516955 2.797576,-0.778909 4.19063,-0.778909c6.787123,0 12.309641,5.581409 12.309641,12.440909c0.000765,6.510227 -5.080594,11.916227 -11.830253,12.595454z"></path>
                <path stroke="null" id="svg_8" d="m36.344666,64.190408c-0.582605,-0.247273 -1.256195,0.030136 -1.501623,0.6205l-2.599552,6.259091c-0.244664,0.590364 0.029818,1.269591 0.613953,1.517636c0.144504,0.061818 0.295126,0.090409 0.443453,0.090409c0.44804,0 0.873908,-0.267364 1.05817,-0.710909l2.599552,-6.259091c0.244664,-0.590364 -0.030583,-1.270364 -0.613953,-1.517636z"></path>
                <path stroke="null" id="svg_9" d="m55.305336,64.190408c-0.584899,-0.248818 -1.25696,0.030136 -1.500859,0.6205l-2.598787,6.259091c-0.245428,0.590364 0.029054,1.269591 0.613953,1.517636c0.144504,0.061045 0.294361,0.089636 0.442688,0.089636c0.44804,0 0.874673,-0.267364 1.05817,-0.710909l2.598787,-6.259091c0.245428,-0.590364 -0.029054,-1.269591 -0.613953,-1.516864z"></path>
                <path stroke="null" id="svg_10" d="m45.832265,64.192726c-0.58337,-0.251136 -1.25696,0.021636 -1.505446,0.610455l-4.053007,9.581818c-0.249251,0.588818 0.020643,1.270364 0.603249,1.5215c0.147563,0.063364 0.300478,0.0935 0.451099,0.0935c0.445747,0 0.869321,-0.2635 1.055112,-0.703955l4.053007,-9.581818c0.249251,-0.588818 -0.021408,-1.269591 -0.604013,-1.5215z"></path>
              </g>
            </g>
          </svg>