<svg xmlns="http://www.w3.org/2000/svg" xmlns:xlink="http://www.w3.org/1999/xlink" width="65.66031" height="87.0664" viewBox="0 0 65.66031 87.0664">
  <defs>
    <style>
      .cls-1 {
        fill: url(#radial-gradient);
      }

      .cls-2 {
        fill: url(#linear-gradient);
      }

      .cls-3 {
        fill: #a3aad2;
      }

      .cls-4 {
        fill: url(#linear-gradient-2);
      }

      .cls-5 {
        fill: url(#radial-gradient-2);
      }
    </style>
    <radialGradient id="radial-gradient" cx="59.03123" cy="56.66172" r="37.06975" gradientUnits="userSpaceOnUse">
      <stop offset="0" stop-color="#28cbe9"/>
      <stop offset="1" stop-color="#0a4fbb"/>
    </radialGradient>
    <linearGradient id="linear-gradient" y1="43.5332" x2="39.1567" y2="43.5332" gradientUnits="userSpaceOnUse">
      <stop offset="0" stop-color="#dbe1ff"/>
      <stop offset="1" stop-color="#cbd1e9"/>
    </linearGradient>
    <linearGradient id="linear-gradient-2" x1="19.57905" y1="52.65914" x2="19.57905" y2="61.84856" xlink:href="#radial-gradient"/>
    <radialGradient id="radial-gradient-2" cx="16.8579" cy="75.09547" r="11.40179" gradientUnits="userSpaceOnUse">
      <stop offset="0" stop-color="#54f5ff"/>
      <stop offset="0.11828" stop-color="#28cbe9"/>
      <stop offset="1" stop-color="#0a4fbb"/>
    </radialGradient>
  </defs>
  <g id="Слой_2" data-name="Слой 2">
    <g id="OBJECTS">
      <g>
        <path class="cls-1" d="M64.6391,73.4121l-3.9765-2.2949,1.2304-.709a2.04054,2.04054,0,1,0-2.039-3.5352l-3.2715,1.8887L53.563,67.0176a6.95827,6.95827,0,0,0,0-3.3692l3.0195-1.7441L59.854,63.793a2.03967,2.03967,0,0,0,2.039-3.5332l-1.2304-.711,3.9765-2.2949a2.041,2.041,0,1,0-2.041-3.5351l-3.9746,2.2949.002-1.4199a2.04272,2.04272,0,0,0-2.04109-2.0411h0a2.04142,2.04142,0,0,0-2.041,2.0411l-.00191,3.7753L51.52,60.1152a7.20337,7.20337,0,0,0-2.916-1.6894V54.9414l3.2715-1.8887a2.04019,2.04019,0,0,0-2.04109-3.5332l-1.23041.711V45.6406a2.04005,2.04005,0,1,0-4.0801,0v4.5899l-1.2324-.711a2.03969,2.03969,0,1,0-2.03909,3.5332l3.27149,1.8887v3.4844a7.20344,7.20344,0,0,0-2.916,1.6894l-3.02149-1.7461V54.5938a2.041,2.041,0,1,0-4.082,0v1.4199L30.5298,53.7188a2.04077,2.04077,0,0,0-2.0401,3.5351l3.9746,2.2949-1.2314.709a2.041,2.041,0,0,0,2.041,3.5352l3.27151-1.8887,3.02149,1.7441a6.89368,6.89368,0,0,0,0,3.3692l-3.02149,1.7441L33.2749,66.873a2.04,2.04,0,1,0-2.0401,3.5333l1.2305.7109-3.9756,2.2949a2.04081,2.04081,0,1,0,2.0401,3.5352l3.97261-2.295v1.42a2.041,2.041,0,1,0,4.082,0l.002-3.7774,3.02149-1.7461a7.18789,7.18789,0,0,0,2.914,1.6895v3.4863l-3.26949,1.8867a2.04056,2.04056,0,0,0,2.03909,3.5352l1.2324-.711v4.5899a2.04005,2.04005,0,1,0,4.0801,0V80.4375l1.23041.709a2.00924,2.00924,0,0,0,1.01759.2754,2.04154,2.04154,0,0,0,1.0235-3.8086L48.604,75.7246V72.2383a7.19115,7.19115,0,0,0,2.916-1.6875l3.0215,1.7441v3.7774a2.041,2.041,0,1,0,4.082,0V74.6504l3.9746,2.2969a2.041,2.041,0,1,0,2.041-3.5352ZM46.5649,68.457a3.124,3.124,0,1,1,3.125-3.125A3.12794,3.12794,0,0,1,46.5649,68.457Z"/>
        <g>
          <path class="cls-2" d="M7.7226,0H31.4341a7.7226,7.7226,0,0,1,7.7226,7.7226V79.3437a7.7227,7.7227,0,0,1-7.7227,7.7227H7.7227A7.7227,7.7227,0,0,1,0,79.3437V7.7226A7.7226,7.7226,0,0,1,7.7226,0Z"/>
          <path class="cls-3" d="M15.75141,68.0039a3.82765,3.82765,0,1,0,7.65529,0V14.8281a3.82765,3.82765,0,1,0-7.65529,0Z"/>
          <path class="cls-4" d="M15.75141,68.0039a3.82765,3.82765,0,1,0,7.65529,0V58.0957a3.82765,3.82765,0,0,0-7.65529,0Z"/>
          <path class="cls-5" d="M27.4692,70.9688a7.8906,7.8906,0,1,1-7.8901-7.8907A7.88922,7.88922,0,0,1,27.4692,70.9688Z"/>
          <path class="cls-3" d="M32.1411,18.3008a.76728.76728,0,0,1-.7676.7656H27.7817a.76621.76621,0,0,1-.7656-.7656h0a.76671.76671,0,0,1,.7656-.7676h3.5918a.76777.76777,0,0,1,.7676.7676Z"/>
          <path class="cls-3" d="M32.1411,29.4941a.76771.76771,0,0,1-.7676.7676H27.7817a.76664.76664,0,0,1-.7656-.7676h0a.765.765,0,0,1,.7656-.7656h3.5918a.76607.76607,0,0,1,.7676.7656Z"/>
          <path class="cls-3" d="M32.1411,40.6895a.76735.76735,0,0,1-.7676.7656H27.7817a.76628.76628,0,0,1-.7656-.7656h0a.76664.76664,0,0,1,.7656-.7676h3.5918a.76771.76771,0,0,1,.7676.7676Z"/>
          <path class="cls-3" d="M32.1411,51.8828a.76777.76777,0,0,1-.7676.7676H27.7817a.76671.76671,0,0,1-.7656-.7676h0a.765.765,0,0,1,.7656-.7656h3.5918a.76607.76607,0,0,1,.7676.7656Z"/>
          <path class="cls-3" d="M32.1411,63.0781a.76737.76737,0,0,1-.7676.7657H27.7817a.7663.7663,0,0,1-.7656-.7657h0a.76671.76671,0,0,1,.7656-.7676h3.5918a.76777.76777,0,0,1,.7676.7676Z"/>
        </g>
      </g>
    </g>
  </g>
</svg>
