<svg xmlns="http://www.w3.org/2000/svg" xmlns:xlink="http://www.w3.org/1999/xlink" width="92.1094" height="81.98628" viewBox="0 0 92.1094 81.98628">
  <defs>
    <style>
      .cls-1 {
        isolation: isolate;
      }

      .cls-2 {
        fill: url(#radial-gradient);
      }

      .cls-3, .cls-4, .cls-5, .cls-7 {
        mix-blend-mode: overlay;
      }

      .cls-3 {
        fill: url(#radial-gradient-2);
      }

      .cls-4 {
        opacity: 0.4;
        fill: url(#radial-gradient-3);
      }

      .cls-5 {
        opacity: 0.2;
        fill: url(#Degradado_sin_nombre_34);
      }

      .cls-6 {
        fill: url(#radial-gradient-4);
      }

      .cls-7 {
        fill: url(#radial-gradient-5);
      }

      .cls-8 {
        fill: url(#radial-gradient-6);
      }
    </style>
    <radialGradient id="radial-gradient" cx="57.66932" cy="13.77686" r="70.25578" gradientTransform="translate(115.33865 23.84068) rotate(180) scale(1 0.73049)" gradientUnits="userSpaceOnUse">
      <stop offset="0" stop-color="#fff"/>
      <stop offset="0.198" stop-color="#d5f3ff"/>
      <stop offset="1" stop-color="#85bcf1"/>
    </radialGradient>
    <radialGradient id="radial-gradient-2" cx="1441.46506" cy="-1686.00188" r="8.47603" gradientTransform="matrix(-0.8392, 1.1536, -1.6186, -1.3126, -1466.11591, -3858.04984)" gradientUnits="userSpaceOnUse">
      <stop offset="0" stop-color="#fff"/>
      <stop offset="0.10256" stop-color="#fff" stop-opacity="0.84849"/>
      <stop offset="0.29029" stop-color="#fff" stop-opacity="0.59415"/>
      <stop offset="0.4694" stop-color="#fff" stop-opacity="0.38204"/>
      <stop offset="0.63471" stop-color="#fff" stop-opacity="0.21674"/>
      <stop offset="0.78337" stop-color="#fff" stop-opacity="0.09804"/>
      <stop offset="0.91014" stop-color="#fff" stop-opacity="0.02577"/>
      <stop offset="1" stop-color="#fff" stop-opacity="0"/>
    </radialGradient>
    <radialGradient id="radial-gradient-3" cx="1441.21019" cy="-1701.66005" r="6.66148" xlink:href="#radial-gradient-2"/>
    <radialGradient id="Degradado_sin_nombre_34" data-name="Degradado sin nombre 34" cx="10.93447" cy="51.52564" r="4.87095" gradientTransform="matrix(0.90102, -0.43378, 1.26276, 2.62292, -63.98245, -78.87869)" xlink:href="#radial-gradient-2"/>
    <radialGradient id="radial-gradient-4" cx="-242.20254" cy="135.04847" r="9.89131" gradientTransform="translate(307.03367 82.12599) rotate(30.00073)" gradientUnits="userSpaceOnUse">
      <stop offset="0" stop-color="#d0f2ff"/>
      <stop offset="0.198" stop-color="#d5f3ff"/>
      <stop offset="1" stop-color="#85bcf1"/>
    </radialGradient>
    <radialGradient id="radial-gradient-5" cx="1635.56794" cy="-1604.10411" r="1.54924" gradientTransform="matrix(-1.3036, 0.5794, -0.7454, -1.946, 966.71138, -3991.90264)" xlink:href="#radial-gradient-2"/>
    <radialGradient id="radial-gradient-6" cx="1149.1126" cy="-27.04251" r="62.65461" gradientTransform="translate(-182.76697 77.29428) scale(0.2062 0.19271)" gradientUnits="userSpaceOnUse">
      <stop offset="0" stop-color="#28cbe9"/>
      <stop offset="1" stop-color="#0a4fbb"/>
    </radialGradient>
  </defs>
  <g class="cls-1">
    <g id="Слой_2" data-name="Слой 2">
      <g id="OBJECTS">
        <g>
          <path class="cls-2" d="M72.9951,25.1465a27.00444,27.00444,0,0,0-53.8809,0A20.123,20.123,0,0,0,20.123,65.3672H71.9858a20.123,20.123,0,0,0,1.0093-40.2207Z"/>
          <path class="cls-3" d="M46.0561,27.6484C38.4809,21.5019,35.522,12.1465,39.4492,6.7461c3.9297-5.4004,13.2563-4.793,20.835,1.3476,7.5737,6.1446,10.5293,15.5059,6.604,20.9024C62.9575,34.3984,53.6308,33.791,46.0561,27.6484Z"/>
          <path class="cls-4" d="M73.1377,45.8144c-5.9536-4.8301-8.2793-12.1855-5.1934-16.4277,3.0889-4.2461,10.4185-3.7676,16.3745,1.0586,5.9527,4.8301,8.2749,12.1875,5.1909,16.4277C86.4189,51.1191,79.0893,50.6425,73.1377,45.8144Z"/>
          <path class="cls-5" d="M14.3877,46.4883C9.9946,39.6347,4.8916,36.3379,2.9804,39.1172c-1.9047,2.7753.1099,10.5878,4.5,17.4433,4.3956,6.8535,9.5015,10.1543,11.4073,7.3731C20.7934,61.1484,18.7807,53.3457,14.3877,46.4883Z"/>
        </g>
        <g>
          <path class="cls-6" d="M35.26545,78.913a4.11135,4.11135,0,0,1-7.1211-4.1113c1.1352-1.9668,8.1567-5.9062,8.1567-5.9062S36.40065,76.94617,35.26545,78.913Z"/>
          <path class="cls-7" d="M28.26445,78.22947c-.6367-1.6641-.2505-3.4161.8652-3.9122,1.1153-.4961,2.5366.4512,3.1743,2.1172.6382,1.666.25,3.418-.8647,3.9121C30.32305,80.84267,28.90215,79.89547,28.26445,78.22947Z"/>
        </g>
        <path class="cls-8" d="M56.13918,77.5388l-1.38563-.74752.42872-.2311a.64151.64151,0,0,0,.26078-.90788.73949.73949,0,0,0-.97142-.24351l-1.14037.61464-1.05236-.5676a2.12486,2.12486,0,0,0,0-1.09757l1.05236-.568,1.14.615a.74417.74417,0,0,0,.3546.0896.72168.72168,0,0,0,.61659-.33274.64167.64167,0,0,0-.26016-.90786l-.42911-.23149,1.386-.74752a.64173.64173,0,0,0,.26037-.90786.73791.73791,0,0,0-.97141-.24314l-1.38583.74751.0006-.46259a.68922.68922,0,0,0-.71124-.66473h0a.689.689,0,0,0-.71124.66435L52.62,72.63888l-1.05337.56836a2.553,2.553,0,0,0-1.01591-.54991V71.52251l1.14017-.61541a.64082.64082,0,0,0,.26-.90749.73863.73863,0,0,0-.97141-.24354l-.42872.23149v-1.495a.71279.71279,0,0,0-1.42229,0v1.495l-.42911-.23149a.7388.7388,0,0,0-.97142.24354.64136.64136,0,0,0,.26016.90749l1.14037.61541v1.13482a2.55125,2.55125,0,0,0-1.01611.55029L47.059,72.63888V71.40883a.71279.71279,0,0,0-1.42229,0v.463l-1.38542-.74751a.73809.73809,0,0,0-.97143.24314.64123.64123,0,0,0,.26019.90786l1.38542.74752-.42931.2311a.64208.64208,0,0,0-.26017.90825.722.722,0,0,0,.61679.33235.74386.74386,0,0,0,.35461-.08921l1.14037-.615,1.053.568a2.11918,2.11918,0,0,0,0,1.09757l-1.053.5676-1.13977-.615a.73844.73844,0,0,0-.9714.24315.64083.64083,0,0,0,.26016.90787l.42914.23147L43.54,77.5388a.64108.64108,0,0,0-.26019.90786.72052.72052,0,0,0,.61641.33237.74453.74453,0,0,0,.355-.08921l1.38482-.74752v.46258a.71287.71287,0,0,0,1.42248,0l.00041-1.23006,1.05337-.56872a2.5522,2.5522,0,0,0,1.01572.55028V78.2916l-1.14.615a.64089.64089,0,0,0-.26016.90785.73808.73808,0,0,0,.97142.24315l.42911-.23149v1.49543a.71277.71277,0,0,0,1.42229,0v-1.495l.42852.23149a.7444.7444,0,0,0,.355.0892.72047.72047,0,0,0,.6162-.33235.64137.64137,0,0,0-.25957-.90788l-1.14037-.61539V77.15638a2.54537,2.54537,0,0,0,1.01611-.54991l1.05337.568v1.23043a.71277.71277,0,0,0,1.42229,0v-.463l1.38583.7479a.74407.74407,0,0,0,.35461.08921.72208.72208,0,0,0,.6168-.33237A.64157.64157,0,0,0,56.13918,77.5388Zm-6.29949-1.614a1.02011,1.02011,0,1,1,1.089-1.01777A1.0562,1.0562,0,0,1,49.83969,75.92482Z"/>
      </g>
    </g>
  </g>
</svg>
