<svg xmlns="http://www.w3.org/2000/svg" xmlns:xlink="http://www.w3.org/1999/xlink" width="120.75179" height="79.21539" viewBox="0 0 120.75179 79.21539">
  <defs>
    <style>
      .cls-1 {
        isolation: isolate;
      }

      .cls-2 {
        fill: url(#radial-gradient);
      }

      .cls-3 {
        fill: #acadb2;
      }

      .cls-11, .cls-12, .cls-13, .cls-4, .cls-5, .cls-7, .cls-8, .cls-9 {
        mix-blend-mode: overlay;
      }

      .cls-4 {
        fill: url(#radial-gradient-2);
      }

      .cls-12, .cls-5, .cls-8 {
        opacity: 0.4;
      }

      .cls-5 {
        fill: url(#Degradado_sin_nombre_34);
      }

      .cls-6 {
        fill: url(#radial-gradient-3);
      }

      .cls-7 {
        fill: url(#radial-gradient-4);
      }

      .cls-8 {
        fill: url(#radial-gradient-5);
      }

      .cls-13, .cls-9 {
        opacity: 0.2;
      }

      .cls-9 {
        fill: url(#Degradado_sin_nombre_34-2);
      }

      .cls-10 {
        fill: url(#radial-gradient-6);
      }

      .cls-11 {
        fill: url(#radial-gradient-7);
      }

      .cls-12 {
        fill: url(#radial-gradient-8);
      }

      .cls-13 {
        fill: url(#Degradado_sin_nombre_34-3);
      }
    </style>
    <radialGradient id="radial-gradient" cx="-365.1766" cy="18.89483" r="51.25809" gradientTransform="matrix(-1, 0, 0, 1, -303.45412, 0)" gradientUnits="userSpaceOnUse">
      <stop offset="0" stop-color="#f8f8f8"/>
      <stop offset="0.15591" stop-color="#ede9f1"/>
      <stop offset="1" stop-color="#9b9da2"/>
    </radialGradient>
    <radialGradient id="radial-gradient-2" cx="993.55835" cy="-2087.15865" r="7.69421" gradientTransform="matrix(-0.8392, 1.1536, -1.6186, -1.3126, -2478.36221, -3861.60307)" gradientUnits="userSpaceOnUse">
      <stop offset="0" stop-color="#fff"/>
      <stop offset="0.10256" stop-color="#fff" stop-opacity="0.84849"/>
      <stop offset="0.29029" stop-color="#fff" stop-opacity="0.59415"/>
      <stop offset="0.4694" stop-color="#fff" stop-opacity="0.38204"/>
      <stop offset="0.63471" stop-color="#fff" stop-opacity="0.21674"/>
      <stop offset="0.78337" stop-color="#fff" stop-opacity="0.09804"/>
      <stop offset="0.91014" stop-color="#fff" stop-opacity="0.02577"/>
      <stop offset="1" stop-color="#fff" stop-opacity="0"/>
    </radialGradient>
    <radialGradient id="Degradado_sin_nombre_34" data-name="Degradado sin nombre 34" cx="-3203.45268" cy="2781.64711" r="7.425" gradientTransform="matrix(-1.1717, -1.1007, 0.222, -0.7283, -4330.62936, -1450.20136)" xlink:href="#radial-gradient-2"/>
    <radialGradient id="radial-gradient-3" cx="70.19799" cy="47.64288" r="70.25724" gradientTransform="translate(142.91493 32.28672) rotate(180) scale(0.61981 0.48549)" gradientUnits="userSpaceOnUse">
      <stop offset="0" stop-color="#fff"/>
      <stop offset="0.198" stop-color="#d5f3ff"/>
      <stop offset="1" stop-color="#85bcf1"/>
    </radialGradient>
    <radialGradient id="radial-gradient-4" cx="1008.77372" cy="-2094.78776" r="8.47651" gradientTransform="matrix(-0.52014, 0.7667, -1.00322, -0.87237, -1480.21771, -2588.97368)" xlink:href="#radial-gradient-2"/>
    <radialGradient id="radial-gradient-5" cx="1008.51855" cy="-2110.44579" r="6.66123" gradientTransform="matrix(-0.52014, 0.7667, -1.00322, -0.87237, -1480.21771, -2588.97368)" xlink:href="#radial-gradient-2"/>
    <radialGradient id="Degradado_sin_nombre_34-2" data-name="Degradado sin nombre 34" cx="23.46336" cy="85.39186" r="4.87104" gradientTransform="matrix(0.55846, -0.2883, 0.78267, 1.74322, -9.49844, -107.84756)" xlink:href="#radial-gradient-2"/>
    <radialGradient id="radial-gradient-6" cx="-32.51336" cy="101.46418" r="70.25724" gradientTransform="translate(15.59187 94.18673) rotate(180) scale(0.61981 0.48549)" xlink:href="#radial-gradient-3"/>
    <radialGradient id="radial-gradient-7" cx="1083.53044" cy="-2070.09017" r="8.47651" gradientTransform="matrix(-0.52014, 0.7667, -1.00322, -0.87237, -1480.21771, -2588.97368)" xlink:href="#radial-gradient-2"/>
    <radialGradient id="radial-gradient-8" cx="1083.27527" cy="-2085.7482" r="6.66123" gradientTransform="matrix(-0.52014, 0.7667, -1.00322, -0.87237, -1480.21771, -2588.97368)" xlink:href="#radial-gradient-2"/>
    <radialGradient id="Degradado_sin_nombre_34-3" data-name="Degradado sin nombre 34" cx="-79.24799" cy="139.21316" r="4.87104" gradientTransform="matrix(0.55846, -0.2883, 0.78267, 1.74322, -57.92433, -195.51105)" xlink:href="#radial-gradient-2"/>
  </defs>
  <g class="cls-1">
    <g id="Слой_2" data-name="Слой 2">
      <g id="OBJECTS">
        <g>
          <path class="cls-2" d="M28.54513,35.825A27.002,27.002,0,1,0,55.547,8.823,27.00109,27.00109,0,0,0,28.54513,35.825Z"/>
          <g>
            <path class="cls-3" d="M36.67983,40.60232c2.5372-.2285,4.3497-3.1074,4.0508-6.4297-.2968-3.3222-2.5957-5.83-5.1347-5.6015-2.53518.2285-4.3496,3.1074-4.0508,6.4277C31.84393,38.32112,34.14275,40.82892,36.67983,40.60232Z"/>
            <path class="cls-3" d="M34.48063,43.01642c-1.5215.7988-1.9043,3.0605-.8593,5.0488,1.0449,1.9903,3.123,2.9551,4.6445,2.1582,1.5176-.7968,1.9023-3.0586.8574-5.0468C38.08023,43.18632,36.00023,42.21952,34.48063,43.01642Z"/>
            <path class="cls-3" d="M40.50213,40.618a2.17856,2.17856,0,0,0-.5078,2.9824,2.17987,2.17987,0,0,0,2.7441,1.2754,2.18192,2.18192,0,0,0,.5079-2.9825A2.18,2.18,0,0,0,40.50213,40.618Z"/>
            <path class="cls-3" d="M80.48653,36.80162c-.46678-3.3028-2.8887-5.6915-5.4121-5.336-2.5215.3555-4.1875,3.3223-3.72068,6.625.46478,3.3027,2.88858,5.6914,5.41008,5.334C79.28533,43.06912,80.95333,40.10232,80.48653,36.80162Z"/>
            <path class="cls-3" d="M77.15063,28.94222c1.4765-.875,1.746-3.1524.6015-5.086-1.1426-1.9336-3.2676-2.7929-4.7461-1.9199-1.4765.8711-1.7461,3.1504-.6015,5.084C73.547,28.95582,75.672,29.81522,77.15063,28.94222Z"/>
            <path class="cls-3" d="M71.61153,28.63752a2.17923,2.17923,0,0,0-2.8047-1.1348,2.18015,2.18015,0,0,0-.3555,3.0039,2.178,2.178,0,0,0,2.8047,1.1348A2.17629,2.17629,0,0,0,71.61153,28.63752Z"/>
          </g>
          <g>
            <path class="cls-4" d="M59.66233,33.04762c-6.875-5.582-9.5645-14.0742-5.9981-18.9746,3.5664-4.9023,12.0332-4.3535,18.9141,1.2227,6.875,5.5781,9.5566,14.0762,5.9941,18.9726C75.00213,39.17662,66.53733,38.62382,59.66233,33.04762Z"/>
            <path class="cls-5" d="M31.68183,41.79182c.9121-2.9863,5.541-1.7481,10.3477,2.7656,4.8046,4.5137,7.9609,10.5918,7.0527,13.5801-.9082,2.9844-5.5391,1.75-10.3477-2.7637C33.93183,50.86012,30.77563,44.77622,31.68183,41.79182Z"/>
          </g>
        </g>
        <g>
          <path class="cls-6" d="M108.90523,16.71266C108.3096,7.377,101.06439,0,92.20662,0c-8.8577,0-16.10291,7.377-16.69731,16.71266-6.59881.35051-11.84778,6.1957-11.84778,13.35716,0,7.38729,5.58429,13.37531,12.47244,13.37531h32.14538c6.88814,0,12.47244-5.988,12.47244-13.37531C120.75179,22.90836,115.5028,17.06317,108.90523,16.71266Z"/>
          <path class="cls-7" d="M92.20786,18.37678c-4.6958-4.085-6.52982-10.30408-4.09533-13.89324,2.43567-3.58917,8.21609-3.18542,12.9143.89569,4.69339,4.08371,6.52616,10.3054,4.09291,13.89324C102.68291,22.8629,96.90243,22.45922,92.20786,18.37678Z"/>
          <path class="cls-8" d="M108.99356,30.44885c-3.691-3.21014-5.1316-8.09736-3.21886-10.918,1.91391-2.82075,6.45712-2.50273,10.14815.70356,3.68979,3.21007,5.12917,8.1,3.21768,10.918C117.22544,33.97441,112.68217,33.65766,108.99356,30.44885Z"/>
          <path class="cls-9" d="M72.57972,30.898c-2.72376-4.55491-5.88578-6.7474-7.07092-4.90025-1.1803,1.84457.06781,7.03685,2.78915,11.59309,2.725,4.55492,5.88943,6.74867,7.07091,4.90151C76.54917,40.64,75.3023,35.45417,72.57972,30.898Z"/>
        </g>
        <g>
          <path class="cls-10" d="M45.24371,52.48292c-.59564-9.33567-7.84085-16.71266-16.69862-16.71266-8.8577,0-16.10291,7.377-16.69731,16.71266C5.249,52.83343,0,58.67863,0,65.84008c0,7.38729,5.58429,13.37531,12.47244,13.37531H44.61782c6.88814,0,12.47244-5.988,12.47244-13.37531C57.09026,58.67863,51.84127,52.83343,45.24371,52.48292Z"/>
          <path class="cls-11" d="M28.54633,54.147C23.85053,50.062,22.01651,43.843,24.451,40.2538c2.43567-3.58917,8.21609-3.18542,12.9143.89569,4.69339,4.08371,6.52617,10.30541,4.09292,13.89324C39.02138,58.63317,33.2409,58.22948,28.54633,54.147Z"/>
          <path class="cls-12" d="M45.332,66.21911c-3.691-3.21014-5.13159-8.09736-3.21886-10.918,1.91391-2.82075,6.45712-2.50273,10.14815.70356,3.68979,3.21007,5.12918,8.1,3.21768,10.918C53.56391,69.74467,49.02064,69.42792,45.332,66.21911Z"/>
          <path class="cls-13" d="M8.91819,66.66825c-2.72376-4.55491-5.88578-6.7474-7.07092-4.90024-1.1803,1.84456.06781,7.03684,2.78915,11.59308,2.725,4.55492,5.88943,6.74867,7.07091,4.90151C12.88764,76.41026,11.64077,71.22443,8.91819,66.66825Z"/>
        </g>
      </g>
    </g>
  </g>
</svg>
