<svg xmlns="http://www.w3.org/2000/svg" xmlns:xlink="http://www.w3.org/1999/xlink" width="92.1093" height="90.86637" viewBox="0 0 92.1093 90.86637">
  <defs>
    <style>
      .cls-1 {
        isolation: isolate;
      }

      .cls-2 {
        fill: url(#radial-gradient);
      }

      .cls-3, .cls-4, .cls-5 {
        mix-blend-mode: overlay;
      }

      .cls-3 {
        fill: url(#radial-gradient-2);
      }

      .cls-4 {
        opacity: 0.4;
        fill: url(#radial-gradient-3);
      }

      .cls-5 {
        opacity: 0.2;
        fill: url(#Degradado_sin_nombre_34);
      }

      .cls-6 {
        fill: #9cf;
      }
    </style>
    <radialGradient id="radial-gradient" cx="57.66926" cy="13.77686" r="70.25575" gradientTransform="translate(115.33853 23.84068) rotate(180) scale(1 0.73049)" gradientUnits="userSpaceOnUse">
      <stop offset="0" stop-color="#fff"/>
      <stop offset="0.198" stop-color="#d5f3ff"/>
      <stop offset="1" stop-color="#85bcf1"/>
    </radialGradient>
    <radialGradient id="radial-gradient-2" cx="1192.11494" cy="-1614.8099" r="8.47601" gradientTransform="matrix(-0.8392, 1.1536, -1.6186, -1.3126, -1560.13906, -3476.9532)" gradientUnits="userSpaceOnUse">
      <stop offset="0" stop-color="#fff"/>
      <stop offset="0.10256" stop-color="#fff" stop-opacity="0.84849"/>
      <stop offset="0.29029" stop-color="#fff" stop-opacity="0.59415"/>
      <stop offset="0.4694" stop-color="#fff" stop-opacity="0.38204"/>
      <stop offset="0.63471" stop-color="#fff" stop-opacity="0.21674"/>
      <stop offset="0.78337" stop-color="#fff" stop-opacity="0.09804"/>
      <stop offset="0.91014" stop-color="#fff" stop-opacity="0.02577"/>
      <stop offset="1" stop-color="#fff" stop-opacity="0"/>
    </radialGradient>
    <radialGradient id="radial-gradient-3" cx="1191.86017" cy="-1630.46809" r="6.66155" xlink:href="#radial-gradient-2"/>
    <radialGradient id="Degradado_sin_nombre_34" data-name="Degradado sin nombre 34" cx="10.93454" cy="51.52564" r="4.87093" gradientTransform="matrix(0.90102, -0.43378, 1.26276, 2.62292, -63.98244, -78.87866)" xlink:href="#radial-gradient-2"/>
  </defs>
  <g class="cls-1">
    <g id="Слой_2" data-name="Слой 2">
      <g id="OBJECTS">
        <g>
          <path class="cls-2" d="M72.9951,25.1465a27.00444,27.00444,0,0,0-53.8809,0,20.123,20.123,0,0,0,1.0093,40.2207H71.9858a20.123,20.123,0,0,0,1.0093-40.2207Z"/>
          <path class="cls-3" d="M46.0566,27.6484c-7.5752-6.1465-10.5347-15.5019-6.6074-20.9023,3.9297-5.4004,13.2563-4.793,20.8354,1.3476,7.5733,6.1446,10.5293,15.5059,6.6035,20.9024C62.9575,34.3984,53.6308,33.791,46.0566,27.6484Z"/>
          <path class="cls-4" d="M73.1376,45.8144c-5.9531-4.8301-8.2793-12.1855-5.1933-16.4277,3.0889-4.2461,10.4189-3.7676,16.375,1.0586,5.9521,4.8301,8.2744,12.1875,5.1904,16.4277C86.4194,51.1191,79.0893,50.6425,73.1376,45.8144Z"/>
          <path class="cls-5" d="M14.3876,46.4883c-4.393-6.8536-9.496-10.1504-11.4072-7.3711-1.9043,2.7753.1099,10.5878,4.5,17.4433,4.396,6.8535,9.5015,10.1543,11.4072,7.3731C20.7934,61.1484,18.7807,53.3457,14.3876,46.4883Z"/>
        </g>
        <g id="Слой_2-2" data-name="Слой 2">
          <g id="Слой_1-2" data-name="Слой 1-2">
            <g>
              <path class="cls-6" d="M72.31051,82.43815c-.06343.13457-.12893.26437-.1965.397-2.44908,4.7138-7.19691,5.7875-10.603,2.39747-4.492-4.47042-10.54438-4.47042-15.0371,0a5.96039,5.96039,0,0,1-8.8703,0c-4.83883-4.81494-11.43174-4.40647-15.94032.98783a2.34386,2.34386,0,0,0-.13514,2.57783,1.08616,1.08616,0,0,0,1.86231.18611c3.584-4.28718,8.82548-4.61358,12.67146-.78452a8.032,8.032,0,0,0,11.9537,0,8.034,8.034,0,0,1,11.953,0c4.59063,4.56873,10.9891,3.12186,14.28969-3.23256.09032-.17561.17927-.35408.26408-.53542a2.28134,2.28134,0,0,0-.38542-2.52726C73.52609,81.353,72.70835,81.59159,72.31051,82.43815Z"/>
              <path class="cls-6" d="M72.31051,70.57874c-.06343.13457-.12893.26628-.1965.397-2.44908,4.71382-7.19691,5.78941-10.603,2.39841-4.492-4.47137-10.54438-4.47137-15.0371,0a5.96187,5.96187,0,0,1-8.8703,0c-4.83884-4.81588-11.43175-4.4074-15.94033.98689a2.3441,2.3441,0,0,0-.13514,2.57784,1.08671,1.08671,0,0,0,1.86231.188c3.584-4.28908,8.82548-4.61358,12.67146-.78547a8.03341,8.03341,0,0,0,11.9537,0,8.03256,8.03256,0,0,1,11.953,0c4.59064,4.56974,10.98911,3.12186,14.2897-3.23255.09032-.17657.17927-.35313.26408-.53447a2.28385,2.28385,0,0,0-.38542-2.52917C73.52609,69.49358,72.70835,69.73215,72.31051,70.57874Z"/>
            </g>
          </g>
        </g>
      </g>
    </g>
  </g>
</svg>
