<svg xmlns="http://www.w3.org/2000/svg" xmlns:xlink="http://www.w3.org/1999/xlink" width="103.98628" height="92.26628" viewBox="0 0 103.98628 92.26628">
  <defs>
    <style>
      .cls-1 {
        isolation: isolate;
      }

      .cls-2 {
        fill: url(#radial-gradient);
      }

      .cls-3 {
        fill: url(#radial-gradient-2);
      }

      .cls-4 {
        fill: #acadb2;
      }

      .cls-10, .cls-5, .cls-6, .cls-8, .cls-9 {
        mix-blend-mode: overlay;
      }

      .cls-5 {
        fill: url(#radial-gradient-3);
      }

      .cls-6, .cls-9 {
        opacity: 0.4;
      }

      .cls-6 {
        fill: url(#Degradado_sin_nombre_34);
      }

      .cls-7 {
        fill: url(#radial-gradient-4);
      }

      .cls-8 {
        fill: url(#radial-gradient-5);
      }

      .cls-9 {
        fill: url(#radial-gradient-6);
      }

      .cls-10 {
        opacity: 0.2;
        fill: url(#Degradado_sin_nombre_34-2);
      }

      .cls-11 {
        fill: url(#radial-gradient-7);
      }
    </style>
    <radialGradient id="radial-gradient" cx="460.8055" cy="323.27786" r="62.65461" gradientTransform="translate(-54.18342 17.03121) scale(0.21444 0.2008)" gradientUnits="userSpaceOnUse">
      <stop offset="0" stop-color="#28cbe9"/>
      <stop offset="1" stop-color="#0a4fbb"/>
    </radialGradient>
    <radialGradient id="radial-gradient-2" cx="-680.65683" cy="10.07181" r="51.25809" gradientTransform="matrix(-1, 0, 0, 1, -597.4971, 0)" gradientUnits="userSpaceOnUse">
      <stop offset="0" stop-color="#f8f8f8"/>
      <stop offset="0.15591" stop-color="#ede9f1"/>
      <stop offset="1" stop-color="#9b9da2"/>
    </radialGradient>
    <radialGradient id="radial-gradient-3" cx="725.67861" cy="-2052.33618" r="7.69421" gradientTransform="matrix(-0.8392, 1.1536, -1.6186, -1.3126, -2625.36599, -3515.69206)" gradientUnits="userSpaceOnUse">
      <stop offset="0" stop-color="#fff"/>
      <stop offset="0.10256" stop-color="#fff" stop-opacity="0.84849"/>
      <stop offset="0.29029" stop-color="#fff" stop-opacity="0.59415"/>
      <stop offset="0.4694" stop-color="#fff" stop-opacity="0.38204"/>
      <stop offset="0.63471" stop-color="#fff" stop-opacity="0.21674"/>
      <stop offset="0.78337" stop-color="#fff" stop-opacity="0.09804"/>
      <stop offset="0.91014" stop-color="#fff" stop-opacity="0.02577"/>
      <stop offset="1" stop-color="#fff" stop-opacity="0"/>
    </radialGradient>
    <radialGradient id="Degradado_sin_nombre_34" data-name="Degradado sin nombre 34" cx="-3445.03974" cy="3117.59761" r="7.425" gradientTransform="matrix(-1.1717, -1.1007, 0.222, -0.7283, -4666.84067, -1480.26651)" xlink:href="#radial-gradient-3"/>
    <radialGradient id="radial-gradient-4" cx="57.66925" cy="22.90618" r="70.25724" gradientTransform="translate(115.33851 39.63887) rotate(180) scale(1 0.73049)" gradientUnits="userSpaceOnUse">
      <stop offset="0" stop-color="#fff"/>
      <stop offset="0.198" stop-color="#d5f3ff"/>
      <stop offset="1" stop-color="#85bcf1"/>
    </radialGradient>
    <radialGradient id="radial-gradient-5" cx="747.23533" cy="-2042.26831" r="8.47651" xlink:href="#radial-gradient-3"/>
    <radialGradient id="radial-gradient-6" cx="746.98015" cy="-2057.92634" r="6.66123" xlink:href="#radial-gradient-3"/>
    <radialGradient id="Degradado_sin_nombre_34-2" data-name="Degradado sin nombre 34" cx="10.93463" cy="60.65516" r="4.87104" gradientTransform="matrix(0.90102, -0.43378, 1.26276, 2.62292, -75.51086, -93.69507)" xlink:href="#radial-gradient-3"/>
    <radialGradient id="radial-gradient-7" cx="554.90716" cy="323.27881" r="62.65461" xlink:href="#radial-gradient"/>
  </defs>
  <g class="cls-1">
    <g id="Слой_2" data-name="Слой 2">
      <g id="BACKGROUND">
        <path class="cls-2" d="M46.66615,87.6319l-1.441-.7789.44585-.2408a.6691.6691,0,0,0,.27121-.946.76818.76818,0,0,0-1.01025-.25374l-1.18593.64045-1.09442-.59143a2.21825,2.21825,0,0,0,0-1.14365L43.746,83.726l1.18553.64085a.77278.77278,0,0,0,.36877.09335.75015.75015,0,0,0,.64123-.3467.66925.66925,0,0,0-.27056-.946l-.44626-.24121,1.44141-.7789a.66932.66932,0,0,0,.27077-.946.76652.76652,0,0,0-1.01022-.25336l-1.44121.7789.00062-.482a.71736.71736,0,0,0-.73966-.69263h0a.71715.71715,0,0,0-.73965.69223l-.00043,1.2817-1.09546.59221a2.65375,2.65375,0,0,0-1.0565-.573V81.36305l1.18572-.64125a.66837.66837,0,0,0,.27035-.94559.76726.76726,0,0,0-1.01022-.25376l-.44585.24121v-1.5578a.74118.74118,0,0,0-1.47913,0v1.5578l-.44625-.24121a.76746.76746,0,0,0-1.01025.25376.66894.66894,0,0,0,.27057.94559l1.18593.64125V82.5455a2.65174,2.65174,0,0,0-1.05671.5734l-1.09546-.59261v-1.2817a.74118.74118,0,0,0-1.47913,0V81.727l-1.44078-.7789a.76672.76672,0,0,0-1.01024.25336.66879.66879,0,0,0,.27058.946l1.44079.7789-.44648.2408a.6697.6697,0,0,0-.27056.94638.75051.75051,0,0,0,.64144.3463.77243.77243,0,0,0,.36878-.093l1.18594-.64085,1.095.59183a2.21226,2.21226,0,0,0,0,1.14365l-1.095.59143-1.18532-.64085a.76709.76709,0,0,0-1.01022.25335.66841.66841,0,0,0,.27056.946l.44629.24119-1.44122.7793a.66863.66863,0,0,0-.27058.946.74893.74893,0,0,0,.641.34633.77308.77308,0,0,0,.36921-.093l1.44016-.7789v.482a.74126.74126,0,0,0,1.47932,0l.00043-1.2817,1.09546-.59259a2.65246,2.65246,0,0,0,1.0563.57337V88.4163l-1.18552.64085a.66846.66846,0,0,0-.27057.946.76673.76673,0,0,0,1.01025.25336l.44625-.24121v1.5582a.74116.74116,0,0,0,1.47913,0v-1.5578l.44563.24121a.773.773,0,0,0,.36921.093.7489.7489,0,0,0,.64082-.34631.66894.66894,0,0,0-.26994-.946l-1.18594-.64123V87.23342a2.64555,2.64555,0,0,0,1.05672-.573l1.09546.59183v1.28208a.74115.74115,0,0,0,1.47912,0v-.4824l1.44121.77931a.7726.7726,0,0,0,.36878.093.75054.75054,0,0,0,.64144-.34633A.66916.66916,0,0,0,46.66615,87.6319Zm-6.55121-1.68174a1.06279,1.06279,0,1,1,1.13254-1.06049A1.09932,1.09932,0,0,1,40.11494,85.95016Z"/>
      </g>
      <g id="OBJECTS">
        <g>
          <g>
            <path class="cls-3" d="M49.98238,27.002A27.002,27.002,0,1,0,76.98428,0,27.00109,27.00109,0,0,0,49.98238,27.002Z"/>
            <g>
              <path class="cls-4" d="M58.11708,31.7793c2.5372-.2285,4.3497-3.1074,4.0508-6.4297-.2968-3.3222-2.5957-5.83-5.1347-5.6015-2.53518.2285-4.3496,3.1074-4.0508,6.4277C53.28118,29.4981,55.58,32.0059,58.11708,31.7793Z"/>
              <path class="cls-4" d="M55.91788,34.1934c-1.5215.7988-1.9043,3.0605-.8593,5.0488,1.0449,1.9903,3.123,2.9551,4.6445,2.1582,1.5176-.7968,1.9023-3.0586.8574-5.0468C59.51748,34.3633,57.43748,33.3965,55.91788,34.1934Z"/>
              <path class="cls-4" d="M61.93938,31.795a2.17856,2.17856,0,0,0-.5078,2.9824,1.90356,1.90356,0,1,0,3.252-1.7071A2.18,2.18,0,0,0,61.93938,31.795Z"/>
              <path class="cls-4" d="M101.92378,27.9786c-.46678-3.3028-2.8887-5.6915-5.4121-5.336-2.5215.3555-4.1875,3.3223-3.72068,6.625.46478,3.3027,2.88858,5.6914,5.41008,5.334C100.72258,34.2461,102.39058,31.2793,101.92378,27.9786Z"/>
              <path class="cls-4" d="M98.58788,20.1192c1.4765-.875,1.746-3.1524.6015-5.086-1.1426-1.9336-3.2676-2.7929-4.7461-1.9199-1.4765.8711-1.7461,3.1504-.6015,5.084C94.98428,20.1328,97.10928,20.9922,98.58788,20.1192Z"/>
              <path class="cls-4" d="M93.04878,19.8145a2.17923,2.17923,0,0,0-2.8047-1.1348,2.18015,2.18015,0,0,0-.3555,3.0039,2.178,2.178,0,0,0,2.8047,1.1348A2.17629,2.17629,0,0,0,93.04878,19.8145Z"/>
            </g>
            <g>
              <path class="cls-5" d="M81.09958,24.2246c-6.875-5.582-9.5645-14.0742-5.9981-18.9746C78.66788.3477,87.13468.8965,94.01558,6.4727c6.875,5.5781,9.5566,14.0762,5.9941,18.9726C96.43938,30.3536,87.97458,29.8008,81.09958,24.2246Z"/>
              <path class="cls-6" d="M53.11908,32.9688c.9121-2.9863,5.541-1.7481,10.3477,2.7656,4.8046,4.5137,7.9609,10.5918,7.0527,13.5801-.9082,2.9844-5.5391,1.75-10.3477-2.7637C55.36908,42.0371,52.21288,35.9532,53.11908,32.9688Z"/>
            </g>
          </g>
          <g>
            <path class="cls-7" d="M72.99608,34.2754a27.00444,27.00444,0,0,0-53.8809,0A20.124,20.124,0,0,0,20.123,74.4981H71.98628a20.12405,20.12405,0,0,0,1.0098-40.2227Z"/>
            <path class="cls-8" d="M46.05658,36.7793c-7.5762-6.1465-10.5352-15.5039-6.6074-20.9043,3.9297-5.4004,13.25582-4.7929,20.8359,1.3477,7.5723,6.1445,10.5293,15.5059,6.6035,20.9043C62.957,43.5293,53.63078,42.9219,46.05658,36.7793Z"/>
            <path class="cls-9" d="M73.13858,54.9434c-5.955-4.8301-8.2793-12.1836-5.1933-16.4277,3.0879-4.2442,10.4179-3.7657,16.373,1.0586,5.9531,4.83,8.2754,12.1875,5.1914,16.4277C86.41988,60.2481,79.08978,59.7715,73.13858,54.9434Z"/>
            <path class="cls-10" d="M14.38858,55.6192c-4.3945-6.8535-9.49609-10.1524-11.40819-7.3731-1.9043,2.7754.1094,10.5879,4.5,17.4434,4.3965,6.8535,9.502,10.1543,11.4082,7.375C20.79288,70.2774,18.78118,62.4746,14.38858,55.6192Z"/>
          </g>
        </g>
        <path class="cls-11" d="M66.84563,87.63209l-1.441-.7789.44585-.2408a.6691.6691,0,0,0,.2712-.946.76817.76817,0,0,0-1.01024-.25374l-1.18594.64045-1.09441-.59143a2.21825,2.21825,0,0,0,0-1.14365l1.09441-.59183,1.18553.64085a.77283.77283,0,0,0,.36878.09336.75017.75017,0,0,0,.64123-.34671.66927.66927,0,0,0-.27056-.946l-.44626-.24121,1.4414-.7789a.66931.66931,0,0,0,.27078-.946.76652.76652,0,0,0-1.01022-.25336l-1.44121.7789.00062-.482a.71736.71736,0,0,0-.73966-.69263h0a.71716.71716,0,0,0-.73966.69223l-.00043,1.2817-1.09546.59221a2.65361,2.65361,0,0,0-1.0565-.573V81.36324l1.18572-.64125A.66835.66835,0,0,0,62.49,79.7764a.76726.76726,0,0,0-1.01022-.25376l-.44585.24121v-1.5578a.74118.74118,0,0,0-1.47912,0v1.5578l-.44626-.24121a.76745.76745,0,0,0-1.01024.25376.669.669,0,0,0,.27056.94559l1.18594.64125v1.18245a2.65174,2.65174,0,0,0-1.05671.5734l-1.09547-.59261v-1.2817a.74118.74118,0,0,0-1.47912,0v.48241l-1.44078-.7789a.76673.76673,0,0,0-1.01025.25336.6688.6688,0,0,0,.27059.946l1.44078.7789-.44647.2408a.66969.66969,0,0,0-.27056.94638.75049.75049,0,0,0,.64144.3463.77249.77249,0,0,0,.36878-.09295l1.18593-.64085,1.095.59183a2.212,2.212,0,0,0,0,1.14365l-1.095.59143-1.18531-.64085a.76708.76708,0,0,0-1.01022.25335.66839.66839,0,0,0,.27056.946l.44628.24119-1.44121.7793a.66864.66864,0,0,0-.27059.946.749.749,0,0,0,.641.34633.77314.77314,0,0,0,.36921-.093l1.44016-.7789v.482a.74125.74125,0,0,0,1.47931,0l.00043-1.2817,1.09547-.59259a2.6526,2.6526,0,0,0,1.0563.57338v1.18287l-1.18553.64085a.66846.66846,0,0,0-.27056.946.76671.76671,0,0,0,1.01024.25336l.44626-.24121v1.5582a.74115.74115,0,0,0,1.47912,0v-1.5578l.44564.24121a.773.773,0,0,0,.3692.093.7489.7489,0,0,0,.64083-.34631.66893.66893,0,0,0-.26995-.946l-1.18593-.64123V87.23362a2.64559,2.64559,0,0,0,1.05671-.573l1.09546.59183v1.28208a.74116.74116,0,0,0,1.47913,0v-.4824l1.44121.77931a.7726.7726,0,0,0,.36878.093.75054.75054,0,0,0,.64144-.34633A.66915.66915,0,0,0,66.84563,87.63209Zm-6.5512-1.68174A1.06279,1.06279,0,1,1,61.427,84.88987,1.09932,1.09932,0,0,1,60.29443,85.95035Z"/>
      </g>
    </g>
  </g>
</svg>
