<svg xmlns="http://www.w3.org/2000/svg" xmlns:xlink="http://www.w3.org/1999/xlink" width="84.10841" height="88.02881" viewBox="0 0 84.10841 88.02881">
  <defs>
    <style>
      .cls-1 {
        isolation: isolate;
      }

      .cls-2 {
        fill: url(#radial-gradient);
      }

      .cls-3 {
        fill: url(#linear-gradient);
      }

      .cls-4 {
        fill: url(#radial-gradient-2);
      }

      .cls-5, .cls-6, .cls-7 {
        mix-blend-mode: overlay;
      }

      .cls-5 {
        opacity: 0.6;
        fill: url(#radial-gradient-3);
      }

      .cls-6 {
        opacity: 0.4;
        fill: url(#radial-gradient-4);
      }

      .cls-7 {
        opacity: 0.2;
        fill: url(#Degradado_sin_nombre_34);
      }
    </style>
    <radialGradient id="radial-gradient" cx="392.60482" cy="746.06115" r="62.65461" gradientTransform="translate(-102.64962 -164.54155) scale(0.34857 0.31164)" gradientUnits="userSpaceOnUse">
      <stop offset="0" stop-color="#28cbe9"/>
      <stop offset="1" stop-color="#0a4fbb"/>
    </radialGradient>
    <linearGradient id="linear-gradient" x1="46.51032" y1="87.32896" x2="57.03353" y2="54.19211" gradientUnits="userSpaceOnUse">
      <stop offset="0.15591" stop-color="#ffe036"/>
      <stop offset="1" stop-color="#fa761c"/>
    </linearGradient>
    <radialGradient id="radial-gradient-2" cx="52.65994" cy="12.58062" r="64.15476" gradientTransform="translate(105.31988 21.77061) rotate(180) scale(1 0.73049)" gradientUnits="userSpaceOnUse">
      <stop offset="0" stop-color="#b6ccd2"/>
      <stop offset="0.198" stop-color="#97b6be"/>
      <stop offset="1" stop-color="#5d87b4"/>
    </radialGradient>
    <radialGradient id="radial-gradient-3" cx="806.01593" cy="-2201.71742" r="7.74025" gradientTransform="matrix(-0.8392, 1.1536, -1.6186, -1.3126, -2838.74045, -3803.47519)" gradientUnits="userSpaceOnUse">
      <stop offset="0" stop-color="#fff"/>
      <stop offset="0.10256" stop-color="#fff" stop-opacity="0.84849"/>
      <stop offset="0.29029" stop-color="#fff" stop-opacity="0.59415"/>
      <stop offset="0.4694" stop-color="#fff" stop-opacity="0.38204"/>
      <stop offset="0.63471" stop-color="#fff" stop-opacity="0.21674"/>
      <stop offset="0.78337" stop-color="#fff" stop-opacity="0.09804"/>
      <stop offset="0.91014" stop-color="#fff" stop-opacity="0.02577"/>
      <stop offset="1" stop-color="#fff" stop-opacity="0"/>
    </radialGradient>
    <radialGradient id="radial-gradient-4" cx="805.7827" cy="-2216.01524" r="6.08269" xlink:href="#radial-gradient-3"/>
    <radialGradient id="Degradado_sin_nombre_34" data-name="Degradado sin nombre 34" cx="9.9845" cy="47.05067" r="4.44792" gradientTransform="matrix(0.90102, -0.43378, 1.26276, 2.62292, -58.42564, -72.02826)" xlink:href="#radial-gradient-3"/>
  </defs>
  <g class="cls-1">
    <g id="Слой_2" data-name="Слой 2">
      <g id="BACKGROUND">
        <path class="cls-2" d="M37.50372,76.78351l-2.34227-1.20882.72471-.37372a1.01527,1.01527,0,0,0,.44083-1.46813,1.28373,1.28373,0,0,0-1.6421-.39379l-1.92768.99394-1.77891-.91787a3.2923,3.2923,0,0,0,0-1.77488l1.77891-.91849,1.927.99456a1.30356,1.30356,0,0,0,.59943.14488,1.23493,1.23493,0,0,0,1.04228-.53807,1.01547,1.01547,0,0,0-.43978-1.46811l-.72537-.37434,2.34293-1.20882a1.01555,1.01555,0,0,0,.44013-1.4681,1.28089,1.28089,0,0,0-1.64206-.39319l-2.34262,1.20881.001-.74805a1.14406,1.14406,0,0,0-1.20227-1.07494h0a1.14377,1.14377,0,0,0-1.20228,1.07431l-.0007,1.98913-1.78061.91909a4.37864,4.37864,0,0,0-1.71729-.88926V67.05453l1.92733-.99519a1.01413,1.01413,0,0,0,.43944-1.46751,1.28216,1.28216,0,0,0-1.64207-.39382l-.7247.37434V62.15471a1.20972,1.20972,0,0,0-2.40424,0v2.41764l-.72537-.37434a1.28248,1.28248,0,0,0-1.6421.39382,1.015,1.015,0,0,0,.43979,1.46751l1.92768.99519v1.83512a4.37527,4.37527,0,0,0-1.71763.88988l-1.78062-.91971V66.87069a1.20972,1.20972,0,0,0-2.40424,0v.74868l-2.34192-1.20881a1.28123,1.28123,0,0,0-1.6421.39319,1.01478,1.01478,0,0,0,.43982,1.4681L18.548,69.48067l-.72571.37372a1.0161,1.0161,0,0,0-.43979,1.46873,1.23557,1.23557,0,0,0,1.04263.53745,1.30308,1.30308,0,0,0,.59943-.14426l1.92768-.99456,1.77992.91849a3.28322,3.28322,0,0,0,0,1.77488l-1.77992.91787-1.92667-.99456a1.28186,1.28186,0,0,0-1.64206.39319,1.01421,1.01421,0,0,0,.43978,1.46814l.72541.37431L16.2061,76.78351a1.01455,1.01455,0,0,0-.43982,1.4681,1.233,1.233,0,0,0,1.042.53749,1.30419,1.30419,0,0,0,.60013-.14426l2.3409-1.20882v.748a1.20982,1.20982,0,0,0,2.40456,0l.0007-1.98914,1.78062-.91967a4.37663,4.37663,0,0,0,1.717.88985v1.83578l-1.927.99456a1.01428,1.01428,0,0,0-.43979,1.4681,1.28124,1.28124,0,0,0,1.6421.3932l.72537-.37434v2.41826a1.20965,1.20965,0,0,0,2.40424,0V80.483l.72436.37434a1.30406,1.30406,0,0,0,.60012.14426,1.23287,1.23287,0,0,0,1.04163-.53745,1.015,1.015,0,0,0-.43878-1.46814l-1.92768-.99515V76.16509a4.36539,4.36539,0,0,0,1.71764-.88926l1.78061.91849v1.98973a1.20964,1.20964,0,0,0,2.40424,0V77.4354l2.34262,1.20944a1.30334,1.30334,0,0,0,.59943.14426,1.23564,1.23564,0,0,0,1.04263-.53749A1.01532,1.01532,0,0,0,37.50372,76.78351Zm-10.64865-2.61A1.65618,1.65618,0,1,1,28.696,72.5277,1.75321,1.75321,0,0,1,26.85507,74.17353Z"/>
      </g>
      <g id="OBJECTS">
        <path class="cls-3" d="M58.6478,66.865H54.66538l6.56542-12.7607a7.65776,7.65776,0,0,0,.65038-1.8262,7.33106,7.33106,0,1,0-14.3408-3.0527l-4.3887,20.6152-.1357.6328a4.51624,4.51624,0,0,0-.0909.9024,4.44721,4.44721,0,0,0,4.4444,4.4463H52.2288l-2.622,10.9345a1.03153,1.03153,0,0,0,1.83788.8467l10.4404-14.3867A3.99965,3.99965,0,0,0,58.6478,66.865Z"/>
        <g>
          <path class="cls-4" d="M66.6552,22.9619a24.659,24.659,0,0,0-49.2011,0,18.37633,18.37633,0,0,0,.9209,36.7295H65.73341a18.37635,18.37635,0,0,0,.92179-36.7295Z"/>
          <path class="cls-5" d="M42.0556,25.249c-6.9179-5.6133-9.6201-14.1572-6.03319-19.0889C39.6103,1.2285,48.1269,1.7832,55.0478,7.3906c6.9151,5.6113,9.6152,14.1592,6.0303,19.0889C57.4882,31.4121,48.9716,30.8574,42.0556,25.249Z"/>
          <path class="cls-6" d="M66.7851,41.8349c-5.4375-4.4101-7.5596-11.125-4.7422-15.0009,2.8203-3.875,9.5137-3.4385,14.9512.9668,5.4356,4.4101,7.5566,11.1289,4.7402,15.0009C78.913,46.6787,72.2197,46.2441,66.7851,41.8349Z"/>
          <path class="cls-7" d="M13.1386,42.4521c-4.0127-6.2578-8.6718-9.2705-10.4179-6.7324-1.73829,2.5342.1006,9.668,4.1093,15.9277,4.0147,6.2588,8.6768,9.2725,10.418,6.7344C18.9863,55.8369,17.14941,48.7119,13.1386,42.4521Z"/>
        </g>
      </g>
    </g>
  </g>
</svg>
