<svg xmlns="http://www.w3.org/2000/svg" xmlns:xlink="http://www.w3.org/1999/xlink" width="84.10841" height="86.79641" viewBox="0 0 84.10841 86.79641">
  <defs>
    <style>
      .cls-1 {
        isolation: isolate;
      }

      .cls-2 {
        fill: url(#linear-gradient);
      }

      .cls-3 {
        fill: url(#radial-gradient);
      }

      .cls-4, .cls-5, .cls-6 {
        mix-blend-mode: overlay;
      }

      .cls-4 {
        opacity: 0.6;
        fill: url(#radial-gradient-2);
      }

      .cls-5 {
        opacity: 0.4;
        fill: url(#radial-gradient-3);
      }

      .cls-6 {
        opacity: 0.2;
        fill: url(#Degradado_sin_nombre_34);
      }
    </style>
    <linearGradient id="linear-gradient" x1="37.52913" y1="86.09656" x2="48.05235" y2="52.95971" gradientUnits="userSpaceOnUse">
      <stop offset="0.15591" stop-color="#ffe036"/>
      <stop offset="1" stop-color="#fa761c"/>
    </linearGradient>
    <radialGradient id="radial-gradient" cx="52.65994" cy="12.58062" r="64.15476" gradientTransform="translate(105.31988 21.77061) rotate(180) scale(1 0.73049)" gradientUnits="userSpaceOnUse">
      <stop offset="0" stop-color="#b6ccd2"/>
      <stop offset="0.198" stop-color="#97b6be"/>
      <stop offset="1" stop-color="#5d87b4"/>
    </radialGradient>
    <radialGradient id="radial-gradient-2" cx="806.01593" cy="-2201.71742" r="7.74025" gradientTransform="matrix(-0.8392, 1.1536, -1.6186, -1.3126, -2838.74045, -3803.47519)" gradientUnits="userSpaceOnUse">
      <stop offset="0" stop-color="#fff"/>
      <stop offset="0.10256" stop-color="#fff" stop-opacity="0.84849"/>
      <stop offset="0.29029" stop-color="#fff" stop-opacity="0.59415"/>
      <stop offset="0.4694" stop-color="#fff" stop-opacity="0.38204"/>
      <stop offset="0.63471" stop-color="#fff" stop-opacity="0.21674"/>
      <stop offset="0.78337" stop-color="#fff" stop-opacity="0.09804"/>
      <stop offset="0.91014" stop-color="#fff" stop-opacity="0.02577"/>
      <stop offset="1" stop-color="#fff" stop-opacity="0"/>
    </radialGradient>
    <radialGradient id="radial-gradient-3" cx="805.7827" cy="-2216.01524" r="6.08269" xlink:href="#radial-gradient-2"/>
    <radialGradient id="Degradado_sin_nombre_34" data-name="Degradado sin nombre 34" cx="9.9845" cy="47.05067" r="4.44792" gradientTransform="matrix(0.90102, -0.43378, 1.26276, 2.62292, -58.42564, -72.02826)" xlink:href="#radial-gradient-2"/>
  </defs>
  <g class="cls-1">
    <g id="Слой_2" data-name="Слой 2">
      <g id="OBJECTS">
        <path class="cls-2" d="M49.66661,65.63258H45.6842l6.56541-12.7607A7.65734,7.65734,0,0,0,52.9,51.04568,7.33106,7.33106,0,1,0,38.5592,47.993l-4.3887,20.6152-.1357.6328a4.51624,4.51624,0,0,0-.0909.9024,4.44721,4.44721,0,0,0,4.4444,4.4463h4.85931l-2.622,10.9345a1.03154,1.03154,0,0,0,1.83789.8467l10.4404-14.3867a3.99965,3.99965,0,0,0-3.23729-6.3516Z"/>
        <g>
          <path class="cls-3" d="M66.6552,22.9619a24.659,24.659,0,0,0-49.2011,0,18.37633,18.37633,0,0,0,.9209,36.7295H65.73341a18.37635,18.37635,0,0,0,.92179-36.7295Z"/>
          <path class="cls-4" d="M42.0556,25.249c-6.9179-5.6133-9.6201-14.1572-6.03319-19.0889C39.6103,1.2285,48.1269,1.7832,55.0478,7.3906c6.9151,5.6113,9.6152,14.1592,6.0303,19.0889C57.4882,31.4121,48.9716,30.8574,42.0556,25.249Z"/>
          <path class="cls-5" d="M66.7851,41.8349c-5.4375-4.4101-7.5596-11.125-4.7422-15.0009,2.8203-3.875,9.5137-3.4385,14.9512.9668,5.4356,4.4101,7.5566,11.1289,4.7402,15.0009C78.913,46.6787,72.2197,46.2441,66.7851,41.8349Z"/>
          <path class="cls-6" d="M13.1386,42.4521c-4.0127-6.2578-8.6718-9.2705-10.4179-6.7324-1.73829,2.5342.1006,9.668,4.1093,15.9277,4.0147,6.2588,8.6768,9.2725,10.418,6.7344C18.9863,55.8369,17.14941,48.7119,13.1386,42.4521Z"/>
        </g>
      </g>
    </g>
  </g>
</svg>
