<svg xmlns="http://www.w3.org/2000/svg" xmlns:xlink="http://www.w3.org/1999/xlink" width="121.3554" height="112.6112" viewBox="0 0 121.3554 112.6112">
  <defs>
    <style>
      .cls-1 {
        isolation: isolate;
      }

      .cls-2 {
        fill: url(#radial-gradient);
      }

      .cls-3 {
        fill: url(#radial-gradient-2);
      }

      .cls-4 {
        fill: url(#radial-gradient-3);
      }

      .cls-5 {
        fill: #acadb2;
      }

      .cls-10, .cls-11, .cls-13, .cls-14, .cls-15, .cls-17, .cls-18, .cls-19, .cls-6, .cls-7, .cls-9 {
        mix-blend-mode: overlay;
      }

      .cls-6 {
        fill: url(#radial-gradient-4);
      }

      .cls-10, .cls-14, .cls-18, .cls-7 {
        opacity: 0.4;
      }

      .cls-7 {
        fill: url(#Degradado_sin_nombre_34);
      }

      .cls-8 {
        fill: url(#radial-gradient-5);
      }

      .cls-9 {
        fill: url(#radial-gradient-6);
      }

      .cls-10 {
        fill: url(#radial-gradient-7);
      }

      .cls-11, .cls-15, .cls-19 {
        opacity: 0.2;
      }

      .cls-11 {
        fill: url(#Degradado_sin_nombre_34-2);
      }

      .cls-12 {
        fill: url(#radial-gradient-8);
      }

      .cls-13 {
        fill: url(#radial-gradient-9);
      }

      .cls-14 {
        fill: url(#radial-gradient-10);
      }

      .cls-15 {
        fill: url(#Degradado_sin_nombre_34-3);
      }

      .cls-16 {
        fill: url(#radial-gradient-11);
      }

      .cls-17 {
        fill: url(#radial-gradient-12);
      }

      .cls-18 {
        fill: url(#radial-gradient-13);
      }

      .cls-19 {
        fill: url(#Degradado_sin_nombre_34-4);
      }

      .cls-20 {
        fill: url(#radial-gradient-14);
      }
    </style>
    <radialGradient id="radial-gradient" cx="-139.58319" cy="-17.69987" r="62.65461" gradientTransform="translate(111.4362 102.93158) scale(0.31223 0.27638)" gradientUnits="userSpaceOnUse">
      <stop offset="0" stop-color="#28cbe9"/>
      <stop offset="1" stop-color="#0a4fbb"/>
    </radialGradient>
    <radialGradient id="radial-gradient-2" cx="-55.18302" cy="-19.49962" r="62.65461" xlink:href="#radial-gradient"/>
    <radialGradient id="radial-gradient-3" cx="-112.52351" cy="10.07181" r="51.25809" gradientTransform="matrix(-1, 0, 0, 1, -45.63768, 0)" gradientUnits="userSpaceOnUse">
      <stop offset="0" stop-color="#f8f8f8"/>
      <stop offset="0.15591" stop-color="#ede9f1"/>
      <stop offset="1" stop-color="#9b9da2"/>
    </radialGradient>
    <radialGradient id="radial-gradient-4" cx="1054.71406" cy="-1759.78337" r="7.69421" gradientTransform="matrix(-0.8392, 1.1536, -1.6186, -1.3126, -1891.98736, -3511.26254)" gradientUnits="userSpaceOnUse">
      <stop offset="0" stop-color="#fff"/>
      <stop offset="0.10256" stop-color="#fff" stop-opacity="0.84849"/>
      <stop offset="0.29029" stop-color="#fff" stop-opacity="0.59415"/>
      <stop offset="0.4694" stop-color="#fff" stop-opacity="0.38204"/>
      <stop offset="0.63471" stop-color="#fff" stop-opacity="0.21674"/>
      <stop offset="0.78337" stop-color="#fff" stop-opacity="0.09804"/>
      <stop offset="0.91014" stop-color="#fff" stop-opacity="0.02577"/>
      <stop offset="1" stop-color="#fff" stop-opacity="0"/>
    </radialGradient>
    <radialGradient id="Degradado_sin_nombre_34" data-name="Degradado sin nombre 34" cx="-2947.01584" cy="3113.1203" r="7.425" gradientTransform="matrix(-1.1717, -1.1007, 0.222, -0.7283, -4098.58602, -935.35244)" xlink:href="#radial-gradient-4"/>
    <radialGradient id="radial-gradient-5" cx="36.71371" cy="29.77527" r="44.72725" gradientTransform="translate(73.42741 51.52574) rotate(180) scale(1 0.73049)" gradientUnits="userSpaceOnUse">
      <stop offset="0" stop-color="#fff"/>
      <stop offset="0.198" stop-color="#b4ecff"/>
      <stop offset="1" stop-color="#69acf1"/>
    </radialGradient>
    <radialGradient id="radial-gradient-6" cx="1080.55147" cy="-1750.05301" r="5.39616" xlink:href="#radial-gradient-4"/>
    <radialGradient id="radial-gradient-7" cx="1080.38991" cy="-1760.02134" r="4.24106" xlink:href="#radial-gradient-4"/>
    <radialGradient id="Degradado_sin_nombre_34-2" data-name="Degradado sin nombre 34" cx="6.96129" cy="53.80712" r="3.10111" gradientTransform="matrix(0.90102, -0.43378, 1.26276, 2.62292, -67.25669, -84.30483)" xlink:href="#radial-gradient-4"/>
    <radialGradient id="radial-gradient-8" cx="99.43019" cy="29.77527" r="44.72713" gradientTransform="translate(198.86038 51.52574) rotate(180) scale(1 0.73049)" xlink:href="#radial-gradient-5"/>
    <radialGradient id="radial-gradient-9" cx="1052.82205" cy="-1774.42347" r="5.39606" xlink:href="#radial-gradient-4"/>
    <radialGradient id="radial-gradient-10" cx="1052.66038" cy="-1784.39189" r="4.24105" xlink:href="#radial-gradient-4"/>
    <radialGradient id="Degradado_sin_nombre_34-3" data-name="Degradado sin nombre 34" cx="69.67783" cy="53.80712" r="3.10111" gradientTransform="matrix(0.90102, -0.43378, 1.26276, 2.62292, -61.04888, -57.09954)" xlink:href="#radial-gradient-4"/>
    <radialGradient id="radial-gradient-11" cx="69.6079" cy="47.53277" r="54.0182" gradientTransform="translate(139.21581 82.25489) rotate(180) scale(1 0.73049)" gradientUnits="userSpaceOnUse">
      <stop offset="0" stop-color="#fff"/>
      <stop offset="0.198" stop-color="#d5f3ff"/>
      <stop offset="1" stop-color="#85bcf1"/>
    </radialGradient>
    <radialGradient id="radial-gradient-12" cx="1076.24838" cy="-1767.77668" r="6.51702" xlink:href="#radial-gradient-4"/>
    <radialGradient id="radial-gradient-13" cx="1076.05185" cy="-1779.81605" r="5.12165" xlink:href="#radial-gradient-4"/>
    <radialGradient id="Degradado_sin_nombre_34-4" data-name="Degradado sin nombre 34" cx="33.67525" cy="76.55752" r="3.74527" gradientTransform="matrix(0.90102, -0.43378, 1.26276, 2.62292, -93.34089, -109.63882)" xlink:href="#radial-gradient-4"/>
    <radialGradient id="radial-gradient-14" cx="-227.51262" cy="-16.36672" r="62.65461" xlink:href="#radial-gradient"/>
  </defs>
  <g class="cls-1">
    <g id="Слой_2" data-name="Слой 2">
      <g id="BACKGROUND">
        <path class="cls-2" d="M70.81367,105.86439l-2.09811-1.07206.64916-.33143a.8962.8962,0,0,0,.39488-1.302,1.157,1.157,0,0,0-1.47092-.34924l-1.72674.88149-1.59348-.814a2.89185,2.89185,0,0,0,0-1.57408l1.59348-.81458,1.72615.88205a1.17717,1.17717,0,0,0,.53694.12849,1.10955,1.10955,0,0,0,.93363-.4772.89637.89637,0,0,0-.39394-1.302l-.64975-.332,2.0987-1.07205a.89646.89646,0,0,0,.39425-1.302A1.15443,1.15443,0,0,0,69.737,96.665l-2.09842,1.07206.0009-.66343a1.0209,1.0209,0,0,0-1.07695-.95332h0a1.02064,1.02064,0,0,0-1.077.95277L65.485,98.83718l-1.595.8151a3.93594,3.93594,0,0,0-1.53828-.78865v-1.6275l1.72643-.8826a.89519.89519,0,0,0,.39363-1.30148,1.15555,1.15555,0,0,0-1.47089-.34926l-.64917.332V92.89067a1.08488,1.08488,0,0,0-2.15362,0v2.14411l-.64975-.332a1.15586,1.15586,0,0,0-1.47093.34926.896.896,0,0,0,.394,1.30148l1.72673.8826v1.6275a3.933,3.933,0,0,0-1.53858.7892l-1.595-.81565V97.07309a1.08488,1.08488,0,0,0-2.15362,0v.664L52.81307,96.665a1.15473,1.15473,0,0,0-1.47092.34871.89577.89577,0,0,0,.394,1.302l2.0978,1.07205-.65007.33144a.89694.89694,0,0,0-.39395,1.30256,1.11012,1.11012,0,0,0,.93395.47664,1.17677,1.17677,0,0,0,.537-.12793l1.72674-.88205,1.59438.81458a2.884,2.884,0,0,0,0,1.57408l-1.59438.814-1.72583-.882a1.15532,1.15532,0,0,0-1.4709.34871.89527.89527,0,0,0,.39394,1.302l.64979.332-2.09842,1.07261a.89556.89556,0,0,0-.394,1.302,1.10774,1.10774,0,0,0,.93335.47668,1.17769,1.17769,0,0,0,.53757-.12794L54.91,106.44308v.66339a1.085,1.085,0,0,0,2.1539,0l.00063-1.76408,1.595-.81563a3.93427,3.93427,0,0,0,1.538.78918V106.944l-1.72614.882a.89534.89534,0,0,0-.394,1.302,1.15474,1.15474,0,0,0,1.47093.34871l.64975-.332v2.14466a1.08481,1.08481,0,0,0,2.15362,0v-2.14411l.64885.332a1.17778,1.17778,0,0,0,.53757.12793,1.10769,1.10769,0,0,0,.93305-.47664.89589.89589,0,0,0-.393-1.302l-1.72674-.88257v-1.62808a3.924,3.924,0,0,0,1.53859-.78866l1.595.81458v1.76461a1.08481,1.08481,0,0,0,2.15362,0v-.66395l2.09842,1.07261a1.17694,1.17694,0,0,0,.53694.12794,1.11018,1.11018,0,0,0,.93395-.47668A.89625.89625,0,0,0,70.81367,105.86439ZM61.275,103.5497a1.47051,1.47051,0,1,1,1.649-1.45963A1.56446,1.56446,0,0,1,61.275,103.5497Z"/>
        <path class="cls-3" d="M97.16612,105.367l-2.09811-1.072.64916-.33144a.89619.89619,0,0,0,.39488-1.302,1.157,1.157,0,0,0-1.47092-.34924l-1.72674.88149-1.59348-.814a2.89185,2.89185,0,0,0,0-1.57408l1.59348-.81457,1.72615.882a1.17723,1.17723,0,0,0,.53694.12849,1.10956,1.10956,0,0,0,.93364-.4772.89637.89637,0,0,0-.394-1.302l-.64975-.332,2.0987-1.07206a.89645.89645,0,0,0,.39426-1.302,1.15443,1.15443,0,0,0-1.4709-.34871l-2.09842,1.07205.00091-.66342A1.0209,1.0209,0,0,0,92.915,95.6229h0a1.02064,1.02064,0,0,0-1.077.95277l-.00062,1.76409-1.595.8151a3.93607,3.93607,0,0,0-1.53828-.78865v-1.6275l1.72642-.8826a.89518.89518,0,0,0,.39363-1.30147,1.15555,1.15555,0,0,0-1.47089-.34927l-.64916.332V92.39325a1.08488,1.08488,0,0,0-2.15362,0v2.14411l-.64976-.332a1.15587,1.15587,0,0,0-1.47093.34927.896.896,0,0,0,.394,1.30147l1.72674.8826v1.6275a3.933,3.933,0,0,0-1.53859.78921l-1.595-.81566V96.57567a1.08488,1.08488,0,0,0-2.15362,0v.664L79.16553,96.1676a1.15474,1.15474,0,0,0-1.47093.34871.89577.89577,0,0,0,.394,1.302l2.0978,1.07206-.65006.33143a.89693.89693,0,0,0-.394,1.30256,1.11012,1.11012,0,0,0,.934.47665,1.17677,1.17677,0,0,0,.53694-.12794L82.34,99.991l1.59438.81457a2.884,2.884,0,0,0,0,1.57408l-1.59438.814-1.72583-.882a1.15532,1.15532,0,0,0-1.4709.34871.89526.89526,0,0,0,.394,1.302l.64979.332L78.08857,105.367a.89558.89558,0,0,0-.394,1.302,1.10776,1.10776,0,0,0,.93336.47667,1.17775,1.17775,0,0,0,.53757-.12794l2.09688-1.072v.6634a1.085,1.085,0,0,0,2.15391,0l.00062-1.76409,1.595-.81563a3.93421,3.93421,0,0,0,1.538.78918v1.62808l-1.72614.882a.89535.89535,0,0,0-.394,1.302,1.15475,1.15475,0,0,0,1.47093.34871l.64976-.332V110.792a1.08481,1.08481,0,0,0,2.15362,0v-2.14411l.64885.332a1.17773,1.17773,0,0,0,.53757.12794,1.10769,1.10769,0,0,0,.933-.47665.8959.8959,0,0,0-.393-1.302l-1.72673-.88257v-1.62808a3.92416,3.92416,0,0,0,1.53859-.78865l1.595.81458v1.76461a1.08481,1.08481,0,0,0,2.15362,0v-.66395l2.09842,1.0726a1.177,1.177,0,0,0,.537.12794,1.1102,1.1102,0,0,0,.93395-.47667A.89626.89626,0,0,0,97.16612,105.367Zm-9.53863-2.31469a1.47051,1.47051,0,1,1,1.649-1.45962A1.56446,1.56446,0,0,1,87.62749,103.05228Z"/>
      </g>
      <g id="OBJECTS">
        <g>
          <path class="cls-4" d="M33.70848,27.002A27.002,27.002,0,1,0,60.71038,0,27.00109,27.00109,0,0,0,33.70848,27.002Z"/>
          <g>
            <path class="cls-5" d="M41.84318,31.7793c2.5372-.2285,4.3497-3.1074,4.0508-6.4297-.2968-3.3222-2.5957-5.83-5.1347-5.6015-2.53519.2285-4.3496,3.1074-4.0508,6.4277C37.00728,29.4981,39.30609,32.0059,41.84318,31.7793Z"/>
            <path class="cls-5" d="M39.644,34.1934c-1.5215.7988-1.9043,3.0605-.8593,5.0488,1.0449,1.9903,3.123,2.9551,4.6445,2.1582,1.5176-.7968,1.9023-3.0586.8574-5.0468C43.24358,34.3633,41.16358,33.3965,39.644,34.1934Z"/>
            <path class="cls-5" d="M45.66548,31.795a2.17855,2.17855,0,0,0-.5078,2.9824,2.17987,2.17987,0,0,0,2.7441,1.2754,2.18192,2.18192,0,0,0,.5079-2.9825A2.18,2.18,0,0,0,45.66548,31.795Z"/>
            <path class="cls-5" d="M85.64988,27.9786c-.46679-3.3028-2.8887-5.6915-5.4121-5.336-2.5215.3555-4.1875,3.3223-3.72069,6.625.46479,3.3027,2.88859,5.6914,5.41009,5.334C84.44868,34.2461,86.11668,31.2793,85.64988,27.9786Z"/>
            <path class="cls-5" d="M82.314,20.1192c1.4765-.875,1.746-3.1524.6015-5.086-1.1426-1.9336-3.2676-2.7929-4.7461-1.9199-1.4765.8711-1.7461,3.1504-.6015,5.084C78.71038,20.1328,80.83538,20.9922,82.314,20.1192Z"/>
            <path class="cls-5" d="M76.77488,19.8145a2.17923,2.17923,0,0,0-2.8047-1.1348,2.18014,2.18014,0,0,0-.3555,3.0039,2.178,2.178,0,0,0,2.8047,1.1348A2.17629,2.17629,0,0,0,76.77488,19.8145Z"/>
          </g>
          <g>
            <path class="cls-6" d="M64.82568,24.2246c-6.875-5.582-9.5645-14.0742-5.9981-18.9746C62.394.3477,70.86078.8965,77.74168,6.4727c6.875,5.5781,9.5566,14.0762,5.9941,18.9726C80.16548,30.3536,71.70068,29.8008,64.82568,24.2246Z"/>
            <path class="cls-7" d="M36.84518,32.9688c.9121-2.9863,5.541-1.7481,10.3477,2.7656,4.8046,4.5137,7.9609,10.5918,7.0527,13.5801-.9082,2.9844-5.5391,1.75-10.3477-2.7637C39.09518,42.0371,35.939,35.9532,36.84518,32.9688Z"/>
          </g>
        </g>
        <g>
          <g>
            <g>
              <path class="cls-8" d="M46.4702,37.01419a17.1913,17.1913,0,0,0-34.3013,0,12.8108,12.8108,0,0,0,.6421,25.6055H45.8281a12.8108,12.8108,0,0,0,.6421-25.6055Z"/>
              <path class="cls-9" d="M29.3213,38.606c-4.8228-3.9121-6.7071-9.8692-4.2071-13.3067,2.50251-3.4375,8.43951-3.0507,13.2642.8575,4.82231,3.9121,6.7036,9.873,4.2051,13.3086C40.081,42.90479,34.1426,42.51809,29.3213,38.606Z"/>
              <path class="cls-10" d="M46.5615,50.17239c-3.79-3.0762-5.271-7.7578-3.3066-10.459,1.9663-2.7031,6.6333-2.3984,10.42481.6738,3.79,3.0743,5.26849,7.7578,3.30459,10.459C55.0171,53.54929,50.3506,53.24469,46.5615,50.17239Z"/>
              <path class="cls-11" d="M9.1596,50.60009c-2.7968-4.3613-6.04589-6.4629-7.2622-4.6933-1.2124,1.7675.07031,6.7422,2.8648,11.1054,2.7988,4.3633,6.0488,6.4649,7.2622,4.6953C13.2378,59.93409,11.9565,54.96539,9.1596,50.60009Z"/>
            </g>
            <g>
              <path class="cls-12" d="M109.1865,37.01419a17.191,17.191,0,0,0-34.30079,0,12.8108,12.8108,0,0,0,.64159,25.6055h33.0176a12.8108,12.8108,0,0,0,.6416-25.6055Z"/>
              <path class="cls-13" d="M92.0381,38.606c-4.8233-3.9121-6.7071-9.8692-4.2071-13.3067,2.502-3.4375,8.4395-3.0507,13.26371.8575,4.82229,3.9121,6.70409,9.873,4.20509,13.3086C102.7978,42.90479,96.8593,42.51809,92.0381,38.606Z"/>
              <path class="cls-14" d="M109.2783,50.17239c-3.79-3.0762-5.2715-7.7578-3.30659-10.459,1.96579-2.7031,6.63279-2.3984,10.42479.6738,3.79,3.0743,5.2685,7.7578,3.3046,10.459C117.7334,53.54929,113.0674,53.24469,109.2783,50.17239Z"/>
              <path class="cls-15" d="M71.876,50.60009c-2.7969-4.3613-6.0459-6.4629-7.2618-4.6933-1.2129,1.7675.0703,6.7422,2.8643,11.1054,2.7988,4.3633,6.0488,6.4649,7.2627,4.6953C75.9541,59.93409,74.6728,54.96539,71.876,50.60009Z"/>
            </g>
          </g>
          <g>
            <path class="cls-16" d="M81.3926,56.27589a20.763,20.763,0,0,0-41.4278,0,15.4716,15.4716,0,0,0,.7754,30.9238h39.876a15.47165,15.47165,0,0,0,.7764-30.9238Z"/>
            <path class="cls-17" d="M60.67971,58.19969c-5.82471-4.7265-8.09961-11.9218-5.08011-16.0722,3.0229-4.1524,10.1933-3.6856,16.0195,1.0371,5.8242,4.7246,8.0957,11.9219,5.0781,16.0703C73.6748,63.38919,66.5039,62.92239,60.67971,58.19969Z"/>
            <path class="cls-18" d="M81.5029,72.16649c-4.5791-3.7148-6.36719-9.3691-3.99319-12.6308,2.37409-3.2637,8.00979-2.8965,12.58989.8144,4.57711,3.7129,6.3613,9.3692,3.9912,12.6289C91.7138,76.24469,86.0781,75.87749,81.5029,72.16649Z"/>
            <path class="cls-19" d="M36.3301,72.68409c-3.3775-5.2676-7.3013-7.8047-8.7706-5.668-1.4643,2.1348.0845,8.1407,3.4595,13.4122,3.3804,5.2695,7.3062,7.8085,8.771,5.6699C41.2558,83.95559,39.708,77.95749,36.3301,72.68409Z"/>
          </g>
        </g>
        <path class="cls-20" d="M43.35926,106.23285l-2.0981-1.07206.64916-.33143a.89621.89621,0,0,0,.39488-1.302,1.157,1.157,0,0,0-1.47093-.34923l-1.72674.88149-1.59347-.814a2.89207,2.89207,0,0,0,0-1.57407l1.59347-.81458,1.72615.882a1.1771,1.1771,0,0,0,.53694.12849,1.10953,1.10953,0,0,0,.93364-.4772.89637.89637,0,0,0-.39394-1.302l-.64976-.332,2.0987-1.07205a.89646.89646,0,0,0,.39426-1.302,1.15444,1.15444,0,0,0-1.4709-.34871L40.1842,98.10553l.00091-.66343a1.0209,1.0209,0,0,0-1.077-.95332h0a1.02063,1.02063,0,0,0-1.07695.95277l-.00063,1.76408-1.595.81511a3.93609,3.93609,0,0,0-1.53828-.78866V97.60459l1.72643-.8826a.8952.8952,0,0,0,.39363-1.30148,1.15556,1.15556,0,0,0-1.4709-.34926l-.64916.332V93.25913a1.08488,1.08488,0,0,0-2.15362,0v2.14411l-.64976-.332a1.15585,1.15585,0,0,0-1.47092.34926.896.896,0,0,0,.39394,1.30148l1.72674.8826v1.62749a3.93316,3.93316,0,0,0-1.53859.78921l-1.595-.81566V97.44155a1.08488,1.08488,0,0,0-2.15362,0v.664l-2.09779-1.07206a1.15475,1.15475,0,0,0-1.47093.34871.89577.89577,0,0,0,.394,1.302l2.0978,1.07205-.65007.33144a.89692.89692,0,0,0-.394,1.30255,1.11012,1.11012,0,0,0,.93395.47665,1.17672,1.17672,0,0,0,.537-.12794l1.72673-.882,1.59439.81458a2.88393,2.88393,0,0,0,0,1.57407l-1.59439.814-1.72583-.882a1.15529,1.15529,0,0,0-1.47089.34871.89526.89526,0,0,0,.39394,1.302l.64979.332-2.09842,1.07261a.89557.89557,0,0,0-.394,1.302,1.10777,1.10777,0,0,0,.93336.47668,1.17785,1.17785,0,0,0,.53757-.12794l2.09689-1.07206v.6634a1.085,1.085,0,0,0,2.1539,0l.00062-1.76408,1.595-.81563a3.93445,3.93445,0,0,0,1.538.78918v1.62807l-1.72615.882a.89533.89533,0,0,0-.39394,1.302,1.15474,1.15474,0,0,0,1.47092.34871l.64976-.332v2.14467a1.08481,1.08481,0,0,0,2.15362,0V109.5138l.64885.332a1.17772,1.17772,0,0,0,.53757.12793,1.10767,1.10767,0,0,0,.933-.47665.8959.8959,0,0,0-.393-1.302l-1.72674-.88257V105.6844a3.92418,3.92418,0,0,0,1.53859-.78866l1.595.81458v1.76461a1.08481,1.08481,0,0,0,2.15362,0V106.811l2.09842,1.07261a1.17708,1.17708,0,0,0,.53695.12794,1.1102,1.1102,0,0,0,.934-.47668A.89625.89625,0,0,0,43.35926,106.23285Zm-9.53863-2.3147a1.47051,1.47051,0,1,1,1.649-1.45962A1.56446,1.56446,0,0,1,33.82063,103.91815Z"/>
      </g>
    </g>
  </g>
</svg>
