<svg xmlns="http://www.w3.org/2000/svg" xmlns:xlink="http://www.w3.org/1999/xlink" width="121.3554" height="99.95427" viewBox="0 0 121.3554 99.95427">
  <defs>
    <style>
      .cls-1 {
        isolation: isolate;
      }

      .cls-2 {
        fill: url(#radial-gradient);
      }

      .cls-3 {
        fill: #acadb2;
      }

      .cls-11, .cls-13, .cls-15, .cls-16, .cls-17, .cls-19, .cls-20, .cls-21, .cls-23, .cls-24, .cls-25, .cls-4, .cls-5, .cls-7, .cls-9 {
        mix-blend-mode: overlay;
      }

      .cls-4 {
        fill: url(#radial-gradient-2);
      }

      .cls-16, .cls-20, .cls-24, .cls-5 {
        opacity: 0.4;
      }

      .cls-5 {
        fill: url(#Degradado_sin_nombre_34);
      }

      .cls-6 {
        fill: url(#radial-gradient-3);
      }

      .cls-7 {
        fill: url(#radial-gradient-4);
      }

      .cls-8 {
        fill: url(#radial-gradient-5);
      }

      .cls-9 {
        fill: url(#radial-gradient-6);
      }

      .cls-10 {
        fill: url(#radial-gradient-7);
      }

      .cls-11 {
        fill: url(#radial-gradient-8);
      }

      .cls-12 {
        fill: url(#radial-gradient-9);
      }

      .cls-13 {
        fill: url(#radial-gradient-10);
      }

      .cls-14 {
        fill: url(#radial-gradient-11);
      }

      .cls-15 {
        fill: url(#radial-gradient-12);
      }

      .cls-16 {
        fill: url(#radial-gradient-13);
      }

      .cls-17, .cls-21, .cls-25 {
        opacity: 0.2;
      }

      .cls-17 {
        fill: url(#Degradado_sin_nombre_34-2);
      }

      .cls-18 {
        fill: url(#radial-gradient-14);
      }

      .cls-19 {
        fill: url(#radial-gradient-15);
      }

      .cls-20 {
        fill: url(#radial-gradient-16);
      }

      .cls-21 {
        fill: url(#Degradado_sin_nombre_34-3);
      }

      .cls-22 {
        fill: url(#radial-gradient-17);
      }

      .cls-23 {
        fill: url(#radial-gradient-18);
      }

      .cls-24 {
        fill: url(#radial-gradient-19);
      }

      .cls-25 {
        fill: url(#Degradado_sin_nombre_34-4);
      }
    </style>
    <radialGradient id="radial-gradient" cx="-114.22658" cy="10.07181" r="51.25809" gradientTransform="matrix(-1, 0, 0, 1, -45.63768, 0)" gradientUnits="userSpaceOnUse">
      <stop offset="0" stop-color="#f8f8f8"/>
      <stop offset="0.15591" stop-color="#ede9f1"/>
      <stop offset="1" stop-color="#9b9da2"/>
    </radialGradient>
    <radialGradient id="radial-gradient-2" cx="1055.03573" cy="-1762.97341" r="7.69421" gradientTransform="matrix(-0.8392, 1.1536, -1.6186, -1.3126, -1895.17775, -3515.82086)" gradientUnits="userSpaceOnUse">
      <stop offset="0" stop-color="#fff"/>
      <stop offset="0.10256" stop-color="#fff" stop-opacity="0.84849"/>
      <stop offset="0.29029" stop-color="#fff" stop-opacity="0.59415"/>
      <stop offset="0.4694" stop-color="#fff" stop-opacity="0.38204"/>
      <stop offset="0.63471" stop-color="#fff" stop-opacity="0.21674"/>
      <stop offset="0.78337" stop-color="#fff" stop-opacity="0.09804"/>
      <stop offset="0.91014" stop-color="#fff" stop-opacity="0.02577"/>
      <stop offset="1" stop-color="#fff" stop-opacity="0"/>
    </radialGradient>
    <radialGradient id="Degradado_sin_nombre_34" data-name="Degradado sin nombre 34" cx="-2948.54442" cy="3110.75298" r="7.425" gradientTransform="matrix(-1.1717, -1.1007, 0.222, -0.7283, -4098.14844, -938.75906)" xlink:href="#radial-gradient-2"/>
    <radialGradient id="radial-gradient-3" cx="-278.95033" cy="28.93362" r="9.89087" gradientTransform="translate(284.16689 211.38037) rotate(30.00073)" gradientUnits="userSpaceOnUse">
      <stop offset="0" stop-color="#d0f2ff"/>
      <stop offset="0.198" stop-color="#d5f3ff"/>
      <stop offset="1" stop-color="#85bcf1"/>
    </radialGradient>
    <radialGradient id="radial-gradient-4" cx="1217.67321" cy="-1629.81076" r="1.54944" gradientTransform="matrix(-1.3036, 0.5794, -0.7454, -1.946, 401.14905, -3780.81359)" xlink:href="#radial-gradient-2"/>
    <radialGradient id="radial-gradient-5" cx="-264.0609" cy="20.33679" r="9.89131" xlink:href="#radial-gradient-3"/>
    <radialGradient id="radial-gradient-6" cx="1206.40349" cy="-1633.16625" r="1.54945" gradientTransform="matrix(-1.3036, 0.5794, -0.7454, -1.946, 401.14905, -3780.81359)" xlink:href="#radial-gradient-2"/>
    <radialGradient id="radial-gradient-7" cx="-249.17101" cy="11.74" r="9.89087" xlink:href="#radial-gradient-3"/>
    <radialGradient id="radial-gradient-8" cx="1195.13308" cy="-1636.52189" r="1.54945" gradientTransform="matrix(-1.3036, 0.5794, -0.7454, -1.946, 401.14905, -3780.81359)" xlink:href="#radial-gradient-2"/>
    <radialGradient id="radial-gradient-9" cx="-234.2813" cy="3.14317" r="9.89087" xlink:href="#radial-gradient-3"/>
    <radialGradient id="radial-gradient-10" cx="1183.86319" cy="-1639.87737" r="1.54952" gradientTransform="matrix(-1.3036, 0.5794, -0.7454, -1.946, 401.14905, -3780.81359)" xlink:href="#radial-gradient-2"/>
    <radialGradient id="radial-gradient-11" cx="36.71371" cy="27.80419" r="44.72725" gradientTransform="translate(73.42741 48.11481) rotate(180) scale(1 0.73049)" gradientUnits="userSpaceOnUse">
      <stop offset="0" stop-color="#fff"/>
      <stop offset="0.198" stop-color="#b4ecff"/>
      <stop offset="1" stop-color="#69acf1"/>
    </radialGradient>
    <radialGradient id="radial-gradient-12" cx="1080.55147" cy="-1752.0241" r="5.39616" xlink:href="#radial-gradient-2"/>
    <radialGradient id="radial-gradient-13" cx="1080.38991" cy="-1761.99242" r="4.24106" xlink:href="#radial-gradient-2"/>
    <radialGradient id="Degradado_sin_nombre_34-2" data-name="Degradado sin nombre 34" cx="6.96129" cy="51.83604" r="3.10111" gradientTransform="matrix(0.90102, -0.43378, 1.26276, 2.62292, -64.76768, -81.10593)" xlink:href="#radial-gradient-2"/>
    <radialGradient id="radial-gradient-14" cx="99.43019" cy="27.80419" r="44.72713" gradientTransform="translate(198.86038 48.11481) rotate(180) scale(1 0.73049)" xlink:href="#radial-gradient-11"/>
    <radialGradient id="radial-gradient-15" cx="1052.82205" cy="-1776.39455" r="5.39606" xlink:href="#radial-gradient-2"/>
    <radialGradient id="radial-gradient-16" cx="1052.66038" cy="-1786.36298" r="4.24105" xlink:href="#radial-gradient-2"/>
    <radialGradient id="Degradado_sin_nombre_34-3" data-name="Degradado sin nombre 34" cx="69.67783" cy="51.83604" r="3.10111" gradientTransform="matrix(0.90102, -0.43378, 1.26276, 2.62292, -58.55987, -53.90064)" xlink:href="#radial-gradient-2"/>
    <radialGradient id="radial-gradient-17" cx="69.6079" cy="45.56169" r="54.0182" gradientTransform="translate(139.21581 78.84396) rotate(180) scale(1 0.73049)" gradientUnits="userSpaceOnUse">
      <stop offset="0" stop-color="#fff"/>
      <stop offset="0.198" stop-color="#d5f3ff"/>
      <stop offset="1" stop-color="#85bcf1"/>
    </radialGradient>
    <radialGradient id="radial-gradient-18" cx="1076.24838" cy="-1769.74776" r="6.51702" xlink:href="#radial-gradient-2"/>
    <radialGradient id="radial-gradient-19" cx="1076.05185" cy="-1781.78713" r="5.12165" xlink:href="#radial-gradient-2"/>
    <radialGradient id="Degradado_sin_nombre_34-4" data-name="Degradado sin nombre 34" cx="33.67525" cy="74.58644" r="3.74527" gradientTransform="matrix(0.90102, -0.43378, 1.26276, 2.62292, -90.85187, -106.43992)" xlink:href="#radial-gradient-2"/>
  </defs>
  <g class="cls-1">
    <g id="Слой_2" data-name="Слой 2">
      <g id="OBJECTS">
        <g>
          <path class="cls-2" d="M35.41155,27.002A27.002,27.002,0,1,0,62.41345,0,27.00109,27.00109,0,0,0,35.41155,27.002Z"/>
          <g>
            <path class="cls-3" d="M43.54625,31.7793c2.5372-.2285,4.3497-3.1074,4.0508-6.4297-.2968-3.3222-2.5957-5.83-5.1347-5.6015-2.53518.2285-4.3496,3.1074-4.0508,6.4277C38.71035,29.4981,41.00917,32.0059,43.54625,31.7793Z"/>
            <path class="cls-3" d="M41.34705,34.1934c-1.5215.7988-1.9043,3.0605-.8593,5.0488,1.0449,1.9903,3.123,2.9551,4.6445,2.1582,1.5176-.7968,1.9023-3.0586.8574-5.0468C44.94665,34.3633,42.86665,33.3965,41.34705,34.1934Z"/>
            <path class="cls-3" d="M47.36855,31.795a2.17856,2.17856,0,0,0-.5078,2.9824,2.17987,2.17987,0,0,0,2.7441,1.2754,2.18192,2.18192,0,0,0,.5079-2.9825A2.18,2.18,0,0,0,47.36855,31.795Z"/>
            <path class="cls-3" d="M87.353,27.9786c-.46678-3.3028-2.8887-5.6915-5.4121-5.336-2.5215.3555-4.1875,3.3223-3.72068,6.625.46478,3.3027,2.88858,5.6914,5.41008,5.334C86.15175,34.2461,87.81975,31.2793,87.353,27.9786Z"/>
            <path class="cls-3" d="M84.01705,20.1192c1.4765-.875,1.746-3.1524.6015-5.086-1.1426-1.9336-3.2676-2.7929-4.7461-1.9199-1.4765.8711-1.7461,3.1504-.6015,5.084C80.41345,20.1328,82.53845,20.9922,84.01705,20.1192Z"/>
            <path class="cls-3" d="M78.478,19.8145a2.17923,2.17923,0,0,0-2.8047-1.1348,2.18015,2.18015,0,0,0-.3555,3.0039,2.178,2.178,0,0,0,2.8047,1.1348A2.17629,2.17629,0,0,0,78.478,19.8145Z"/>
          </g>
          <g>
            <path class="cls-4" d="M66.52875,24.2246c-6.875-5.582-9.5645-14.0742-5.9981-18.9746C64.09705.3477,72.56385.8965,79.44475,6.4727c6.875,5.5781,9.5566,14.0762,5.9941,18.9726C81.86855,30.3536,73.40375,29.8008,66.52875,24.2246Z"/>
            <path class="cls-5" d="M38.54825,32.9688c.9121-2.9863,5.541-1.7481,10.3477,2.7656,4.8046,4.5137,7.9609,10.5918,7.0527,13.5801-.9082,2.9844-5.5391,1.75-10.3477-2.7637C40.79825,42.0371,37.64205,35.9532,38.54825,32.9688Z"/>
          </g>
        </g>
        <g>
          <g>
            <path class="cls-6" d="M33.63223,97.89793a4.11114,4.11114,0,0,1-7.1206-4.1113c1.1352-1.9668,8.1562-5.9063,8.1562-5.9063S34.76753,95.93113,33.63223,97.89793Z"/>
            <path class="cls-7" d="M26.63173,97.21633c-.6372-1.666-.251-3.416.8652-3.9141,1.1153-.4961,2.5362.4531,3.1744,2.1192.6377,1.664.2495,3.4179-.8653,3.9121C28.69033,99.82963,27.26893,98.88033,26.63173,97.21633Z"/>
          </g>
          <g>
            <path class="cls-8" d="M50.82513,97.89793a4.11135,4.11135,0,0,1-7.1211-4.1113c1.1352-1.9668,8.1567-5.9063,8.1567-5.9063S51.96033,95.93113,50.82513,97.89793Z"/>
            <path class="cls-9" d="M43.82413,97.21633c-.6367-1.666-.2505-3.416.8652-3.9141,1.1153-.4961,2.5366.4531,3.1743,2.1192.6382,1.664.25,3.4179-.8647,3.9121C45.88273,99.82963,44.46183,98.88033,43.82413,97.21633Z"/>
          </g>
          <g>
            <path class="cls-10" d="M68.01793,97.89793a4.11114,4.11114,0,0,1-7.1206-4.1113c1.1353-1.9668,8.1563-5.9063,8.1563-5.9063S69.15323,95.93113,68.01793,97.89793Z"/>
            <path class="cls-11" d="M61.01753,97.21633c-.6373-1.666-.251-3.416.8652-3.9141,1.1152-.4961,2.5366.4531,3.1743,2.1192.6377,1.664.25,3.4179-.8647,3.9121C63.076,99.82963,61.65473,98.88033,61.01753,97.21633Z"/>
          </g>
          <g>
            <path class="cls-12" d="M85.21083,97.89793a4.11114,4.11114,0,0,1-7.1206-4.1113c1.1353-1.9668,8.1563-5.9063,8.1563-5.9063S86.34613,95.93113,85.21083,97.89793Z"/>
            <path class="cls-13" d="M78.20983,97.21633c-.6367-1.666-.2505-3.416.8658-3.9141,1.1152-.4961,2.5361.4531,3.1743,2.1192.6377,1.664.2495,3.4179-.8653,3.9121C80.26843,99.82963,78.84753,98.88033,78.20983,97.21633Z"/>
          </g>
        </g>
        <g>
          <g>
            <g>
              <path class="cls-14" d="M46.4702,35.0431a17.1913,17.1913,0,0,0-34.3013,0,12.8108,12.8108,0,0,0,.6421,25.6055H45.8281a12.8108,12.8108,0,0,0,.6421-25.6055Z"/>
              <path class="cls-15" d="M29.3213,36.6349c-4.8228-3.9121-6.7071-9.8692-4.2071-13.3067,2.50251-3.4375,8.43951-3.0507,13.2642.8575,4.82231,3.9121,6.7036,9.873,4.2051,13.3086C40.081,40.9337,34.1426,40.547,29.3213,36.6349Z"/>
              <path class="cls-16" d="M46.5615,48.2013c-3.79-3.0762-5.271-7.7578-3.3066-10.459,1.9663-2.7031,6.6333-2.3984,10.42481.6738,3.79,3.0743,5.26849,7.7578,3.30459,10.459C55.0171,51.5782,50.3506,51.2736,46.5615,48.2013Z"/>
              <path class="cls-17" d="M9.1596,48.629c-2.7968-4.3613-6.04589-6.4629-7.2622-4.6933-1.2124,1.7675.07031,6.7422,2.8648,11.1054,2.7988,4.3633,6.0488,6.4649,7.2622,4.6953C13.2378,57.963,11.9565,52.9943,9.1596,48.629Z"/>
            </g>
            <g>
              <path class="cls-18" d="M109.1865,35.0431a17.191,17.191,0,0,0-34.30079,0,12.8108,12.8108,0,0,0,.64159,25.6055h33.0176a12.8108,12.8108,0,0,0,.6416-25.6055Z"/>
              <path class="cls-19" d="M92.0381,36.6349c-4.8233-3.9121-6.7071-9.8692-4.2071-13.3067,2.502-3.4375,8.4395-3.0507,13.26371.8575,4.82229,3.9121,6.70409,9.873,4.20509,13.3086C102.7978,40.9337,96.8593,40.547,92.0381,36.6349Z"/>
              <path class="cls-20" d="M109.2783,48.2013c-3.79-3.0762-5.2715-7.7578-3.30659-10.459,1.96579-2.7031,6.63279-2.3984,10.42479.6738,3.79,3.0743,5.2685,7.7578,3.3046,10.459C117.7334,51.5782,113.0674,51.2736,109.2783,48.2013Z"/>
              <path class="cls-21" d="M71.876,48.629c-2.7969-4.3613-6.0459-6.4629-7.2618-4.6933-1.2129,1.7675.0703,6.7422,2.8643,11.1054,2.7988,4.3633,6.0488,6.4649,7.2627,4.6953C75.9541,57.963,74.6728,52.9943,71.876,48.629Z"/>
            </g>
          </g>
          <g>
            <path class="cls-22" d="M81.3926,54.3048a20.763,20.763,0,0,0-41.4278,0,15.4716,15.4716,0,0,0,.7754,30.9238h39.876a15.47165,15.47165,0,0,0,.7764-30.9238Z"/>
            <path class="cls-23" d="M60.67971,56.2286C54.855,51.5021,52.5801,44.3068,55.5996,40.1564c3.0229-4.1524,10.1933-3.6856,16.0195,1.0371,5.8242,4.7246,8.0957,11.9219,5.0781,16.0703C73.6748,61.4181,66.5039,60.9513,60.67971,56.2286Z"/>
            <path class="cls-24" d="M81.5029,70.1954c-4.5791-3.7148-6.36719-9.3691-3.99319-12.6308,2.37409-3.2637,8.00979-2.8965,12.58989.8144,4.57711,3.7129,6.3613,9.3692,3.9912,12.6289C91.7138,74.2736,86.0781,73.9064,81.5029,70.1954Z"/>
            <path class="cls-25" d="M36.3301,70.713c-3.3775-5.2676-7.3013-7.8047-8.7706-5.668-1.4643,2.1348.0845,8.1407,3.4595,13.4122,3.3804,5.2695,7.3062,7.8085,8.771,5.6699C41.2558,81.9845,39.708,75.9864,36.3301,70.713Z"/>
          </g>
        </g>
      </g>
    </g>
  </g>
</svg>
