<svg xmlns="http://www.w3.org/2000/svg" xmlns:xlink="http://www.w3.org/1999/xlink" width="100.68065" height="77.48803" viewBox="0 0 100.68065 77.48803">
  <defs>
    <style>
      .cls-1 {
        isolation: isolate;
      }

      .cls-2 {
        fill: url(#radial-gradient);
      }

      .cls-3 {
        fill: #acadb2;
      }

      .cls-4, .cls-5, .cls-7, .cls-8, .cls-9 {
        mix-blend-mode: overlay;
      }

      .cls-4 {
        fill: url(#radial-gradient-2);
      }

      .cls-5, .cls-8 {
        opacity: 0.4;
      }

      .cls-5 {
        fill: url(#Degradado_sin_nombre_34);
      }

      .cls-6 {
        fill: url(#radial-gradient-3);
      }

      .cls-7 {
        fill: url(#radial-gradient-4);
      }

      .cls-8 {
        fill: url(#radial-gradient-5);
      }

      .cls-9 {
        opacity: 0.2;
        fill: url(#Degradado_sin_nombre_34-2);
      }
    </style>
    <radialGradient id="radial-gradient" cx="112.50621" cy="10.07181" r="51.25809" gradientTransform="matrix(-1, 0, 0, 1, 192.36031, 0)" gradientUnits="userSpaceOnUse">
      <stop offset="0" stop-color="#f8f8f8"/>
      <stop offset="0.15591" stop-color="#ede9f1"/>
      <stop offset="1" stop-color="#9b9da2"/>
    </radialGradient>
    <radialGradient id="radial-gradient-2" cx="1227.03731" cy="-1733.74202" r="7.69421" gradientTransform="matrix(-0.8392, 1.1536, -1.6186, -1.3126, -1692.25489, -3675.87276)" gradientUnits="userSpaceOnUse">
      <stop offset="0" stop-color="#fff"/>
      <stop offset="0.10256" stop-color="#fff" stop-opacity="0.84849"/>
      <stop offset="0.29029" stop-color="#fff" stop-opacity="0.59415"/>
      <stop offset="0.4694" stop-color="#fff" stop-opacity="0.38204"/>
      <stop offset="0.63471" stop-color="#fff" stop-opacity="0.21674"/>
      <stop offset="0.78337" stop-color="#fff" stop-opacity="0.09804"/>
      <stop offset="0.91014" stop-color="#fff" stop-opacity="0.02577"/>
      <stop offset="1" stop-color="#fff" stop-opacity="0"/>
    </radialGradient>
    <radialGradient id="Degradado_sin_nombre_34" data-name="Degradado sin nombre 34" cx="-2760.05837" cy="2982.3652" r="7.425" gradientTransform="matrix(-1.1717, -1.1007, 0.222, -0.7283, -3837.53204, -824.79729)" xlink:href="#radial-gradient-2"/>
    <radialGradient id="radial-gradient-3" cx="57.66926" cy="25.89769" r="70.25575" gradientTransform="translate(115.33853 44.81564) rotate(180) scale(1 0.73049)" gradientUnits="userSpaceOnUse">
      <stop offset="0" stop-color="#fff"/>
      <stop offset="0.198" stop-color="#d5f3ff"/>
      <stop offset="1" stop-color="#85bcf1"/>
    </radialGradient>
    <radialGradient id="radial-gradient-4" cx="1248.76325" cy="-1725.80403" r="8.47601" xlink:href="#radial-gradient-2"/>
    <radialGradient id="radial-gradient-5" cx="1248.50849" cy="-1741.46222" r="6.66155" xlink:href="#radial-gradient-2"/>
    <radialGradient id="Degradado_sin_nombre_34-2" data-name="Degradado sin nombre 34" cx="10.93454" cy="63.64647" r="4.87093" gradientTransform="matrix(0.90102, -0.43378, 1.26276, 2.62292, -79.2882, -98.54977)" xlink:href="#radial-gradient-2"/>
  </defs>
  <g class="cls-1">
    <g id="Слой_2" data-name="Слой 2">
      <g id="OBJECTS">
        <g>
          <path class="cls-2" d="M46.67675,27.002A27.002,27.002,0,1,0,73.67865,0,27.00109,27.00109,0,0,0,46.67675,27.002Z"/>
          <g>
            <path class="cls-3" d="M54.81145,31.7793c2.5372-.2285,4.3497-3.1074,4.0508-6.4297-.2968-3.3222-2.5957-5.83-5.1347-5.6015-2.53518.2285-4.3496,3.1074-4.0508,6.4277C49.97555,29.4981,52.27437,32.0059,54.81145,31.7793Z"/>
            <path class="cls-3" d="M52.61225,34.1934c-1.5215.7988-1.9043,3.0605-.8593,5.0488,1.0449,1.9903,3.123,2.9551,4.6445,2.1582,1.5176-.7968,1.9023-3.0586.8574-5.0468C56.21185,34.3633,54.13185,33.3965,52.61225,34.1934Z"/>
            <path class="cls-3" d="M58.63375,31.795a2.17856,2.17856,0,0,0-.5078,2.9824,1.90356,1.90356,0,1,0,3.252-1.7071A2.18,2.18,0,0,0,58.63375,31.795Z"/>
            <path class="cls-3" d="M98.61815,27.9786c-.46678-3.3028-2.8887-5.6915-5.4121-5.336-2.5215.3555-4.1875,3.3223-3.72068,6.625.46478,3.3027,2.88858,5.6914,5.41008,5.334C97.417,34.2461,99.085,31.2793,98.61815,27.9786Z"/>
            <path class="cls-3" d="M95.28225,20.1192c1.4765-.875,1.746-3.1524.6015-5.086-1.1426-1.9336-3.2676-2.7929-4.7461-1.9199-1.4765.8711-1.7461,3.1504-.6015,5.084C91.67865,20.1328,93.80365,20.9922,95.28225,20.1192Z"/>
            <path class="cls-3" d="M89.74315,19.8145a2.17923,2.17923,0,0,0-2.8047-1.1348,2.18015,2.18015,0,0,0-.3555,3.0039,2.178,2.178,0,0,0,2.8047,1.1348A2.17629,2.17629,0,0,0,89.74315,19.8145Z"/>
          </g>
          <g>
            <path class="cls-4" d="M77.794,24.2246c-6.875-5.582-9.5645-14.0742-5.9981-18.9746C75.36225.3477,83.82905.8965,90.71,6.4727c6.875,5.5781,9.5566,14.0762,5.9941,18.9726C93.13375,30.3536,84.669,29.8008,77.794,24.2246Z"/>
            <path class="cls-5" d="M49.81345,32.9688c.9121-2.9863,5.541-1.7481,10.3477,2.7656,4.8046,4.5137,7.9609,10.5918,7.0527,13.5801-.9082,2.9844-5.5391,1.75-10.3477-2.7637C52.06345,42.0371,48.90725,35.9532,49.81345,32.9688Z"/>
          </g>
        </g>
        <g>
          <path class="cls-6" d="M72.9951,37.26733a27.00444,27.00444,0,0,0-53.8809,0A20.123,20.123,0,0,0,20.1235,77.488H71.9858a20.123,20.123,0,0,0,1.0093-40.2207Z"/>
          <path class="cls-7" d="M46.0566,39.76923c-7.5752-6.1465-10.5347-15.5019-6.6074-20.9023,3.9297-5.4004,13.2563-4.793,20.8354,1.3476,7.5733,6.1446,10.5293,15.5059,6.6035,20.9024C62.9575,46.51923,53.6308,45.91183,46.0566,39.76923Z"/>
          <path class="cls-8" d="M73.1376,57.93523c-5.9531-4.8301-8.2793-12.1855-5.1933-16.4277,3.0889-4.2461,10.4189-3.7676,16.375,1.0586,5.9521,4.8301,8.2744,12.1875,5.1904,16.4277C86.4194,63.23993,79.0893,62.76333,73.1376,57.93523Z"/>
          <path class="cls-9" d="M14.3876,58.60913c-4.393-6.8536-9.496-10.1504-11.4072-7.3711-1.9043,2.7753.1099,10.5878,4.5,17.4433,4.396,6.8535,9.5015,10.1543,11.4072,7.3731C20.7934,73.26923,18.7807,65.46653,14.3876,58.60913Z"/>
        </g>
      </g>
    </g>
  </g>
</svg>
