<svg xmlns="http://www.w3.org/2000/svg" xmlns:xlink="http://www.w3.org/1999/xlink" width="121.37718" height="101.15032" viewBox="0 0 121.37718 101.15032">
  <defs>
    <style>
      .cls-1 {
        isolation: isolate;
      }

      .cls-2 {
        fill: url(#linear-gradient);
      }

      .cls-3 {
        fill: url(#radial-gradient);
      }

      .cls-4 {
        fill: #acadb2;
      }

      .cls-10, .cls-12, .cls-14, .cls-16, .cls-17, .cls-18, .cls-5, .cls-6, .cls-8, .cls-9 {
        mix-blend-mode: overlay;
      }

      .cls-5 {
        fill: url(#radial-gradient-2);
      }

      .cls-17, .cls-6, .cls-9 {
        opacity: 0.4;
      }

      .cls-6 {
        fill: url(#Degradado_sin_nombre_34);
      }

      .cls-7 {
        fill: url(#radial-gradient-3);
      }

      .cls-8 {
        fill: url(#radial-gradient-4);
      }

      .cls-9 {
        fill: url(#radial-gradient-5);
      }

      .cls-10, .cls-18 {
        opacity: 0.2;
      }

      .cls-10 {
        fill: url(#Degradado_sin_nombre_34-2);
      }

      .cls-11 {
        fill: url(#radial-gradient-6);
      }

      .cls-12 {
        fill: url(#radial-gradient-7);
      }

      .cls-13 {
        fill: url(#radial-gradient-8);
      }

      .cls-14 {
        fill: url(#radial-gradient-9);
      }

      .cls-15 {
        fill: url(#radial-gradient-10);
      }

      .cls-16 {
        fill: url(#radial-gradient-11);
      }

      .cls-17 {
        fill: url(#radial-gradient-12);
      }

      .cls-18 {
        fill: url(#Degradado_sin_nombre_34-3);
      }
    </style>
    <linearGradient id="linear-gradient" x1="24.66336" y1="100.62211" x2="32.14248" y2="77.07087" gradientUnits="userSpaceOnUse">
      <stop offset="0.15591" stop-color="#ffe036"/>
      <stop offset="1" stop-color="#fa761c"/>
    </linearGradient>
    <radialGradient id="radial-gradient" cx="-365.32845" cy="20.87548" r="51.25809" gradientTransform="matrix(-1, 0, 0, 1, -302.20334, 0)" gradientUnits="userSpaceOnUse">
      <stop offset="0" stop-color="#f8f8f8"/>
      <stop offset="0.15591" stop-color="#ede9f1"/>
      <stop offset="1" stop-color="#9b9da2"/>
    </radialGradient>
    <radialGradient id="radial-gradient-2" cx="994.91997" cy="-2088.02056" r="7.69421" gradientTransform="matrix(-0.8392, 1.1536, -1.6186, -1.3126, -2477.212, -3862.32452)" gradientUnits="userSpaceOnUse">
      <stop offset="0" stop-color="#fff"/>
      <stop offset="0.10256" stop-color="#fff" stop-opacity="0.84849"/>
      <stop offset="0.29029" stop-color="#fff" stop-opacity="0.59415"/>
      <stop offset="0.4694" stop-color="#fff" stop-opacity="0.38204"/>
      <stop offset="0.63471" stop-color="#fff" stop-opacity="0.21674"/>
      <stop offset="0.78337" stop-color="#fff" stop-opacity="0.09804"/>
      <stop offset="0.91014" stop-color="#fff" stop-opacity="0.02577"/>
      <stop offset="1" stop-color="#fff" stop-opacity="0"/>
    </radialGradient>
    <radialGradient id="Degradado_sin_nombre_34" data-name="Degradado sin nombre 34" cx="-3203.74354" cy="2780.3123" r="7.425" gradientTransform="matrix(-1.1717, -1.1007, 0.222, -0.7283, -4329.27119, -1449.51299)" xlink:href="#radial-gradient-2"/>
    <radialGradient id="radial-gradient-3" cx="70.82338" cy="47.64288" r="70.25724" gradientTransform="translate(143.92794 32.28672) rotate(180) scale(0.61981 0.48549)" gradientUnits="userSpaceOnUse">
      <stop offset="0" stop-color="#fff"/>
      <stop offset="0.198" stop-color="#d5f3ff"/>
      <stop offset="1" stop-color="#85bcf1"/>
    </radialGradient>
    <radialGradient id="radial-gradient-4" cx="1009.39912" cy="-2094.78776" r="8.47651" gradientTransform="matrix(-0.52014, 0.7667, -1.00322, -0.87237, -1479.26703, -2589.45316)" xlink:href="#radial-gradient-2"/>
    <radialGradient id="radial-gradient-5" cx="1009.14394" cy="-2110.44579" r="6.66123" gradientTransform="matrix(-0.52014, 0.7667, -1.00322, -0.87237, -1479.26703, -2589.45316)" xlink:href="#radial-gradient-2"/>
    <radialGradient id="Degradado_sin_nombre_34-2" data-name="Degradado sin nombre 34" cx="24.08876" cy="85.39186" r="4.87104" gradientTransform="matrix(0.55846, -0.2883, 0.78267, 1.74322, -9.22231, -107.66727)" xlink:href="#radial-gradient-2"/>
    <radialGradient id="radial-gradient-6" cx="-209.3369" cy="-60.81162" r="9.89131" gradientTransform="translate(160.0647 246.86929) rotate(30.00073)" gradientUnits="userSpaceOnUse">
      <stop offset="0" stop-color="#d0f2ff"/>
      <stop offset="0.198" stop-color="#d5f3ff"/>
      <stop offset="1" stop-color="#85bcf1"/>
    </radialGradient>
    <radialGradient id="radial-gradient-7" cx="1069.54244" cy="-1955.60851" r="1.54924" gradientTransform="matrix(-1.3036, 0.5794, -0.7454, -1.946, -53.74811, -4336.41374)" xlink:href="#radial-gradient-2"/>
    <radialGradient id="radial-gradient-8" cx="-179.65677" cy="-78.02349" r="10.10757" xlink:href="#radial-gradient-6"/>
    <radialGradient id="radial-gradient-9" cx="1047.02492" cy="-1962.27191" r="1.58318" gradientTransform="matrix(-1.3036, 0.5794, -0.7454, -1.946, -53.74811, -4336.41374)" xlink:href="#radial-gradient-2"/>
    <radialGradient id="radial-gradient-10" cx="-31.63351" cy="101.76603" r="71.79649" gradientTransform="translate(16.92032 94.53388) rotate(180) scale(0.61981 0.48549)" xlink:href="#radial-gradient-3"/>
    <radialGradient id="radial-gradient-11" cx="1084.30038" cy="-2070.26142" r="8.66222" gradientTransform="matrix(-0.52014, 0.7667, -1.00322, -0.87237, -1479.26703, -2589.45316)" xlink:href="#radial-gradient-2"/>
    <radialGradient id="radial-gradient-12" cx="1084.03962" cy="-2086.2625" r="6.80717" gradientTransform="matrix(-0.52014, 0.7667, -1.00322, -0.87237, -1479.26703, -2589.45316)" xlink:href="#radial-gradient-2"/>
    <radialGradient id="Degradado_sin_nombre_34-3" data-name="Degradado sin nombre 34" cx="-79.39204" cy="140.34205" r="4.97776" gradientTransform="matrix(0.55846, -0.2883, 0.78267, 1.74322, -58.57895, -196.7702)" xlink:href="#radial-gradient-2"/>
  </defs>
  <g class="cls-1">
    <g id="Слой_2" data-name="Слой 2">
      <g id="OBJECTS">
        <path class="cls-2" d="M33.21535,86.08845H30.46669l4.531-9.08176A5.546,5.546,0,0,0,35.447,75.707a5.21866,5.21866,0,0,0-3.89461-6.19023A5.06339,5.06339,0,0,0,25.54917,73.534l-3.0281,14.67164-.09479.45055a3.254,3.254,0,0,0-.06277.64227,3.11815,3.11815,0,0,0,3.06868,3.16429h3.353l-1.80947,7.782a.74568.74568,0,0,0,.27327.76536.69986.69986,0,0,0,.99583-.16247l7.20586-10.23932a2.90574,2.90574,0,0,0,.52681-1.6729A2.80562,2.80562,0,0,0,33.21535,86.08845Z"/>
        <g>
          <path class="cls-3" d="M29.94776,37.80568a27.002,27.002,0,1,0,27.0019-27.002A27.00109,27.00109,0,0,0,29.94776,37.80568Z"/>
          <g>
            <path class="cls-4" d="M38.08246,42.583c2.5372-.2285,4.3497-3.1074,4.0508-6.4297-.2968-3.3222-2.5957-5.83-5.1347-5.6015-2.53518.2285-4.3496,3.1074-4.0508,6.4277C33.24656,40.30178,35.54538,42.80958,38.08246,42.583Z"/>
            <path class="cls-4" d="M35.88326,44.99708c-1.5215.7988-1.9043,3.0605-.8593,5.0488,1.0449,1.9903,3.123,2.9551,4.6445,2.1582,1.5176-.7968,1.9023-3.0586.8574-5.0468C39.48286,45.167,37.40286,44.20018,35.88326,44.99708Z"/>
            <path class="cls-4" d="M41.90476,42.59868a2.49262,2.49262,0,0,0,2.2363,4.2578,2.49258,2.49258,0,0,0-2.2363-4.2578Z"/>
            <path class="cls-4" d="M81.88916,38.78228c-.46678-3.3028-2.8887-5.6915-5.4121-5.336-2.5215.3555-4.1875,3.3223-3.72068,6.625.46478,3.3027,2.88858,5.6914,5.41008,5.334C80.688,45.04978,82.356,42.083,81.88916,38.78228Z"/>
            <path class="cls-4" d="M78.55326,30.92288c1.4765-.875,1.746-3.1524.6015-5.086-1.1426-1.9336-3.2676-2.7929-4.7461-1.9199-1.4765.8711-1.7461,3.1504-.6015,5.084C74.94966,30.93648,77.07466,31.79588,78.55326,30.92288Z"/>
            <path class="cls-4" d="M73.01416,30.61818a2.17923,2.17923,0,0,0-2.8047-1.1348,2.18015,2.18015,0,0,0-.3555,3.0039,2.178,2.178,0,0,0,2.8047,1.1348A2.17629,2.17629,0,0,0,73.01416,30.61818Z"/>
          </g>
          <g>
            <path class="cls-5" d="M61.065,35.02828c-6.875-5.582-9.5645-14.0742-5.9981-18.9746,3.5664-4.9023,12.0332-4.3535,18.9141,1.2227,6.875,5.5781,9.5566,14.0762,5.9941,18.9726C76.40476,41.15728,67.94,40.60448,61.065,35.02828Z"/>
            <path class="cls-6" d="M33.08446,43.77248c.9121-2.9863,5.541-1.7481,10.3477,2.7656,4.8046,4.5137,7.9609,10.5918,7.0527,13.5801-.9082,2.9844-5.5391,1.75-10.3477-2.7637C35.33446,52.84078,32.17826,46.75688,33.08446,43.77248Z"/>
          </g>
        </g>
        <g>
          <path class="cls-7" d="M109.53063,16.71266C108.935,7.377,101.68978,0,92.832,0,83.97431,0,76.7291,7.377,76.1347,16.71266c-6.5988.35051-11.84778,6.1957-11.84778,13.35716,0,7.38729,5.58429,13.37531,12.47244,13.37531h32.14538c6.88814,0,12.47244-5.988,12.47244-13.37531C121.37718,22.90836,116.12819,17.06317,109.53063,16.71266Z"/>
          <path class="cls-8" d="M92.83325,18.37678c-4.6958-4.085-6.52982-10.30408-4.09533-13.89324,2.43567-3.58917,8.21609-3.18542,12.9143.89569,4.69339,4.08371,6.52617,10.3054,4.09292,13.89324C103.3083,22.8629,97.52782,22.45922,92.83325,18.37678Z"/>
          <path class="cls-9" d="M109.619,30.44885c-3.691-3.21014-5.1316-8.09736-3.21886-10.918,1.91391-2.82075,6.45712-2.50273,10.14815.70356,3.68979,3.21007,5.12917,8.1,3.21768,10.918C117.85083,33.97441,113.30756,33.65766,109.619,30.44885Z"/>
          <path class="cls-10" d="M73.20511,30.898c-2.72376-4.55491-5.88578-6.7474-7.07092-4.90025-1.1803,1.84457.06781,7.03685,2.78915,11.59309,2.725,4.55492,5.88943,6.74867,7.07091,4.90151C77.17456,40.64,75.92769,35.45417,73.20511,30.898Z"/>
        </g>
        <g>
          <path class="cls-11" d="M14.68817,90.47425a4.11135,4.11135,0,0,1-7.1211-4.1113c1.1352-1.9668,8.1567-5.9062,8.1567-5.9062S15.82337,88.50745,14.68817,90.47425Z"/>
          <path class="cls-12" d="M7.68717,89.79075c-.6367-1.6641-.2505-3.4161.8652-3.9122,1.1153-.4961,2.5366.4512,3.1743,2.1172.6382,1.666.25,3.418-.8647,3.9121C9.74577,92.404,8.32487,91.45675,7.68717,89.79075Z"/>
        </g>
        <g>
          <path class="cls-13" d="M49.11742,90.42921a4.2012,4.2012,0,0,1-7.2766-4.20137c1.16017-2.00989,8.335-6.0356,8.335-6.0356S50.2776,88.41932,49.11742,90.42921Z"/>
          <path class="cls-14" d="M41.96366,89.73074c-.65127-1.70056-.2565-3.49094.88415-3.99791,1.13963-.507,2.59217.46108,3.24384,2.16358s.25548,3.49289-.88364,3.99781C44.06725,92.40119,42.61481,91.43324,41.96366,89.73074Z"/>
        </g>
        <g>
          <path class="cls-15" d="M46.23494,52.84907c-.60868-9.5402-8.01263-17.07881-17.06446-17.07881-9.05176,0-16.4557,7.53861-17.06313,17.07881C5.364,53.20727,0,59.18052,0,66.49888,0,74.048,5.70664,80.16722,12.74569,80.16722H45.59535c7.039,0,12.74569-6.11921,12.74569-13.66834C58.341,59.18052,52.97706,53.20727,46.23494,52.84907Z"/>
          <path class="cls-16" d="M29.17175,54.54965c-4.79868-4.17453-6.67288-10.52982-4.18506-14.19762,2.489-3.66781,8.3961-3.25521,13.19724.91532,4.79622,4.17317,6.66915,10.53118,4.18259,14.19762C39.87629,59.13407,33.96917,58.72154,29.17175,54.54965Z"/>
          <path class="cls-17" d="M46.3252,66.88621c-3.77183-3.28047-5.244-8.27477-3.28938-11.15724,1.95584-2.88255,6.59859-2.55756,10.37048.719,3.77063,3.2804,5.24155,8.27741,3.28818,11.15724C54.73744,70.489,50.09463,70.16532,46.3252,66.88621Z"/>
          <path class="cls-18" d="M9.11358,67.34519C6.33015,62.69048,3.09885,60.45,1.88774,62.33759c-1.20616,1.885.0693,7.191,2.85026,11.84707,2.78469,4.65471,6.01846,6.89652,7.22583,5.0089C13.17,77.30064,11.8958,72.00119,9.11358,67.34519Z"/>
        </g>
      </g>
    </g>
  </g>
</svg>
