<svg xmlns="http://www.w3.org/2000/svg" xmlns:xlink="http://www.w3.org/1999/xlink" width="103.98628" height="91.52768" viewBox="0 0 103.98628 91.52768">
  <defs>
    <style>
      .cls-1 {
        isolation: isolate;
      }

      .cls-2 {
        fill: url(#radial-gradient);
      }

      .cls-11, .cls-12, .cls-13, .cls-3, .cls-5, .cls-8, .cls-9 {
        mix-blend-mode: overlay;
      }

      .cls-3 {
        fill: url(#radial-gradient-2);
      }

      .cls-4 {
        fill: url(#radial-gradient-3);
      }

      .cls-5 {
        fill: url(#radial-gradient-4);
      }

      .cls-6 {
        fill: url(#radial-gradient-5);
      }

      .cls-7 {
        fill: #acadb2;
      }

      .cls-8 {
        fill: url(#radial-gradient-6);
      }

      .cls-12, .cls-9 {
        opacity: 0.4;
      }

      .cls-9 {
        fill: url(#Degradado_sin_nombre_34);
      }

      .cls-10 {
        fill: url(#radial-gradient-7);
      }

      .cls-11 {
        fill: url(#radial-gradient-8);
      }

      .cls-12 {
        fill: url(#radial-gradient-9);
      }

      .cls-13 {
        opacity: 0.2;
        fill: url(#Degradado_sin_nombre_34-2);
      }

      .cls-14 {
        fill: url(#radial-gradient-10);
      }
    </style>
    <radialGradient id="radial-gradient" cx="-253.07966" cy="-135.72021" r="9.89087" gradientTransform="translate(178.39881 330.90856) rotate(30.00073)" gradientUnits="userSpaceOnUse">
      <stop offset="0" stop-color="#d0f2ff"/>
      <stop offset="0.198" stop-color="#d5f3ff"/>
      <stop offset="1" stop-color="#85bcf1"/>
    </radialGradient>
    <radialGradient id="radial-gradient-2" cx="793.55238" cy="-1877.01803" r="1.54923" gradientTransform="matrix(-1.3036, 0.5794, -0.7454, -1.946, -337.03998, -4026.27123)" gradientUnits="userSpaceOnUse">
      <stop offset="0" stop-color="#fff"/>
      <stop offset="0.10256" stop-color="#fff" stop-opacity="0.84849"/>
      <stop offset="0.29029" stop-color="#fff" stop-opacity="0.59415"/>
      <stop offset="0.4694" stop-color="#fff" stop-opacity="0.38204"/>
      <stop offset="0.63471" stop-color="#fff" stop-opacity="0.21674"/>
      <stop offset="0.78337" stop-color="#fff" stop-opacity="0.09804"/>
      <stop offset="0.91014" stop-color="#fff" stop-opacity="0.02577"/>
      <stop offset="1" stop-color="#fff" stop-opacity="0"/>
    </radialGradient>
    <radialGradient id="radial-gradient-3" cx="-238.19023" cy="-144.31704" r="9.89131" xlink:href="#radial-gradient"/>
    <radialGradient id="radial-gradient-4" cx="782.28266" cy="-1880.37352" r="1.54924" xlink:href="#radial-gradient-2"/>
    <radialGradient id="radial-gradient-5" cx="-680.65683" cy="10.07181" r="51.25809" gradientTransform="matrix(-1, 0, 0, 1, -597.4971, 0)" gradientUnits="userSpaceOnUse">
      <stop offset="0" stop-color="#f8f8f8"/>
      <stop offset="0.15591" stop-color="#ede9f1"/>
      <stop offset="1" stop-color="#9b9da2"/>
    </radialGradient>
    <radialGradient id="radial-gradient-6" cx="725.67861" cy="-2052.33618" r="7.69421" gradientTransform="matrix(-0.8392, 1.1536, -1.6186, -1.3126, -2625.36599, -3515.69206)" xlink:href="#radial-gradient-2"/>
    <radialGradient id="Degradado_sin_nombre_34" data-name="Degradado sin nombre 34" cx="-3445.03974" cy="3117.59761" r="7.425" gradientTransform="matrix(-1.1717, -1.1007, 0.222, -0.7283, -4666.84067, -1480.26651)" xlink:href="#radial-gradient-2"/>
    <radialGradient id="radial-gradient-7" cx="57.66925" cy="22.90618" r="70.25724" gradientTransform="translate(115.33851 39.63887) rotate(180) scale(1 0.73049)" gradientUnits="userSpaceOnUse">
      <stop offset="0" stop-color="#fff"/>
      <stop offset="0.198" stop-color="#d5f3ff"/>
      <stop offset="1" stop-color="#85bcf1"/>
    </radialGradient>
    <radialGradient id="radial-gradient-8" cx="747.23533" cy="-2042.26831" r="8.47651" gradientTransform="matrix(-0.8392, 1.1536, -1.6186, -1.3126, -2625.36599, -3515.69206)" xlink:href="#radial-gradient-2"/>
    <radialGradient id="radial-gradient-9" cx="746.98015" cy="-2057.92634" r="6.66123" gradientTransform="matrix(-0.8392, 1.1536, -1.6186, -1.3126, -2625.36599, -3515.69206)" xlink:href="#radial-gradient-2"/>
    <radialGradient id="Degradado_sin_nombre_34-2" data-name="Degradado sin nombre 34" cx="10.93463" cy="60.65516" r="4.87104" gradientTransform="matrix(0.90102, -0.43378, 1.26276, 2.62292, -75.51086, -93.69507)" xlink:href="#radial-gradient-2"/>
    <radialGradient id="radial-gradient-10" cx="533.52334" cy="320.11649" r="62.65461" gradientTransform="translate(-47.65138 16.92762) scale(0.22191 0.2008)" gradientUnits="userSpaceOnUse">
      <stop offset="0" stop-color="#28cbe9"/>
      <stop offset="1" stop-color="#0a4fbb"/>
    </radialGradient>
  </defs>
  <g class="cls-1">
    <g id="Слой_2" data-name="Слой 2">
      <g id="OBJECTS">
        <g>
          <g>
            <path class="cls-2" d="M32.5951,87.77117a4.11114,4.11114,0,0,1-7.1206-4.1113c1.1352-1.9668,8.1562-5.9062,8.1562-5.9062S33.7304,85.80437,32.5951,87.77117Z"/>
            <path class="cls-3" d="M25.5946,87.08767c-.6372-1.6641-.251-3.4161.8652-3.9122,1.1153-.4961,2.5362.4512,3.1744,2.1172.6377,1.666.2495,3.418-.8653,3.9121C27.6532,89.70087,26.2318,88.75367,25.5946,87.08767Z"/>
          </g>
          <g>
            <path class="cls-4" d="M49.788,87.77117a4.11135,4.11135,0,0,1-7.1211-4.1113c1.1352-1.9668,8.1567-5.9062,8.1567-5.9062S50.9232,85.80437,49.788,87.77117Z"/>
            <path class="cls-5" d="M42.787,87.08767c-.6367-1.6641-.2505-3.4161.8652-3.9122,1.1153-.4961,2.5366.4512,3.1743,2.1172.6382,1.666.25,3.418-.8647,3.9121C44.8456,89.70087,43.4247,88.75367,42.787,87.08767Z"/>
          </g>
        </g>
        <g>
          <g>
            <path class="cls-6" d="M49.98238,27.002A27.002,27.002,0,1,0,76.98428,0,27.00109,27.00109,0,0,0,49.98238,27.002Z"/>
            <g>
              <path class="cls-7" d="M58.11708,31.7793c2.5372-.2285,4.3497-3.1074,4.0508-6.4297-.2968-3.3222-2.5957-5.83-5.1347-5.6015-2.53518.2285-4.3496,3.1074-4.0508,6.4277C53.28118,29.4981,55.58,32.0059,58.11708,31.7793Z"/>
              <path class="cls-7" d="M55.91788,34.1934c-1.5215.7988-1.9043,3.0605-.8593,5.0488,1.0449,1.9903,3.123,2.9551,4.6445,2.1582,1.5176-.7968,1.9023-3.0586.8574-5.0468C59.51748,34.3633,57.43748,33.3965,55.91788,34.1934Z"/>
              <path class="cls-7" d="M61.93938,31.795a2.17856,2.17856,0,0,0-.5078,2.9824,1.90356,1.90356,0,1,0,3.252-1.7071A2.18,2.18,0,0,0,61.93938,31.795Z"/>
              <path class="cls-7" d="M101.92378,27.9786c-.46678-3.3028-2.8887-5.6915-5.4121-5.336-2.5215.3555-4.1875,3.3223-3.72068,6.625.46478,3.3027,2.88858,5.6914,5.41008,5.334C100.72258,34.2461,102.39058,31.2793,101.92378,27.9786Z"/>
              <path class="cls-7" d="M98.58788,20.1192c1.4765-.875,1.746-3.1524.6015-5.086-1.1426-1.9336-3.2676-2.7929-4.7461-1.9199-1.4765.8711-1.7461,3.1504-.6015,5.084C94.98428,20.1328,97.10928,20.9922,98.58788,20.1192Z"/>
              <path class="cls-7" d="M93.04878,19.8145a2.17923,2.17923,0,0,0-2.8047-1.1348,2.18015,2.18015,0,0,0-.3555,3.0039,2.178,2.178,0,0,0,2.8047,1.1348A2.17629,2.17629,0,0,0,93.04878,19.8145Z"/>
            </g>
            <g>
              <path class="cls-8" d="M81.09958,24.2246c-6.875-5.582-9.5645-14.0742-5.9981-18.9746C78.66788.3477,87.13468.8965,94.01558,6.4727c6.875,5.5781,9.5566,14.0762,5.9941,18.9726C96.43938,30.3536,87.97458,29.8008,81.09958,24.2246Z"/>
              <path class="cls-9" d="M53.11908,32.9688c.9121-2.9863,5.541-1.7481,10.3477,2.7656,4.8046,4.5137,7.9609,10.5918,7.0527,13.5801-.9082,2.9844-5.5391,1.75-10.3477-2.7637C55.36908,42.0371,52.21288,35.9532,53.11908,32.9688Z"/>
            </g>
          </g>
          <g>
            <path class="cls-10" d="M72.99608,34.2754a27.00444,27.00444,0,0,0-53.8809,0A20.124,20.124,0,0,0,20.123,74.4981H71.98628a20.12405,20.12405,0,0,0,1.0098-40.2227Z"/>
            <path class="cls-11" d="M46.05658,36.7793c-7.5762-6.1465-10.5352-15.5039-6.6074-20.9043,3.9297-5.4004,13.25582-4.7929,20.8359,1.3477,7.5723,6.1445,10.5293,15.5059,6.6035,20.9043C62.957,43.5293,53.63078,42.9219,46.05658,36.7793Z"/>
            <path class="cls-12" d="M73.13858,54.9434c-5.955-4.8301-8.2793-12.1836-5.1933-16.4277,3.0879-4.2442,10.4179-3.7657,16.373,1.0586,5.9531,4.83,8.2754,12.1875,5.1914,16.4277C86.41988,60.2481,79.08978,59.7715,73.13858,54.9434Z"/>
            <path class="cls-13" d="M14.38858,55.6192c-4.3945-6.8535-9.49609-10.1524-11.40819-7.3731-1.9043,2.7754.1094,10.5879,4.5,17.4434,4.3965,6.8535,9.502,10.1543,11.4082,7.375C20.79288,70.2774,18.78118,62.4746,14.38858,55.6192Z"/>
          </g>
        </g>
        <path class="cls-14" d="M72.84743,86.89349l-1.49118-.7789.46138-.2408a.658.658,0,0,0,.28065-.946.81131.81131,0,0,0-1.04543-.25374l-1.22724.64045-1.13253-.59143a2.14619,2.14619,0,0,0,0-1.14365l1.13253-.59183,1.22682.64085a.8219.8219,0,0,0,.38162.09336.78346.78346,0,0,0,.66356-.34671.65808.65808,0,0,0-.28-.946l-.4618-.24121,1.4916-.7789a.65814.65814,0,0,0,.28021-.946.80954.80954,0,0,0-1.04541-.25336l-1.4914.77891.00064-.482a.73181.73181,0,0,0-.76542-.69263h0a.73162.73162,0,0,0-.76541.69223l-.00045,1.2817-1.13361.59221a2.77624,2.77624,0,0,0-1.0933-.573V80.62464l1.227-.64125a.65721.65721,0,0,0,.27977-.94559.81033.81033,0,0,0-1.04541-.25376l-.46138.24121v-1.5578a.76917.76917,0,0,0-1.53063,0v1.5578l-.4618-.24121a.81053.81053,0,0,0-1.04543.25376.65777.65777,0,0,0,.28.94559l1.22724.64125v1.18245a2.77426,2.77426,0,0,0-1.09352.5734l-1.13361-.59261v-1.2817a.76918.76918,0,0,0-1.53064,0v.48242l-1.491-.77891a.80975.80975,0,0,0-1.04543.25336.65764.65764,0,0,0,.28.946l1.491.7789-.462.2408a.65849.65849,0,0,0-.28.94638.78384.78384,0,0,0,.66378.3463.8216.8216,0,0,0,.38162-.093l1.22724-.64085,1.13317.59183a2.14034,2.14034,0,0,0,0,1.14365l-1.13317.59143-1.2266-.64085a.81013.81013,0,0,0-1.0454.25335.65725.65725,0,0,0,.28.946l.46182.24119-1.49141.7793a.65749.65749,0,0,0-.28.946.78223.78223,0,0,0,.66337.34633.8223.8223,0,0,0,.38206-.093l1.49032-.7789v.482a.76924.76924,0,0,0,1.53083,0l.00045-1.2817,1.13361-.59259a2.77512,2.77512,0,0,0,1.0931.57338v1.18287l-1.22682.64085a.65731.65731,0,0,0-.28.946.80974.80974,0,0,0,1.04543.25336l.4618-.24121v1.5582a.76913.76913,0,0,0,1.53063,0v-1.5578l.46116.24121a.82222.82222,0,0,0,.38207.093.78214.78214,0,0,0,.66313-.34631.65774.65774,0,0,0-.27934-.946l-1.22724-.64123V86.495a2.76782,2.76782,0,0,0,1.09352-.573l1.13361.59183v1.28208a.76913.76913,0,0,0,1.53064,0v-.4824l1.4914.77931a.82179.82179,0,0,0,.38162.093.78392.78392,0,0,0,.66379-.34633A.658.658,0,0,0,72.84743,86.89349Zm-6.77936-1.68174a1.0658,1.0658,0,1,1,1.172-1.06048A1.12147,1.12147,0,0,1,66.06807,85.21175Z"/>
      </g>
    </g>
  </g>
</svg>
