<svg xmlns="http://www.w3.org/2000/svg" xmlns:xlink="http://www.w3.org/1999/xlink" width="103.98628" height="94.5733" viewBox="0 0 103.98628 94.5733">
  <defs>
    <style>
      .cls-1 {
        isolation: isolate;
      }

      .cls-2 {
        fill: url(#radial-gradient);
      }

      .cls-3 {
        fill: #acadb2;
      }

      .cls-4, .cls-5, .cls-7, .cls-8, .cls-9 {
        mix-blend-mode: overlay;
      }

      .cls-4 {
        fill: url(#radial-gradient-2);
      }

      .cls-5, .cls-8 {
        opacity: 0.4;
      }

      .cls-5 {
        fill: url(#Degradado_sin_nombre_34);
      }

      .cls-6 {
        fill: url(#radial-gradient-3);
      }

      .cls-7 {
        fill: url(#radial-gradient-4);
      }

      .cls-8 {
        fill: url(#radial-gradient-5);
      }

      .cls-9 {
        opacity: 0.2;
        fill: url(#Degradado_sin_nombre_34-2);
      }

      .cls-10 {
        fill: url(#radial-gradient-6);
      }
    </style>
    <radialGradient id="radial-gradient" cx="-680.65683" cy="10.07181" r="51.25809" gradientTransform="matrix(-1, 0, 0, 1, -597.4971, 0)" gradientUnits="userSpaceOnUse">
      <stop offset="0" stop-color="#f8f8f8"/>
      <stop offset="0.15591" stop-color="#ede9f1"/>
      <stop offset="1" stop-color="#9b9da2"/>
    </radialGradient>
    <radialGradient id="radial-gradient-2" cx="725.67861" cy="-2052.33618" r="7.69421" gradientTransform="matrix(-0.8392, 1.1536, -1.6186, -1.3126, -2625.36599, -3515.69206)" gradientUnits="userSpaceOnUse">
      <stop offset="0" stop-color="#fff"/>
      <stop offset="0.10256" stop-color="#fff" stop-opacity="0.84849"/>
      <stop offset="0.29029" stop-color="#fff" stop-opacity="0.59415"/>
      <stop offset="0.4694" stop-color="#fff" stop-opacity="0.38204"/>
      <stop offset="0.63471" stop-color="#fff" stop-opacity="0.21674"/>
      <stop offset="0.78337" stop-color="#fff" stop-opacity="0.09804"/>
      <stop offset="0.91014" stop-color="#fff" stop-opacity="0.02577"/>
      <stop offset="1" stop-color="#fff" stop-opacity="0"/>
    </radialGradient>
    <radialGradient id="Degradado_sin_nombre_34" data-name="Degradado sin nombre 34" cx="-3445.03974" cy="3117.59761" r="7.425" gradientTransform="matrix(-1.1717, -1.1007, 0.222, -0.7283, -4666.84067, -1480.26651)" xlink:href="#radial-gradient-2"/>
    <radialGradient id="radial-gradient-3" cx="57.66925" cy="22.90618" r="70.25724" gradientTransform="translate(115.33851 39.63887) rotate(180) scale(1 0.73049)" gradientUnits="userSpaceOnUse">
      <stop offset="0" stop-color="#fff"/>
      <stop offset="0.198" stop-color="#d5f3ff"/>
      <stop offset="1" stop-color="#85bcf1"/>
    </radialGradient>
    <radialGradient id="radial-gradient-4" cx="747.23533" cy="-2042.26831" r="8.47651" xlink:href="#radial-gradient-2"/>
    <radialGradient id="radial-gradient-5" cx="746.98015" cy="-2057.92634" r="6.66123" xlink:href="#radial-gradient-2"/>
    <radialGradient id="Degradado_sin_nombre_34-2" data-name="Degradado sin nombre 34" cx="10.93463" cy="60.65516" r="4.87104" gradientTransform="matrix(0.90102, -0.43378, 1.26276, 2.62292, -75.51086, -93.69507)" xlink:href="#radial-gradient-2"/>
    <radialGradient id="radial-gradient-6" cx="454.90357" cy="314.61989" r="62.65461" gradientTransform="translate(-80.74659 2.00782) scale(0.2911 0.2529)" gradientUnits="userSpaceOnUse">
      <stop offset="0" stop-color="#28cbe9"/>
      <stop offset="1" stop-color="#0a4fbb"/>
    </radialGradient>
  </defs>
  <g class="cls-1">
    <g id="Слой_2" data-name="Слой 2">
      <g id="OBJECTS">
        <g>
          <g>
            <path class="cls-2" d="M49.98238,27.002A27.002,27.002,0,1,0,76.98428,0,27.00109,27.00109,0,0,0,49.98238,27.002Z"/>
            <g>
              <path class="cls-3" d="M58.11708,31.7793c2.5372-.2285,4.3497-3.1074,4.0508-6.4297-.2968-3.3222-2.5957-5.83-5.1347-5.6015-2.53518.2285-4.3496,3.1074-4.0508,6.4277C53.28118,29.4981,55.58,32.0059,58.11708,31.7793Z"/>
              <path class="cls-3" d="M55.91788,34.1934c-1.5215.7988-1.9043,3.0605-.8593,5.0488,1.0449,1.9903,3.123,2.9551,4.6445,2.1582,1.5176-.7968,1.9023-3.0586.8574-5.0468C59.51748,34.3633,57.43748,33.3965,55.91788,34.1934Z"/>
              <path class="cls-3" d="M61.93938,31.795a2.17856,2.17856,0,0,0-.5078,2.9824,1.90356,1.90356,0,1,0,3.252-1.7071A2.18,2.18,0,0,0,61.93938,31.795Z"/>
              <path class="cls-3" d="M101.92378,27.9786c-.46678-3.3028-2.8887-5.6915-5.4121-5.336-2.5215.3555-4.1875,3.3223-3.72068,6.625.46478,3.3027,2.88858,5.6914,5.41008,5.334C100.72258,34.2461,102.39058,31.2793,101.92378,27.9786Z"/>
              <path class="cls-3" d="M98.58788,20.1192c1.4765-.875,1.746-3.1524.6015-5.086-1.1426-1.9336-3.2676-2.7929-4.7461-1.9199-1.4765.8711-1.7461,3.1504-.6015,5.084C94.98428,20.1328,97.10928,20.9922,98.58788,20.1192Z"/>
              <path class="cls-3" d="M93.04878,19.8145a2.17923,2.17923,0,0,0-2.8047-1.1348,2.18015,2.18015,0,0,0-.3555,3.0039,2.178,2.178,0,0,0,2.8047,1.1348A2.17629,2.17629,0,0,0,93.04878,19.8145Z"/>
            </g>
            <g>
              <path class="cls-4" d="M81.09958,24.2246c-6.875-5.582-9.5645-14.0742-5.9981-18.9746C78.66788.3477,87.13468.8965,94.01558,6.4727c6.875,5.5781,9.5566,14.0762,5.9941,18.9726C96.43938,30.3536,87.97458,29.8008,81.09958,24.2246Z"/>
              <path class="cls-5" d="M53.11908,32.9688c.9121-2.9863,5.541-1.7481,10.3477,2.7656,4.8046,4.5137,7.9609,10.5918,7.0527,13.5801-.9082,2.9844-5.5391,1.75-10.3477-2.7637C55.36908,42.0371,52.21288,35.9532,53.11908,32.9688Z"/>
            </g>
          </g>
          <g>
            <path class="cls-6" d="M72.99608,34.2754a27.00444,27.00444,0,0,0-53.8809,0A20.124,20.124,0,0,0,20.123,74.4981H71.98628a20.12405,20.12405,0,0,0,1.0098-40.2227Z"/>
            <path class="cls-7" d="M46.05658,36.7793c-7.5762-6.1465-10.5352-15.5039-6.6074-20.9043,3.9297-5.4004,13.25582-4.7929,20.8359,1.3477,7.5723,6.1445,10.5293,15.5059,6.6035,20.9043C62.957,43.5293,53.63078,42.9219,46.05658,36.7793Z"/>
            <path class="cls-8" d="M73.13858,54.9434c-5.955-4.8301-8.2793-12.1836-5.1933-16.4277,3.0879-4.2442,10.4179-3.7657,16.373,1.0586,5.9531,4.83,8.2754,12.1875,5.1914,16.4277C86.41988,60.2481,79.08978,59.7715,73.13858,54.9434Z"/>
            <path class="cls-9" d="M14.38858,55.6192c-4.3945-6.8535-9.49609-10.1524-11.40819-7.3731-1.9043,2.7754.1094,10.5879,4.5,17.4434,4.3965,6.8535,9.502,10.1543,11.4082,7.375C20.79288,70.2774,18.78118,62.4746,14.38858,55.6192Z"/>
          </g>
        </g>
        <path class="cls-10" d="M54.43457,88.73674l-1.95609-.981.60522-.30328a.8131.8131,0,0,0,.36816-1.19144,1.09132,1.09132,0,0,0-1.37137-.31957l-1.60986.80662L48.985,86.0032a2.59911,2.59911,0,0,0,0-1.44037l1.48562-.74539,1.60931.80712a1.1144,1.1144,0,0,0,.5006.11758,1.04051,1.04051,0,0,0,.87044-.43667.81322.81322,0,0,0-.36728-1.19141l-.60577-.30379,1.95664-.981a.81329.81329,0,0,0,.36757-1.19141,1.08887,1.08887,0,0,0-1.37133-.31909l-1.95639.981.00085-.60707a.94526.94526,0,0,0-1.00406-.87234h0a.945.945,0,0,0-1.004.87184l-.00059,1.61424-1.487.74586a3.695,3.695,0,0,0-1.43416-.72166V80.84139l1.60957-.80763a.81216.81216,0,0,0,.367-1.19093,1.08993,1.08993,0,0,0-1.37133-.31959l-.60523.30378V76.865a1.01393,1.01393,0,0,0-2.00785,0v1.962l-.60577-.30378a1.09023,1.09023,0,0,0-1.37137.31959.81285.81285,0,0,0,.36728,1.19093l1.60986.80763v1.48925a3.69219,3.69219,0,0,0-1.43444.72217l-1.487-.74637V80.6922a1.01393,1.01393,0,0,0-2.00785,0v.60757l-1.9558-.981a1.08918,1.08918,0,0,0-1.37137.31909.81269.81269,0,0,0,.36731,1.19141l1.95581.981-.60607.30329a.81371.81371,0,0,0-.36728,1.19191,1.04108,1.04108,0,0,0,.87073.43616,1.114,1.114,0,0,0,.5006-.11707l1.60986-.80712,1.48647.74539a2.592,2.592,0,0,0,0,1.44037l-1.48647.74488L39.003,85.941a1.08972,1.08972,0,0,0-1.37134.31909.81222.81222,0,0,0,.36728,1.19143l.60581.30376-1.95639.9815a.81251.81251,0,0,0-.36731,1.19141,1.03889,1.03889,0,0,0,.87018.43619,1.115,1.115,0,0,0,.50119-.11707l1.955-.981v.60705a1.014,1.014,0,0,0,2.00811,0l.00058-1.61424,1.487-.74635a3.69324,3.69324,0,0,0,1.43389.72215v1.48978l-1.60931.80712a.81231.81231,0,0,0-.36728,1.19141,1.08917,1.08917,0,0,0,1.37137.31909l.60577-.30379V93.701a1.01385,1.01385,0,0,0,2.00785,0V91.739l.60493.30379a1.115,1.115,0,0,0,.50119.11707,1.03881,1.03881,0,0,0,.86989-.43616.8128.8128,0,0,0-.36644-1.19144l-1.60986-.8076V88.23488a3.68377,3.68377,0,0,0,1.43445-.72167l1.487.74539v1.61472a1.01385,1.01385,0,0,0,2.00785,0v-.60755l1.95639.9815a1.11431,1.11431,0,0,0,.5006.11707,1.04113,1.04113,0,0,0,.87073-.43619A.81312.81312,0,0,0,54.43457,88.73674Zm-8.893-2.11808A1.34889,1.34889,0,1,1,47.079,85.283,1.44854,1.44854,0,0,1,45.54158,86.61866Z"/>
      </g>
    </g>
  </g>
</svg>
