<svg xmlns="http://www.w3.org/2000/svg" xmlns:xlink="http://www.w3.org/1999/xlink" width="94.9531" height="93.23904" viewBox="0 0 94.9531 93.23904">
  <defs>
    <style>
      .cls-1 {
        isolation: isolate;
      }

      .cls-2 {
        fill: url(#linear-gradient);
      }

      .cls-3 {
        fill: url(#radial-gradient);
      }

      .cls-4 {
        fill: #acadb2;
      }

      .cls-10, .cls-5, .cls-6, .cls-8, .cls-9 {
        mix-blend-mode: overlay;
      }

      .cls-5 {
        fill: url(#radial-gradient-2);
      }

      .cls-6, .cls-9 {
        opacity: 0.4;
      }

      .cls-6 {
        fill: url(#Degradado_sin_nombre_34);
      }

      .cls-7 {
        fill: url(#radial-gradient-3);
      }

      .cls-8 {
        opacity: 0.6;
        fill: url(#radial-gradient-4);
      }

      .cls-9 {
        fill: url(#radial-gradient-5);
      }

      .cls-10 {
        opacity: 0.2;
        fill: url(#Degradado_sin_nombre_34-2);
      }
    </style>
    <linearGradient id="linear-gradient" x1="38.17793" y1="92.53918" x2="48.70115" y2="59.40233" gradientUnits="userSpaceOnUse">
      <stop offset="0.15591" stop-color="#ffe036"/>
      <stop offset="1" stop-color="#fa761c"/>
    </linearGradient>
    <radialGradient id="radial-gradient" cx="-682.46605" cy="9.19701" r="46.80573" gradientTransform="matrix(-1, 0, 0, 1, -606.53027, 0)" gradientUnits="userSpaceOnUse">
      <stop offset="0" stop-color="#f8f8f8"/>
      <stop offset="0.15591" stop-color="#ede9f1"/>
      <stop offset="1" stop-color="#9b9da2"/>
    </radialGradient>
    <radialGradient id="radial-gradient-2" cx="786.3314" cy="-2202.57481" r="7.02583" gradientTransform="matrix(-0.8392, 1.1536, -1.6186, -1.3126, -2825.2478, -3784.19736)" gradientUnits="userSpaceOnUse">
      <stop offset="0" stop-color="#fff"/>
      <stop offset="0.10256" stop-color="#fff" stop-opacity="0.84849"/>
      <stop offset="0.29029" stop-color="#fff" stop-opacity="0.59415"/>
      <stop offset="0.4694" stop-color="#fff" stop-opacity="0.38204"/>
      <stop offset="0.63471" stop-color="#fff" stop-opacity="0.21674"/>
      <stop offset="0.78337" stop-color="#fff" stop-opacity="0.09804"/>
      <stop offset="0.91014" stop-color="#fff" stop-opacity="0.02577"/>
      <stop offset="1" stop-color="#fff" stop-opacity="0"/>
    </radialGradient>
    <radialGradient id="Degradado_sin_nombre_34" data-name="Degradado sin nombre 34" cx="-3472.20419" cy="2875.86065" r="6.77977" gradientTransform="matrix(-1.1717, -1.1007, 0.222, -0.7283, -4650.37377, -1689.79674)" xlink:href="#radial-gradient-2"/>
    <radialGradient id="radial-gradient-3" cx="52.65994" cy="20.91662" r="64.15476" gradientTransform="translate(105.31988 36.19596) rotate(180) scale(1 0.73049)" gradientUnits="userSpaceOnUse">
      <stop offset="0" stop-color="#b6ccd2"/>
      <stop offset="0.198" stop-color="#97b6be"/>
      <stop offset="1" stop-color="#5d87b4"/>
    </radialGradient>
    <radialGradient id="radial-gradient-4" cx="806.01593" cy="-2193.38142" r="7.74025" xlink:href="#radial-gradient-2"/>
    <radialGradient id="radial-gradient-5" cx="805.7827" cy="-2207.67924" r="6.08269" xlink:href="#radial-gradient-2"/>
    <radialGradient id="Degradado_sin_nombre_34-2" data-name="Degradado sin nombre 34" cx="9.9845" cy="55.38667" r="4.44792" gradientTransform="matrix(0.90102, -0.43378, 1.26276, 2.62292, -68.95205, -85.5569)" xlink:href="#radial-gradient-2"/>
  </defs>
  <g class="cls-1">
    <g id="Слой_2" data-name="Слой 2">
      <g id="OBJECTS">
        <path class="cls-2" d="M50.31541,72.0752H46.333l6.56541-12.7607a7.65734,7.65734,0,0,0,.65039-1.8262A7.33106,7.33106,0,1,0,39.208,54.4356L34.8193,75.0508l-.1357.6328a4.51624,4.51624,0,0,0-.0909.9024,4.44721,4.44721,0,0,0,4.4444,4.4463h4.85931l-2.622,10.9345a1.03154,1.03154,0,0,0,1.83789.8467L53.5527,78.4268a3.99965,3.99965,0,0,0-3.23729-6.3516Z"/>
        <g>
          <g>
            <path class="cls-3" d="M45.6406,24.6563A24.65625,24.65625,0,1,0,70.2968,0,24.65555,24.65555,0,0,0,45.6406,24.6563Z"/>
            <g>
              <path class="cls-4" d="M53.0683,29.0186c2.3174-.208,3.9717-2.8369,3.6992-5.8711-.2714-3.0332-2.37009-5.3232-4.6884-5.1143-2.3155.208-3.97169,2.837-3.6993,5.8692C48.6523,26.9356,50.7519,29.2256,53.0683,29.0186Z"/>
              <path class="cls-4" d="M51.0605,31.2237c-1.3896.7295-1.7392,2.7939-.78509,4.6103.95409,1.8174,2.85249,2.6983,4.24119,1.9707,1.3857-.7275,1.7373-2.7929.7832-4.6084C54.3476,31.3789,52.4482,30.4961,51.0605,31.2237Z"/>
              <path class="cls-4" d="M56.5586,29.0332a1.98868,1.98868,0,0,0-.4629,2.7237,1.73772,1.73772,0,1,0,2.96871-1.5586A1.99051,1.99051,0,0,0,56.5586,29.0332Z"/>
              <path class="cls-4" d="M93.0703,25.5489c-.4268-3.0166-2.6377-5.1973-4.9424-4.8731C85.8261,21,84.3047,23.71,84.73041,26.7256c.42479,3.0156,2.63769,5.1973,4.94049,4.8701C91.9736,31.2715,93.4961,28.5625,93.0703,25.5489Z"/>
              <path class="cls-4" d="M90.02441,18.3721c1.34759-.7998,1.59369-2.8789.54879-4.6445-1.043-1.7657-2.9834-2.5508-4.334-1.753-1.3476.795-1.5937,2.876-.54879,4.6426C86.73341,18.3838,88.6738,19.169,90.02441,18.3721Z"/>
              <path class="cls-4" d="M84.9658,18.0938a1.988,1.988,0,0,0-2.5606-1.0361,1.9892,1.9892,0,0,0-.3252,2.7421,1.988,1.988,0,0,0,2.5616,1.0362A1.98649,1.98649,0,0,0,84.9658,18.0938Z"/>
            </g>
            <g>
              <path class="cls-5" d="M74.0547,22.1202C67.7773,17.0235,65.3213,9.2686,68.5781,4.794,71.8339.3174,79.56541.8184,85.8486,5.9102c6.2783,5.0937,8.7266,12.8535,5.4736,17.3252C88.0625,27.7168,80.333,27.2119,74.0547,22.1202Z"/>
              <path class="cls-6" d="M48.5048,30.1055c.8331-2.7275,5.05961-1.5967,9.4483,2.5254,4.3877,4.1211,7.2695,9.6719,6.4404,12.4004-.82909,2.7246-5.0576,1.5976-9.4482-2.5235C50.5595,38.3858,47.6767,32.8301,48.5048,30.1055Z"/>
            </g>
          </g>
          <g>
            <path class="cls-7" d="M66.6552,31.2979a24.659,24.659,0,0,0-49.2011,0,18.37633,18.37633,0,0,0,.9209,36.7295H65.73341a18.37635,18.37635,0,0,0,.92179-36.7295Z"/>
            <path class="cls-8" d="M42.0556,33.585c-6.9179-5.6133-9.6201-14.1572-6.03319-19.0889C39.6103,9.5645,48.1269,10.1192,55.0478,15.7266c6.9151,5.6113,9.6152,14.1592,6.0303,19.0889C57.4882,39.7481,48.9716,39.1934,42.0556,33.585Z"/>
            <path class="cls-9" d="M66.7851,50.1709c-5.4375-4.4101-7.5596-11.125-4.7422-15.0009,2.8203-3.875,9.5137-3.4385,14.9512.9668,5.4356,4.4101,7.5566,11.1289,4.7402,15.0009C78.913,55.0147,72.2197,54.5801,66.7851,50.1709Z"/>
            <path class="cls-10" d="M13.1386,50.7881c-4.0127-6.2578-8.6718-9.2705-10.4179-6.7324-1.73829,2.5342.1006,9.668,4.1093,15.9277,4.0147,6.2588,8.6768,9.2725,10.418,6.7344C18.9863,64.1729,17.14941,57.0479,13.1386,50.7881Z"/>
          </g>
        </g>
      </g>
    </g>
  </g>
</svg>
